<svg xmlns="http://www.w3.org/2000/svg" width="800" height="453.367"><path fill="#FFF" d="M784 35.016h14.5v416.851H784zM1.5 1.5h797v32H1.5z"/><path fill="#7F7F7F" d="M794.15 43.064h-5.297l2.65-2.648 2.647 2.648zm-5.712 400.738h5.297l-2.648 2.65-2.649-2.65zM784.25 10.505a6.995 6.995 0 1 0 0 13.99 6.995 6.995 0 0 0 0-13.99zm-21.244 0a6.995 6.995 0 1 0 0 13.99 6.995 6.995 0 0 0 0-13.99zm-21.244 0a6.996 6.996 0 0 0 0 13.99 6.995 6.995 0 0 0 0-13.99z"/><path d="M800 0H0v453.367h800V0zM1.5 1.5h797v32H1.5v-32zm0 450.367V35h781v416.867H1.5zm782.5 0V35h14.5v416.867H784z"/></svg>