<svg id="Layer_1" xmlns="http://www.w3.org/2000/svg" width="800" height="453.367" viewBox="0 0 800 453.367">
  <path fill="#7F7F7F" d="M794.65 43.064h-5.296l2.65-2.648zM788.938 443.802h5.296l-2.648 2.65zM784.25 10.505c-3.863 0-6.995 3.132-6.995 6.995s3.132 6.995 6.995 6.995 6.995-3.132 6.995-6.995-3.132-6.995-6.995-6.995zM763.006 10.505c-3.863 0-6.995 3.132-6.995 6.995s3.133 6.995 6.996 6.995S770 21.363 770 17.5s-3.13-6.995-6.994-6.995zM741.762 10.505c-3.862 0-6.994 3.132-6.994 6.995s3.132 6.995 6.994 6.995c3.863 0 6.995-3.132 6.995-6.995s-3.132-6.995-6.995-6.995z"/>
  <path d="M800 0H0v453.367h800V0zM1.5 1.5h797v32H1.5v-32zm0 450.367V35h782v416.867H1.5zm783.5 0V35h13.5v416.867H785z"/>
</svg>