<?xml version="1.0" encoding="utf-8"?>
<!-- Generator: Adobe Illustrator 14.0.0, SVG Export Plug-In . SVG Version: 6.00 Build 43363)  -->
<!DOCTYPE svg PUBLIC "-//W3C//DTD SVG 1.1//EN" "http://www.w3.org/Graphics/SVG/1.1/DTD/svg11.dtd">
<svg version="1.1" id="Layer_1" xmlns="http://www.w3.org/2000/svg" xmlns:xlink="http://www.w3.org/1999/xlink" x="0px" y="0px"
	 width="800px" height="625.782px" viewBox="-400 924 800 625.782" enable-background="new -400 924 800 625.782"
	 xml:space="preserve">
<g id="PC">
	<g id="Base">
		<path fill="#BFBFBF" d="M-98.273,1548.678v-4.475l20.81-3.59l9.59-82.528H67.872l9.592,82.526l20.81,3.591v4.475L-98.273,1548.678
			z"/>
		<path fill="#7F7F7F" d="M-69.962,1466.493l1.105-9.513H68.855l1.104,9.511L-69.962,1466.493L-69.962,1466.493z"/>
		<path d="M67.297,1458.73l9.43,81.137l0.15,1.3l1.29,0.224l19.46,3.358v3.283H-97.63v-3.283l19.46-3.358l1.29-0.223l0.15-1.3
			l9.43-81.136H67.295 M68.854,1456.983H-68.859l-9.61,82.684l-20.912,3.608v6.507H99.374v-6.507l-20.91-3.61L68.854,1456.983
			L68.854,1456.983z"/>
	</g>
	<g id="Lower_Monitor">
		<path fill="#BFBFBF" d="M-385.507,1458.086c-7.658,0-13.89-6.326-13.89-14.104v-67.057h798.793v67.059
			c0,7.774-6.229,14.104-13.891,14.104h-771.013V1458.086z"/>
		<path d="M-398.25,1377.526l796.5,0.005v66.451c0,7.146-5.716,12.959-12.742,12.959h-771.015c-7.026,0-12.743-5.813-12.743-12.959
			V1377.526 M-400,1375.775v68.205c0,8.094,6.52,14.711,14.493,14.711h771.015c7.973,0,14.492-6.617,14.492-14.711v-68.199
			L-400,1375.775z"/>
	</g>
	<path id="Screen__x28_Stroke_x29_" fill="#7F7F7F" d="M370.41,953.589v394.354h-740.82V953.589H370.41 M371.014,952.985h-742.03
		v395.558h742.03l0.002-395.56L371.014,952.985z"/>
	<path id="Monitor_Upper_Frame" fill="#FFFFFF" d="M385.508,924h-771.015c-7.972,0-14.493,6.521-14.493,14.493v439.037h800V938.492
		C400,930.521,393.48,924,385.508,924z M371.014,1348.544h-742.03v-395.56h742.03l0.002,395.56H371.014z"/>
	<path id="Upper_Monitor__x28_Stroke_x29_" d="M385.508,925.75c7.026,0,12.742,5.716,12.742,12.743v437.287h-796.5V938.492
		c0-7.026,5.717-12.742,12.743-12.742H385.508 M385.508,924h-771.015c-7.972,0-14.493,6.521-14.493,14.493v439.037h800V938.492
		C400,930.521,393.48,924,385.508,924z"/>
	<circle id="Camera" fill="#444C50" cx="0.635" cy="938.637" r="3.623"/>
</g>
</svg>
