<?xml version="1.0" encoding="utf-8"?>
<!-- Generator: Adobe Illustrator 14.0.0, SVG Export Plug-In . SVG Version: 6.00 Build 43363)  -->
<!DOCTYPE svg PUBLIC "-//W3C//DTD SVG 1.1//EN" "http://www.w3.org/Graphics/SVG/1.1/DTD/svg11.dtd">
<svg version="1.1" id="Layer_1" xmlns="http://www.w3.org/2000/svg" xmlns:xlink="http://www.w3.org/1999/xlink" x="0px" y="0px"
	 width="800px" height="625.782px" viewBox="-1200 924 800 625.782" enable-background="new -1200 924 800 625.782"
	 xml:space="preserve">
<path fill="#FFFFFF" d="M-414.492,925.247h-771.015c-7.325,0-13.285,5.96-13.285,13.283v505.487c0,7.444,5.96,13.505,13.285,13.505
	h771.015c7.325,0,13.284-6.062,13.284-13.505V938.532C-401.208,931.207-407.168,925.247-414.492,925.247z"/>
<polygon fill="#FFFFFF" points="-723.083,1541.169 -723.188,1540.274 -732.665,1458.726 -732.665,1458.728 -867.335,1458.728 
	-876.813,1540.274 -876.917,1541.169 -877.807,1541.323 -897.67,1544.75 -897.67,1548.11 -702.33,1548.11 -702.33,1544.75 
	-722.193,1541.323 "/>
</svg>
