<svg id="Layer_1" xmlns="http://www.w3.org/2000/svg" width="200" height="379" viewBox="0 0 200 379">
  <g id="iPhone">
    <path id="Buttons_x2F_Stroke" d="M197.33 80.335V28.087C197.33 12.6 184.73 0 169.245 0H30.755C15.27 0 2.67 12.6 2.67 28.087V44.63C1.112 45.197 0 46.693 0 48.443v14.683c0 1.75 1.113 3.246 2.67 3.815v13.394C1.112 80.904 0 82.4 0 84.15v24.694c0 1.75 1.113 3.246 2.67 3.815v2.046c-1.557.57-2.67 2.065-2.67 3.815v24.695c0 1.75 1.113 3.246 2.67 3.815v203.362c0 15.488 12.6 28.09 28.085 28.09h138.49c15.486 0 28.085-12.602 28.085-28.09V112.66c1.557-.57 2.67-2.066 2.67-3.816V84.15c0-1.75-1.113-3.246-2.67-3.815zm-1.39 270.058c0 14.744-11.952 26.7-26.695 26.7H30.755c-14.744 0-26.695-11.956-26.695-26.7V28.087C4.06 13.344 16.012 1.39 30.755 1.39h138.49c14.743 0 26.695 11.954 26.695 26.697v322.306z"/>
    <path fill="#FFF" d="M169.245 1.39H30.755C16.012 1.39 4.06 13.345 4.06 28.088v322.306c0 14.744 11.952 26.7 26.695 26.7h138.49c14.743 0 26.695-11.956 26.695-26.7V28.087c0-14.743-11.952-26.696-26.695-26.696zM182.593 336.1H17.408V42.438h165.185v293.66z" id="Face"/>
    <path id="Camera__x28_Etc_x29_" fill-rule="evenodd" clip-rule="evenodd" fill="#7F7F7F" d="M113.516 22.414H86.15c-.736 0-1.334.597-1.334 1.334s.598 1.335 1.334 1.335h27.365c.736 0 1.337-.598 1.337-1.335s-.6-1.334-1.336-1.334zM99.834 14.07c1.105 0 2.002-.895 2.002-2 0-1.106-.896-2.003-2.002-2.003-1.107 0-2.004.896-2.004 2.003 0 1.105.897 2 2.004 2zm-29.202 7.343c-1.382 0-2.5 1.12-2.5 2.502 0 1.383 1.118 2.503 2.5 2.503s2.504-1.12 2.504-2.503c0-1.38-1.12-2.502-2.504-2.502z"/>
    <path id="Home_Button" fill="#7F7F7F" d="M99.834 343.104c-7.376 0-13.35 5.98-13.35 13.352 0 7.37 5.974 13.348 13.35 13.348 7.373 0 13.348-5.98 13.348-13.348 0-7.374-5.975-13.352-13.348-13.352zm0 26.003c-6.99 0-12.655-5.666-12.655-12.652 0-6.99 5.664-12.656 12.654-12.656 6.988 0 12.652 5.665 12.652 12.655 0 6.986-5.664 12.652-12.652 12.652z"/>
    <path fill="#7F7F7F" d="M181.897 43.132v292.27H18.103V43.132h163.794m.696-.695H17.408v293.66h165.185V42.438z" id="Screen__x28_Stroke_x29__1_"/>
  </g>
</svg>