<svg id="Layer_1" xmlns="http://www.w3.org/2000/svg" width="300" height="456" viewBox="0 0 300 456">
  <g id="Tablet">
    <path fill="#FFF" d="M283.02 0H16.98C7.604 0 0 7.603 0 16.98V438.68c0 9.38 7.603 16.98 16.98 16.98H283.02c9.38 0 16.98-7.602 16.98-16.98V16.98C300 7.604 292.4 0 283.02 0zm1.698 407.546H15.284V48.114h269.434v359.432z" id="Face_1_"/>
    <path d="M283.02 1.18c8.712 0 15.8 7.088 15.8 15.8V438.68c0 8.714-7.088 15.802-15.8 15.802H16.98c-8.712 0-15.8-7.088-15.8-15.802V16.98c0-8.712 7.088-15.8 15.8-15.8h266.04m0-1.18H16.98C7.604 0 0 7.603 0 16.98V438.68c0 9.38 7.603 16.98 16.98 16.98H283.02c9.38 0 16.98-7.602 16.98-16.98V16.98C300 7.604 292.4 0 283.02 0z" id="Stroke"/>
    <circle id="Camera_1_" fill-rule="evenodd" clip-rule="evenodd" fill="#7F7F7F" cx="150.001" cy="24.057" r="2.831"/>
    <path id="Home_Button_1_" fill="#7F7F7F" d="M150 416.32c-8.127 0-14.717 6.59-14.717 14.72s6.59 14.716 14.718 14.716 14.72-6.59 14.72-14.717-6.59-14.72-14.72-14.72zm0 28.847c-7.802 0-14.127-6.327-14.127-14.128s6.325-14.13 14.128-14.13c7.802 0 14.13 6.328 14.13 14.13S157.8 445.166 150 445.166z"/>
    <path fill="#7F7F7F" d="M284.128 48.704v358.252H15.874V48.704h268.254m.59-.59H15.284v359.432h269.434V48.114z" id="Screen"/>
  </g>
</svg>