<?xml version="1.0" standalone="no"?>
<!DOCTYPE svg PUBLIC "-//W3C//DTD SVG 1.1//EN" "http://www.w3.org/Graphics/SVG/1.1/DTD/svg11.dtd" >
<svg xmlns="http://www.w3.org/2000/svg">
<metadata></metadata>
<defs>
<font id="picadilly-lightuploaded_file" horiz-adv-x="1118" >
<font-face units-per-em="2048" ascent="1638" descent="-410" />
<missing-glyph horiz-adv-x="405" />
<glyph horiz-adv-x="0" />
<glyph unicode="&#xd;" horiz-adv-x="681" />
<glyph unicode=" "  horiz-adv-x="405" />
<glyph unicode="&#x09;" horiz-adv-x="405" />
<glyph unicode="&#xa0;" horiz-adv-x="405" />
<glyph unicode="!" horiz-adv-x="399" d="M88 100v23l98 100h25l100 -100v-23l-100 -100h-25zM119 1518l18 18h125l17 -18l-15 -1119l-18 -18h-94l-17 18z" />
<glyph unicode="&#x22;" horiz-adv-x="546" d="M47 1620l16 18h125l19 -18l-17 -377l-16 -18h-94l-19 18zM340 1620l18 18h125l17 -18l-15 -377l-18 -18h-94l-17 18z" />
<glyph unicode="#" horiz-adv-x="1390" d="M33 444v109l16 18h180l101 447h-172l-17 16v111l17 16h202l89 395l18 19h125l18 -19l-88 -395h484l88 395l18 19h125l16 -19l-88 -395h174l19 -16v-111l-19 -16h-204l-101 -447h199l16 -18v-109l-16 -16h-232l-90 -410l-16 -18h-125l-18 18l90 410h-484l-90 -410l-18 -18 h-125l-19 18l91 410h-148zM391 571h483l99 447h-484z" />
<glyph unicode="$" horiz-adv-x="1050" d="M104 59l29 142l21 20q145 -92 268 -98l39 614q-79 33 -129 62q-53 31 -106 73q-57 45 -85 114q-26 64 -26 157q0 162 106 278t293 133l10 168l19 19h94l16 -19l-10 -172q112 -17 219 -73v-144l-18 -18q-114 74 -211 92l-37 -561q78 -34 131 -65q51 -30 108 -81t84 -125 t27 -169q0 -174 -119 -287t-286 -135l-11 -170l-16 -19h-94l-19 19l11 166q-150 6 -308 79zM266 1157q0 -95 52 -151q55 -60 153 -105l33 508q-118 -15 -178 -85q-60 -71 -60 -167zM551 129q112 18 178 90t66 187q0 100 -55 164q-54 63 -154 112z" />
<glyph unicode="%" horiz-adv-x="1955" d="M109 1253q0 167 108 276t272 109t272 -109q107 -108 107 -276q0 -167 -107 -275q-108 -110 -272 -110t-272 110t-108 275zM260 1253q0 -109 68 -179q67 -68 161 -68q93 0 160 68q68 70 68 179q0 110 -68 180q-67 68 -160 68q-94 0 -161 -68q-68 -70 -68 -180zM481 18 l809 1602l19 18h125l16 -18l-809 -1602l-18 -18h-125zM1087 383q0 164 109 275q108 110 272 110t272 -110q107 -108 107 -275t-107 -275q-108 -110 -272 -110t-272 110q-109 111 -109 275zM1239 383q0 -109 68 -179q67 -69 161 -69q92 0 160 69q68 70 68 179q0 110 -68 180 t-160 70q-93 0 -161 -70t-68 -180z" />
<glyph unicode="&#x26;" horiz-adv-x="1325" d="M51 383q0 126 86 241q85 113 221 187q-141 215 -141 377q0 165 110 267q108 101 275 101q169 0 276 -97t107 -251q0 -127 -86 -245t-221 -181q-50 50 -78 97q225 113 225 329q0 91 -58 148q-59 57 -165 57q-103 0 -164 -61t-61 -164q0 -264 571 -811q115 188 115 422h160 q0 -293 -164 -529l295 -270h-224l-167 158q-184 -178 -443 -178q-212 0 -340 110q-129 111 -129 293zM219 391q0 -125 84 -192q85 -68 217 -68q197 0 332 129q-287 275 -422 453q-211 -123 -211 -322z" />
<glyph unicode="'" horiz-adv-x="251" d="M47 1620l16 18h125l19 -18l-17 -377l-16 -18h-94l-19 18z" />
<glyph unicode="(" horiz-adv-x="575" d="M150 768q0 518 239 954l27 17l102 -35l12 -23q-221 -415 -221 -913t221 -913l-12 -23l-102 -35l-27 17q-239 436 -239 954z" />
<glyph unicode=")" horiz-adv-x="575" d="M47 -145q219 415 219 913t-219 913l10 23l105 35l24 -17q242 -443 242 -954t-242 -954l-24 -17l-105 35z" />
<glyph unicode="*" horiz-adv-x="833" d="M0 1530l356 106l25 -67l-342 -148zM125 1929l96 62l195 -316l-60 -39zM358 1196l23 373h70l22 -373h-115zM418 1675l192 316l97 -62l-232 -293zM451 1569l24 67l359 -106l-39 -109z" />
<glyph unicode="+" horiz-adv-x="966" d="M61 641v109l19 16h332v334l16 16h109l18 -16v-334h332l18 -16v-109l-18 -18h-332v-332l-18 -17h-109l-16 17v332h-332z" />
<glyph unicode="," horiz-adv-x="405" d="M0 -184l199 381h22l117 -58v-24l-242 -375l-96 51v25z" />
<glyph unicode="-" horiz-adv-x="802" d="M61 559v109l19 16h643l18 -16v-109l-18 -18h-643z" />
<glyph unicode="." horiz-adv-x="380" d="M70 106v29l106 107h29l106 -107v-29l-106 -106h-29z" />
<glyph unicode="/" horiz-adv-x="727" d="M10 18l547 1538l18 19h125l17 -19l-547 -1538l-16 -18h-125z" />
<glyph unicode="0" horiz-adv-x="1255" d="M104 768q0 102 16 214q15 107 54 211q39 105 97 184q57 77 151 128q91 49 207 49t207 -49q93 -50 150 -128q58 -79 97 -184q40 -109 55 -211q15 -105 15 -214t-15 -214q-15 -102 -55 -211q-39 -105 -97 -184q-57 -78 -150 -128q-91 -49 -207 -49t-207 49q-94 51 -151 128 q-58 79 -97 184q-39 104 -54 211q-16 112 -16 214zM270 768q0 -96 16 -202q15 -98 51 -202t112 -168q77 -65 180 -65t180 65q76 64 112 168t51 202q15 99 15 202t-15 202q-15 98 -51 202t-112 168q-77 65 -180 65t-180 -65q-76 -64 -112 -168t-51 -202q-16 -106 -16 -202z " />
<glyph unicode="1" horiz-adv-x="591" d="M217 18v1334l137 204h21v-1538l-17 -18h-125z" />
<glyph unicode="2" horiz-adv-x="1024" d="M41 0q91 126 237 316q113 147 201 269q66 92 132 197q72 115 97 196t25 169q0 122 -65 193q-67 73 -203 73q-170 0 -318 -98l-18 18v144q151 79 336 79q209 0 318 -110q110 -112 110 -303q0 -99 -27 -191q-27 -90 -87 -193q-61 -103 -115 -178q-77 -106 -157 -212 q-92 -122 -165 -226h561l19 -16v-109l-19 -18h-862z" />
<glyph unicode="3" horiz-adv-x="1101" d="M123 59v152l18 16q150 -96 318 -96q144 0 241 83t97 208q0 143 -99 236q-100 94 -266 94q-67 0 -186 -25l463 666h-568l-18 16v109l18 18h838l-440 -653q189 -22 308 -146q118 -122 118 -315q0 -199 -142 -321q-140 -121 -364 -121q-185 0 -336 79z" />
<glyph unicode="4" horiz-adv-x="1183" d="M41 547l727 989h121l18 -18v-938h176l19 -17v-108l-19 -19h-176v-418l-18 -18h-123l-18 18v418h-609v2zM246 580h502v696z" />
<glyph unicode="5" horiz-adv-x="1085" d="M123 59v152l18 16q150 -96 318 -96q144 0 241 83t97 208q0 142 -89 236t-239 94q-193 0 -330 -74l84 858h682l17 -18v-109l-17 -16h-538l-56 -531q81 25 189 25q203 0 333 -127t130 -338q0 -199 -142 -321q-140 -121 -362 -121q-185 0 -336 79z" />
<glyph unicode="6" horiz-adv-x="1161" d="M102 526q0 639 596 1010h238v-20q-525 -268 -637 -721q149 94 317 94q199 0 321 -122t122 -325q0 -211 -129 -337q-128 -125 -350 -125q-129 0 -223 49q-96 50 -149 130q-55 82 -80 174q-26 95 -26 193zM270 541q0 -67 15 -133q15 -68 46 -132q30 -64 96 -105 q64 -40 153 -40q145 0 229 86q84 85 84 225q0 136 -78 224t-215 88q-153 0 -326 -117q-4 -61 -4 -96z" />
<glyph unicode="7" horiz-adv-x="999" d="M61 1409l19 -18h665l-587 -1391h176l641 1536h-895l-19 -18v-109z" />
<glyph unicode="8" horiz-adv-x="1181" d="M102 403q0 131 93 247q90 113 243 173q-137 53 -205 148q-67 94 -67 211q0 165 122 270q120 104 302 104q181 0 303 -103q123 -103 123 -271q0 -116 -68 -211t-205 -148q154 -61 244 -173q92 -115 92 -247q0 -184 -138 -304q-137 -119 -351 -119q-212 0 -349 119 q-139 121 -139 304zM270 412q0 -129 88 -205t232 -76q145 0 233 76t88 205q0 231 -338 348q-303 -108 -303 -348zM326 1182q0 -101 78 -180q78 -80 204 -113q116 30 183 110q65 78 65 183q0 96 -69 164q-68 67 -197 67q-130 0 -197 -67t-67 -164z" />
<glyph unicode="9" horiz-adv-x="1161" d="M102 1094q0 211 129 337q128 125 351 125q128 0 222 -49q96 -50 149 -130q55 -82 80 -174q26 -95 26 -193q0 -640 -594 -1010h-238v20q527 270 635 721q-146 -94 -315 -94q-198 0 -322 122q-123 121 -123 325zM270 1094q0 -135 77 -224q76 -88 214 -88q155 0 328 119 q4 59 4 94q0 71 -14 133q-15 68 -46 132q-30 63 -97 105q-64 40 -154 40q-144 0 -228 -86q-84 -85 -84 -225z" />
<glyph unicode=":" horiz-adv-x="380" d="M70 106v29l106 107h29l106 -107v-29l-106 -106h-29zM70 817v27l106 108h29l106 -108v-27l-106 -106h-29z" />
<glyph unicode=";" horiz-adv-x="380" d="M-27 -184l197 381h25l116 -58v-24l-243 -375l-95 51v25zM70 817v27l106 108h29l106 -108v-27l-106 -106h-29z" />
<glyph unicode="&#x3c;" horiz-adv-x="933" d="M41 653v56l721 360h24l60 -104l-576 -283l576 -285l-60 -104h-24z" />
<glyph unicode="=" horiz-adv-x="966" d="M61 436v109l19 16h807l18 -16v-109l-18 -18h-807zM61 846v108l19 17h807l18 -17v-108l-18 -19h-807z" />
<glyph unicode="&#x3e;" horiz-adv-x="940" d="M94 397l576 285l-576 283l60 104h24l721 -360v-56l-721 -360h-24z" />
<glyph unicode="?" horiz-adv-x="1001" d="M152 1333v144q151 79 335 79q205 0 307 -96q101 -95 101 -266q0 -98 -37 -188q-39 -94 -88 -164q-68 -96 -103 -142q-51 -67 -88 -147q-36 -77 -34 -154l-19 -18h-94l-16 18q0 105 50 214q51 111 109 182q62 76 110 175q50 103 50 197q0 121 -57 184q-56 62 -191 62 q-169 0 -317 -98zM369 100v23l98 100h25l100 -100v-23l-100 -100h-25z" />
<glyph unicode="@" horiz-adv-x="2138" d="M156 492q0 375 257 635q256 259 681 259q216 0 388 -66t280 -180q107 -113 164 -259q56 -143 56 -308q0 -287 -107 -430t-267 -143q-162 0 -246 129q-130 -135 -311 -135q-197 0 -325 132q-128 133 -128 333t128 333q128 132 325 132q220 0 354 -187l-86 172l16 15h121 l17 -15v-637q0 -172 135 -172q237 0 237 473q0 142 -46 265q-47 124 -135 225q-88 100 -236 159q-146 58 -334 58q-367 0 -584 -229t-217 -559q0 -358 215 -590t586 -232q226 0 428 72l18 -18v-80q-231 -80 -446 -80q-428 0 -683 261t-255 667zM758 459q0 -137 84 -235 q84 -97 209 -97q163 0 268 127v14v396q-105 129 -268 129q-125 0 -209 -98q-84 -97 -84 -236z" />
<glyph unicode="A" horiz-adv-x="1439" d="M37 18l596 1500l18 18h146l16 -18l592 -1500l-19 -18h-139l-16 18l-205 529h-606l-209 -529l-18 -18h-140zM475 690h496l-287 737l21 -155z" />
<glyph unicode="B" horiz-adv-x="1251" d="M166 18v1500l16 18h377q223 0 354 -108t131 -295q0 -239 -198 -328q142 -44 222 -137q81 -94 81 -240q0 -219 -145 -324q-144 -104 -390 -104h-432zM324 143h290q367 0 367 285q0 148 -103 221q-104 74 -266 74h-288v-580zM324 866h254q132 0 217 68q84 68 84 199 q0 121 -84 190q-85 70 -236 70h-235v-527z" />
<glyph unicode="C" horiz-adv-x="1447" d="M104 768q0 346 220 568q219 220 530 220q235 0 451 -100v-151l-19 -17q-125 65 -216 91q-90 26 -216 26q-250 0 -417 -177q-167 -178 -167 -460t167 -460q167 -177 417 -177q126 0 216 26q91 26 216 91l19 -17v-151q-216 -100 -451 -100q-311 0 -530 220 q-220 222 -220 568z" />
<glyph unicode="D" horiz-adv-x="1521" d="M166 18v1500l16 18h486q313 0 531 -212t218 -556t-218 -556t-531 -212h-486zM324 143h344q249 0 416 173t167 452t-167 452t-416 173h-344v-1250z" />
<glyph unicode="E" d="M166 18v1500l16 18h772l19 -18v-109l-19 -16h-630v-527h548l19 -16v-109l-19 -18h-548v-580h671l19 -16v-109l-19 -18h-813z" />
<glyph unicode="F" horiz-adv-x="1030" d="M166 18v1500l16 18h772l19 -18v-109l-19 -16h-630v-562h589l19 -16v-108l-19 -19h-589v-670l-17 -18h-125z" />
<glyph unicode="G" horiz-adv-x="1486" d="M104 768q0 346 220 568q219 220 530 220q255 0 471 -100v-151l-18 -17q-122 62 -223 90q-99 27 -230 27q-250 0 -417 -177q-167 -178 -167 -460t167 -460q167 -177 417 -177q183 0 330 53v488l16 18h125l18 -18v-592q-216 -100 -489 -100q-311 0 -530 220 q-220 222 -220 568z" />
<glyph unicode="H" horiz-adv-x="1554" d="M166 18v1500l16 18h125l17 -18v-652h907v652l16 18h125l17 -18v-1500l-17 -18h-125l-16 18v705h-907v-705l-17 -18h-125z" />
<glyph unicode="I" horiz-adv-x="550" d="M197 18v1500l16 18h125l16 -18v-1500l-16 -18h-125z" />
<glyph unicode="J" horiz-adv-x="845" d="M104 10v142q87 -29 215 -29q106 0 153 62q48 63 48 204v1004h-323l-17 16v109l17 18h467l16 -16v-1151q0 -389 -361 -389q-136 0 -215 30z" />
<glyph unicode="K" horiz-adv-x="1304" d="M166 18v1500l16 18h125l17 -18v-1500l-17 -18h-125zM403 799l672 737h180v-25l-645 -692l-143 -20l143 -21l672 -760v-18h-188z" />
<glyph unicode="L" horiz-adv-x="1030" d="M166 18v1500l16 18h125l17 -18v-1375h630l19 -16v-109l-19 -18h-772z" />
<glyph unicode="M" horiz-adv-x="1683" d="M166 18v1500l16 18h125l17 -18l594 -775l-56 127l498 648l16 18h125l17 -18v-1500l-17 -18h-125l-16 18v1147l72 193l-590 -744l-590 744l72 -193v-1147l-17 -18h-125z" />
<glyph unicode="N" horiz-adv-x="1554" d="M166 18v1500l16 18h125l17 -18l976 -1340l-69 213v1127l16 18h125l17 -18v-1500l-17 -18h-125l-16 18l-977 1338l70 -213v-1125l-17 -18h-125z" />
<glyph unicode="O" horiz-adv-x="1708" d="M104 768q0 346 220 568q219 220 530 220t530 -220q220 -222 220 -568t-220 -568q-219 -220 -530 -220t-530 220q-220 222 -220 568zM270 768q0 -282 167 -460q167 -177 417 -177t417 177q167 178 167 460t-167 460q-167 177 -417 177t-417 -177q-167 -178 -167 -460z" />
<glyph unicode="P" horiz-adv-x="1157" d="M166 18v1500l16 18h412q218 0 350 -115q131 -114 131 -309q0 -199 -130 -310q-132 -112 -351 -112h-270v-672l-17 -18h-125zM324 834h270q148 0 231 72q82 72 82 206q0 128 -83 205q-82 76 -230 76h-270v-559z" />
<glyph unicode="Q" horiz-adv-x="1708" d="M104 768q0 346 220 568q219 220 530 220t530 -220q220 -222 220 -568q0 -329 -199 -539q-198 -208 -492 -231q164 -199 507 -199q86 0 184 13v-138q-93 -12 -179 -12q-182 0 -335 53q-226 78 -353 273q-272 43 -452 255q-181 213 -181 525zM270 768q0 -282 167 -460 q167 -177 417 -177t417 177q167 178 167 460t-167 460q-167 177 -417 177t-417 -177q-167 -178 -167 -460z" />
<glyph unicode="R" horiz-adv-x="1230" d="M166 18v1500l16 18h369q217 0 349 -111t132 -292q0 -145 -91 -237q-92 -93 -251 -122q73 -40 162 -170q87 -127 196 -319q114 -201 158 -267v-18h-170q-50 77 -158 273t-198 322q-85 119 -158 136h-198v-713l-17 -18h-125zM324 874h227q146 0 230 70q83 69 83 189 q0 115 -84 187q-85 73 -229 73h-227v-519z" />
<glyph unicode="S" horiz-adv-x="1050" d="M104 59l29 142l21 20q96 -63 157 -80q63 -18 158 -18q142 0 230 74q87 73 87 209q0 92 -50 159q-48 65 -124 100q-27 13 -161 74q-78 36 -162 82q-74 41 -124 124t-50 198q0 174 121 294q120 119 329 119q146 0 297 -79v-144l-18 -18q-148 98 -279 98q-142 0 -217 -73 q-74 -72 -74 -183q0 -84 51 -147q50 -62 124 -95q94 -42 161 -74q88 -42 162 -87q75 -46 124 -134q50 -89 50 -214q0 -196 -144 -311q-143 -115 -333 -115q-192 0 -365 79z" />
<glyph unicode="T" horiz-adv-x="1312" d="M47 1409v109l19 18h1181l19 -18v-109l-19 -16h-512v-1375l-16 -18h-125l-19 18v1375h-509z" />
<glyph unicode="U" horiz-adv-x="1454" d="M145 553v965l17 18h125l16 -18v-945q0 -212 109 -332q108 -118 315 -118t315 118q109 120 109 332v945l16 18h125l17 -18v-965q0 -268 -153 -421q-152 -152 -429 -152t-429 152q-153 153 -153 421z" />
<glyph unicode="V" horiz-adv-x="1411" d="M43 1518l16 18h140l18 -18l535 -1409l-23 155l465 1254l18 18h140l16 -18l-567 -1500l-17 -18h-145l-18 18z" />
<glyph unicode="W" horiz-adv-x="2125" d="M33 1518l18 18h139l17 -18l514 -1409l-21 155l281 1047l-59 207l18 18h137l19 -18l415 -1409l-16 155l410 1254l18 18h139l17 -18l-518 -1500l-17 -18h-145l-19 18l-360 1158l24 -187l-264 -971l-18 -18h-154l-16 18z" />
<glyph unicode="X" horiz-adv-x="1304" d="M39 18l487 760l-479 740l16 18h158l17 -18l413 -654l416 654l16 18h158l16 -18l-481 -740l490 -760l-19 -18h-155l-441 690l-438 -690h-156z" />
<glyph unicode="Y" horiz-adv-x="1329" d="M33 1518l16 18h148l16 -18l518 -799l-43 164l428 635l19 18h145l18 -18l-555 -836v-664l-16 -18h-125l-18 18v664z" />
<glyph unicode="Z" horiz-adv-x="1357" d="M84 0l917 1393h-860l-16 16v109l16 18h1133l-928 -1393h871l18 -16v-109l-18 -18h-1133z" />
<glyph unicode="[" horiz-adv-x="661" d="M190 -186v1908l17 19h391l18 -19v-108l-18 -17h-248v-1658h248l18 -17v-108l-18 -19h-391z" />
<glyph unicode="\" horiz-adv-x="727" d="M10 1556l19 19h125l16 -19l547 -1538l-17 -18h-125l-18 18z" />
<glyph unicode="]" horiz-adv-x="661" d="M47 -78l16 17h250v1658h-250l-16 17v108l16 19h392l18 -19v-1908l-18 -19h-392l-16 19v108z" />
<glyph unicode="^" horiz-adv-x="806" d="M27 1112v25l364 501h25l364 -501v-25l-90 -74l-287 404l-286 -404z" />
<glyph unicode="_" horiz-adv-x="790" d="M0 -18l18 18h756l17 -18v-93l-17 -18h-756l-18 18v93z" />
<glyph unicode="`" horiz-adv-x="395" d="M0 1477v24l82 82h24l289 -311v-25l-71 -73z" />
<glyph unicode="a" horiz-adv-x="978" d="M106 229q0 275 545 320v264q-68 53 -198 53q-161 0 -316 -82l-18 19l33 137q160 64 331 64q320 0 320 -236v-522q30 -105 110 -144l-32 -122q-142 41 -203 153q-124 -153 -299 -153q-104 0 -188 56q-85 57 -85 193zM258 236q0 -64 40 -100t103 -36q145 0 250 164v178 q-193 -23 -292 -68q-101 -46 -101 -138z" />
<glyph unicode="b" horiz-adv-x="1230" d="M166 18v1590l151 30v-634l-79 -205q147 205 391 205q216 0 357 -146q140 -144 140 -366q0 -223 -140 -367q-141 -145 -357 -145q-180 0 -312 116v-78l-18 -18h-117zM317 266q118 -143 312 -143q148 0 242 107q96 110 96 262q0 151 -96 261q-94 107 -242 107 q-194 0 -312 -143v-451z" />
<glyph unicode="c" horiz-adv-x="991" d="M104 492q0 219 145 366q144 146 361 146q133 0 269 -60v-143l-19 -17q-124 76 -250 76q-148 0 -248 -108q-100 -107 -100 -260q0 -154 100 -261q100 -108 248 -108q126 0 250 76l19 -17v-143q-134 -59 -269 -59q-217 0 -361 145q-145 147 -145 367z" />
<glyph unicode="d" horiz-adv-x="1230" d="M104 492q0 220 141 366t357 146q244 0 391 -205l-80 205v604l152 30v-1620l-16 -18h-117l-19 18v78q-132 -116 -311 -116q-216 0 -357 145t-141 367zM262 492q0 -154 96 -262q95 -107 244 -107q193 0 311 143v451q-118 143 -311 143q-149 0 -244 -107q-96 -108 -96 -261z " />
<glyph unicode="e" horiz-adv-x="1079" d="M104 492q0 224 130 367q131 145 335 145q75 0 141 -21q67 -21 126 -64q58 -42 95 -125q36 -81 36 -190q0 -42 -9 -98l-18 -17h-682q0 -152 98 -259t246 -107q160 0 287 76l16 -17v-143q-134 -59 -303 -59q-216 0 -357 145t-141 367zM268 594l537 18v20q0 113 -63 171 q-69 63 -173 63q-123 0 -200 -74q-79 -76 -101 -198z" />
<glyph unicode="f" horiz-adv-x="737" d="M63 856v109l15 18h145v88q0 109 23 203q22 90 76 179q52 87 157 136q104 49 254 49q139 0 219 -30l-16 -125l-21 -17q-87 29 -182 29q-198 0 -278 -116t-80 -326v-70h307l18 -18v-109l-18 -16h-307v-822l-17 -18h-116l-19 18v822h-145z" />
<glyph unicode="g" horiz-adv-x="1103" d="M104 -225q0 162 150 293q-31 45 -31 114l41 187q-131 105 -131 272q0 159 118 261q119 102 286 102q209 0 301 -160l-64 174v102l17 17h118l17 -17l-2 -479q0 -161 -110 -262q-109 -100 -277 -100q-102 0 -183 36l-2 -100q0 -66 60 -87q63 -22 180 -22q90 0 161 -9 q69 -9 140 -35t107 -80q38 -56 38 -138q0 -162 -143 -269t-358 -107q-209 0 -320 77q-113 78 -113 230zM250 -215q0 -186 287 -186q154 0 250 65q98 66 98 162q0 84 -68 114q-65 29 -223 29q-20 -1 -38 -1q-142 0 -218 34q-88 -82 -88 -217zM283 641q0 -104 73 -170 q72 -65 181 -65q104 0 176 65q73 66 73 170q0 107 -73 170t-176 63q-108 0 -181 -64t-73 -169z" />
<glyph unicode="h" horiz-adv-x="1159" d="M166 18v1590l151 30v-673l-79 -201q83 103 203 171q121 69 266 69q185 0 257 -96q70 -94 70 -300v-590l-16 -18h-117l-18 18v590q0 135 -41 194q-40 58 -156 58q-206 0 -369 -180v-662l-18 -18h-117z" />
<glyph unicode="i" horiz-adv-x="593" d="M129 856v109l16 18h230l18 -18v-947l-18 -18h-117l-16 18v822h-97zM186 1376v29l107 106h26l107 -106v-29l-107 -106h-26z" />
<glyph unicode="j" horiz-adv-x="577" d="M51 -504q172 317 172 729v615h-94l-18 16v109l18 18h229l17 -18v-740q0 -225 -40 -400q-41 -180 -134 -357h-131zM168 1376v29l106 106h29l107 -106v-29l-107 -106h-29z" />
<glyph unicode="k" horiz-adv-x="1083" d="M166 18v1590l151 30v-1620l-18 -18h-117zM395 555l428 428h133l19 -18v-21l-397 -389l464 -516v-21l-18 -18h-141z" />
<glyph unicode="l" horiz-adv-x="606" d="M145 313v1295l152 30v-1306q0 -121 29 -165t100 -44q60 0 98 16l19 -18v-123q-47 -18 -131 -18q-156 0 -211 90q-56 91 -56 243z" />
<glyph unicode="m" horiz-adv-x="1722" d="M145 18v947l17 18h117l18 -18l-80 -201q82 101 194 171q111 69 234 69q221 0 277 -179q179 179 372 179q172 0 238 -95q65 -93 65 -301v-590l-16 -18h-119l-16 18v590q0 135 -35 194q-34 58 -135 58q-162 0 -330 -180v-662l-16 -18h-117l-18 18v590q0 135 -35 194 q-34 58 -135 58q-165 0 -328 -180v-662l-18 -18h-117z" />
<glyph unicode="n" horiz-adv-x="1138" d="M145 18v947l17 18h117l18 -18l-80 -201q83 102 204 171t265 69q185 0 257 -96q71 -95 71 -300v-590l-17 -18h-116l-19 18v590q0 135 -41 194q-40 58 -155 58q-206 0 -369 -180v-662l-18 -18h-117z" />
<glyph unicode="o" horiz-adv-x="1220" d="M104 492q0 219 145 366q144 146 361 146q218 0 362 -146t144 -366q0 -222 -144 -367t-362 -145q-217 0 -361 145q-145 147 -145 367zM262 492q0 -154 100 -261q100 -108 248 -108t247 108t99 261q0 152 -99 260t-247 108t-248 -108q-100 -107 -100 -260z" />
<glyph unicode="p" horiz-adv-x="1210" d="M145 -502v1467l17 18h117l18 -18v-78q133 117 311 117q217 0 358 -146q140 -144 140 -366q0 -223 -140 -367q-141 -145 -358 -145q-245 0 -391 204l80 -204v-512zM297 266q118 -143 311 -143q149 0 243 107q95 109 95 262q0 152 -95 261q-94 107 -243 107 q-193 0 -311 -143v-451z" />
<glyph unicode="q" horiz-adv-x="1230" d="M104 492q0 205 142 349q141 142 356 142h447l16 -18v-1495l-152 28v482l80 204q-146 -204 -391 -204q-216 0 -357 145t-141 367zM262 492q0 -154 96 -262q95 -107 244 -107q193 0 311 143v574h-311q-146 0 -243 -105q-97 -104 -97 -243z" />
<glyph unicode="r" horiz-adv-x="714" d="M145 18v947l17 18h117l18 -18l-80 -228q79 117 198 192q118 75 247 75l-25 -150l-19 -18q-184 0 -321 -183v-635l-18 -18h-117z" />
<glyph unicode="s" horiz-adv-x="899" d="M125 39l18 139l19 19q110 -88 252 -88q90 0 149 37q60 38 60 114q0 53 -52 91q-54 40 -124 66q-75 28 -146 60q-74 33 -125 96t-51 154q0 138 105 207q107 70 231 70q131 0 268 -60v-149l-18 -17q-113 96 -246 96q-80 0 -132 -33q-54 -35 -54 -108q0 -55 51 -95 q51 -41 124 -68q71 -27 145 -59q73 -32 124 -92t51 -147q0 -140 -107 -216t-257 -76q-151 0 -285 59z" />
<glyph unicode="t" horiz-adv-x="770" d="M49 856v109l19 18h178v195l151 30v-225h246l19 -18v-109l-19 -16h-246v-508q0 -121 29 -165t100 -44q63 0 101 16l16 -18v-123q-45 -18 -131 -18q-156 0 -211 90q-55 89 -55 243v527h-178z" />
<glyph unicode="u" d="M125 375v590l16 18h117l18 -18v-590q0 -135 41 -194q40 -58 156 -58q185 0 348 180v662l19 18h116l17 -18v-947l-17 -18h-116l-19 18l80 201q-190 -239 -448 -239q-186 0 -257 95t-71 300z" />
<glyph unicode="v" horiz-adv-x="1071" d="M49 946v19l19 18h137l377 -895l-25 158l307 737h140l18 -18v-19l-406 -946h-155z" />
<glyph unicode="w" horiz-adv-x="1622" d="M20 946v19l19 18h137l344 -895l-22 160l235 618l-31 80v19l19 18h137l336 -895l-25 160l275 735h139l19 -18v-19l-373 -946h-154l-303 772l27 -154l-244 -618h-154z" />
<glyph unicode="x" horiz-adv-x="1054" d="M84 18v21l324 457l-318 448v21l19 18h139l280 -405l279 405h139l19 -18v-21l-318 -448l326 -457v-21l-19 -18h-135l-291 420l-292 -420h-136z" />
<glyph unicode="y" horiz-adv-x="1085" d="M57 944v21l17 18h139l377 -895l-25 160l305 735h140l18 -18v-21l-620 -1456h-205l-17 18v109l17 16h112l154 369z" />
<glyph unicode="z" horiz-adv-x="1024" d="M59 0l631 840h-565l-19 16v109l19 18h840l-629 -840h575l19 -16v-109l-19 -18h-852z" />
<glyph unicode="{" horiz-adv-x="561" d="M129 768q123 102 102 272l-41 330q-16 136 61 236q75 97 228 135l19 -19v-108l-19 -17q-64 -17 -101 -76q-38 -61 -28 -145l41 -336q18 -154 -82 -272q100 -118 82 -272l-41 -336q-10 -84 28 -145q37 -59 101 -76l19 -17v-108l-19 -19q-153 38 -228 135q-77 100 -61 236 l41 330q21 170 -102 272z" />
<glyph unicode="|" horiz-adv-x="475" d="M166 -186v1908l16 19h111l16 -19v-1908l-16 -19h-111z" />
<glyph unicode="}" horiz-adv-x="561" d="M63 -78l17 17q66 16 103 76q38 61 28 145l-41 336q-18 154 82 272q-100 118 -82 272l41 336q10 84 -28 145q-37 60 -103 76l-17 17v108l17 19q152 -38 229 -135q78 -100 62 -236l-41 -330q-21 -170 102 -272q-123 -102 -102 -272l41 -330q16 -136 -62 -236 q-77 -97 -229 -135l-17 19v108z" />
<glyph unicode="~" horiz-adv-x="905" d="M61 582q15 115 64 176t119 61q65 0 237 -49t217 -49l54 98h92q-27 -237 -172 -237q-66 0 -240 49t-223 49l-55 -98h-93z" />
<glyph unicode="&#xa1;" horiz-adv-x="393" d="M84 860v23l100 100h25l98 -100v-23l-98 -100h-25zM117 -514l16 1126l17 19h92l18 -19l16 -1126l-18 -18h-123z" />
<glyph unicode="&#xa2;" horiz-adv-x="991" d="M104 492q0 212 137 357t343 155l26 186l17 18h80l18 -18l-27 -193q79 -12 181 -53v-143l-19 -17q-90 57 -182 72l-105 -731q16 -2 37 -2q126 0 250 76l19 -17v-143q-134 -59 -269 -59q-33 0 -57 2l-25 -168l-18 -19h-80l-16 19l26 192q-151 51 -243 182q-93 133 -93 304z M262 492q0 -111 54 -201q53 -89 147 -135l100 700q-130 -17 -215 -121q-86 -106 -86 -243z" />
<glyph unicode="&#xa3;" horiz-adv-x="1028" d="M0 729v78l18 18h146q-33 197 -33 318q0 191 110 303q109 110 318 110q185 0 336 -79v-144l-18 -18q-148 98 -318 98q-136 0 -203 -73q-65 -71 -65 -193q0 -129 35 -322h442l16 -18v-78l-16 -18h-426q38 -281 -61 -553q92 12 314 -20t282 5l16 -16v-109l-16 -18 q-76 -28 -202 -15q-146 16 -226 30q-101 18 -234 -15h-145q68 154 98 286q30 134 29 228q-1 82 -15 197h-164z" />
<glyph unicode="&#xa4;" horiz-adv-x="1282" d="M96 78v24l137 138q-98 134 -98 311q0 176 96 311l-135 137v25l76 76h27l135 -135q134 98 307 98t307 -98l135 135h25l78 -76v-25l-135 -137q96 -135 96 -311q0 -177 -98 -311l137 -138v-24l-78 -78h-25l-135 137q-134 -98 -307 -98t-307 98l-135 -137h-27zM295 551 q0 -153 99 -261t247 -108t247 108t99 261q0 151 -99 259t-247 108t-247 -108t-99 -259z" />
<glyph unicode="&#xa5;" horiz-adv-x="1259" d="M33 1518l16 18h148l16 -18l518 -799l-43 164l428 635l19 18h145l18 -18l-530 -799h207l18 -19v-77l-18 -19h-232v-145h232l18 -19v-78l-18 -18h-232v-326l-16 -18h-125l-18 18v326h-297l-19 18v78l19 19h297v145h-297l-19 19v77l19 19h272z" />
<glyph unicode="&#xa6;" horiz-adv-x="475" d="M166 -186v616h143v-616l-16 -19h-111zM166 1106v616l16 19h111l16 -19v-616h-143z" />
<glyph unicode="&#xa7;" horiz-adv-x="927" d="M113 602q0 212 206 275q-97 44 -152 99q-54 54 -54 138q0 134 93 206q94 73 251 73q177 0 307 -76v-125q-138 98 -307 98q-101 0 -159 -42t-58 -118q0 -61 59 -104q62 -45 143 -74q69 -25 169 -65q84 -34 145 -101q59 -65 59 -157q0 -191 -205 -254q205 -94 205 -258 q0 -131 -103 -206q-104 -75 -276 -75q-183 0 -313 76v125q138 -98 313 -98q118 0 185 43t67 120q0 69 -59 116q-60 48 -144 81q-112 44 -169 67q-86 34 -144 93q-59 59 -59 143zM240 618q0 -60 54 -101q53 -40 161 -81q108 5 170 53q63 49 63 125q0 70 -54 114t-159 87 q-120 -7 -178 -62q-57 -54 -57 -135z" />
<glyph unicode="&#xa8;" horiz-adv-x="716" d="M8 1362v22l101 101h24l98 -101v-22l-98 -100h-24zM449 1362v22l98 101h24l101 -101v-22l-101 -100h-24z" />
<glyph unicode="&#xa9;" horiz-adv-x="1720" d="M41 819q0 340 240 580q239 239 579 239q341 0 580 -239t239 -580q0 -340 -239 -579q-240 -240 -580 -240q-339 0 -579 240t-240 579zM80 819q0 -327 227 -555q228 -229 553 -229t553 229q227 228 227 555t-227 555q-228 230 -553 230t-553 -230q-227 -228 -227 -555z M412 809q0 233 146 379q147 147 353 147q155 0 301 -67v-101l-12 -12q-77 40 -142 60q-60 18 -147 18q-165 0 -276 -118q-111 -119 -111 -306q0 -188 111 -306t276 -118q90 0 147 17q61 18 142 61l12 -12v-101q-146 -67 -301 -67q-206 0 -353 147q-146 146 -146 379z" />
<glyph unicode="&#xab;" horiz-adv-x="901" d="M63 541v24l273 344h24l72 -71l-213 -285l213 -285l-72 -71h-24zM410 541v24l299 344h24l72 -71l-234 -285l234 -285l-72 -71h-24z" />
<glyph unicode="&#xac;" horiz-adv-x="966" d="M61 662v108l19 16h807l18 -16v-373l-18 -16h-117l-18 16v246h-672z" />
<glyph unicode="&#xad;" horiz-adv-x="802" d="M61 559v109l19 16h643l18 -16v-109l-18 -18h-643z" />
<glyph unicode="&#xae;" horiz-adv-x="1720" d="M41 819q0 340 240 580q239 239 579 239q341 0 580 -239t239 -580q0 -340 -239 -579q-240 -240 -580 -240q-339 0 -579 240t-240 579zM80 819q0 -327 227 -555q228 -229 553 -229t553 229q227 228 227 555t-227 555q-228 230 -553 230t-553 -230q-227 -228 -227 -555z M596 309v1000l12 12h246q142 0 231 -74t89 -194q0 -95 -61 -159q-60 -63 -167 -81q47 -27 109 -115q53 -76 131 -212q75 -131 106 -177v-12h-114q-33 46 -107 181t-131 214q-58 80 -106 92h-132v-475l-12 -12h-82zM702 879h152q98 0 154 47q55 46 55 127q0 77 -56 124 q-57 48 -153 48h-152v-346z" />
<glyph unicode="&#xaf;" horiz-adv-x="587" d="M0 1194v92l18 19h553l17 -19v-92l-17 -18h-553z" />
<glyph unicode="&#xb0;" horiz-adv-x="587" d="M68 1513q0 99 63 163q63 65 164 65q98 0 163 -65q64 -64 64 -163q0 -98 -64 -162q-65 -65 -163 -65q-101 0 -164 65t-63 162zM184 1513q0 -45 32 -80q31 -34 79 -34q46 0 77 34t31 80q0 47 -31 81t-77 34q-48 0 -79 -34q-32 -35 -32 -81z" />
<glyph unicode="&#xb1;" horiz-adv-x="966" d="M61 61v109l19 18h807l18 -18v-109l-18 -16h-807zM61 670v108l19 19h332v331l16 19h109l18 -19v-331h332l18 -19v-108l-18 -17h-332v-331l-18 -19h-109l-16 19v331h-332z" />
<glyph unicode="&#xb4;" horiz-adv-x="395" d="M0 1247v25l289 311h24l82 -82v-24l-323 -303z" />
<glyph unicode="&#xb6;" horiz-adv-x="1357" d="M0 1106q0 201 139 315q141 115 353 115h684l16 -18v-1704l-16 -19h-125l-19 19v1579h-381v-1579l-18 -19h-123l-18 19v862q-212 0 -353 115q-139 114 -139 315z" />
<glyph unicode="&#xb7;" horiz-adv-x="380" d="M70 608v27l106 108h29l106 -108v-27l-106 -106h-29z" />
<glyph unicode="&#xb8;" horiz-adv-x="352" d="M0 -369l18 17q96 0 148 28q53 29 53 74q0 83 -141 53l-45 45l18 166h84l-41 -149q145 30 201 -11q57 -42 57 -118q0 -87 -91 -144t-243 -57l-18 16v80z" />
<glyph unicode="&#xbb;" horiz-adv-x="901" d="M94 268l236 285l-236 285l74 71h25l296 -344v-24l-296 -344h-25zM467 268l213 285l-213 285l74 71h24l271 -344v-24l-271 -344h-24z" />
<glyph unicode="&#xbf;" horiz-adv-x="849" d="M88 -170q0 96 36 186q37 91 88 159q85 111 103 135q50 65 87 143q36 77 36 151l17 19h94l18 -19q0 -105 -50 -211t-109 -174q-61 -70 -110 -168q-50 -100 -50 -194q0 -246 246 -246q171 0 319 98l16 -18v-144q-151 -79 -335 -79q-203 0 -305 96q-101 95 -101 266z M391 881v22l98 101h25l100 -101v-22l-100 -101h-25z" />
<glyph unicode="&#xc0;" horiz-adv-x="1439" d="M37 18l596 1500l18 18h146l16 -18l592 -1500l-19 -18h-139l-16 18l-205 529h-606l-209 -529l-18 -18h-140zM475 690h496l-287 737l21 -155zM496 1878l59 102l23 7l360 -226l6 -26l-51 -88l-391 208z" />
<glyph unicode="&#xc1;" horiz-adv-x="1439" d="M37 18l596 1500l18 18h146l16 -18l592 -1500l-19 -18h-139l-16 18l-205 529h-606l-209 -529l-18 -18h-140zM475 690h496l-287 737l21 -155zM496 1735l6 26l360 226l23 -7l59 -102l-6 -23l-391 -208z" />
<glyph unicode="&#xc2;" horiz-adv-x="1439" d="M37 18l596 1500l18 18h146l16 -18l592 -1500l-19 -18h-139l-16 18l-205 529h-606l-209 -529l-18 -18h-140zM426 1720v25l283 264h24l283 -264v-25l-72 -73l-223 198l-223 -198zM475 690h496l-287 737l21 -155z" />
<glyph unicode="&#xc3;" horiz-adv-x="1439" d="M37 18l596 1500l18 18h146l16 -18l592 -1500l-19 -18h-139l-16 18l-205 529h-606l-209 -529l-18 -18h-140zM414 1638q15 95 64 151t118 56q64 0 155 -49t134 -49l51 98h92q-28 -207 -170 -207q-61 0 -157 51q-94 50 -140 50l-55 -101h-92zM475 690h496l-287 737l21 -155z " />
<glyph unicode="&#xc4;" horiz-adv-x="1439" d="M37 18l596 1500l18 18h146l16 -18l592 -1500l-19 -18h-139l-16 18l-205 529h-606l-209 -529l-18 -18h-140zM381 1784v24l100 101h25l98 -101v-24l-98 -98h-25zM475 690h496l-287 737l21 -155zM836 1784v24l100 101h25l98 -101v-24l-98 -98h-25z" />
<glyph unicode="&#xc5;" horiz-adv-x="1439" d="M37 18l569 1432q-114 63 -114 201q0 101 64 164t163 63q101 0 164 -63t63 -164q0 -134 -108 -197l567 -1436l-19 -18h-139l-16 18l-205 529h-606l-209 -529l-18 -18h-140zM475 690h496l-287 735l21 -153zM610 1651q0 -46 32 -80q31 -33 77 -33q47 0 79 33q31 32 31 80 q0 47 -31 81q-30 33 -79 33q-47 0 -77 -33q-32 -35 -32 -81z" />
<glyph unicode="&#xc6;" horiz-adv-x="1912" d="M37 18l596 1500l18 18h1100l18 -18v-109l-18 -16h-889l209 -527h598l19 -16v-109l-19 -18h-543l230 -580h436l18 -16v-109l-18 -18h-545l-16 18l-205 529h-606l-209 -529l-18 -18h-140zM475 690h496l-287 737l21 -155z" />
<glyph unicode="&#xc7;" horiz-adv-x="1447" d="M104 768q0 346 220 568q219 220 530 220q235 0 451 -100v-151l-19 -17q-125 65 -216 91q-90 26 -216 26q-250 0 -417 -177q-167 -178 -167 -460t167 -460q167 -177 417 -177q126 0 216 26q91 26 216 91l19 -17v-151q-216 -100 -451 -100h-10l-31 -115q145 30 201 -11 q57 -42 57 -118q0 -87 -91 -144q-92 -57 -243 -57l-18 16v80l18 17q96 0 148 28q53 29 53 74q0 83 -141 53l-45 45l14 136q-285 33 -472 246q-190 216 -190 538z" />
<glyph unicode="&#xc8;" d="M166 18v1500l16 18h772l19 -18v-109l-19 -16h-630v-527h548l19 -16v-109l-19 -18h-548v-580h671l19 -16v-109l-19 -18h-813zM365 1878l59 102l22 7l361 -226l6 -26l-51 -88l-391 208z" />
<glyph unicode="&#xc9;" d="M166 18v1500l16 18h772l19 -18v-109l-19 -16h-630v-527h548l19 -16v-109l-19 -18h-548v-580h671l19 -16v-109l-19 -18h-813zM365 1735l6 26l360 226l23 -7l59 -102l-6 -23l-391 -208z" />
<glyph unicode="&#xca;" d="M166 18v1500l16 18h772l19 -18v-109l-19 -16h-630v-527h548l19 -16v-109l-19 -18h-548v-580h671l19 -16v-109l-19 -18h-813zM295 1720v25l283 264h24l283 -264v-25l-72 -73l-223 198l-223 -198z" />
<glyph unicode="&#xcb;" d="M166 18v1500l16 18h772l19 -18v-109l-19 -16h-630v-527h548l19 -16v-109l-19 -18h-548v-580h671l19 -16v-109l-19 -18h-813zM250 1784v24l100 101h25l98 -101v-24l-98 -98h-25zM705 1784v24l100 101h24l99 -101v-24l-99 -98h-24z" />
<glyph unicode="&#xcc;" horiz-adv-x="550" d="M-74 1878l60 102l22 7l361 -226l6 -26l-51 -88l-392 208zM197 18v1500l16 18h125l16 -18v-1500l-16 -18h-125z" />
<glyph unicode="&#xcd;" horiz-adv-x="550" d="M117 1735l6 26l360 226l23 -7l59 -102l-6 -23l-391 -208zM197 18v1500l16 18h125l16 -18v-1500l-16 -18h-125z" />
<glyph unicode="&#xce;" horiz-adv-x="550" d="M-49 1720v25l282 264h25l283 -264v-25l-72 -73l-223 198l-223 -198zM197 18v1500l16 18h125l16 -18v-1500l-16 -18h-125z" />
<glyph unicode="&#xcf;" horiz-adv-x="550" d="M-94 1784v24l100 101h25l98 -101v-24l-98 -98h-25zM197 18v1500l16 18h125l16 -18v-1500l-16 -18h-125zM360 1784v24l101 101h24l99 -101v-24l-99 -98h-24z" />
<glyph unicode="&#xd0;" horiz-adv-x="1521" d="M0 739v109l18 16h148v654l16 18h486q313 0 531 -212t218 -556t-218 -556t-531 -212h-486l-16 18v703h-148zM324 143h344q249 0 416 173t167 452t-167 452t-416 173h-344v-529h338l18 -16v-109l-18 -18h-338v-578z" />
<glyph unicode="&#xd1;" horiz-adv-x="1554" d="M166 18v1500l16 18h125l17 -18l976 -1340l-69 213v1127l16 18h125l17 -18v-1500l-17 -18h-125l-16 18l-977 1338l70 -213v-1125l-17 -18h-125zM471 1638q15 93 65 151q49 56 117 56q64 0 155 -49t134 -49l51 98h92q-29 -207 -170 -207q-60 0 -156 51q-94 50 -141 50 l-55 -101h-92z" />
<glyph unicode="&#xd2;" horiz-adv-x="1708" d="M104 768q0 346 220 568q219 220 530 220t530 -220q220 -222 220 -568t-220 -568q-219 -220 -530 -220t-530 220q-220 222 -220 568zM270 768q0 -282 167 -460q167 -177 417 -177t417 177q167 178 167 460t-167 460q-167 177 -417 177t-417 -177q-167 -178 -167 -460z M547 1878l59 102l23 7l360 -226l6 -26l-51 -88l-391 208z" />
<glyph unicode="&#xd3;" horiz-adv-x="1708" d="M104 768q0 346 220 568q219 220 530 220t530 -220q220 -222 220 -568t-220 -568q-219 -220 -530 -220t-530 220q-220 222 -220 568zM270 768q0 -282 167 -460q167 -177 417 -177t417 177q167 178 167 460t-167 460q-167 177 -417 177t-417 -177q-167 -178 -167 -460z M676 1735l6 26l360 226l23 -7l59 -102l-6 -23l-391 -208z" />
<glyph unicode="&#xd4;" horiz-adv-x="1708" d="M104 768q0 346 220 568q219 220 530 220t530 -220q220 -222 220 -568t-220 -568q-219 -220 -530 -220t-530 220q-220 222 -220 568zM270 768q0 -282 167 -460q167 -177 417 -177t417 177q167 178 167 460t-167 460q-167 177 -417 177t-417 -177q-167 -178 -167 -460z M559 1720v25l283 264h24l283 -264v-25l-72 -73l-223 198l-223 -198z" />
<glyph unicode="&#xd5;" horiz-adv-x="1708" d="M104 768q0 346 220 568q219 220 530 220t530 -220q220 -222 220 -568t-220 -568q-219 -220 -530 -220t-530 220q-220 222 -220 568zM270 768q0 -282 167 -460q167 -177 417 -177t417 177q167 178 167 460t-167 460q-167 177 -417 177t-417 -177q-167 -178 -167 -460z M547 1638q15 95 64 151t118 56q64 0 155 -49t134 -49l51 98h92q-29 -207 -170 -207q-60 0 -156 51q-94 50 -141 50l-55 -101h-92z" />
<glyph unicode="&#xd6;" horiz-adv-x="1708" d="M104 768q0 346 220 568q219 220 530 220t530 -220q220 -222 220 -568t-220 -568q-219 -220 -530 -220t-530 220q-220 222 -220 568zM270 768q0 -282 167 -460q167 -177 417 -177t417 177q167 178 167 460t-167 460q-167 177 -417 177t-417 -177q-167 -178 -167 -460z M514 1784v24l100 101h25l98 -101v-24l-98 -98h-25zM969 1784v24l100 101h25l98 -101v-24l-98 -98h-25z" />
<glyph unicode="&#xd7;" horiz-adv-x="952" d="M68 350v25l307 307l-307 307v25l77 78h25l307 -308l307 308h25l78 -78v-25l-307 -307l307 -307v-25l-78 -78h-25l-307 308l-307 -308h-25z" />
<glyph unicode="&#xd8;" horiz-adv-x="1708" d="M104 768q0 346 220 568q219 220 530 220q80 0 160 -16l35 109l16 16h125l18 -16l-49 -156q201 -90 323 -281t122 -444q0 -346 -220 -568q-219 -220 -530 -220q-88 0 -170 18l-22 -72l-19 -16h-125l-16 16l39 121q-196 90 -317 280q-120 189 -120 441zM270 768 q0 -197 86 -348q84 -147 232 -225l381 1200q-59 10 -115 10q-250 0 -417 -177q-167 -178 -167 -460zM731 143q57 -12 123 -12q250 0 417 177q167 178 167 460q0 201 -88 352q-90 153 -238 226z" />
<glyph unicode="&#xd9;" horiz-adv-x="1454" d="M145 553v965l17 18h125l16 -18v-945q0 -212 109 -332q108 -118 315 -118t315 118q109 120 109 332v945l16 18h125l17 -18v-965q0 -268 -153 -421q-152 -152 -429 -152t-429 152q-153 153 -153 421zM457 1878l59 102l23 7l360 -226l6 -26l-51 -88l-391 208z" />
<glyph unicode="&#xda;" horiz-adv-x="1454" d="M145 553v965l17 18h125l16 -18v-945q0 -212 109 -332q108 -118 315 -118t315 118q109 120 109 332v945l16 18h125l17 -18v-965q0 -268 -153 -421q-152 -152 -429 -152t-429 152q-153 153 -153 421zM549 1735l6 26l360 226l23 -7l59 -102l-6 -23l-391 -208z" />
<glyph unicode="&#xdb;" horiz-adv-x="1454" d="M145 553v965l17 18h125l16 -18v-945q0 -212 109 -332q108 -118 315 -118t315 118q109 120 109 332v945l16 18h125l17 -18v-965q0 -268 -153 -421q-152 -152 -429 -152t-429 152q-153 153 -153 421zM432 1720v25l283 264h24l283 -264v-25l-72 -73l-223 198l-223 -198z" />
<glyph unicode="&#xdc;" horiz-adv-x="1454" d="M145 553v965l17 18h125l16 -18v-945q0 -212 109 -332q108 -118 315 -118t315 118q109 120 109 332v945l16 18h125l17 -18v-965q0 -268 -153 -421q-152 -152 -429 -152t-429 152q-153 153 -153 421zM387 1784v24l100 101h25l98 -101v-24l-98 -98h-25zM842 1784v24l100 101 h25l98 -101v-24l-98 -98h-25z" />
<glyph unicode="&#xdd;" horiz-adv-x="1329" d="M33 1518l16 18h148l16 -18l518 -799l-43 164l428 635l19 18h145l18 -18l-555 -836v-664l-16 -18h-125l-18 18v664zM442 1735l7 26l360 226l22 -7l60 -102l-6 -23l-391 -208z" />
<glyph unicode="&#xde;" horiz-adv-x="1157" d="M166 18v1500l16 18h125l17 -18v-310h270q222 0 351 -117q130 -118 130 -327q0 -214 -129 -328t-352 -114h-270v-304l-17 -18h-125zM324 465h270q152 0 232 76q81 77 81 223q0 143 -82 222t-231 79h-270v-600z" />
<glyph unicode="&#xdf;" horiz-adv-x="1232" d="M223 18v1053q0 104 22 203q21 93 69 179q48 85 142 135t222 50q132 0 227 -71q96 -72 135 -181q39 -108 12 -244q-27 -135 -128 -253q-230 0 -230 -156q0 -55 51 -95q51 -41 124 -68q78 -29 146 -59q73 -32 124 -92t51 -147q0 -139 -109 -216q-107 -76 -258 -76 q-148 0 -282 59l18 139l16 19q112 -88 254 -88q91 0 149 37t58 114q0 54 -51 91q-54 40 -124 66q-78 29 -145 60q-74 34 -124 96q-51 63 -51 154q0 129 84 200q84 70 215 87q79 134 76 241q-3 108 -70 173q-69 67 -168 67q-303 0 -303 -442v-1035l-17 -18h-116z" />
<glyph unicode="&#xe0;" horiz-adv-x="978" d="M106 229q0 275 545 320v264q-68 53 -198 53q-161 0 -316 -82l-18 19l33 137q160 64 331 64q320 0 320 -236v-522q30 -105 110 -144l-32 -122q-142 41 -203 153q-124 -153 -299 -153q-104 0 -188 56q-85 57 -85 193zM248 1477v24l82 82h24l289 -311v-25l-72 -73zM258 236 q0 -64 40 -100t103 -36q145 0 250 164v178q-193 -23 -292 -68q-101 -46 -101 -138z" />
<glyph unicode="&#xe1;" horiz-adv-x="978" d="M106 229q0 275 545 320v264q-68 53 -198 53q-161 0 -316 -82l-18 19l33 137q160 64 331 64q320 0 320 -236v-522q30 -105 110 -144l-32 -122q-142 41 -203 153q-124 -153 -299 -153q-104 0 -188 56q-85 57 -85 193zM258 236q0 -64 40 -100t103 -36q145 0 250 164v178 q-193 -23 -292 -68q-101 -46 -101 -138zM328 1247v25l288 311h25l82 -82v-24l-324 -303z" />
<glyph unicode="&#xe2;" horiz-adv-x="978" d="M106 229q0 275 545 320v264q-68 53 -198 53q-161 0 -316 -82l-18 19l33 137q160 64 331 64q320 0 320 -236v-522q30 -105 110 -144l-32 -122q-142 41 -203 153q-124 -153 -299 -153q-104 0 -188 56q-85 57 -85 193zM195 1247v25l282 297h25l282 -297v-25l-71 -73 l-224 225l-223 -225zM258 236q0 -64 40 -100t103 -36q145 0 250 164v178q-193 -23 -292 -68q-101 -46 -101 -138z" />
<glyph unicode="&#xe3;" horiz-adv-x="978" d="M106 229q0 275 545 320v264q-68 53 -198 53q-161 0 -316 -82l-18 19l33 137q160 64 331 64q320 0 320 -236v-522q30 -105 110 -144l-32 -122q-142 41 -203 153q-124 -153 -299 -153q-104 0 -188 56q-85 57 -85 193zM182 1180q15 92 65 150q49 56 118 56q63 0 154 -49 t134 -49l52 98h92q-28 -206 -170 -206q-65 0 -157 49t-140 49l-56 -98h-92zM258 236q0 -64 40 -100t103 -36q145 0 250 164v178q-193 -23 -292 -68q-101 -46 -101 -138z" />
<glyph unicode="&#xe4;" horiz-adv-x="978" d="M106 229q0 275 545 320v264q-68 53 -198 53q-161 0 -316 -82l-18 19l33 137q160 64 331 64q320 0 320 -236v-522q30 -105 110 -144l-32 -122q-142 41 -203 153q-124 -153 -299 -153q-104 0 -188 56q-85 57 -85 193zM145 1362v22l101 101h24l99 -101v-22l-99 -100h-24z M258 236q0 -64 40 -100t103 -36q145 0 250 164v178q-193 -23 -292 -68q-101 -46 -101 -138zM586 1362v22l98 101h25l100 -101v-22l-100 -100h-25z" />
<glyph unicode="&#xe5;" horiz-adv-x="978" d="M106 229q0 275 545 320v264q-68 53 -198 53q-161 0 -316 -82l-18 19l33 137q160 64 331 64q320 0 320 -236v-522q30 -105 110 -144l-32 -122q-142 41 -203 153q-124 -153 -299 -153q-104 0 -188 56q-85 57 -85 193zM258 236q0 -64 40 -100t103 -36q145 0 250 164v178 q-193 -23 -292 -68q-101 -46 -101 -138zM279 1411q0 99 64 163t163 64t163 -64t64 -163t-64 -163t-163 -64t-163 64t-64 163zM395 1411q0 -46 32 -81q31 -34 79 -34q45 0 78 34q32 33 32 81t-32 81q-33 34 -78 34q-48 0 -79 -34q-32 -35 -32 -81z" />
<glyph unicode="&#xe6;" horiz-adv-x="1636" d="M104 236q0 303 562 350q6 43 18 82q-6 99 -50 146q-43 46 -149 46q-155 0 -327 -90l-19 18l33 152q143 64 328 64q217 0 280 -154q134 154 344 154q75 0 141 -21q67 -21 126 -64q58 -42 95 -125q36 -81 36 -190q0 -46 -6 -98l-21 -17h-680q0 -152 98 -259t246 -107 q161 0 285 76l18 -17v-143q-134 -59 -303 -59q-134 0 -240 56q-109 57 -176 159q-68 -108 -163 -161q-96 -54 -201 -54q-41 0 -80 10q-42 11 -88 36q-48 26 -77 79q-30 54 -30 131zM256 242q0 -70 42 -106t103 -36q79 0 159 50q81 50 132 147q-28 79 -33 182 q-200 -22 -302 -75q-101 -52 -101 -162zM825 594l537 18q4 129 -65 192q-68 62 -173 62q-121 0 -198 -74q-79 -76 -101 -198z" />
<glyph unicode="&#xe7;" horiz-adv-x="991" d="M104 492q0 219 145 366q144 146 361 146q133 0 269 -60v-143l-19 -17q-124 76 -250 76q-148 0 -248 -108q-100 -107 -100 -260q0 -154 100 -261q100 -108 248 -108q126 0 250 76l19 -17v-143q-134 -59 -269 -59h-6l-31 -115q145 30 201 -11q57 -42 57 -118 q0 -87 -91 -144q-92 -57 -242 -57l-19 16v80l19 17q95 0 147 28q53 29 53 74q0 83 -141 53l-45 45l14 138q-185 28 -304 168q-118 139 -118 338z" />
<glyph unicode="&#xe8;" horiz-adv-x="1079" d="M104 492q0 224 130 367q131 145 335 145q75 0 141 -21q67 -21 126 -64q58 -42 95 -125q36 -81 36 -190q0 -42 -9 -98l-18 -17h-682q0 -152 98 -259t246 -107q160 0 287 76l16 -17v-143q-134 -59 -303 -59q-216 0 -357 145t-141 367zM268 594l537 18q6 128 -63 191 t-173 63q-123 0 -200 -74q-79 -76 -101 -198zM338 1477v24l82 82h24l289 -311v-25l-71 -73z" />
<glyph unicode="&#xe9;" horiz-adv-x="1079" d="M104 492q0 224 130 367q131 145 335 145q75 0 141 -21q67 -21 126 -64q58 -42 95 -125q36 -81 36 -190q0 -42 -9 -98l-18 -17h-682q0 -152 98 -259t246 -107q160 0 287 76l16 -17v-143q-134 -59 -303 -59q-216 0 -357 145t-141 367zM268 594l537 18q6 128 -63 191 t-173 63q-123 0 -200 -74q-79 -76 -101 -198zM338 1247v25l289 311h24l82 -82v-24l-323 -303z" />
<glyph unicode="&#xea;" horiz-adv-x="1079" d="M104 492q0 224 130 367q131 145 335 145q75 0 141 -21q67 -21 126 -64q58 -42 95 -125q36 -81 36 -190q0 -42 -9 -98l-18 -17h-682q0 -152 98 -259t246 -107q160 0 287 76l16 -17v-143q-134 -59 -303 -59q-216 0 -357 145t-141 367zM240 1247v25l282 297h25l282 -297v-25 l-71 -73l-223 225l-224 -225zM268 594l537 18q6 128 -63 191t-173 63q-123 0 -200 -74q-79 -76 -101 -198z" />
<glyph unicode="&#xeb;" horiz-adv-x="1079" d="M104 492q0 224 130 367q131 145 335 145q75 0 141 -21q67 -21 126 -64q58 -42 95 -125q36 -81 36 -190q0 -42 -9 -98l-18 -17h-682q0 -152 98 -259t246 -107q160 0 287 76l16 -17v-143q-134 -59 -303 -59q-216 0 -357 145t-141 367zM195 1362v22l100 101h24l99 -101v-22 l-99 -100h-24zM268 594l537 18q6 128 -63 191t-173 63q-123 0 -200 -74q-79 -76 -101 -198zM635 1362v22l98 101h25l100 -101v-22l-100 -100h-25z" />
<glyph unicode="&#xec;" horiz-adv-x="593" d="M-4 1477v24l82 82h24l289 -311v-25l-72 -73zM129 856v109l16 18h230l18 -18v-947l-18 -18h-117l-16 18v822h-97z" />
<glyph unicode="&#xed;" horiz-adv-x="593" d="M129 856v109l16 18h230l18 -18v-947l-18 -18h-117l-16 18v822h-97zM145 1247v25l289 311h25l82 -82v-24l-324 -303z" />
<glyph unicode="&#xee;" horiz-adv-x="593" d="M-2 1247v25l283 297h24l283 -297v-25l-72 -73l-223 225l-223 -225zM129 856v109l16 18h230l18 -18v-947l-18 -18h-117l-16 18v822h-97z" />
<glyph unicode="&#xef;" horiz-adv-x="593" d="M-57 1362v22l100 101h25l98 -101v-22l-98 -100h-25zM129 856v109l16 18h230l18 -18v-947l-18 -18h-117l-16 18v822h-97zM383 1362v22l98 101h25l100 -101v-22l-100 -100h-25z" />
<glyph unicode="&#xf0;" horiz-adv-x="1204" d="M102 442q0 204 123 325q124 122 322 122q172 0 323 -98q-61 248 -258 450l-180 -127l-24 4l-54 78l4 25l156 108q-131 108 -287 187v20h238q81 -49 170 -121l176 123l27 -4l53 -78l-4 -24l-154 -107q326 -324 326 -799q0 -98 -26 -193q-25 -92 -80 -174 q-53 -80 -149 -130q-94 -49 -222 -49q-223 0 -351 125q-129 126 -129 337zM262 442q0 -143 85 -231t235 -88q71 0 132 28q57 26 92 69q32 39 56 101q24 63 31 111q8 56 8 109q0 37 -4 96q-179 125 -336 125q-143 0 -221 -89t-78 -231z" />
<glyph unicode="&#xf1;" horiz-adv-x="1138" d="M145 18v947l17 18h117l18 -18l-80 -201q83 102 204 171t265 69q185 0 257 -96q71 -95 71 -300v-590l-17 -18h-116l-19 18v590q0 135 -41 194q-40 58 -155 58q-206 0 -369 -180v-662l-18 -18h-117zM299 1180q15 92 65 150q49 56 117 56q64 0 155 -49t134 -49l51 98h92 q-28 -206 -170 -206q-64 0 -156 49t-141 49l-55 -98h-92z" />
<glyph unicode="&#xf2;" horiz-adv-x="1220" d="M104 492q0 219 145 366q144 146 361 146q218 0 362 -146t144 -366q0 -222 -144 -367t-362 -145q-217 0 -361 145q-145 147 -145 367zM262 492q0 -154 100 -261q100 -108 248 -108t247 108t99 261q0 152 -99 260t-247 108t-248 -108q-100 -107 -100 -260zM412 1477v24 l82 82h24l289 -311v-25l-72 -73z" />
<glyph unicode="&#xf3;" horiz-adv-x="1220" d="M104 492q0 219 145 366q144 146 361 146q218 0 362 -146t144 -366q0 -222 -144 -367t-362 -145q-217 0 -361 145q-145 147 -145 367zM262 492q0 -154 100 -261q100 -108 248 -108t247 108t99 261q0 152 -99 260t-247 108t-248 -108q-100 -107 -100 -260zM412 1247v25 l288 311h25l82 -82v-24l-324 -303z" />
<glyph unicode="&#xf4;" horiz-adv-x="1220" d="M104 492q0 219 145 366q144 146 361 146q218 0 362 -146t144 -366q0 -222 -144 -367t-362 -145q-217 0 -361 145q-145 147 -145 367zM262 492q0 -154 100 -261q100 -108 248 -108t247 108t99 261q0 152 -99 260t-247 108t-248 -108q-100 -107 -100 -260zM315 1247v25 l283 297h25l282 -297v-25l-71 -73l-224 225l-223 -225z" />
<glyph unicode="&#xf5;" horiz-adv-x="1220" d="M104 492q0 219 145 366q144 146 361 146q218 0 362 -146t144 -366q0 -222 -144 -367t-362 -145q-217 0 -361 145q-145 147 -145 367zM262 492q0 -154 100 -261q100 -108 248 -108t247 108t99 261q0 152 -99 260t-247 108t-248 -108q-100 -107 -100 -260zM303 1180 q15 92 65 150q49 56 117 56q64 0 155 -49t134 -49l51 98h93q-28 -206 -170 -206q-65 0 -157 49t-140 49l-56 -98h-92z" />
<glyph unicode="&#xf6;" horiz-adv-x="1220" d="M104 492q0 219 145 366q144 146 361 146q218 0 362 -146t144 -366q0 -222 -144 -367t-362 -145q-217 0 -361 145q-145 147 -145 367zM262 492q0 -154 100 -261q100 -108 248 -108t247 108t99 261q0 152 -99 260t-247 108t-248 -108q-100 -107 -100 -260zM270 1362v22 l101 101h24l99 -101v-22l-99 -100h-24zM711 1362v22l98 101h25l100 -101v-22l-100 -100h-25z" />
<glyph unicode="&#xf7;" horiz-adv-x="966" d="M61 641v109l19 16h807l18 -16v-109l-18 -18h-807zM381 352v23l90 92h25l90 -92v-23l-90 -90h-25zM381 989v23l90 92h25l90 -92v-23l-90 -90h-25z" />
<glyph unicode="&#xf8;" horiz-adv-x="1220" d="M104 492q0 219 145 366q144 146 361 146q76 0 156 -23l43 84l18 18h125l19 -18l-74 -145q101 -68 161 -182q58 -110 58 -246q0 -222 -144 -367t-362 -145q-94 0 -178 30l-37 -73l-18 -19h-125l-16 19l71 139q-93 67 -148 176q-55 110 -55 240zM262 492q0 -165 115 -277 l321 633q-41 12 -88 12q-148 0 -248 -108q-100 -107 -100 -260zM500 141q52 -18 110 -18q148 0 247 108t99 261q0 179 -131 290z" />
<glyph unicode="&#xf9;" d="M125 375v590l16 18h117l18 -18v-590q0 -135 41 -194q40 -58 156 -58q185 0 348 180v662l19 18h116l17 -18v-947l-17 -18h-116l-19 18l80 201q-190 -239 -448 -239q-186 0 -257 95t-71 300zM352 1477v24l82 82h25l289 -311v-25l-72 -73z" />
<glyph unicode="&#xfa;" d="M125 375v590l16 18h117l18 -18v-590q0 -135 41 -194q40 -58 156 -58q185 0 348 180v662l19 18h116l17 -18v-947l-17 -18h-116l-19 18l80 201q-190 -239 -448 -239q-186 0 -257 95t-71 300zM455 1247v25l288 311h25l82 -82v-24l-324 -303z" />
<glyph unicode="&#xfb;" d="M125 375v590l16 18h117l18 -18v-590q0 -135 41 -194q40 -58 156 -58q185 0 348 180v662l19 18h116l17 -18v-947l-17 -18h-116l-19 18l80 201q-190 -239 -448 -239q-186 0 -257 95t-71 300zM254 1247v25l283 297h24l283 -297v-25l-72 -73l-223 225l-223 -225z" />
<glyph unicode="&#xfc;" d="M125 375v590l16 18h117l18 -18v-590q0 -135 41 -194q40 -58 156 -58q185 0 348 180v662l19 18h116l17 -18v-947l-17 -18h-116l-19 18l80 201q-190 -239 -448 -239q-186 0 -257 95t-71 300zM211 1362v22l100 101h25l98 -101v-22l-98 -100h-25zM651 1362v22l99 101h24 l100 -101v-22l-100 -100h-24z" />
<glyph unicode="&#xfd;" horiz-adv-x="1085" d="M57 944v21l17 18h139l377 -895l-25 160l305 735h140l18 -18v-21l-620 -1456h-205l-17 18v109l17 16h112l154 369zM344 1247v25l289 311h24l82 -82v-24l-323 -303z" />
<glyph unicode="&#xfe;" horiz-adv-x="1210" d="M145 -502v2110l152 30v-641l-80 -198q147 205 391 205q217 0 358 -146q140 -144 140 -366q0 -223 -140 -367q-141 -145 -358 -145q-245 0 -391 204l80 -204v-512zM297 266q118 -143 311 -143q149 0 243 107q95 109 95 262q0 152 -95 261q-94 107 -243 107 q-193 0 -311 -143v-451z" />
<glyph unicode="&#xff;" horiz-adv-x="1085" d="M57 944v21l17 18h139l377 -895l-25 160l305 735h140l18 -18v-21l-620 -1456h-205l-17 18v109l17 16h112l154 369zM203 1362v22l100 101h25l98 -101v-22l-98 -100h-25zM643 1362v22l98 101h25l100 -101v-22l-100 -100h-25z" />
<glyph unicode="&#x152;" horiz-adv-x="2287" d="M145 768q0 347 206 558q205 210 503 210h1255l19 -18v-109l-19 -16l-895 12q306 -164 345 -539h469l18 -16v-109l-18 -18h-465q-10 -209 -103 -361q-89 -147 -246 -231l936 12l19 -16v-109l-19 -18h-1296q-298 0 -503 210q-206 211 -206 558zM311 768q0 -282 154 -454 q153 -171 389 -171t389 171q154 172 154 454t-154 454q-153 171 -389 171t-389 -171q-154 -172 -154 -454z" />
<glyph unicode="&#x153;" horiz-adv-x="1906" d="M104 492q0 220 137 366t349 146q137 0 247 -67q106 -65 164 -181q56 115 160 182q102 66 236 66q74 0 140 -21q67 -21 126 -64t94 -125t35 -190q0 -46 -6 -98l-21 -17h-675q0 -154 96 -260t244 -106q159 0 286 76l17 -17v-143q-134 -59 -303 -59q-144 0 -254 67t-172 186 q-57 -119 -165 -186q-107 -67 -249 -67q-213 0 -349 145q-137 146 -137 367zM262 492q0 -153 92 -262q91 -107 236 -107q142 0 233 107q92 109 92 262q0 152 -92 261q-91 107 -233 107q-145 0 -236 -107q-92 -109 -92 -261zM1094 594l538 18q6 129 -62 191q-69 63 -173 63 q-124 0 -201 -74q-78 -75 -102 -198z" />
<glyph unicode="&#x178;" horiz-adv-x="1329" d="M33 1518l16 18h148l16 -18l518 -799l-43 164l428 635l19 18h145l18 -18l-555 -836v-664l-16 -18h-125l-18 18v664zM326 1784v24l100 101h25l98 -101v-24l-98 -98h-25zM780 1784v24l101 101h24l99 -101v-24l-99 -98h-24z" />
<glyph unicode="&#x2c6;" horiz-adv-x="589" d="M0 1247v25l283 297h24l283 -297v-25l-72 -73l-223 225l-223 -225z" />
<glyph unicode="&#x2dc;" horiz-adv-x="614" d="M0 1180q15 92 65 150q49 56 117 56q64 0 155 -49t134 -49l51 98h92q-28 -206 -170 -206q-64 0 -156 49t-141 49l-55 -98h-92z" />
<glyph unicode="&#x2000;" horiz-adv-x="1004" />
<glyph unicode="&#x2001;" horiz-adv-x="2009" />
<glyph unicode="&#x2002;" horiz-adv-x="1004" />
<glyph unicode="&#x2003;" horiz-adv-x="2009" />
<glyph unicode="&#x2004;" horiz-adv-x="669" />
<glyph unicode="&#x2005;" horiz-adv-x="502" />
<glyph unicode="&#x2006;" horiz-adv-x="334" />
<glyph unicode="&#x2007;" horiz-adv-x="334" />
<glyph unicode="&#x2008;" horiz-adv-x="251" />
<glyph unicode="&#x2009;" horiz-adv-x="401" />
<glyph unicode="&#x200a;" horiz-adv-x="111" />
<glyph unicode="&#x2010;" horiz-adv-x="802" d="M61 559v109l19 16h643l18 -16v-109l-18 -18h-643z" />
<glyph unicode="&#x2011;" horiz-adv-x="802" d="M61 559v109l19 16h643l18 -16v-109l-18 -18h-643z" />
<glyph unicode="&#x2012;" horiz-adv-x="802" d="M61 559v109l19 16h643l18 -16v-109l-18 -18h-643z" />
<glyph unicode="&#x2013;" horiz-adv-x="1212" d="M61 559v109l19 16h1053l18 -16v-109l-18 -18h-1053z" />
<glyph unicode="&#x2014;" horiz-adv-x="1826" d="M61 559v109l19 16h1667l18 -16v-109l-18 -18h-1667z" />
<glyph unicode="&#x2018;" horiz-adv-x="473" d="M68 1239v25l243 374l95 -51v-24l-199 -381h-23z" />
<glyph unicode="&#x2019;" horiz-adv-x="473" d="M68 1233v24l196 381h25l117 -57v-25l-244 -374z" />
<glyph unicode="&#x201a;" horiz-adv-x="405" d="M0 -184l199 381h22l117 -58v-24l-242 -375l-96 51v25z" />
<glyph unicode="&#x201c;" horiz-adv-x="860" d="M68 1239v25l243 374l95 -51v-24l-199 -381h-23zM455 1239v25l243 374l95 -51v-24l-199 -381h-23z" />
<glyph unicode="&#x201d;" horiz-adv-x="860" d="M68 1233v24l196 381h25l117 -57v-25l-244 -374zM455 1233v24l196 381h25l117 -57v-25l-244 -374z" />
<glyph unicode="&#x201e;" horiz-adv-x="792" d="M0 -184l199 381h22l117 -58v-24l-242 -375l-96 51v25zM387 -184l199 381h22l117 -58v-24l-244 -375l-94 51v25z" />
<glyph unicode="&#x2022;" horiz-adv-x="503" d="M70 532v41l159 164h43l162 -164v-41l-162 -161h-43z" />
<glyph unicode="&#x2026;" horiz-adv-x="1198" d="M70 106v29l106 107h29l106 -107v-29l-106 -106h-29zM479 106v29l107 107h28l107 -107v-29l-107 -106h-28zM889 106v29l106 107h29l106 -107v-29l-106 -106h-29z" />
<glyph unicode="&#x202f;" horiz-adv-x="401" />
<glyph unicode="&#x2039;" horiz-adv-x="555" d="M63 541v24l299 344h25l72 -71l-234 -285l234 -285l-72 -71h-25z" />
<glyph unicode="&#x203a;" horiz-adv-x="550" d="M94 268l236 285l-236 285l74 71h25l296 -344v-24l-296 -344h-25z" />
<glyph unicode="&#x205f;" horiz-adv-x="502" />
<glyph unicode="&#x20ac;" horiz-adv-x="1415" d="M53 596v78l19 18h137q-2 32 -2 76q0 42 2 72h-137l-19 16v80l19 16h149q45 278 220 441t421 163q220 0 408 -100v-151l-17 -17q-108 64 -191 90q-85 27 -200 27q-187 0 -312 -121q-127 -122 -167 -332h512l16 -16v-80l-16 -16h-526q-2 -30 -2 -72q0 -44 2 -76h526l16 -18 v-78l-16 -18h-510q40 -206 167 -327q126 -120 310 -120q114 0 200 27q83 26 191 90l17 -17v-151q-188 -100 -408 -100q-247 0 -419 160q-173 161 -220 438h-151z" />
<glyph unicode="&#x2122;" horiz-adv-x="2996" d="M47 1409v109l19 18h1181l19 -18v-109l-19 -16h-512v-1375l-16 -18h-125l-19 18v1375h-509zM1479 18v1500l16 18h125l16 -18l594 -775l-55 127l498 648l16 18h125l16 -18v-1500l-16 -18h-125l-16 18v1147l71 193l-590 -744l-589 744l71 -193v-1147l-16 -18h-125z" />
<glyph unicode="&#x25fc;" horiz-adv-x="983" d="M0 0v983h983v-983h-983z" />
</font>
</defs>
</svg>
