<?xml version="1.0" standalone="no"?>
<!DOCTYPE svg PUBLIC "-//W3C//DTD SVG 1.1//EN" "http://www.w3.org/Graphics/SVG/1.1/DTD/svg11.dtd" >
<svg xmlns="http://www.w3.org/2000/svg">
<metadata></metadata>
<defs>
<font id="picadilly-bolduploaded_file" horiz-adv-x="1708" >
<font-face units-per-em="2048" ascent="1638" descent="-410" />
<missing-glyph horiz-adv-x="333" />
<glyph horiz-adv-x="0" />
<glyph unicode="&#xd;" horiz-adv-x="681" />
<glyph unicode=" "  horiz-adv-x="333" />
<glyph unicode="&#x09;" horiz-adv-x="333" />
<glyph unicode="&#xa0;" horiz-adv-x="333" />
<glyph unicode="!" horiz-adv-x="522" d="M82 160v39l160 159h39l159 -159v-39l-159 -160h-39zM104 1516l21 20h272l21 -20l-47 -1031l-21 -20h-178l-20 20z" />
<glyph unicode="&#x22;" horiz-adv-x="737" d="M35 1618l20 20h246l21 -20l-21 -430l-20 -21h-205l-21 21zM416 1618l20 20h246l20 -20l-20 -430l-20 -21h-205l-21 21z" />
<glyph unicode="#" horiz-adv-x="1576" d="M27 389v211l20 21h178l72 321h-147l-21 21v211l21 20h204l80 360l21 21h272l21 -21l-80 -360h409l80 360l21 21h274l21 -21l-80 -360h137l20 -20v-211l-20 -21h-195l-71 -321h163l21 -21v-211l-21 -20h-219l-78 -349l-20 -20h-274l-21 20l78 349h-410l-77 -349l-21 -20 h-272l-21 20l78 349h-123zM539 621h409l72 321h-410z" />
<glyph unicode="$" horiz-adv-x="1052" d="M72 59l41 254l20 21q112 -79 215 -101l80 426q-78 43 -126 75q-46 30 -105 86q-57 54 -86 128q-29 75 -29 168q0 198 130 319t353 121h29l31 164l20 21h123l20 -21l-34 -188q79 -23 139 -55v-254l-21 -21q-91 69 -161 96l-76 -403q66 -34 100 -55q37 -22 90 -66 q55 -46 83 -86q30 -44 51 -109q22 -69 22 -147q0 -146 -82 -253q-81 -106 -194 -153q-111 -46 -236 -46h-4l-31 -164l-20 -21h-123l-21 21l33 174q-117 16 -231 69zM387 1151q0 -98 100 -170l62 334q-162 -17 -162 -164zM510 227q166 21 166 179q0 92 -103 165z" />
<glyph unicode="%" horiz-adv-x="2039" d="M61 1253q0 169 113 277t293 108q181 0 293 -108t112 -277q0 -168 -112 -276q-114 -109 -293 -109t-293 109q-113 108 -113 276zM338 1253q0 -79 38 -126q37 -46 91 -46t91 46q38 47 38 126t-38 126q-37 46 -91 46t-91 -46q-38 -47 -38 -126zM444 20l805 1555l21 20h274 l21 -20l-807 -1555l-21 -20h-272zM1167 371q0 168 113 276q114 109 293 109t293 -109q112 -108 112 -276q0 -169 -112 -277t-293 -108t-293 108q-113 108 -113 277zM1444 371q0 -79 38 -126q37 -46 91 -46t91 46q38 47 38 126t-38 126q-37 46 -91 46t-91 -46 q-38 -47 -38 -126z" />
<glyph unicode="&#x26;" horiz-adv-x="1431" d="M47 389q0 118 79 231q79 114 202 187q-115 194 -115 369q0 165 120 273q119 107 316 107q196 0 309 -106q115 -107 115 -268q0 -125 -77 -234q-78 -110 -199 -166q-75 75 -125 172q110 68 110 207q0 69 -36 106q-36 38 -97 38q-125 0 -125 -142q0 -121 115 -284 q114 -162 344 -398q78 127 78 277h272q0 -255 -157 -469l288 -289h-409l-90 90q-177 -110 -398 -110q-244 0 -382 111t-138 298zM373 399q0 -79 55 -121q56 -42 139 -42q109 0 203 45q-207 212 -303 329q-94 -82 -94 -211z" />
<glyph unicode="'" horiz-adv-x="354" d="M35 1618l20 20h246l21 -20l-21 -430l-20 -21h-205l-21 21z" />
<glyph unicode="(" horiz-adv-x="692" d="M117 768q0 516 258 952l28 19l246 -45l15 -25q-218 -412 -218 -901t218 -901l-15 -25l-246 -45l-28 19q-258 436 -258 952z" />
<glyph unicode=")" horiz-adv-x="692" d="M27 -133q219 409 219 901t-219 901l14 25l248 45l28 -19q258 -436 258 -952t-258 -952l-28 -19l-248 45z" />
<glyph unicode="*" horiz-adv-x="894" d="M0 1444l340 86l43 -121l-313 -154zM121 1802l168 109l157 -312l-106 -69zM346 1059l37 350h127l37 -350h-201zM446 1599l160 312l168 -109l-219 -272zM510 1409l45 121l340 -86l-70 -189z" />
<glyph unicode="+" horiz-adv-x="1024" d="M47 573v199l21 21h325v323l21 21h196l21 -21v-323h325l21 -21v-199l-21 -20h-325v-324l-21 -20h-196l-21 20v324h-325z" />
<glyph unicode="," horiz-adv-x="495" d="M0 -88l193 422h28l228 -105v-28l-263 -398l-186 80v29z" />
<glyph unicode="-" horiz-adv-x="833" d="M47 492v198l21 21h696l20 -21v-198l-20 -21h-696z" />
<glyph unicode="." horiz-adv-x="518" d="M61 176v43l177 176h43l176 -176v-43l-176 -176h-43z" />
<glyph unicode="/" horiz-adv-x="880" d="M10 20l547 1534l21 21h272l20 -21l-546 -1534l-21 -20h-272z" />
<glyph unicode="0" horiz-adv-x="1251" d="M68 768q0 138 27 269q26 125 88 251q60 122 174 194t270 72q125 0 223 -49q99 -50 160 -128q60 -78 101 -185q39 -102 56 -211q17 -108 17 -213t-17 -213q-17 -109 -56 -211q-41 -107 -101 -185q-61 -78 -160 -128q-98 -49 -223 -49q-156 0 -270 72t-174 194 q-62 126 -88 251q-27 131 -27 269zM399 768q0 -79 10 -169q9 -84 31 -165q22 -84 71 -134q48 -50 116 -50q67 0 114 50q48 51 70 134q23 87 32 165q9 81 9 169t-9 169q-9 78 -32 165q-22 83 -70 134q-47 50 -114 50q-68 0 -116 -50q-49 -50 -71 -134q-22 -81 -31 -165 q-10 -90 -10 -169z" />
<glyph unicode="1" horiz-adv-x="696" d="M190 20v1332l295 204h21v-1536l-21 -20h-274z" />
<glyph unicode="2" horiz-adv-x="1081" d="M27 0q100 157 159 247q34 52 82 125t60 91q51 78 111 174q62 99 92 155q39 72 62 122q30 64 42 113q12 48 12 93q0 185 -186 185q-164 0 -322 -103l-20 21v254q151 79 370 79q237 0 361 -111q125 -111 125 -315q0 -85 -23 -172t-73 -180q-46 -86 -95 -163 q-51 -80 -122 -184q-90 -130 -121 -179h444l21 -21v-211l-21 -20h-958z" />
<glyph unicode="3" horiz-adv-x="1138" d="M96 59v258l21 21q156 -102 321 -102q118 0 186 56t68 159q0 111 -70 180q-71 69 -190 69q-122 0 -252 -30l381 614h-444l-21 21v211l21 20h927l-397 -627q169 -38 268 -157q101 -122 101 -301q0 -220 -156 -346q-155 -125 -393 -125q-220 0 -371 79z" />
<glyph unicode="4" horiz-adv-x="1265" d="M27 547l682 989h272l20 -20v-898h162l21 -20v-199l-21 -20h-162v-359l-20 -20h-258l-21 20v359l-495 2zM373 618h329v484z" />
<glyph unicode="5" horiz-adv-x="1112" d="M96 59v258l21 21q156 -102 321 -102q118 0 186 56t68 159q0 111 -69 180t-185 69q-176 0 -332 -73l91 909h743l21 -20v-205l-21 -21h-485l-41 -383q72 15 155 15q187 0 317 -130t130 -341q0 -220 -156 -346q-155 -125 -393 -125q-220 0 -371 79z" />
<glyph unicode="6" horiz-adv-x="1196" d="M76 559q0 596 532 977h430v-20q-470 -259 -598 -629q100 35 207 35q216 0 344 -124q129 -124 129 -327q0 -227 -147 -359t-381 -132q-257 0 -386 168q-130 169 -130 411zM393 594q0 -161 51 -260q50 -98 162 -98q93 0 142 62t49 173q0 97 -52 164q-50 65 -147 65 q-93 0 -203 -49z" />
<glyph unicode="7" horiz-adv-x="1067" d="M55 1305l21 -21h555l-500 -1284h328l594 1536h-977l-21 -20v-211z" />
<glyph unicode="8" horiz-adv-x="1189" d="M76 416q0 144 79 250q80 107 199 163q-102 53 -163 144q-60 90 -60 203q0 164 132 272t333 108q199 0 331 -108t132 -272q0 -116 -60 -204q-63 -93 -163 -143q121 -56 201 -163q79 -106 79 -250q0 -185 -151 -311q-150 -125 -369 -125t-369 125q-151 126 -151 311z M393 446q0 -94 57 -152t146 -58t145 59q58 61 58 151q0 159 -224 254q-182 -79 -182 -254zM432 1157q0 -72 53 -125t131 -80q64 24 103 80t39 125q0 67 -41 108q-40 40 -121 40q-80 0 -122 -43q-42 -44 -42 -105z" />
<glyph unicode="9" horiz-adv-x="1196" d="M76 1065q0 227 147 359t381 132q257 0 386 -168q130 -169 130 -411q0 -596 -532 -977h-430v20q470 259 598 629q-100 -35 -207 -35q-216 0 -344 124q-129 124 -129 327zM399 1065q0 -97 52 -164q50 -65 147 -65q93 0 203 49l2 57q0 161 -51 260q-50 98 -162 98 q-92 0 -141 -62q-50 -64 -50 -173z" />
<glyph unicode=":" horiz-adv-x="518" d="M61 176v43l177 176h43l176 -176v-43l-176 -176h-43zM61 791v45l177 174h43l176 -174v-45l-176 -175h-43z" />
<glyph unicode=";" horiz-adv-x="530" d="M35 -88l192 422h29l227 -105v-28l-260 -398l-188 80v29zM88 791v45l176 174h43l176 -174v-45l-176 -175h-43z" />
<glyph unicode="&#x3c;" horiz-adv-x="958" d="M41 614v99l721 370h29l92 -180l-490 -239l490 -240l-92 -180h-29z" />
<glyph unicode="=" horiz-adv-x="1024" d="M47 369v198l21 21h888l21 -21v-198l-21 -21h-888zM47 778v199l21 20h888l21 -20v-199l-21 -20h-888z" />
<glyph unicode="&#x3e;" horiz-adv-x="954" d="M72 424l491 240l-491 239l92 180h29l720 -370v-99l-720 -370h-29z" />
<glyph unicode="?" horiz-adv-x="1054" d="M137 1223v254q151 79 371 79q225 0 345 -96t120 -268q0 -95 -37 -179q-38 -87 -90 -149q-32 -39 -106 -123q-51 -59 -89 -125q-37 -65 -37 -131l-20 -20h-178l-21 20q0 102 40 195q42 98 86 156q46 61 85 143q39 83 39 162q0 83 -39 124q-39 40 -127 40q-163 0 -321 -103 zM326 160v39l159 159h39l160 -159v-39l-160 -160h-39z" />
<glyph unicode="@" horiz-adv-x="2111" d="M88 492q0 393 282 654t724 261q430 0 679 -233q250 -234 250 -574q0 -294 -119 -446q-121 -154 -333 -154q-191 0 -277 129q-117 -127 -286 -127q-200 0 -315 130t-115 335t115 335t315 130q203 0 333 -187l-102 168l18 19h240l19 -19v-589q0 -131 90 -131q65 0 100 87 q35 88 35 320q0 109 -33 206t-103 185t-202 141q-129 52 -309 52q-317 0 -513 -185t-196 -507q0 -334 196 -524q195 -189 513 -189q283 0 481 69l20 -20v-193q-228 -79 -501 -79q-441 0 -724 266q-282 266 -282 670zM868 467q0 -121 51 -189q50 -67 132 -67q110 0 188 113 v284q-78 113 -188 113q-82 0 -132 -67q-51 -68 -51 -187z" />
<glyph unicode="A" horiz-adv-x="1488" d="M25 20l540 1496l21 20h317l21 -20l540 -1496l-20 -20h-291l-20 20l-138 406h-501l-138 -406l-20 -20h-291zM580 680h327l-221 651l29 -252z" />
<glyph unicode="B" horiz-adv-x="1257" d="M127 20v1496l20 20h445q224 0 365 -111t141 -299q0 -226 -201 -321q295 -100 295 -365q0 -224 -152 -332t-399 -108h-494zM440 252h172q116 0 186 49t70 154q0 102 -72 153t-190 51h-166v-407zM440 909h140q91 0 146 52q54 51 54 139q0 85 -55 134q-56 50 -145 50h-140 v-375z" />
<glyph unicode="C" horiz-adv-x="1425" d="M66 768q0 348 227 568t561 220q251 0 467 -100v-272l-21 -21q-145 72 -229 97q-87 26 -217 26q-204 0 -331 -145q-128 -146 -128 -373t128 -373q127 -145 331 -145q130 0 217 26q84 25 229 97l21 -21v-272q-236 -100 -467 -100q-334 0 -561 220t-227 568z" />
<glyph unicode="D" horiz-adv-x="1521" d="M127 20v1496l20 20h521q332 0 561 -215q227 -214 227 -553t-227 -553q-229 -215 -561 -215h-521zM440 252h228q202 0 330 144q128 145 128 372t-128 372q-128 144 -330 144h-228v-1032z" />
<glyph unicode="E" horiz-adv-x="1105" d="M127 20v1496l20 20h832l20 -20v-211l-20 -21h-539v-373h457l21 -20v-211l-21 -21h-457v-407h580l20 -21v-211l-20 -20h-873z" />
<glyph unicode="F" horiz-adv-x="1030" d="M127 20v1496l20 20h832l20 -20v-211l-20 -21h-539v-399h498l20 -21v-213l-20 -20h-498v-611l-20 -20h-273z" />
<glyph unicode="G" horiz-adv-x="1464" d="M66 768q0 348 227 568t561 220q271 0 487 -100v-272l-20 -21q-143 71 -235 97q-91 26 -232 26q-204 0 -331 -145q-128 -146 -128 -373t128 -373q127 -145 331 -145q98 0 190 16v393l21 21h272l21 -21v-579q-236 -100 -504 -100q-334 0 -561 220t-227 568z" />
<glyph unicode="H" horiz-adv-x="1576" d="M127 20v1496l20 20h273l20 -20v-605h697v605l20 20h273l20 -20v-1496l-20 -20h-273l-20 20v639h-697v-639l-20 -20h-273z" />
<glyph unicode="I" horiz-adv-x="614" d="M150 20v1496l20 20h274l21 -20v-1496l-21 -20h-274z" />
<glyph unicode="J" horiz-adv-x="880" d="M106 10v250q87 -29 187 -29q79 0 114 49q33 46 33 177v827h-260l-20 21v211l20 20h553l21 -18v-1149q0 -170 -104 -280q-103 -109 -328 -109q-136 0 -216 30z" />
<glyph unicode="K" horiz-adv-x="1409" d="M127 20v1496l20 20h273l20 -20v-1496l-20 -20h-273zM502 799l516 737h340v-31l-488 -680l-194 -26l194 -27l523 -752v-20h-359z" />
<glyph unicode="L" horiz-adv-x="1024" d="M127 20v1496l20 20h273l20 -20v-1264h527l20 -21v-211l-20 -20h-820z" />
<glyph unicode="M" horiz-adv-x="1683" d="M127 20v1496l20 20h287l21 -20l493 -732l-74 195l355 537l20 20h287l20 -20v-1496l-20 -20h-272l-21 20v922l94 234l-495 -711l-496 711l94 -234v-922l-20 -20h-273z" />
<glyph unicode="N" horiz-adv-x="1576" d="M127 20v1496l20 20h320l29 -20l735 -1170l-94 248v922l20 20h273l20 -20v-1496l-20 -20h-320l-29 20l-735 1156l94 -246v-910l-20 -20h-273z" />
<glyph unicode="O" d="M66 768q0 348 227 568t561 220t561 -220t227 -568t-227 -568t-561 -220t-561 220t-227 568zM395 768q0 -227 128 -373q127 -145 331 -145t331 145q128 146 128 373t-128 373q-127 145 -331 145t-331 -145q-128 -146 -128 -373z" />
<glyph unicode="P" horiz-adv-x="1175" d="M127 20v1496l20 20h474q235 0 369 -128t134 -329q0 -202 -134 -330t-369 -128h-181v-601l-20 -20h-273zM440 874h152q98 0 154 54q55 53 55 151q0 96 -55 151q-54 54 -154 54h-152v-410z" />
<glyph unicode="Q" d="M66 768q0 348 227 568t561 220t561 -220t227 -568q0 -307 -181 -504q-182 -199 -468 -239q153 -128 417 -128q106 0 230 21v-270q-109 -13 -209 -13q-222 0 -401 65q-258 95 -395 308q-255 66 -412 271t-157 489zM395 768q0 -227 128 -373q127 -145 331 -145t331 145 q128 146 128 373t-128 373q-127 145 -331 145t-331 -145q-128 -146 -128 -373z" />
<glyph unicode="R" horiz-adv-x="1298" d="M127 20v1496l20 20h445q236 0 371 -126t135 -318q0 -118 -64 -212t-178 -145q65 -40 136 -162q77 -131 160 -299q90 -181 136 -254v-20h-344q-40 68 -123 249q-87 191 -147 288q-66 106 -123 112h-111v-629l-20 -20h-273zM440 901h125q101 0 155 51t54 140q0 88 -54 140 q-53 52 -155 52h-125v-383z" />
<glyph unicode="S" horiz-adv-x="1052" d="M72 59l41 254l20 21q159 -103 324 -103q94 0 145 45t51 130q0 56 -31 100q-30 43 -82 79q-34 23 -111 66q-58 32 -122 74q-59 39 -111 91q-50 51 -82 127q-32 78 -32 173q0 198 130 319t353 121q177 0 328 -79v-254l-21 -21q-158 103 -278 103q-90 0 -137 -42t-47 -112 q0 -67 42 -120q41 -52 105 -85q63 -33 138 -78q82 -49 139 -94q64 -50 105 -137q42 -89 42 -205q0 -146 -82 -253q-81 -106 -194 -153q-111 -46 -236 -46q-224 0 -397 79z" />
<glyph unicode="T" horiz-adv-x="1316" d="M31 1305v211l20 20h1215l20 -20v-211l-20 -21h-451v-1264l-20 -20h-273l-20 20v1264h-451z" />
<glyph unicode="U" horiz-adv-x="1454" d="M106 553v963l21 20h272l21 -20v-861q0 -206 66 -308q65 -101 241 -101t241 101q66 102 66 308v861l21 20h272l21 -20v-963q0 -267 -168 -420t-453 -153t-453 153t-168 420z" />
<glyph unicode="V" horiz-adv-x="1474" d="M31 1516l20 20h291l20 -20l435 -1311l-31 252l346 1059l21 20h290l21 -20l-529 -1496l-20 -20h-315l-21 20z" />
<glyph unicode="W" horiz-adv-x="2217" d="M31 1516l20 20h291l20 -20l414 -1311l-31 252l222 833l-60 226l21 20h278l21 -20l354 -1311l-20 252l288 1059l21 20h291l20 -20l-479 -1496l-21 -20h-317l-21 20l-299 981l33 -268l-178 -713l-20 -20h-320l-20 20z" />
<glyph unicode="X" horiz-adv-x="1423" d="M25 20l444 764l-430 732l20 20h326l21 -20l305 -574l307 574l20 20h324l20 -20l-428 -732l445 -764l-21 -20h-317l-350 614l-349 -614h-317z" />
<glyph unicode="Y" horiz-adv-x="1396" d="M20 1516l21 20h319l21 -20l399 -768l-49 247l283 521l20 20h322l20 -20l-522 -873v-623l-20 -20h-273l-20 20v623z" />
<glyph unicode="Z" horiz-adv-x="1359" d="M51 0l760 1284h-672l-20 21v211l20 20h1170l-768 -1284h694l20 -21v-211l-20 -20h-1184z" />
<glyph unicode="[" horiz-adv-x="763" d="M158 -184v1904l20 21h524l21 -21v-211l-21 -20h-231v-1442h231l21 -20v-211l-21 -21h-524z" />
<glyph unicode="\" horiz-adv-x="1077" d="M8 1554l21 21h272l21 -21l546 -1534l-20 -20h-273l-20 20z" />
<glyph unicode="]" horiz-adv-x="763" d="M41 27l20 20h232v1442h-232l-20 20v211l20 21h527l20 -21v-1904l-20 -21h-527l-20 21v211z" />
<glyph unicode="^" horiz-adv-x="802" d="M14 1114v29l371 495h29l372 -495l2 -29l-147 -113l-240 332l-237 -332z" />
<glyph unicode="_" horiz-adv-x="886" d="M0 -20l20 20h846l21 -20v-179l-21 -20h-846l-20 20v179z" />
<glyph unicode="`" horiz-adv-x="464" d="M0 1448v29l147 147h29l289 -338v-29l-113 -114z" />
<glyph unicode="a" horiz-adv-x="987" d="M78 238q0 146 127 219q129 74 354 98v180q-60 27 -158 27q-144 0 -290 -74l-21 21l41 235q144 60 340 60q385 0 385 -293v-439q27 -68 107 -112l-76 -180q-172 21 -260 110q-122 -110 -260 -110q-47 0 -88 11q-50 13 -94 38q-47 26 -77 81q-30 54 -30 128zM334 262 q0 -40 23 -63q25 -25 71 -25q69 0 131 53v166q-122 -18 -174 -47q-51 -28 -51 -84z" />
<glyph unicode="b" horiz-adv-x="1218" d="M119 20v1588l297 30v-634l-107 -205q147 205 369 205q217 0 346 -144t129 -368q0 -225 -129 -369q-128 -143 -346 -143q-150 0 -262 90v-50l-21 -20h-256zM416 334q84 -123 215 -123q94 0 151 74q58 75 58 207q0 131 -58 206q-57 74 -151 74q-131 0 -215 -123v-315z" />
<glyph unicode="c" horiz-adv-x="960" d="M66 492q0 224 149 367q151 145 389 145q146 0 283 -60v-233l-21 -21q-124 74 -248 74q-104 0 -172 -72q-67 -71 -67 -200q0 -130 67 -201q68 -72 172 -72q120 0 248 74l21 -21v-233q-134 -59 -283 -59q-239 0 -389 144q-149 143 -149 368z" />
<glyph unicode="d" horiz-adv-x="1218" d="M66 492q0 223 128 368q128 144 345 144q224 0 368 -205l-106 205v604l297 30v-1618l-21 -20h-256l-20 20v50q-113 -90 -262 -90q-218 0 -345 143q-128 145 -128 369zM379 492q0 -134 57 -207q57 -74 152 -74q130 0 213 123v315q-83 123 -213 123q-95 0 -152 -74t-57 -206 z" />
<glyph unicode="e" horiz-adv-x="1048" d="M66 492q0 222 137 367t360 145q75 0 142 -21q69 -21 130 -65t100 -132q38 -87 38 -202q0 -56 -8 -115l-23 -20h-588q11 -116 76 -177t170 -61q150 0 289 82l20 -21v-233q-134 -59 -321 -59q-241 0 -381 143q-141 144 -141 369zM363 606l329 21q-1 70 -44 113 q-42 42 -105 42q-145 0 -180 -176z" />
<glyph unicode="f" horiz-adv-x="860" d="M51 772v191l19 20h145v82q0 247 144 410t436 163q153 0 233 -30l-20 -217l-21 -21q-110 37 -192 37q-283 0 -283 -363v-61h307l21 -20v-191l-21 -20h-307v-732l-20 -20h-256l-21 20v732h-145z" />
<glyph unicode="g" horiz-adv-x="1130" d="M72 -225q0 151 145 278q-22 48 -22 113l75 174q-157 105 -157 295q0 165 121 267q122 102 315 102q189 0 301 -136l-141 189v102l20 21h223l21 -21l-2 -524q0 -167 -116 -268t-306 -101q-61 0 -123 13v-46q0 -86 201 -86q463 0 463 -305q0 -165 -152 -270 q-150 -104 -389 -104q-227 0 -351 81q-126 83 -126 226zM340 -186q0 -131 209 -131q117 0 185 36q71 38 71 97q0 96 -203 96q-149 0 -227 22q-35 -53 -35 -120zM399 635q0 -74 43 -116q44 -42 107 -42q58 0 104 43q47 44 47 115t-44 115q-43 43 -107 43q-63 0 -107 -42 q-43 -42 -43 -116z" />
<glyph unicode="h" horiz-adv-x="1153" d="M119 20v1588l297 30v-675l-107 -205q186 246 441 246q172 0 245 -90q72 -88 72 -285v-609l-20 -20h-256l-21 20v609q0 70 -25 103q-24 32 -83 32q-118 0 -246 -135v-609l-21 -20h-256z" />
<glyph unicode="i" horiz-adv-x="645" d="M82 772v191l20 20h369l21 -20v-943l-21 -20h-256l-20 20v732h-93zM131 1368v45l176 174h43l176 -174v-45l-176 -174h-43z" />
<glyph unicode="j" horiz-adv-x="665" d="M37 -508q178 341 178 733v533h-92l-21 20v185l21 20h369l20 -20v-738q0 -405 -178 -757h-277zM145 1368v45l181 182h47l180 -182v-45l-180 -182h-47z" />
<glyph unicode="k" horiz-adv-x="1161" d="M119 20v1588l297 30v-1618l-21 -20h-256zM465 535l307 448h289l20 -20v-25l-313 -403l377 -490v-25l-21 -20h-309z" />
<glyph unicode="l" horiz-adv-x="669" d="M106 334v1274l297 30v-1249q0 -105 26 -142q25 -36 87 -36q57 0 96 27l21 -21v-211q-74 -26 -178 -26q-201 0 -275 96q-74 97 -74 258z" />
<glyph unicode="m" horiz-adv-x="1695" d="M106 20v943l21 20h256l20 -20l-106 -205q183 246 405 246q210 0 273 -158q150 158 332 158q163 0 233 -91t70 -284v-609l-21 -20h-256l-20 20v609q0 71 -23 103t-73 32q-83 0 -211 -135v-609l-21 -20h-256l-20 20v609q0 70 -22 103q-21 32 -73 32q-84 0 -211 -135v-609 l-20 -20h-256z" />
<glyph unicode="n" horiz-adv-x="1138" d="M106 20v943l21 20h256l20 -20l-106 -205q183 246 440 246q172 0 245 -91t73 -284v-609l-21 -20h-256l-20 20v609q0 70 -25 103q-24 32 -86 32q-117 0 -244 -135v-609l-20 -20h-256z" />
<glyph unicode="o" horiz-adv-x="1208" d="M66 492q0 224 149 367q151 145 389 145t389 -145q150 -144 150 -367q0 -224 -150 -368t-389 -144t-389 144q-149 143 -149 368zM379 492q0 -132 64 -206q65 -75 161 -75t161 75q64 74 64 206q0 131 -64 205q-64 75 -161 75q-96 0 -161 -75q-64 -74 -64 -205z" />
<glyph unicode="p" horiz-adv-x="1204" d="M106 -502v1465l21 20h256l20 -20v-50q114 91 263 91q218 0 345 -144q128 -145 128 -368q0 -224 -128 -369q-127 -143 -345 -143q-226 0 -369 204l106 -204v-512zM403 334q83 -123 213 -123q95 0 152 74q57 73 57 207q0 132 -57 206t-152 74q-130 0 -213 -123v-315z" />
<glyph unicode="q" horiz-adv-x="1218" d="M66 492q0 210 129 351q128 140 344 140h538l21 -20v-1495l-297 30v482l106 204q-143 -204 -368 -204q-218 0 -345 143q-128 145 -128 369zM379 492q0 -134 57 -207q57 -74 152 -74q130 0 213 123v418h-213q-95 0 -152 -71t-57 -189z" />
<glyph unicode="r" horiz-adv-x="798" d="M106 20v943l21 20h256l20 -20l-106 -240q84 120 208 200q126 81 259 81l-31 -277l-20 -20q-13 1 -26 1q-175 0 -284 -141v-547l-20 -20h-256z" />
<glyph unicode="s" horiz-adv-x="890" d="M88 39l21 229l20 21q114 -99 254 -99q137 0 137 76q0 31 -44 58q-37 23 -107 53q-75 32 -128 63q-67 39 -109 106q-44 70 -44 161q0 101 63 171q64 71 142 98q82 28 164 28q158 0 295 -60v-239l-21 -21q-114 109 -242 109q-116 0 -116 -78q0 -34 44 -61q45 -28 107 -53 q74 -30 127 -59q65 -36 108 -98q44 -64 44 -151q0 -161 -116 -238q-113 -75 -281 -75q-184 0 -318 59z" />
<glyph unicode="t" horiz-adv-x="813" d="M20 752l461 456v-225h230l20 -20v-191l-20 -20h-230v-363q0 -105 26 -142q25 -36 87 -36q57 0 96 27l21 -21v-211q-74 -26 -179 -26q-200 0 -274 96q-74 97 -74 258v416z" />
<glyph unicode="u" horiz-adv-x="1118" d="M86 354v609l20 20h256l21 -20v-609q0 -70 25 -103q24 -32 84 -32t112 35q54 36 113 100v609l20 20h256l21 -20v-943l-21 -20h-256l-20 20l106 205q-84 -111 -182 -178t-238 -67q-173 0 -245 89t-72 285z" />
<glyph unicode="v" horiz-adv-x="1126" d="M35 942v21l20 20h305l261 -831l-19 206l170 625h299l21 -20v-21l-365 -942h-321z" />
<glyph unicode="w" horiz-adv-x="1675" d="M27 942v21l20 20h305l240 -831l-17 206l150 496l-29 88v21l21 20h244l249 -831l-16 206l133 625h301l21 -20v-21l-332 -942h-301l-230 668l41 -244l-120 -424h-330z" />
<glyph unicode="x" horiz-adv-x="1093" d="M57 20v25l279 451l-275 442v25l21 20h280l185 -344l184 344h281l20 -20v-25l-274 -442l278 -451v-25l-20 -20h-275l-194 358l-195 -358h-274z" />
<glyph unicode="y" horiz-adv-x="1153" d="M37 938v25l20 20h314l252 -831l-17 206l176 625h314l20 -20v-25l-571 -1450h-361l-18 20v185l18 20h164l94 246z" />
<glyph unicode="z" horiz-adv-x="1009" d="M31 0l499 752h-432l-20 20v191l20 20h881l-498 -752h437l20 -20v-191l-20 -20h-887z" />
<glyph unicode="{" horiz-adv-x="686" d="M123 768q126 105 102 272l-41 297q-18 141 90 255t320 149l20 -21v-211l-20 -20q-42 -7 -76 -62q-32 -51 -20 -120l41 -252q16 -89 -20 -168t-99 -119q63 -40 99 -119t20 -168l-41 -252q-12 -69 20 -120q34 -55 76 -62l20 -20v-211l-20 -21q-212 35 -320 149t-90 255 l41 297q24 167 -102 272z" />
<glyph unicode="|" horiz-adv-x="518" d="M127 -184v1904l20 21h226l20 -21v-1904l-20 -21h-226z" />
<glyph unicode="}" horiz-adv-x="686" d="M72 27l20 20q42 7 76 62q32 51 20 120l-41 252q-17 90 21 167q38 78 98 120q-60 42 -98 120q-38 77 -21 167l41 252q12 69 -20 120q-34 55 -76 62l-20 20v211l20 21q212 -37 321 -150q110 -113 89 -254l-41 -297q-21 -170 102 -272q-123 -102 -102 -272l41 -297 q21 -141 -89 -254q-109 -113 -321 -150l-20 21v211z" />
<glyph unicode="~" horiz-adv-x="968" d="M47 518q12 163 76 239q62 74 151 74q83 0 237 -43t222 -43l41 86h148q-22 -313 -217 -313q-83 0 -237 43t-232 43l-41 -86h-148z" />
<glyph unicode="&#xa1;" horiz-adv-x="735" d="M55 784v39l160 160h39l160 -160v-39l-160 -159h-39zM78 -512l47 1010l20 20h179l20 -20l47 -1010l-20 -20h-273z" />
<glyph unicode="&#xa2;" horiz-adv-x="960" d="M66 492q0 224 149 367q151 145 389 145h21l34 184l21 20h115l20 -20l-39 -205q62 -17 111 -39v-233l-21 -21q-74 42 -135 62l-104 -533q116 4 239 74l21 -21v-233q-134 -59 -283 -59h-22l-33 -164l-21 -21h-114l-21 21l37 186q-167 49 -266 180q-98 129 -98 310zM379 492 q0 -161 100 -230l99 498q-88 -12 -144 -83q-55 -70 -55 -185z" />
<glyph unicode="&#xa3;" horiz-adv-x="1069" d="M0 702v132l20 20h125q-26 150 -26 276q0 204 124 315q125 111 361 111q220 0 371 -79v-254l-21 -21q-158 103 -323 103q-185 0 -185 -185q0 -114 27 -266h422l20 -20v-132l-20 -20h-397q29 -215 -45 -416q76 2 184 -10q96 -10 171 -16q58 -4 144 12l21 -21v-211l-21 -20 q-77 -23 -296 1q-217 24 -332 -1h-267q162 363 117 682h-154z" />
<glyph unicode="&#xa4;" horiz-adv-x="1316" d="M47 137v33l156 156q-78 128 -78 284q0 160 80 285l-158 158v30l139 140h31l164 -166q117 65 276 65q160 0 277 -65l166 166h30l138 -140v-30l-158 -158q80 -125 80 -285q0 -162 -78 -284l156 -156v-33l-138 -137h-30l-164 164q-122 -66 -279 -66t-276 66l-164 -164h-31z M406 610q0 -127 72 -199q73 -73 179 -73t181 73q73 72 73 199q0 128 -73 201q-74 74 -181 74t-179 -74q-72 -73 -72 -201z" />
<glyph unicode="&#xa5;" horiz-adv-x="1327" d="M20 1516l21 20h319l21 -20l399 -768l-49 247l283 521l20 20h322l20 -20l-458 -768h147l20 -21v-129l-20 -20h-211v-111h211l20 -21v-129l-20 -20h-211v-277l-20 -20h-273l-20 20v277h-275l-20 20v129l20 21h275v111h-275l-20 20v129l20 21h213z" />
<glyph unicode="&#xa6;" horiz-adv-x="559" d="M154 -184v614h252v-614l-21 -21h-211zM154 1106v614l20 21h211l21 -21v-614h-252z" />
<glyph unicode="&#xa7;" horiz-adv-x="894" d="M66 635q0 224 157 315q-157 111 -157 260q0 143 104 231q106 89 301 89q177 0 307 -76v-244q-157 115 -307 115q-117 0 -117 -80q0 -34 35 -69q37 -37 88 -63q58 -30 115 -66q66 -42 115 -81q54 -43 88 -108t34 -143q0 -219 -157 -307q157 -111 157 -273 q0 -149 -109 -224q-110 -75 -312 -75q-192 0 -322 76v242q157 -115 322 -115q133 0 133 80q0 41 -49 81q-46 38 -119 79q-95 54 -140 83q-67 44 -118 116q-49 70 -49 157zM328 666q0 -61 92 -121q67 4 107 46q40 41 40 95q0 65 -100 125q-71 -6 -106 -50q-33 -42 -33 -95z " />
<glyph unicode="&#xa8;" horiz-adv-x="847" d="M4 1389v38l160 160h39l159 -160v-38l-159 -160h-39zM469 1389v38l160 160h39l159 -160v-38l-159 -160h-39z" />
<glyph unicode="&#xa9;" horiz-adv-x="1720" d="M41 819q0 340 240 580q239 239 579 239q341 0 580 -239t239 -580q0 -340 -239 -579q-240 -240 -580 -240q-339 0 -579 240t-240 579zM82 819q0 -325 227 -553q228 -229 551 -229t551 229q227 228 227 553t-227 553q-228 230 -551 230t-551 -230q-227 -228 -227 -553z M377 809q0 233 152 379q153 147 374 147q165 0 311 -67v-183l-12 -12q-94 48 -153 65q-58 17 -146 17q-135 0 -220 -97t-85 -249t85 -249t220 -97q88 0 146 17q59 17 153 65l12 -13v-182q-161 -67 -311 -67q-221 0 -374 147q-152 146 -152 379z" />
<glyph unicode="&#xab;" horiz-adv-x="948" d="M47 526v29l258 352h29l112 -114l-161 -252l161 -252l-112 -115h-29zM436 526v29l291 352h29l114 -114l-188 -252l188 -252l-114 -115h-29z" />
<glyph unicode="&#xac;" horiz-adv-x="1024" d="M47 594v199l21 20h888l21 -20v-404l-21 -20h-256l-20 20v184h-612z" />
<glyph unicode="&#xad;" horiz-adv-x="833" d="M47 492v198l21 21h696l20 -21v-198l-20 -21h-696z" />
<glyph unicode="&#xae;" horiz-adv-x="1720" d="M41 819q0 340 240 580q239 239 579 239q341 0 580 -239t239 -580q0 -340 -239 -579q-240 -240 -580 -240q-339 0 -579 240t-240 579zM82 819q0 -325 227 -553q228 -229 551 -229t551 229q227 228 227 553t-227 553q-228 230 -551 230t-551 -230q-227 -228 -227 -553z M553 311v996l12 14h297q158 0 248 -84t90 -211q0 -166 -162 -240q42 -23 92 -106q50 -82 108 -201q56 -114 89 -168v-14h-229q-23 40 -82 167q-58 124 -98 190q-44 71 -82 75h-74v-418l-14 -14h-183zM762 897h84q64 0 102 35q37 34 37 94q0 58 -37 92q-38 35 -102 35h-84 v-256z" />
<glyph unicode="&#xaf;" horiz-adv-x="681" d="M0 1174v163l20 21h588l21 -21v-163l-21 -21h-588z" />
<glyph unicode="&#xb0;" horiz-adv-x="595" d="M47 1491q0 108 71 179t179 71t179 -71t71 -179t-71 -179t-179 -71t-179 71t-71 179zM223 1491q0 -29 22 -54q21 -24 52 -24t53 24q23 25 23 54t-23 54q-22 24 -53 24t-52 -24q-22 -25 -22 -54z" />
<glyph unicode="&#xb1;" horiz-adv-x="1024" d="M47 27v198l21 21h888l21 -21v-198l-21 -21h-888zM47 670v196l21 21h325v311l21 21h196l21 -21v-311h325l21 -21v-196l-21 -21h-325v-311l-21 -21h-196l-21 21v311h-325z" />
<glyph unicode="&#xb4;" horiz-adv-x="464" d="M0 1257v29l291 338h28l146 -147v-29l-352 -305z" />
<glyph unicode="&#xb6;" horiz-adv-x="1470" d="M0 1106q0 201 139 315q141 115 353 115h833l21 -20v-1700l-21 -21h-274l-21 21v1468h-225v-1468l-21 -21h-272l-20 21v860q-212 0 -353 115q-139 114 -139 315z" />
<glyph unicode="&#xb7;" horiz-adv-x="518" d="M61 578v45l177 174h43l176 -174v-45l-176 -175h-43z" />
<glyph unicode="&#xb8;" horiz-adv-x="399" d="M0 -354l20 20q175 0 175 76q0 53 -95 35l-80 63l31 180h144l-58 -147q142 27 203 -24q59 -49 59 -128q0 -219 -379 -219l-20 21v123z" />
<glyph unicode="&#xbb;" horiz-adv-x="948" d="M78 289l188 252l-188 252l115 114h28l291 -352v-29l-291 -352h-28zM502 289l162 252l-162 252l112 114h29l258 -352v-29l-258 -352h-29z" />
<glyph unicode="&#xbf;" horiz-adv-x="897" d="M55 -168q0 95 37 179q39 89 89 149q52 62 106 121q55 59 89 118q36 61 36 119l20 21h178l21 -21q0 -74 -26 -146q-26 -73 -62 -127q-25 -38 -73 -112q-35 -54 -61 -120t-26 -130q0 -83 38 -124q37 -40 126 -40q165 0 323 103l21 -21v-254q-151 -79 -371 -79 q-225 0 -345 96t-120 268zM342 805v39l160 160h39l159 -160v-39l-159 -160h-39z" />
<glyph unicode="&#xc0;" horiz-adv-x="1488" d="M25 20l540 1496l21 20h317l21 -20l540 -1496l-20 -20h-291l-20 20l-138 406h-501l-138 -406l-20 -20h-291zM492 1882l104 180l27 9l366 -252l8 -27l-79 -139l-420 200zM580 680h327l-221 651l29 -252z" />
<glyph unicode="&#xc1;" horiz-adv-x="1488" d="M25 20l540 1496l21 20h317l21 -20l540 -1496l-20 -20h-291l-20 20l-138 406h-501l-138 -406l-20 -20h-291zM492 1792l8 27l368 252l27 -9l102 -180l-6 -29l-420 -200zM580 680h327l-221 651l29 -252z" />
<glyph unicode="&#xc2;" horiz-adv-x="1488" d="M25 20l540 1496l21 20h317l21 -20l540 -1496l-20 -20h-291l-20 20l-138 406h-501l-138 -406l-20 -20h-291zM440 1765v29l291 266h29l289 -266v-29l-113 -112l-191 155l-192 -155zM580 680h327l-221 651l29 -252z" />
<glyph unicode="&#xc3;" horiz-adv-x="1488" d="M25 20l540 1496l21 20h317l21 -20l540 -1496l-20 -20h-291l-20 20l-138 406h-501l-138 -406l-20 -20h-291zM422 1638q23 275 199 275q52 0 149 -44t127 -44l41 88h131q-24 -275 -188 -275q-55 0 -150 43t-135 43l-41 -86h-133zM580 680h327l-221 651l29 -252z" />
<glyph unicode="&#xc4;" horiz-adv-x="1488" d="M25 20l540 1496l21 20h317l21 -20l540 -1496l-20 -20h-291l-20 20l-138 406h-501l-138 -406l-20 -20h-291zM330 1825v41l159 159h39l160 -159v-41l-160 -160h-39zM580 680h327l-221 651l29 -252zM801 1825v41l160 159h38l160 -159v-41l-160 -160h-38z" />
<glyph unicode="&#xc5;" horiz-adv-x="1488" d="M25 20l520 1438q-51 63 -51 156q0 109 70 179q71 71 179 71q109 0 180 -71q70 -70 70 -179q0 -88 -49 -156l520 -1438l-20 -20h-291l-20 20l-138 406h-501l-138 -406l-20 -20h-291zM580 680h327l-221 651l29 -252zM670 1614q0 -30 21 -54t52 -24t54 24q22 23 22 54 t-22 54q-23 24 -54 24t-52 -24t-21 -54z" />
<glyph unicode="&#xc6;" horiz-adv-x="1900" d="M25 20l540 1496l21 20h1188l20 -20v-211l-20 -21h-766l135 -373h549l20 -20v-211l-20 -21h-459l147 -407h435l20 -21v-211l-20 -20h-662l-20 20l-138 406h-501l-138 -406l-20 -20h-291zM580 680h327l-221 651l29 -252z" />
<glyph unicode="&#xc7;" horiz-adv-x="1425" d="M66 768q0 348 227 568t561 220q251 0 467 -100v-272l-21 -21q-145 72 -229 97q-87 26 -217 26q-204 0 -331 -145q-128 -146 -128 -373t128 -373q127 -145 331 -145q130 0 217 26q84 25 229 97l21 -21v-272q-219 -94 -432 -100l-41 -107q142 27 203 -24q59 -49 59 -128 q0 -219 -379 -219l-20 21v123l20 20q174 0 174 76q0 53 -94 35l-80 63l25 146q-301 33 -495 247q-195 214 -195 535z" />
<glyph unicode="&#xc8;" horiz-adv-x="1105" d="M127 20v1496l20 20h832l20 -20v-211l-20 -21h-539v-373h457l21 -20v-211l-21 -21h-457v-407h580l20 -21v-211l-20 -20h-873zM332 1882l104 180l27 9l366 -252l9 -27l-80 -139l-420 200z" />
<glyph unicode="&#xc9;" horiz-adv-x="1105" d="M127 20v1496l20 20h832l20 -20v-211l-20 -21h-539v-373h457l21 -20v-211l-21 -21h-457v-407h580l20 -21v-211l-20 -20h-873zM332 1792l8 27l369 252l26 -9l103 -180l-7 -29l-419 -200z" />
<glyph unicode="&#xca;" horiz-adv-x="1105" d="M127 20v1496l20 20h832l20 -20v-211l-20 -21h-539v-373h457l21 -20v-211l-21 -21h-457v-407h580l20 -21v-211l-20 -20h-873zM279 1765v29l290 266h29l289 -266v-29l-113 -112l-190 155l-193 -155z" />
<glyph unicode="&#xcb;" horiz-adv-x="1105" d="M127 20v1496l20 20h832l20 -20v-211l-20 -21h-539v-373h457l21 -20v-211l-21 -21h-457v-407h580l20 -21v-211l-20 -20h-873zM168 1825v41l160 159h39l159 -159v-41l-159 -160h-39zM639 1825v41l160 159h39l159 -159v-41l-159 -160h-39z" />
<glyph unicode="&#xcc;" horiz-adv-x="614" d="M14 1882l105 180l26 9l367 -252l8 -27l-80 -139l-420 200zM150 20v1496l20 20h274l21 -20v-1496l-21 -20h-274z" />
<glyph unicode="&#xcd;" horiz-adv-x="614" d="M47 1792l8 27l369 252l27 -9l102 -180l-6 -29l-420 -200zM150 20v1496l20 20h274l21 -20v-1496l-21 -20h-274z" />
<glyph unicode="&#xce;" horiz-adv-x="614" d="M-20 1765v29l290 266h29l289 -266v-29l-113 -112l-190 155l-193 -155zM150 20v1496l20 20h274l21 -20v-1496l-21 -20h-274z" />
<glyph unicode="&#xcf;" horiz-adv-x="614" d="M-131 1825v41l160 159h39l159 -159v-41l-159 -160h-39zM150 20v1496l20 20h274l21 -20v-1496l-21 -20h-274zM340 1825v41l160 159h39l159 -159v-41l-159 -160h-39z" />
<glyph unicode="&#xd0;" horiz-adv-x="1521" d="M0 686v199l20 20h107v611l20 20h521q332 0 561 -215q227 -214 227 -553t-227 -553q-229 -215 -561 -215h-521l-20 20v646h-107zM440 252h228q202 0 330 144q128 145 128 372t-128 372q-128 144 -330 144h-228v-379h277l20 -20v-199l-20 -20h-277v-414z" />
<glyph unicode="&#xd1;" horiz-adv-x="1576" d="M127 20v1496l20 20h320l29 -20l735 -1170l-94 248v922l20 20h273l20 -20v-1496l-20 -20h-320l-29 20l-735 1156l94 -246v-910l-20 -20h-273zM465 1638q23 275 199 275q52 0 149 -44t127 -44l41 88h131q-24 -275 -188 -275q-55 0 -150 43t-135 43l-41 -86h-133z" />
<glyph unicode="&#xd2;" d="M66 768q0 348 227 568t561 220t561 -220t227 -568t-227 -568t-561 -220t-561 220t-227 568zM395 768q0 -227 128 -373q127 -145 331 -145t331 145q128 146 128 373t-128 373q-127 145 -331 145t-331 -145q-128 -146 -128 -373zM520 1882l105 180l26 9l367 -252l8 -27 l-80 -139l-420 200z" />
<glyph unicode="&#xd3;" d="M66 768q0 348 227 568t561 220t561 -220t227 -568t-227 -568t-561 -220t-561 220t-227 568zM395 768q0 -227 128 -373q127 -145 331 -145t331 145q128 146 128 373t-128 373q-127 145 -331 145t-331 -145q-128 -146 -128 -373zM629 1792l8 27l369 252l26 -9l103 -180 l-7 -29l-419 -200z" />
<glyph unicode="&#xd4;" d="M66 768q0 348 227 568t561 220t561 -220t227 -568t-227 -568t-561 -220t-561 220t-227 568zM395 768q0 -227 128 -373q127 -145 331 -145t331 145q128 146 128 373t-128 373q-127 145 -331 145t-331 -145q-128 -146 -128 -373zM549 1765v29l291 266h28l289 -266v-29 l-113 -112l-190 155l-192 -155z" />
<glyph unicode="&#xd5;" d="M66 768q0 348 227 568t561 220t561 -220t227 -568t-227 -568t-561 -220t-561 220t-227 568zM395 768q0 -227 128 -373q127 -145 331 -145t331 145q128 146 128 373t-128 373q-127 145 -331 145t-331 -145q-128 -146 -128 -373zM530 1638q23 275 199 275q53 0 150 -44 t127 -44l41 88h131q-24 -275 -189 -275q-54 0 -149 43t-135 43l-41 -86h-134z" />
<glyph unicode="&#xd6;" d="M66 768q0 348 227 568t561 220t561 -220t227 -568t-227 -568t-561 -220t-561 220t-227 568zM395 768q0 -227 128 -373q127 -145 331 -145t331 145q128 146 128 373t-128 373q-127 145 -331 145t-331 -145q-128 -146 -128 -373zM438 1825v41l160 159h39l160 -159v-41 l-160 -160h-39zM909 1825v41l160 159h39l160 -159v-41l-160 -160h-39z" />
<glyph unicode="&#xd7;" horiz-adv-x="1021" d="M41 332v28l301 302l-301 301v30l139 140h31l301 -302l301 302h29l139 -140v-30l-301 -301l301 -302v-28l-139 -139h-29l-301 301l-301 -301h-31z" />
<glyph unicode="&#xd8;" d="M66 768q0 348 227 568t561 220q37 0 84 -4l33 105l20 20h260l21 -20l-58 -180q195 -94 312 -281q116 -184 116 -428q0 -348 -227 -568t-561 -220q-54 0 -109 6l-20 -68l-20 -20h-261l-20 20l47 152q-188 100 -296 280q-109 182 -109 418zM395 768q0 -267 166 -412 l293 930q-204 0 -331 -145q-128 -146 -128 -373zM829 250h25q204 0 331 145q128 146 128 373q0 283 -187 428z" />
<glyph unicode="&#xd9;" horiz-adv-x="1454" d="M106 553v963l21 20h272l21 -20v-861q0 -206 66 -308q65 -101 241 -101t241 101q66 102 66 308v861l21 20h272l21 -20v-963q0 -267 -168 -420t-453 -153t-453 153t-168 420zM420 1882l104 180l27 9l367 -252l8 -27l-80 -139l-420 200z" />
<glyph unicode="&#xda;" horiz-adv-x="1454" d="M106 553v963l21 20h272l21 -20v-861q0 -206 66 -308q65 -101 241 -101t241 101q66 102 66 308v861l21 20h272l21 -20v-963q0 -267 -168 -420t-453 -153t-453 153t-168 420zM528 1792l9 27l368 252l27 -9l102 -180l-6 -29l-420 -200z" />
<glyph unicode="&#xdb;" horiz-adv-x="1454" d="M106 553v963l21 20h272l21 -20v-861q0 -206 66 -308q65 -101 241 -101t241 101q66 102 66 308v861l21 20h272l21 -20v-963q0 -267 -168 -420t-453 -153t-453 153t-168 420zM422 1765v29l291 266h28l289 -266v-29l-112 -112l-191 155l-192 -155z" />
<glyph unicode="&#xdc;" horiz-adv-x="1454" d="M106 553v963l21 20h272l21 -20v-861q0 -206 66 -308q65 -101 241 -101t241 101q66 102 66 308v861l21 20h272l21 -20v-963q0 -267 -168 -420t-453 -153t-453 153t-168 420zM311 1825v41l160 159h39l160 -159v-41l-160 -160h-39zM782 1825v41l160 159h39l160 -159v-41 l-160 -160h-39z" />
<glyph unicode="&#xdd;" horiz-adv-x="1396" d="M20 1516l21 20h319l21 -20l399 -768l-49 247l283 521l20 20h322l20 -20l-522 -873v-623l-20 -20h-273l-20 20v623zM444 1792l9 27l368 252l27 -9l102 -180l-6 -29l-420 -200z" />
<glyph unicode="&#xde;" horiz-adv-x="1175" d="M127 20v1496l20 20h273l20 -20v-267h181q236 0 370 -131q133 -130 133 -346q0 -218 -133 -348q-134 -131 -370 -131h-181v-273l-20 -20h-273zM440 547h152q209 0 209 225t-209 225h-152v-450z" />
<glyph unicode="&#xdf;" horiz-adv-x="1382" d="M215 20v1045q0 247 133 410t400 163q186 0 310 -111q124 -110 136 -292q12 -180 -117 -410q-166 0 -166 -96q0 -32 44 -61q47 -31 108 -57q70 -30 127 -64q64 -38 107 -102q44 -65 44 -152q0 -161 -114 -238q-112 -75 -283 -75q-181 0 -315 59l20 229l21 21 q114 -99 254 -99q135 0 135 76q0 37 -68 75q-67 37 -147 72q-83 36 -148 114q-67 80 -67 194q0 113 65 184q66 72 170 105q63 128 50 215q-14 89 -63 135q-50 47 -118 47q-107 0 -164 -95q-57 -94 -57 -253v-1039l-20 -20h-256z" />
<glyph unicode="&#xe0;" horiz-adv-x="987" d="M78 238q0 146 127 219q129 74 354 98v180q-60 27 -158 27q-144 0 -290 -74l-21 21l41 235q144 60 340 60q385 0 385 -293v-439q27 -68 107 -112l-76 -180q-172 21 -260 110q-122 -110 -260 -110q-47 0 -88 11q-50 13 -94 38q-47 26 -77 81q-30 54 -30 128zM213 1448v29 l147 147h29l289 -338v-29l-113 -114zM334 262q0 -40 23 -63q25 -25 71 -25q69 0 131 53v166q-122 -18 -174 -47q-51 -28 -51 -84z" />
<glyph unicode="&#xe1;" horiz-adv-x="987" d="M78 238q0 146 127 219q129 74 354 98v180q-60 27 -158 27q-144 0 -290 -74l-21 21l41 235q144 60 340 60q385 0 385 -293v-439q27 -68 107 -112l-76 -180q-172 21 -260 110q-122 -110 -260 -110q-47 0 -88 11q-50 13 -94 38q-47 26 -77 81q-30 54 -30 128zM274 1257v29 l291 338h29l145 -147v-29l-352 -305zM334 262q0 -40 23 -63q25 -25 71 -25q69 0 131 53v166q-122 -18 -174 -47q-51 -28 -51 -84z" />
<glyph unicode="&#xe2;" horiz-adv-x="987" d="M78 238q0 146 127 219q129 74 354 98v180q-60 27 -158 27q-144 0 -290 -74l-21 21l41 235q144 60 340 60q385 0 385 -293v-439q27 -68 107 -112l-76 -180q-172 21 -260 110q-122 -110 -260 -110q-47 0 -88 11q-50 13 -94 38q-47 26 -77 81q-30 54 -30 128zM203 1257v29 l291 291h28l289 -291v-29l-113 -114l-190 172l-193 -172zM334 262q0 -40 23 -63q25 -25 71 -25q69 0 131 53v166q-122 -18 -174 -47q-51 -28 -51 -84z" />
<glyph unicode="&#xe3;" horiz-adv-x="987" d="M78 238q0 146 127 219q129 74 354 98v180q-60 27 -158 27q-144 0 -290 -74l-21 21l41 235q144 60 340 60q385 0 385 -293v-439q27 -68 107 -112l-76 -180q-172 21 -260 110q-122 -110 -260 -110q-47 0 -88 11q-50 13 -94 38q-47 26 -77 81q-30 54 -30 128zM152 1141 q22 272 198 272q55 0 150 -43t127 -43l41 86h131q-24 -272 -189 -272q-54 0 -149 43t-135 43l-41 -86h-133zM334 262q0 -40 23 -63q25 -25 71 -25q69 0 131 53v166q-122 -18 -174 -47q-51 -28 -51 -84z" />
<glyph unicode="&#xe4;" horiz-adv-x="987" d="M59 1389v38l160 160h39l160 -160v-38l-160 -160h-39zM78 238q0 146 127 219q129 74 354 98v180q-60 27 -158 27q-144 0 -290 -74l-21 21l41 235q144 60 340 60q385 0 385 -293v-439q27 -68 107 -112l-76 -180q-172 21 -260 110q-122 -110 -260 -110q-47 0 -88 11 q-50 13 -94 38q-47 26 -77 81q-30 54 -30 128zM334 262q0 -40 23 -63q25 -25 71 -25q69 0 131 53v166q-122 -18 -174 -47q-51 -28 -51 -84zM524 1389v38l160 160h39l160 -160v-38l-160 -160h-39z" />
<glyph unicode="&#xe5;" horiz-adv-x="987" d="M78 238q0 146 127 219q129 74 354 98v180q-60 27 -158 27q-144 0 -290 -74l-21 21l41 235q144 60 340 60q385 0 385 -293v-439q27 -68 107 -112l-76 -180q-172 21 -260 110q-122 -110 -260 -110q-47 0 -88 11q-50 13 -94 38q-47 26 -77 81q-30 54 -30 128zM258 1389 q0 108 71 179q70 70 179 70t179 -70q71 -71 71 -179q0 -109 -71 -180q-70 -70 -179 -70t-179 70q-71 71 -71 180zM334 262q0 -40 23 -63q25 -25 71 -25q69 0 131 53v166q-122 -18 -174 -47q-51 -28 -51 -84zM434 1389q0 -30 22 -55q20 -23 52 -23t52 23q22 25 22 55 q0 29 -22 54q-20 23 -52 23t-52 -23q-22 -25 -22 -54z" />
<glyph unicode="&#xe6;" horiz-adv-x="1552" d="M66 238q0 296 509 348q5 27 13 59q-7 63 -46 95q-38 32 -120 32q-139 0 -303 -92l-21 20l41 244q136 60 338 60q189 0 273 -105q134 105 319 105q73 0 141 -21q69 -21 130 -65q63 -45 101 -132t38 -202q0 -48 -9 -115l-22 -20h-588q11 -116 76 -177t170 -61q149 0 289 82 l20 -21v-233q-134 -59 -323 -59q-259 0 -406 170q-146 -170 -334 -170q-41 0 -82 10q-42 10 -92 36t-81 79t-31 133zM334 262q0 -88 88 -88q101 0 190 98q-28 68 -39 150q-128 -18 -184 -54q-55 -36 -55 -106zM868 606l330 21q-1 70 -43 113q-41 42 -106 42 q-146 0 -181 -176z" />
<glyph unicode="&#xe7;" horiz-adv-x="960" d="M66 492q0 224 149 367q151 145 389 145q146 0 283 -60v-233l-21 -21q-124 74 -248 74q-104 0 -172 -72q-67 -71 -67 -200q0 -130 67 -201q68 -72 172 -72q120 0 248 74l21 -21v-233q-129 -58 -264 -59l-41 -107q141 26 202 -24q60 -49 60 -128q0 -219 -379 -219l-21 21 v123l21 20q174 0 174 76q0 53 -94 35l-80 63l24 150q-192 33 -308 170q-115 136 -115 332z" />
<glyph unicode="&#xe8;" horiz-adv-x="1048" d="M66 492q0 222 137 367t360 145q75 0 142 -21q69 -21 130 -65t100 -132q38 -87 38 -202q0 -56 -8 -115l-23 -20h-588q11 -116 76 -177t170 -61q150 0 289 82l20 -21v-233q-134 -59 -321 -59q-241 0 -381 143q-141 144 -141 369zM287 1448v29l147 147h29l289 -338v-29 l-113 -114zM363 606l329 21q-1 70 -44 113q-42 42 -105 42q-145 0 -180 -176z" />
<glyph unicode="&#xe9;" horiz-adv-x="1048" d="M66 492q0 222 137 367t360 145q75 0 142 -21q69 -21 130 -65t100 -132q38 -87 38 -202q0 -56 -8 -115l-23 -20h-588q11 -116 76 -177t170 -61q150 0 289 82l20 -21v-233q-134 -59 -321 -59q-241 0 -381 143q-141 144 -141 369zM287 1257v29l291 338h28l146 -147v-29 l-353 -305zM363 606l329 21q-1 70 -44 113q-42 42 -105 42q-145 0 -180 -176z" />
<glyph unicode="&#xea;" horiz-adv-x="1048" d="M66 492q0 222 137 367t360 145q75 0 142 -21q69 -21 130 -65t100 -132q38 -87 38 -202q0 -56 -8 -115l-23 -20h-588q11 -116 76 -177t170 -61q150 0 289 82l20 -21v-233q-134 -59 -321 -59q-241 0 -381 143q-141 144 -141 369zM215 1257v29l291 291h29l288 -291v-29 l-112 -114l-191 172l-192 -172zM363 606l329 21q-1 70 -44 113q-42 42 -105 42q-145 0 -180 -176z" />
<glyph unicode="&#xeb;" horiz-adv-x="1048" d="M66 492q0 222 137 367t360 145q75 0 142 -21q69 -21 130 -65t100 -132q38 -87 38 -202q0 -56 -8 -115l-23 -20h-588q11 -116 76 -177t170 -61q150 0 289 82l20 -21v-233q-134 -59 -321 -59q-241 0 -381 143q-141 144 -141 369zM104 1389v38l160 160h39l160 -160v-38 l-160 -160h-39zM363 606l329 21q-1 70 -44 113q-42 42 -105 42q-145 0 -180 -176zM569 1389v38l160 160h39l160 -160v-38l-160 -160h-39z" />
<glyph unicode="&#xec;" horiz-adv-x="645" d="M25 1448v29l147 147h29l288 -338v-29l-112 -114zM82 772v191l20 20h369l21 -20v-943l-21 -20h-256l-20 20v732h-93z" />
<glyph unicode="&#xed;" horiz-adv-x="645" d="M82 772v191l20 20h369l21 -20v-943l-21 -20h-256l-20 20v732h-93zM184 1257v29l291 338h29l145 -147v-29l-352 -305z" />
<glyph unicode="&#xee;" horiz-adv-x="645" d="M8 1257v29l291 291h29l288 -291v-29l-112 -114l-191 172l-192 -172zM82 772v191l20 20h369l21 -20v-943l-21 -20h-256l-20 20v732h-93z" />
<glyph unicode="&#xef;" horiz-adv-x="645" d="M-102 1389v38l159 160h39l160 -160v-38l-160 -160h-39zM82 772v191l20 20h369l21 -20v-943l-21 -20h-256l-20 20v732h-93zM362 1389v38l160 160h39l160 -160v-38l-160 -160h-39z" />
<glyph unicode="&#xf0;" horiz-adv-x="1218" d="M76 471q0 203 129 327q128 124 344 124q114 0 209 -37q-45 135 -142 260l-141 -98l-29 6l-94 133l6 28l115 82q-148 130 -315 220v20h430q80 -60 108 -84l144 100l26 -6l95 -133l-5 -29l-112 -77q276 -315 276 -748q0 -242 -130 -411q-129 -168 -386 -168 q-234 0 -381 132t-147 359zM395 471q0 -126 50 -193t145 -67q217 0 217 383l-2 51q-113 51 -207 51q-99 0 -151 -64t-52 -161z" />
<glyph unicode="&#xf1;" horiz-adv-x="1138" d="M106 20v943l21 20h256l20 -20l-106 -205q183 246 440 246q172 0 245 -91t73 -284v-609l-21 -20h-256l-20 20v609q0 70 -25 103q-24 32 -86 32q-117 0 -244 -135v-609l-20 -20h-256zM291 1141q22 272 198 272q55 0 150 -43t127 -43l41 86h131q-24 -272 -188 -272 q-55 0 -150 43t-135 43l-41 -86h-133z" />
<glyph unicode="&#xf2;" horiz-adv-x="1208" d="M66 492q0 224 149 367q151 145 389 145t389 -145q150 -144 150 -367q0 -224 -150 -368t-389 -144t-389 144q-149 143 -149 368zM373 1448v29l147 147h29l289 -338v-29l-113 -114zM379 492q0 -132 64 -206q65 -75 161 -75t161 75q64 74 64 206q0 131 -64 205 q-64 75 -161 75q-96 0 -161 -75q-64 -74 -64 -205z" />
<glyph unicode="&#xf3;" horiz-adv-x="1208" d="M66 492q0 224 149 367q151 145 389 145t389 -145q150 -144 150 -367q0 -224 -150 -368t-389 -144t-389 144q-149 143 -149 368zM373 1257v29l291 338h28l146 -147v-29l-353 -305zM379 492q0 -132 64 -206q65 -75 161 -75t161 75q64 74 64 206q0 131 -64 205 q-64 75 -161 75q-96 0 -161 -75q-64 -74 -64 -205z" />
<glyph unicode="&#xf4;" horiz-adv-x="1208" d="M66 492q0 224 149 367q151 145 389 145t389 -145q150 -144 150 -367q0 -224 -150 -368t-389 -144t-389 144q-149 143 -149 368zM299 1257v29l291 291h28l289 -291v-29l-112 -114l-191 172l-192 -172zM379 492q0 -132 64 -206q65 -75 161 -75t161 75q64 74 64 206 q0 131 -64 205q-64 75 -161 75q-96 0 -161 -75q-64 -74 -64 -205z" />
<glyph unicode="&#xf5;" horiz-adv-x="1208" d="M66 492q0 224 149 367q151 145 389 145t389 -145q150 -144 150 -367q0 -224 -150 -368t-389 -144t-389 144q-149 143 -149 368zM281 1141q22 272 198 272q55 0 150 -43t127 -43l41 86h131q-24 -272 -189 -272q-54 0 -149 43t-135 43l-41 -86h-133zM379 492 q0 -132 64 -206q65 -75 161 -75t161 75q64 74 64 206q0 131 -64 205q-64 75 -161 75q-96 0 -161 -75q-64 -74 -64 -205z" />
<glyph unicode="&#xf6;" horiz-adv-x="1208" d="M66 492q0 224 149 367q151 145 389 145t389 -145q150 -144 150 -367q0 -224 -150 -368t-389 -144t-389 144q-149 143 -149 368zM188 1389v38l160 160h39l160 -160v-38l-160 -160h-39zM379 492q0 -132 64 -206q65 -75 161 -75t161 75q64 74 64 206q0 131 -64 205 q-64 75 -161 75q-96 0 -161 -75q-64 -74 -64 -205zM653 1389v38l160 160h39l160 -160v-38l-160 -160h-39z" />
<glyph unicode="&#xf7;" horiz-adv-x="1024" d="M47 573v199l21 21h888l21 -21v-199l-21 -20h-888zM360 289v33l136 135h32l136 -135v-33l-136 -135h-32zM360 1016v35l136 135h32l136 -135v-35l-136 -135h-32z" />
<glyph unicode="&#xf8;" horiz-adv-x="1208" d="M66 492q0 224 149 367q151 145 389 145q53 0 109 -9l32 68l21 20h219l21 -20l-74 -154q211 -144 211 -417q0 -224 -150 -368t-389 -144q-58 0 -121 10l-24 -51l-21 -21h-219l-20 21l69 141q-202 147 -202 412zM352 492q0 -100 37 -162l215 442q-114 0 -183 -74t-69 -206z M592 211h12q114 0 183 74q69 73 69 207q0 107 -43 174z" />
<glyph unicode="&#xf9;" horiz-adv-x="1118" d="M86 354v609l20 20h256l21 -20v-609q0 -70 25 -103q24 -32 84 -32t112 35q54 36 113 100v609l20 20h256l21 -20v-943l-21 -20h-256l-20 20l106 205q-84 -111 -182 -178t-238 -67q-173 0 -245 89t-72 285zM317 1448v29l148 147h29l288 -338v-29l-112 -114z" />
<glyph unicode="&#xfa;" horiz-adv-x="1118" d="M86 354v609l20 20h256l21 -20v-609q0 -70 25 -103q24 -32 84 -32t112 35q54 36 113 100v609l20 20h256l21 -20v-943l-21 -20h-256l-20 20l106 205q-84 -111 -182 -178t-238 -67q-173 0 -245 89t-72 285zM420 1257v29l291 338h28l146 -147v-29l-353 -305z" />
<glyph unicode="&#xfb;" horiz-adv-x="1118" d="M86 354v609l20 20h256l21 -20v-609q0 -70 25 -103q24 -32 84 -32t112 35q54 36 113 100v609l20 20h256l21 -20v-943l-21 -20h-256l-20 20l106 205q-84 -111 -182 -178t-238 -67q-173 0 -245 89t-72 285zM246 1257v29l291 291h28l289 -291v-29l-113 -114l-190 172 l-193 -172z" />
<glyph unicode="&#xfc;" horiz-adv-x="1118" d="M86 354v609l20 20h256l21 -20v-609q0 -70 25 -103q24 -32 84 -32t112 35q54 36 113 100v609l20 20h256l21 -20v-943l-21 -20h-256l-20 20l106 205q-84 -111 -182 -178t-238 -67q-173 0 -245 89t-72 285zM135 1389v38l160 160h39l160 -160v-38l-160 -160h-39zM600 1389v38 l160 160h39l159 -160v-38l-159 -160h-39z" />
<glyph unicode="&#xfd;" horiz-adv-x="1153" d="M37 938v25l20 20h314l252 -831l-17 206l176 625h314l20 -20v-25l-571 -1450h-361l-18 20v185l18 20h164l94 246zM344 1257v29l291 338h29l145 -147v-29l-352 -305z" />
<glyph unicode="&#xfe;" horiz-adv-x="1204" d="M106 -502v2110l297 30v-634l-106 -205q144 205 369 205q218 0 345 -144q128 -145 128 -368q0 -224 -128 -369q-127 -143 -345 -143q-226 0 -369 204l106 -204v-512zM403 334q83 -123 213 -123q95 0 152 74q57 73 57 207q0 132 -57 206t-152 74q-130 0 -213 -123v-315z " />
<glyph unicode="&#xff;" horiz-adv-x="1153" d="M37 938v25l20 20h314l252 -831l-17 206l176 625h314l20 -20v-25l-571 -1450h-361l-18 20v185l18 20h164l94 246zM162 1389v38l160 160h38l160 -160v-38l-160 -160h-38zM627 1389v38l159 160h39l160 -160v-38l-160 -160h-39z" />
<glyph unicode="&#x152;" horiz-adv-x="2267" d="M106 768q0 345 215 557q214 211 533 211h1280l20 -20v-211l-20 -21l-770 21q166 -150 201 -394h487l21 -20v-211l-21 -21h-483q-28 -268 -205 -428l811 21l20 -21v-211l-20 -20h-1321q-319 0 -533 211q-215 212 -215 557zM436 768q0 -227 116 -372q116 -144 302 -144 q185 0 287 141t102 375t-102 375t-287 141q-186 0 -302 -144q-116 -145 -116 -372z" />
<glyph unicode="&#x153;" horiz-adv-x="1792" d="M66 492q0 223 144 367q145 145 374 145q221 0 362 -162q130 162 348 162q74 0 142 -21q69 -21 130 -65t100 -132q38 -87 38 -202q0 -56 -8 -115l-23 -20h-581q11 -117 72 -177q62 -61 167 -61q149 0 289 82l20 -21v-233q-134 -59 -323 -59q-235 0 -369 161 q-140 -161 -364 -161q-230 0 -374 144t-144 368zM379 492q0 -132 59 -206q60 -75 146 -75q85 0 145 75q59 74 59 206q0 131 -59 205q-60 75 -145 75q-86 0 -146 -75q-59 -74 -59 -205zM1090 604l333 21q-1 72 -43 115q-40 42 -106 42q-150 0 -184 -178z" />
<glyph unicode="&#x178;" horiz-adv-x="1396" d="M20 1516l21 20h319l21 -20l399 -768l-49 247l283 521l20 20h322l20 -20l-522 -873v-623l-20 -20h-273l-20 20v623zM285 1825v41l159 159h39l160 -159v-41l-160 -160h-39zM756 1825v41l159 159h39l160 -159v-41l-160 -160h-39z" />
<glyph unicode="&#x2c6;" horiz-adv-x="608" d="M0 1257v29l291 291h28l289 -291v-29l-112 -114l-191 172l-192 -172z" />
<glyph unicode="&#x2dc;" horiz-adv-x="647" d="M0 1141q22 272 199 272q54 0 149 -43t127 -43l41 86h131q-24 -272 -188 -272q-55 0 -150 43t-135 43l-41 -86h-133z" />
<glyph unicode="&#x2000;" horiz-adv-x="1035" />
<glyph unicode="&#x2001;" horiz-adv-x="2071" />
<glyph unicode="&#x2002;" horiz-adv-x="1035" />
<glyph unicode="&#x2003;" horiz-adv-x="2071" />
<glyph unicode="&#x2004;" horiz-adv-x="690" />
<glyph unicode="&#x2005;" horiz-adv-x="517" />
<glyph unicode="&#x2006;" horiz-adv-x="345" />
<glyph unicode="&#x2007;" horiz-adv-x="345" />
<glyph unicode="&#x2008;" horiz-adv-x="258" />
<glyph unicode="&#x2009;" horiz-adv-x="414" />
<glyph unicode="&#x200a;" horiz-adv-x="115" />
<glyph unicode="&#x2010;" horiz-adv-x="833" d="M47 492v198l21 21h696l20 -21v-198l-20 -21h-696z" />
<glyph unicode="&#x2011;" horiz-adv-x="833" d="M47 492v198l21 21h696l20 -21v-198l-20 -21h-696z" />
<glyph unicode="&#x2012;" horiz-adv-x="833" d="M47 492v198l21 21h696l20 -21v-198l-20 -21h-696z" />
<glyph unicode="&#x2013;" horiz-adv-x="1243" d="M47 492v198l21 21h1106l20 -21v-198l-20 -21h-1106z" />
<glyph unicode="&#x2014;" horiz-adv-x="1857" d="M47 492v198l21 21h1720l20 -21v-198l-20 -21h-1720z" />
<glyph unicode="&#x2018;" horiz-adv-x="542" d="M47 1212v29l262 397l187 -79v-29l-193 -422h-29z" />
<glyph unicode="&#x2019;" horiz-adv-x="542" d="M47 1188v29l193 421h28l228 -104v-27l-260 -399z" />
<glyph unicode="&#x201a;" horiz-adv-x="495" d="M0 -88l193 422h28l228 -105v-28l-263 -398l-186 80v29z" />
<glyph unicode="&#x201c;" horiz-adv-x="980" d="M47 1212v29l262 397l187 -79v-29l-193 -422h-29zM485 1212v29l260 397l187 -79v-29l-193 -422h-26z" />
<glyph unicode="&#x201d;" horiz-adv-x="980" d="M47 1188v29l193 421h28l228 -104v-27l-260 -399zM485 1188v29l193 421h27l227 -104v-27l-260 -399z" />
<glyph unicode="&#x201e;" horiz-adv-x="933" d="M0 -88l193 422h28l228 -105v-28l-263 -398l-186 80v29zM438 -88l193 422h28l228 -105v-28l-262 -398l-187 80v29z" />
<glyph unicode="&#x2022;" horiz-adv-x="655" d="M51 508v61l246 246h59l248 -246v-61l-248 -244h-59z" />
<glyph unicode="&#x2026;" horiz-adv-x="1581" d="M61 176v43l177 176h43l176 -176v-43l-176 -176h-43zM594 176v43l176 176h43l176 -176v-43l-176 -176h-43zM1126 176v43l177 176h43l176 -176v-43l-176 -176h-43z" />
<glyph unicode="&#x202f;" horiz-adv-x="414" />
<glyph unicode="&#x2039;" horiz-adv-x="559" d="M47 526v29l291 352h29l114 -114l-188 -252l188 -252l-114 -115h-29z" />
<glyph unicode="&#x203a;" horiz-adv-x="559" d="M78 289l188 252l-188 252l115 114h28l291 -352v-29l-291 -352h-28z" />
<glyph unicode="&#x205f;" horiz-adv-x="517" />
<glyph unicode="&#x20ac;" horiz-adv-x="1347" d="M16 563v129l21 21h108l-2 55q0 31 2 55h-108l-21 21v129l21 20h131q57 261 234 412q176 151 427 151q224 0 412 -100v-272l-20 -21q-120 69 -202 95q-89 28 -190 28q-127 0 -215 -78t-129 -215h447l20 -20v-129l-20 -21h-473l-2 -55q0 -31 2 -55h473l20 -21v-129l-20 -20 h-447q41 -137 129 -215t215 -78q101 0 190 28q82 26 202 95l20 -21v-272q-206 -100 -412 -100q-251 -2 -428 149q-178 151 -235 414h-129z" />
<glyph unicode="&#x2122;" horiz-adv-x="3000" d="M31 1305v211l20 20h1215l20 -20v-211l-20 -21h-451v-1264l-20 -20h-273l-20 20v1264h-451zM1444 20v1496l20 20h287l21 -20l493 -732l-74 195l355 537l20 20h287l20 -20v-1496l-20 -20h-273l-20 20v922l94 234l-495 -711l-496 711l94 -234v-922l-20 -20h-273z" />
<glyph unicode="&#x25fc;" horiz-adv-x="983" d="M0 0v983h983v-983h-983z" />
</font>
</defs>
</svg>
