<svg id="Layer_1" xmlns="http://www.w3.org/2000/svg" xmlns:xlink="http://www.w3.org/1999/xlink" width="560" height="285.77" viewBox="0 0 560 285.77">
  <path fill="#FFF" d="M4 284.773c-1.654 0-3-1.346-3-3V4c0-1.654 1.346-3 3-3h552c1.654 0 3 1.346 3 3v277.773c0 1.654-1.346 3-3 3H4z"/>
  <path d="M556 2c1.103 0 2 .897 2 2v277.773c0 1.103-.897 2-2 2H4c-1.103 0-2-.897-2-2V4c0-1.103.897-2 2-2h552m0-2H4C1.8 0 0 1.8 0 4v277.773c0 2.2 1.8 4 4 4h552c2.2 0 4-1.8 4-4V4c0-2.2-1.8-4-4-4z"/>
  <g>
    <defs>
      <path id="SVGID_1_" d="M556 2c1.103 0 2 .897 2 2v277.773c0 1.103-.897 2-2 2H4c-1.103 0-2-.897-2-2V4c0-1.103.897-2 2-2h552"/>
    </defs>
    <clipPath id="SVGID_2_">
      <use xlink:href="#SVGID_1_" overflow="visible"/>
    </clipPath>
    <path clip-path="url(#SVGID_2_)" fill="#FFF" stroke="#000" d="M0 285.773l279.2-178.97L560 285.774z"/>
    <path clip-path="url(#SVGID_2_)" fill="#FFF" stroke="#000" d="M0 0l280 142.886L560 0z"/>
  </g>
</svg>