<svg xmlns="http://www.w3.org/2000/svg" xmlns:xlink="http://www.w3.org/1999/xlink" width="140" height="40" viewBox="0 0 140 40">
  <defs>
    <path id="a" d="M0 0h140v40H0z"/>
  </defs>
  <clipPath id="b">
    <use xlink:href="#a" overflow="visible"/>
  </clipPath>
  <g clip-path="url(#b)">
    <circle fill="#FFF" cx="70" cy="20" r="35"/>
    <circle fill="none" stroke="#16C43E" stroke-width="70" cx="70" cy="20" r="35" id="small-outer"/>
    <circle fill="none" stroke="#73DC8B" stroke-width="35" cx="70" cy="20" r="35" id="small-inner"/>
  </g>
  <circle clip-path="url(#b)" fill="#FFF" cx="70" cy="20" r="35"/>
  <g clip-path="url(#b)" fill="#333">
    <path d="M62.5 16.087c1.05 1.205 1.573 2.77 1.573 4.693s-.524 3.488-1.573 4.693c-1.05 1.204-2.492 1.807-4.33 1.807-1.23 0-2.313-.372-3.25-1.118v.6l-.26.26h-3.665l-.26-.26V6.61l4.187-.39v8.06l-1.353 2.6c1.246-1.732 2.78-2.6 4.6-2.6 1.837 0 3.28.602 4.33 1.807zm-3.485 7.216c.408-.555.61-1.396.61-2.522s-.203-1.965-.61-2.52c-.407-.555-.958-.832-1.65-.832-.955 0-1.77.52-2.445 1.56v3.588c.676 1.04 1.49 1.56 2.444 1.56.694 0 1.244-.278 1.65-.832zm15.327-5.877l-.26.26H71.17v4.316c0 .85.11 1.418.324 1.703.217.286.586.43 1.105.43.45 0 .857-.12 1.22-.364l.26.26v2.89c-.76.24-1.577.362-2.442.362-1.77 0-2.992-.4-3.668-1.208-.676-.806-1.015-1.885-1.015-3.237v-5.122l-2.08-.026 6.292-6.007v2.86h2.91l.26.26v2.626zm14.924 11.648c0 1.387-.646 2.52-1.938 3.394s-2.97 1.313-5.03 1.313c-1.925 0-3.433-.352-4.524-1.063s-1.64-1.655-1.64-2.834c0-1.283.616-2.453 1.847-3.51-.187-.434-.283-.92-.283-1.457l1.066-2.184c-1.404-.85-2.105-2.105-2.105-3.77 0-1.42.523-2.557 1.572-3.406 1.048-.85 2.403-1.274 4.067-1.274 1.525 0 2.766.51 3.72 1.534l-1.847-2.262v-1.3l.26-.26h3.094l.26.26-.025 6.708c0 1.422-.496 2.558-1.484 3.406-.988.85-2.314 1.274-3.98 1.274-.52 0-.978-.035-1.376-.104v.39c0 .73.85 1.093 2.548 1.093 3.866 0 5.798 1.35 5.798 4.055zM84.47 30.48c.544-.26.817-.607.817-1.04 0-.764-.754-1.145-2.262-1.145-1.213 0-2.148-.096-2.81-.286-.224.38-.337.795-.337 1.246 0 1.074.807 1.61 2.418 1.61.903 0 1.626-.13 2.173-.388zm-3.316-12.833c-.313.32-.47.758-.47 1.313s.157.993.47 1.313c.31.32.693.48 1.143.48.416 0 .793-.164 1.13-.493s.51-.763.51-1.3c0-.555-.157-.992-.47-1.313-.31-.32-.7-.48-1.17-.48-.45 0-.832.16-1.143.48z"/>
  </g>
</svg>