<svg id="header-large" xmlns="http://www.w3.org/2000/svg" xmlns:xlink="http://www.w3.org/1999/xlink" width="340" height="50" viewBox="0 0 340 50">
  <defs>
    <path id="header_SVGID_1_" d="M0 0h340v50H0z"/>
  </defs>
  <clipPath id="header_SVGID_2_">
    <use xlink:href="#header_SVGID_1_" overflow="visible"/>
  </clipPath>
  <circle id="large-outer" clip-path="url(#header_SVGID_2_)" fill="none" stroke="#16C43E" stroke-width="88" cx="170" cy="25" r="125"/>
  <circle id="large-inner" clip-path="url(#header_SVGID_2_)" fill="none" stroke="#73DC8B" stroke-width="44" cx="170" cy="25" r="125"/>
  <circle clip-path="url(#header_SVGID_2_)" fill="#FFF" cx="170" cy="25" r="125"/>
  <g clip-path="url(#header_SVGID_2_)" fill="#333">
    <path d="M81.03 26.43c0 1.906-.653 3.314-1.963 4.225-1.31.91-3.012 1.365-5.108 1.365h-6.45l-.26-.26V12.78l.26-.26h5.903c1.906 0 3.463.467 4.667 1.403s1.808 2.2 1.808 3.796c0 1.976-.885 3.345-2.652 4.107 2.53.85 3.795 2.383 3.795 4.603zm-6.24-9.828c-.415-.4-.953-.6-1.61-.6h-1.483V20.4h1.482c.657 0 1.195-.2 1.61-.6.417-.397.625-.935.625-1.61 0-.66-.208-1.188-.624-1.586zm-1.3 11.933c.85 0 1.556-.193 2.12-.584.563-.39.845-.974.845-1.755 0-.78-.282-1.366-.845-1.754-.564-.39-1.28-.585-2.146-.585h-1.77v4.68h1.797zM85.814 22.894c.693-1.006 1.582-1.86 2.665-2.562 1.083-.702 2.18-1.053 3.288-1.053l-.39 3.846-.26.262c-1.647-.105-2.964.467-3.952 1.715v6.657l-.26.26h-3.693l-.26-.26V19.8l.26-.26h3.693l.26.26-1.352 3.094zM98.685 19.8v11.96l-.26.26h-3.693l-.26-.26v-9.076h-1.17l-.26-.26v-2.626l.26-.26h5.123l.26.26zm.416-5.123l-2.417 2.418h-.598l-2.42-2.418v-.624l2.42-2.418h.598l2.418 2.418v.624zM111.763 32.28c-1.525-.14-2.688-.58-3.484-1.327-1.024.885-2.08 1.326-3.173 1.326-.364 0-.732-.048-1.105-.144s-.768-.256-1.184-.48-.754-.568-1.014-1.027-.39-1-.39-1.626c0-1.23.516-2.154 1.547-2.77 1.033-.615 2.484-1.028 4.356-1.235v-2.08c-.485-.192-1.11-.286-1.872-.286-1.18 0-2.383.293-3.614.883l-.26-.26.52-3.224c1.16-.503 2.607-.754 4.342-.754 3.396 0 5.096 1.3 5.096 3.898v5.252c.226.59.676 1.066 1.352 1.43l-1.117 2.42zm-6.553-2.925c.19.182.46.273.807.273.45 0 .884-.148 1.3-.443v-2.002c-.9.14-1.525.313-1.872.52-.347.21-.52.52-.52.938 0 .296.095.534.285.715zM125.685 20.398c.6.745.898 1.94.898 3.588v7.774l-.26.26h-3.666l-.262-.26v-7.774c0-.953-.39-1.43-1.17-1.43-.78 0-1.69.537-2.73 1.61v7.593l-.26.26h-3.692l-.26-.26V19.8l.26-.26h3.69l.263.26-1.354 2.6c1.578-2.08 3.416-3.12 5.514-3.12 1.42 0 2.43.372 3.03 1.118zM147.9 15.744l-.26.26h-5.536V31.76l-.26.26h-3.928l-.26-.26V16.003h-5.537l-.26-.26V12.78l.26-.26h15.52l.26.26v2.964zM152.01 32.02h-.598l-2.418-2.418v-.598l2.418-2.443h.598l2.443 2.444v.598l-2.443 2.418zM176.553 31.006c-2.063.85-4.22 1.273-6.473 1.273-2.88 0-5.287-.933-7.23-2.796s-2.91-4.268-2.91-7.215.97-5.352 2.91-7.216c1.942-1.863 4.35-2.795 7.23-2.795 1.334 0 2.45.094 3.354.285.9.19 1.863.52 2.887.988v3.77l-.26.26c-1.214-.59-2.22-.996-3.017-1.222s-1.785-.337-2.963-.337c-1.613 0-2.922.585-3.928 1.755-1.004 1.17-1.508 2.674-1.508 4.51 0 1.84.504 3.343 1.508 4.513 1.006 1.17 2.314 1.755 3.928 1.755.71 0 1.387-.05 2.027-.154v-4.603l.26-.26h3.926l.26.26v7.23zM189.084 32.28c-1.525-.14-2.686-.58-3.484-1.327-1.02.885-2.08 1.326-3.172 1.326-.363 0-.732-.048-1.104-.144-.373-.096-.768-.256-1.184-.48s-.754-.568-1.014-1.027-.39-1-.39-1.626c0-1.23.515-2.154 1.546-2.77s2.482-1.028 4.355-1.235v-2.08c-.486-.192-1.11-.286-1.873-.286-1.178 0-2.383.293-3.613.883l-.26-.26.52-3.224c1.163-.503 2.61-.754 4.343-.754 3.398 0 5.098 1.3 5.098 3.898v5.252c.226.59.677 1.066 1.353 1.43l-1.12 2.42zm-6.55-2.925c.188.182.458.273.804.273.45 0 .885-.148 1.3-.443v-2.002c-.9.14-1.524.313-1.872.52-.346.21-.52.52-.52.938 0 .296.096.534.287.715zM198.73 31.916c-.762.242-1.578.363-2.443.363-1.77 0-2.99-.403-3.666-1.21-.677-.805-1.015-1.885-1.015-3.236V11.61l4.213-.39V27c0 .85.11 1.418.324 1.703.217.285.586.43 1.105.43.45 0 .86-.12 1.223-.365l.26.26v2.886zM207.492 31.916c-.762.242-1.578.363-2.443.363-1.77 0-2.99-.403-3.667-1.21-.678-.805-1.016-1.885-1.016-3.236V11.61l4.213-.39V27c0 .85.11 1.418.324 1.703.217.285.586.43 1.105.43.45 0 .858-.12 1.222-.365l.26.26v2.886zM219.19 32.28c-1.524-.14-2.685-.58-3.483-1.327-1.02.885-2.08 1.326-3.172 1.326-.363 0-.732-.048-1.104-.144-.372-.096-.767-.256-1.183-.48s-.754-.568-1.014-1.027-.39-1-.39-1.626c0-1.23.515-2.154 1.546-2.77s2.48-1.028 4.354-1.235v-2.08c-.486-.192-1.11-.286-1.873-.286-1.177 0-2.382.293-3.612.883l-.26-.26.52-3.224c1.162-.503 2.61-.754 4.342-.754 3.398 0 5.098 1.3 5.098 3.898v5.252c.225.59.676 1.066 1.352 1.43l-1.12 2.42zm-6.55-2.925c.19.182.46.273.806.273.45 0 .885-.148 1.3-.443v-2.002c-.9.14-1.524.313-1.872.52-.346.21-.52.52-.52.938 0 .296.095.534.287.715zM234.455 34.074c0 1.387-.646 2.518-1.938 3.393s-2.97 1.314-5.03 1.314c-1.925 0-3.433-.354-4.526-1.065-1.09-.71-1.636-1.656-1.636-2.834 0-1.282.615-2.452 1.846-3.51-.19-.433-.287-.92-.287-1.456l1.066-2.184c-1.405-.85-2.106-2.107-2.106-3.772 0-1.42.523-2.556 1.572-3.404 1.05-.85 2.406-1.274 4.07-1.274 1.525 0 2.764.51 3.717 1.534l-1.846-2.263v-1.3l.26-.26h3.096l.26.26-.027 6.708c0 1.422-.494 2.56-1.48 3.407-.988.85-2.314 1.275-3.98 1.275-.52 0-.98-.035-1.378-.105v.39c0 .73.85 1.093 2.55 1.093 3.863 0 5.797 1.35 5.797 4.056zm-4.8 1.405c.548-.26.82-.608.82-1.042 0-.762-.753-1.143-2.26-1.143-1.216 0-2.15-.096-2.81-.287-.227.38-.338.797-.338 1.248 0 1.074.805 1.613 2.418 1.613.902 0 1.626-.132 2.17-.39zm-3.313-12.834c-.313.32-.47.758-.47 1.313s.157.993.47 1.313c.313.32.693.48 1.145.48.416 0 .793-.163 1.13-.494.34-.33.507-.763.507-1.302 0-.555-.154-.992-.467-1.313s-.703-.48-1.17-.48c-.452 0-.833.16-1.145.48zM247.662 20.398c.605.745.91 1.94.91 3.588v7.774l-.262.26h-3.69l-.26-.26v-7.774c0-.953-.382-1.43-1.146-1.43-.797 0-1.715.537-2.756 1.61v7.593l-.26.26h-3.666l-.26-.26V11.61l4.186-.39v8.58l-1.352 2.6c1.61-2.08 3.45-3.12 5.512-3.12 1.423 0 2.437.372 3.044 1.118zM258.477 19.54c.572.173 1.127.45 1.664.832s.964.94 1.276 1.677c.31.735.467 1.6.467 2.587 0 .52-.035 1.014-.104 1.48l-.288.263h-7.2c.173 1.836 1.134 2.756 2.886 2.756 1.213 0 2.436-.348 3.666-1.04l.26.26v3.17c-1.162.505-2.54.755-4.135.755-2.064 0-3.702-.604-4.915-1.817-1.213-1.215-1.82-2.773-1.82-4.682 0-1.906.59-3.465 1.768-4.68 1.18-1.212 2.74-1.818 4.682-1.818.622-.002 1.22.085 1.792.258zm-4.082 4.758l3.64-.234c-.017-.537-.177-.967-.48-1.287-.304-.32-.706-.48-1.208-.48-1.007-.002-1.658.665-1.952 2zM266.797 22.894c.693-1.006 1.582-1.86 2.664-2.562 1.085-.702 2.18-1.053 3.29-1.053l-.39 3.846-.26.262c-1.647-.105-2.964.467-3.952 1.715v6.657l-.26.26h-3.69l-.263-.26V19.8l.262-.26h3.69l.26.26-1.35 3.094z"/>
  </g>
</svg>

