<svg xmlns="http://www.w3.org/2000/svg" viewBox="0 0 401 236">
  <path fill="#BFBFBF" d="M163.147 234.253v-1.677l7.804-1.346 3.598-30.948h50.905l3.598 30.948 7.804 1.346v1.677"/>
  <path fill="#7F7F7F" d="M173.764 203.435l.415-3.567h51.64l.415 3.566h-52.472z"/>
  <path d="M224.93 200.868l3.502 30.122.086.743.737.127 7.01 1.21v.598h-72.532v-.598l7.012-1.21.737-.127.086-.743 3.5-30.122h49.863m.89-1h-51.64l-3.604 31.007-7.842 1.354v2.437h74.533v-2.44l-7.84-1.353-3.604-31.007z"/>
  <path fill="#FFF" d="M60.87 10.87h278.26v148.335H60.87z"/>
  <path fill="#BFBFBF" d="M55.435 200.283c-2.872 0-5.208-2.373-5.208-5.29V169.85h299.547v25.146c0 2.916-2.337 5.29-5.21 5.29H55.434z"/>
  <path d="M51 170.416l298 .002v24.577c0 2.49-1.99 4.516-4.435 4.516H55.435c-2.445 0-4.435-2.023-4.435-4.514v-24.58m-1-1v25.58c0 3.034 2.445 5.515 5.435 5.515h289.13c2.99 0 5.435-2.48 5.435-5.514V169.42l-300-.002z"/>
  <path fill="#7F7F7F" d="M338.13 11.87v146.335H61.87V11.87h276.26m1-1H60.87v148.335h278.26V10.87z"/>
  <path fill="#FFF" d="M344.565 0H55.435C52.445 0 50 2.445 50 5.435v164.638h300V5.433C350 2.446 347.555 0 344.565 0zm-5.435 159.205H60.87V10.87h278.26v148.335z"/>
  <path d="M344.565 1C347.01 1 349 2.99 349 5.435v163.638H51V5.433C51 2.99 52.99 1 55.435 1h289.13m0-1H55.435C52.445 0 50 2.445 50 5.435v164.638h300V5.433C350 2.446 347.555 0 344.565 0z"/>
  <circle fill="#444C50" cx="200.237" cy="5.489" r="1.359"/>
  <path d="M80.86 140.434V123.87c0-4.91-3.996-8.907-8.905-8.907h-43.91c-4.91 0-8.904 3.996-8.904 8.906v5.242c-.49.18-.844.654-.844 1.21v4.655c0 .555.353 1.028.846 1.21v4.246c-.492.18-.845.653-.845 1.21v7.828c0 .556.353 1.03.846 1.21v.65c-.492.18-.845.654-.845 1.21v7.83c0 .553.353 1.027.846 1.21v64.475c0 4.912 3.996 8.906 8.906 8.906h43.91c4.91 0 8.903-3.993 8.903-8.905V150.68c.493-.18.846-.654.846-1.21v-7.827c0-.557-.354-1.03-.848-1.21zm-.442 85.624c0 4.674-3.79 8.464-8.463 8.464h-43.91c-4.674 0-8.463-3.79-8.463-8.464v-102.19c0-4.675 3.79-8.464 8.464-8.464h43.91c4.673 0 8.462 3.79 8.462 8.465v102.187z"/>
  <path fill="#FFF" d="M71.955 115.404h-43.91c-4.674 0-8.463 3.79-8.463 8.465v102.187c0 4.674 3.79 8.464 8.464 8.464h43.91c4.673 0 8.462-3.79 8.462-8.463v-102.19c0-4.675-3.79-8.464-8.463-8.464zm4.232 106.12H23.814V128.42h52.373v93.107z"/>
  <path d="M71.955 115.962c4.358 0 7.904 3.547 7.904 7.906v102.188c0 4.36-3.548 7.906-7.906 7.906h-43.91c-4.358 0-7.904-3.547-7.904-7.906V123.87c0-4.36 3.547-7.907 7.906-7.907h43.91m0-1h-43.91c-4.91 0-8.905 3.995-8.905 8.905v102.188c0 4.912 3.997 8.906 8.907 8.906h43.91c4.91 0 8.903-3.994 8.903-8.906V123.87c0-4.912-3.996-8.908-8.905-8.908z"/>
  <path fill="#7F7F7F" d="M54.285 122.07h-8.677c-.233 0-.423.188-.423.423 0 .233.19.422.423.422h8.677c.233 0 .424-.188.424-.422 0-.235-.193-.424-.426-.424zm-4.338-2.645c.35 0 .635-.285.635-.636 0-.354-.284-.637-.635-.637-.35 0-.636.283-.636.635.003.35.287.635.638.635zm-9.258 2.326c-.44 0-.795.358-.795.795 0 .44.354.795.793.795s.792-.356.792-.796c0-.436-.355-.793-.793-.793zm9.257 102.996c1.782 0 3.232 1.45 3.232 3.234 0 1.78-1.45 3.23-3.234 3.23-1.783 0-3.233-1.45-3.233-3.23 0-1.783 1.45-3.234 3.233-3.234m0-1c-2.338 0-4.233 1.896-4.233 4.234 0 2.337 1.895 4.23 4.233 4.23 2.337 0 4.232-1.894 4.232-4.23 0-2.34-1.895-4.234-4.233-4.234z"/>
  <path fill="#FFF" d="M23.814 128.417h52.373v93.107H23.814z"/>
  <path fill="#7F7F7F" d="M75.187 129.417v91.107H24.814v-91.107h50.373m1-1H23.814v93.107h52.373v-93.107z"/>
  <g>
    <path fill="#FFF" d="M393.48 59.963H291.303c-3.6 0-6.52 2.92-6.52 6.52V228.44c0 3.605 2.92 6.523 6.52 6.523h102.174c3.603 0 6.522-2.92 6.522-6.52V66.483c0-3.6-2.92-6.52-6.52-6.52zm.652 156.522h-103.48V78.44h103.48v138.045z"/>
    <path d="M393.48 60.463c3.32 0 6.02 2.7 6.02 6.02V228.44c0 3.32-2.7 6.023-6.022 6.023H291.304c-3.32 0-6.02-2.7-6.02-6.02V66.483c0-3.32 2.7-6.02 6.02-6.02H393.48m0-1H291.303c-3.872 0-7.02 3.15-7.02 7.02V228.44c0 3.873 3.148 7.022 7.02 7.022h102.174c3.872 0 7.022-3.15 7.022-7.02V66.482c0-3.87-3.15-7.02-7.02-7.02z"/>
    <path fill="#FFF" d="M393.48 60.416c3.346 0 6.068 2.723 6.068 6.07V228.44c0 3.347-2.723 6.068-6.07 6.068H291.305c-3.346 0-6.068-2.722-6.068-6.068V66.484c0-3.346 2.723-6.07 6.068-6.07H393.48"/>
    <circle fill="#7F7F7F" cx="342.393" cy="69.202" r="1.087"/>
    <path fill="#7F7F7F" d="M342.393 220.855c2.565 0 4.652 2.087 4.652 4.65 0 2.566-2.087 4.654-4.652 4.654s-4.653-2.09-4.653-4.655 2.087-4.65 4.653-4.65m0-1c-3.123 0-5.653 2.53-5.653 5.65 0 3.123 2.53 5.653 5.653 5.653 3.12 0 5.652-2.53 5.652-5.654 0-3.12-2.53-5.65-5.652-5.65z"/>
    <path fill="#FFF" d="M290.652 78.44h103.48v138.044H290.65z"/>
    <path fill="#7F7F7F" d="M393.132 79.44v136.044h-101.48V79.44h101.48m1-1h-103.48v138.044h103.48V78.44z"/>
  </g>
</svg>
