<svg xmlns="http://www.w3.org/2000/svg" width="1600" height="1200" viewBox="0 0 1600 1200"><path fill="#BFBFBF" d="M650.96 1063.854v-6.69l31.14-5.37 14.355-123.484h203.112l14.355 123.483 31.138 5.37v6.69"/><path fill="#7F7F7F" d="M693.322 940.888l1.656-14.23h206.045l1.655 14.228H693.314l.008.002z"/><path d="M897.477 930.646l13.974 120.188.345 2.965 2.94.505 27.97 4.828v2.387H653.3v-2.387l27.978-4.828 2.94-.506.343-2.966 13.967-120.188H897.48m3.55-3.99H694.987l-14.38 123.718-31.29 5.402v9.724h297.39v-9.735l-31.282-5.397-14.38-123.72-.013.007z"/><path fill="#FFF" d="M242.873 172.55h1110.264v591.86H242.873V172.55z"/><path fill="#BFBFBF" d="M221.187 928.313c-11.46 0-20.78-9.47-20.78-21.107V806.883h1195.2v100.333c0 11.635-9.325 21.107-20.788 21.107H221.182l.004-.01z"/><path fill="#16C43E" d="M838.004 295.582h180v20h-180z"/><path fill="#424242" d="M838.004 335.582h275v6h-275zM838.004 363.582h245v6h-245zM838.004 389.582h185v6h-185zM838.004 429.582h265v6h-265zM838.004 455.582h235v6h-235zM838.004 481.582h245v6h-245zM838.004 507.582h105v6h-105z"/><path d="M203.49 809.14l1189.027.01v98.064c0 9.936-7.94 18.02-17.694 18.02H221.187c-9.755 0-17.696-8.07-17.696-18.012v-98.074m-3.99-3.993V907.22c0 12.105 9.756 22.005 21.687 22.005h1153.636c11.93 0 21.686-9.895 21.686-22V805.166L199.5 805.16v-.005z"/><path fill="#7F7F7F" d="M1349.146 176.54v583.88H246.863V176.54h1102.283m3.99-3.99H242.874v591.86h1110.264V172.55z"/><path fill="#FFF" d="M1374.823 129.177H221.187c-11.93 0-21.686 9.756-21.686 21.687v656.91H1396.51v-656.92c0-11.917-9.755-21.677-21.685-21.677zm-21.686 635.232H242.873V172.55h1110.264v591.86z"/><path d="M1374.823 133.167c9.755 0 17.694 7.94 17.694 17.696v652.92H203.49V150.854c0-9.748 7.94-17.688 17.697-17.688h1153.636m0-3.99H221.187c-11.93 0-21.686 9.756-21.686 21.687v656.91H1396.51v-656.92c0-11.917-9.755-21.677-21.685-21.677z"/><circle fill="#444C50" cx="798.951" cy="151.078" r="5.422"/><path d="M322.633 689.512v-66.09c0-19.592-15.944-35.54-35.53-35.54H111.9c-19.59 0-35.527 15.944-35.527 35.535v20.916c-1.955.72-3.368 2.61-3.368 4.828v18.574c0 2.215 1.41 4.102 3.375 4.828v16.94c-1.963.72-3.372 2.605-3.372 4.828v31.234c0 2.218 1.41 4.108 3.376 4.827v2.595c-1.963.72-3.372 2.608-3.372 4.828v31.24c0 2.207 1.408 4.1 3.375 4.83v257.256c0 19.6 15.944 35.534 35.535 35.534h175.202c19.59 0 35.523-15.933 35.523-35.53v-300.75c1.967-.718 3.375-2.608 3.375-4.826v-31.23c0-2.223-1.413-4.11-3.383-4.828l-.007.002zm-1.763 341.642c0 18.648-15.122 33.77-33.768 33.77H111.9c-18.65 0-33.768-15.12-33.768-33.77v-407.74c0-18.654 15.122-33.772 33.77-33.772h175.203c18.645 0 33.763 15.122 33.763 33.776v407.737h.002z"/><path fill="#FFF" d="M287.102 589.642H111.9c-18.65 0-33.768 15.122-33.768 33.775v407.73c0 18.647 15.122 33.77 33.77 33.77h175.203c18.645 0 33.763-15.122 33.763-33.768V623.41c0-18.654-15.122-33.772-33.768-33.772v.004h.002zm16.886 423.42H95.018V641.577h208.97v371.5-.013z"/><path d="M287.102 591.868c17.39 0 31.538 14.15 31.538 31.545v407.733c0 17.396-14.157 31.545-31.545 31.545H111.892c-17.388 0-31.537-14.15-31.537-31.544V623.422c0-17.396 14.153-31.55 31.545-31.55h175.202m0-3.99H111.9c-19.59 0-35.53 15.94-35.53 35.53v407.734c0 19.6 15.947 35.534 35.538 35.534H287.11c19.59 0 35.523-15.937 35.523-35.534V623.422c0-19.6-15.944-35.544-35.53-35.544v.004z"/><path fill="#7F7F7F" d="M216.6 616.24h-34.623c-.93 0-1.688.75-1.688 1.687 0 .93.757 1.686 1.687 1.686H216.6c.93 0 1.69-.75 1.69-1.686 0-.938-.77-1.69-1.7-1.69l.01.002zm-17.31-10.554c1.396 0 2.533-1.137 2.533-2.536 0-1.413-1.133-2.542-2.533-2.542-1.397 0-2.538 1.13-2.538 2.532.012 1.397 1.146 2.534 2.546 2.534l-.008.012zm-36.94 9.28c-1.755 0-3.172 1.43-3.172 3.173 0 1.755 1.412 3.17 3.164 3.17 1.75 0 3.16-1.42 3.16-3.175 0-1.74-1.417-3.164-3.165-3.164l.013-.003zm36.936 410.957c7.11 0 12.896 5.786 12.896 12.904 0 7.102-5.786 12.888-12.904 12.888-7.114 0-12.9-5.786-12.9-12.888 0-7.114 5.786-12.904 12.9-12.904m0-3.99c-9.33 0-16.89 7.565-16.89 16.896 0 9.323 7.56 16.877 16.89 16.877 9.325 0 16.886-7.558 16.886-16.878 0-9.338-7.56-16.896-16.89-16.896h.004z"/><path fill="#FFF" d="M95.02 641.564h208.97v371.498H95.02V641.564z"/><path fill="#7F7F7F" d="M398.005 602.614v127.8h213v-127.8h-213zm205 119.8h-197v-111.8h197v111.8zM693.5 602.614v127.8h213v-127.8h-213zm205 119.8h-197v-111.8h197v111.8zM985.004 602.614v127.8h213v-127.8h-213zm205 119.8h-197v-111.8h197v111.8zM299.998 645.554v363.52H99.008v-363.52h200.99m3.99-3.99H95.018v371.498h208.97V641.564z"/><path fill="#FFF" d="M1569.995 368.43h-407.688c-14.363 0-26.016 11.652-26.016 26.018v646.212c0 14.384 11.652 26.026 26.017 26.026h407.678c14.376 0 26.02-11.65 26.02-26.016V394.446c0-14.364-11.65-26.017-26.014-26.017h.005zm2.602 624.528H1159.71V442.154h412.887v550.804z"/><path d="M1569.995 370.426c13.247 0 24.02 10.773 24.02 24.02v646.213c0 13.246-10.77 24.03-24.026 24.03h-407.68c-13.245 0-24.02-10.772-24.02-24.02V394.446c0-13.247 10.772-24.02 24.02-24.02h407.685m0-3.99h-407.688c-15.448 0-28.01 12.57-28.01 28.012v646.212c0 15.453 12.562 28.02 28.01 28.02h407.678c15.448 0 28.018-12.57 28.018-28.012V394.44c0-15.44-12.568-28.01-28.01-28.01l.002.006z"/><path fill="#FFF" d="M1569.995 370.238c13.35 0 24.212 10.865 24.212 24.22v646.2c0 13.354-10.865 24.212-24.22 24.212h-407.673c-13.352 0-24.213-10.86-24.213-24.212V394.45c0-13.352 10.866-24.22 24.214-24.22h407.68"/><circle fill="#7F7F7F" cx="1366.156" cy="405.295" r="4.337"/><path fill="#7F7F7F" d="M1366.156 1010.394c10.233 0 18.563 8.327 18.563 18.555 0 10.236-8.33 18.568-18.564 18.568-10.235 0-18.565-8.34-18.565-18.573 0-10.234 8.328-18.555 18.566-18.555m0-3.99c-12.46 0-22.557 10.095-22.557 22.543 0 12.46 10.095 22.556 22.556 22.556 12.45 0 22.552-10.096 22.552-22.56 0-12.45-10.095-22.546-22.552-22.546v.006z"/><path fill="#FFF" d="M1159.71 442.154h412.887v550.8H1159.7l.01-550.8z"/><path fill="#7F7F7F" d="M1568.605 446.145v542.82H1163.7v-542.82h404.905m3.992-3.99H1159.71v550.8h412.887v-550.8z"/><path fill="#BFBFBF" d="M99.006 645.52h201v16h-201zM1163.71 446.154h405v24h-405zM246.873 176.55h1102.273v30H246.873z"/><path d="M99.006 789.52h201v4h-201zM99.006 673.52h201v4h-201zM1213.71 494.154v180h305v-180h-305zm301 176h-297v-172h297v172zM398.005 286.55v236.064h360V286.55h-360zm356 232.064h-352V290.55h352v228.064z"/><path fill="#7F7F7F" d="M1213.71 946.154v42.81h4v-38.81h132v38.81h4v-42.81M1378.71 946.154v42.81h4v-38.81h132v38.81h4v-42.81"/><path fill="#16C43E" d="M109.006 809.52h130v12h-130zM1213.71 698.154h180v16h-180z"/><path fill="#424242" d="M109.006 833.52h150v4h-150zM1213.71 734.154h275v6h-275zM1213.71 760.154h295v6h-295zM1213.71 786.154h185v6h-185zM1213.71 826.154h285v6h-285zM1213.71 852.154h265v6h-265zM1213.71 878.154h255v6h-255zM1213.71 904.154h125v6h-125zM109.006 849.52h170v4h-170zM109.006 865.52h160v4h-160zM109.006 881.52h150v4h-150zM109.006 897.52h100v4h-100zM109.006 929.52h170v4h-170zM109.006 945.52h150v4h-150zM109.006 961.52h150v4h-150zM109.006 977.52h160v4h-160zM109.006 993.52h130v4h-130z"/></svg>