<svg xmlns="http://www.w3.org/2000/svg" xmlns:xlink="http://www.w3.org/1999/xlink" width="360" height="380" viewBox="0 0 360 380">
  <g id="v5__x28_greyscale_x29_">
    <defs>
      <path id="SVGID_13_" d="M288.75 0H63.125v380H360V71.25z"/>
    </defs>
    <clipPath id="SVGID_14_">
      <use xlink:href="#SVGID_13_" overflow="visible"/>
    </clipPath>
    <g clip-path="url(#SVGID_14_)">
      <path fill="#FFF" d="M71.125 379c-3.86 0-7-3.14-7-7V8c0-3.86 3.14-7 7-7H352c3.86 0 7 3.14 7 7v364c0 3.86-3.14 7-7 7H71.125z"/>
      <path d="M352 2c3.31 0 6 2.69 6 6v364c0 3.31-2.69 6-6 6H71.125c-3.31 0-6-2.69-6-6V8c0-3.31 2.69-6 6-6H352m0-2H71.125c-4.4 0-8 3.6-8 8v364c0 4.4 3.6 8 8 8H352c4.4 0 8-3.6 8-8V8c0-4.4-3.6-8-8-8z"/>
    </g>
    <path fill="#EDEDED" d="M1 32.89h254v88H1z"/>
    <path d="M254 33.89v86H2v-86h252m2-2H0v90h256v-90z"/>
    <path fill="#999" d="M95.125 153.22h220v6h-220zM95.125 180.22h150v6h-150zM95.125 206.22h170v6h-170zM95.125 233.22h210v6h-210zM95.125 260.22h140v6h-140zM95.125 287.22h110v6h-110zM95.125 314.22h180v6h-180zM95.125 341.22h140v6h-140z"/>
    <g>
      <defs>
        <path id="SVGID_15_" d="M288.75 0H63.125v380H360V71.25z"/>
      </defs>
      <clipPath id="SVGID_16_">
        <use xlink:href="#SVGID_15_" overflow="visible"/>
      </clipPath>
      <g clip-path="url(#SVGID_16_)">
        <path fill="#EDEDED" d="M294.75 72.25c-3.86 0-7-3.14-7-7V-10c0-1.514.37-3.13 1.404-3.13.668 0 1.596.544 2.546 1.494L371.636 68.3c1.148 1.148 1.695 2.26 1.43 2.906-.268.644-1.442 1.044-3.065 1.044h-75.25z"/>
        <path d="M289.18-12.13c.243.018.897.284 1.814 1.2L370.93 69.01c.966.966 1.19 1.608 1.202 1.812-.152.136-.765.43-2.13.43h-75.25c-3.31 0-6-2.69-6-6V-10c-.002-1.364.292-1.977.43-2.13m-.028-2c-1.45 0-2.404 1.44-2.404 4.13v75.25c0 4.4 3.6 8 8 8H370c4.4 0 5.454-2.545 2.343-5.657l-79.936-79.937c-1.208-1.207-2.33-1.787-3.253-1.787z"/>
      </g>
      <path clip-path="url(#SVGID_16_)" fill="#17C917" stroke="#000" stroke-width="4" d="M288.75 0L360 71.25"/>
    </g>
  </g>
</svg>