<svg id="Layer_1" xmlns="http://www.w3.org/2000/svg" width="160.824" height="16" viewBox="0 0 160.824 16">
  <path fill="#222222" d="M8.412 0l1.985 6.112h6.427l-5.2 3.777L13.612 16l-5.198-3.777L3.212 16 5.2 9.89 0 6.11h6.426zM32.412 0l1.985 6.112h6.427l-5.2 3.777L37.612 16l-5.198-3.777-5.2 3.777L29.2 9.89 24 6.11h6.426zM56.412 0l1.985 6.112h6.427l-5.2 3.777L61.612 16l-5.198-3.777-5.2 3.777L53.2 9.89 48 6.11h6.426zM80.412 0l1.985 6.112h6.427l-5.2 3.777L85.612 16l-5.198-3.777-5.2 3.777L77.2 9.89 72 6.11h6.426zM104.412 0l1.985 6.112h6.427l-5.2 3.777 1.987 6.11-5.198-3.777-5.2 3.777 1.987-6.11L96 6.11h6.426zM128.412 0l1.984 6.112h6.428l-5.2 3.777 1.987 6.11-5.198-3.777-5.2 3.777 1.986-6.11L120 6.11h6.426zM152.412 0l1.984 6.112h6.428l-5.2 3.777 1.987 6.11-5.198-3.777-5.2 3.777 1.987-6.11L144 6.11h6.426z"/>
</svg>