<svg id="Layer_1" xmlns="http://www.w3.org/2000/svg" width="125" height="125" viewBox="0 0 125 125">
  <path fill="none" d="M8.768 0L125 116.232v-4.523L13.29 0zM16.12 0L125 108.88v-4.525L20.645 0zM0 20.645L104.355 125h4.526L0 16.12zM1.414 0L125 123.586v-4.525L5.94 0zM111.71 0L125 13.29V8.768L116.232 0zM0 5.938L119.062 125h4.524L0 1.414zM23.474 0L125 101.526v-4.524L27.998 0zM30.826 0L125 94.174V30.826L94.174 0zM0 27.997L97.003 125h4.524L0 23.473zM104.355 0L125 20.644V16.12L108.88 0zM119.062 0L125 5.938V1.414L123.586 0zM97.002 0L125 27.998v-4.525L101.527 0zM0 13.29L111.71 125h4.522L0 8.768zM0 108.88L16.12 125h4.525L0 104.355zM0 101.527L23.473 125h4.525L0 97.003zM0 123.586L1.414 125h4.524L0 119.062zM0 116.232L8.768 125h4.524L0 111.708zM0 94.174L30.827 125h63.347L0 30.826z"/>
  <path fill="#E4E4E4" d="M0 125h1.414L0 123.586zM0 119.062L5.938 125h2.83L0 116.232zM0 111.708L13.292 125h2.828L0 108.88zM0 104.355L20.645 125h2.828L0 101.527zM0 97.003L27.998 125h2.83L0 94.174zM0 30.826L94.174 125h2.83L0 27.997zM0 23.473L101.527 125h2.828L0 20.645zM0 16.12L108.88 125h2.83L0 13.29zM0 8.768L116.232 125h2.83L0 5.938zM0 0v1.414L123.586 125H125v-1.414L1.414 0zM5.94 0L125 119.06v-2.828L8.768 0zM13.29 0L125 111.71v-2.83L16.12 0zM20.645 0L125 104.355v-2.83L23.474 0zM27.998 0L125 97.002v-2.828L30.826 0zM94.174 0L125 30.826v-2.828L97.002 0zM101.527 0L125 23.473v-2.83L104.355 0zM108.88 0L125 16.12v-2.83L111.71 0zM116.232 0L125 8.767v-2.83L119.062 0zM125 1.414V0h-1.414z"/>
</svg>