<svg xmlns="http://www.w3.org/2000/svg" width="79.427" height="115" viewBox="296.957 0 79.427 115"><path fill="#EFEFEF" d="M322.807 64.161a4.347 4.347 0 0 1-.571-5.447l6.163-9.49 6.163-9.491a4.348 4.348 0 0 0-.571-5.447l4.102 4.102a4.35 4.35 0 0 1 .571 5.447l-6.163 9.491-6.163 9.48a4.35 4.35 0 0 0 .571 5.447l-4.102-4.092z"/><path fill="#EFEFEF" d="M329.027 70.382a4.349 4.349 0 0 1-.571-5.447l6.163-9.48 6.163-9.491a4.35 4.35 0 0 0-.571-5.447l4.102 4.102a4.35 4.35 0 0 1 .571 5.447l-6.163 9.49-6.163 9.481a4.348 4.348 0 0 0 .57 5.446l-4.101-4.101z"/><path fill="#EFEFEF" d="M339.35 80.704l-4.102-4.102a4.349 4.349 0 0 1-.571-5.447l6.163-9.48 6.162-9.491a4.348 4.348 0 0 0-.57-5.447l4.102 4.102a4.35 4.35 0 0 1 .571 5.447l-6.163 9.491-6.163 9.491a4.335 4.335 0 0 0 .571 5.436zm-5.544-42.49a4.364 4.364 0 0 0-1.18-3.918L298.321 0h-1.365v1.364l36.85 36.85z"/><path fill="#EFEFEF" d="M339.534 76.776a4.364 4.364 0 0 0 1.18 3.918l34.296 34.295h1.364v-1.363l-36.84-36.85zm36.85-75.412V0h-1.374l1.374 1.364zm-79.427 112.262V115h1.365l-1.365-1.374z"/></svg>