<svg id="Layer_1" xmlns="http://www.w3.org/2000/svg" width="125" height="123.853" viewBox="0 0 125 123.853">
  <path fill="#E4E4E4" d="M93.33 101.586l6.18 8.505V99.58l10-3.247-10-3.248V82.568l-6.178 8.504-9.998-3.25 6.18 8.507-6.18 8.503m31.518-91.07L106.998 4.6h-62.82l-7.854 9.162 7.852 9.16h62.822M77.992 55.047l7.853 9.16H125V45.885H85.844m-34.18 14.418l6.18 8.504V58.294l10-3.25-10-3.25v-10.51l-6.18 8.505-9.998-3.25 6.18 8.506-6.18 8.503M2.51 105.49h62.823l7.852-9.16-7.852-9.163H2.51L0 90.097v12.466m9.998-83.545l6.18 8.504V17.01l9.998-3.248-10-3.25V0l-6.18 8.505L0 5.255l6.18 8.507L0 22.266M125 90.1l-5.342 6.23 5.34 6.23M31.52 55.047l-7.852-9.162H0v18.323h23.665"/>
</svg>