<svg id="Layer_1" xmlns="http://www.w3.org/2000/svg" width="77.877" height="77.876" viewBox="0 0 77.877 77.876">
  <g opacity=".08">
    <circle cx="34.071" cy="73.009" r="1.063"/>
    <circle cx="29.204" cy="68.142" r="1.063"/>
    <circle cx="24.336" cy="63.274" r="1.063"/>
    <circle cx="19.469" cy="58.407" r="1.063"/>
    <circle cx="14.602" cy="53.539" r="1.061"/>
    <circle cx="9.734" cy="48.672" r="1.063"/>
    <circle cx="4.867" cy="43.805" r="1.063"/>
  </g>
  <g opacity=".08">
    <circle cx="73.009" cy="34.071" r="1.063"/>
    <circle cx="68.142" cy="29.204" r="1.063"/>
    <circle cx="63.274" cy="24.336" r="1.062"/>
    <circle cx="58.407" cy="19.469" r="1.062"/>
    <circle cx="53.54" cy="14.602" r="1.062"/>
    <circle cx="48.672" cy="9.734" r="1.062"/>
    <circle cx="43.805" cy="4.867" r="1.062"/>
  </g>
  <g opacity=".14">
    <circle cy="38.938" r="1.063"/>
    <circle cx="4.867" cy="34.071" r="1.063"/>
    <circle cx="9.734" cy="29.204" r="1.063"/>
    <circle cx="14.602" cy="24.336" r="1.062"/>
    <circle cx="19.469" cy="19.469" r="1.062"/>
    <circle cx="24.336" cy="14.602" r="1.062"/>
    <circle cx="29.204" cy="9.734" r="1.062"/>
    <circle cx="34.071" cy="4.867" r="1.062"/>
    <circle cx="38.938" r="1.062"/>
  </g>
  <g opacity=".14">
    <circle cx="38.938" cy="77.876" r="1.063"/>
    <circle cx="43.805" cy="73.009" r="1.063"/>
    <circle cx="48.672" cy="68.142" r="1.063"/>
    <circle cx="53.54" cy="63.274" r="1.063"/>
    <circle cx="58.407" cy="58.407" r="1.063"/>
    <circle cx="63.274" cy="53.539" r="1.061"/>
    <circle cx="68.142" cy="48.672" r="1.063"/>
    <circle cx="73.009" cy="43.805" r="1.063"/>
    <circle cx="77.878" cy="38.938" r="1.063"/>
  </g>
</svg>