<svg id="Layer_1" xmlns="http://www.w3.org/2000/svg" xmlns:xlink="http://www.w3.org/1999/xlink" width="199.75" height="200.25" viewBox="0 0 199.75 200.25">
  <defs>
    <path id="SVGID_1_" d="M-.25.25h200v200h-200z"/>
  </defs>
  <clipPath id="SVGID_2_">
    <use xlink:href="#SVGID_1_" overflow="visible"/>
  </clipPath>
  <g clip-path="url(#SVGID_2_)">
    <path fill="#F2F2F2" d="M191.752 92.25l-100 100-2-2 100-100 2 2zm-4-4l-100 100-2-2 100-100 2 2z"/>
    <path fill="#F2F2F2" d="M9.75 90.25l100 100-2 2-100-100 2-2zm4-4l100 100-2 2-100-100 2-2z"/>
    <path fill="#E4E4E4" d="M1.75 98.248l100 100-2 2-100-100 2-2zm4-3.998l100 100-2 2-100-100 2-2z"/>
    <path fill="#E4E4E4" d="M199.75 100.25l-99.998 100-2-2 100-100 2 2zm-3.997-4l-100 100-2-2 100-100 2 2z"/>
    <path fill="#F2F2F2" d="M91.75-7.75l-100 100-2-2 100-100 2 2zm-4-4l-99.998 100-2-2 100-100 1.998 2z"/>
    <path fill="#F2F2F2" d="M-90.25-9.75l100 100-2 2-100-100 2-2zm4-4l100 100-2 2-100-100 2-2z"/>
    <path fill="#E4E4E4" d="M-98.248-1.75l100 100-2.002 2-100-100 2.002-2zm4-4l100 100-2 2-100-100 2-2z"/>
    <path fill="#E4E4E4" d="M99.75.25l-100 100-2-2 100-100 2 2zm-4-4l-100 100-2-2 100-100 2 2z"/>
    <path fill="#F2F2F2" d="M291.75-7.75l-99.998 100-2-2.002 100-100 2 2zm-3.998-4l-100 100-2-2.002 100-100 2 2z"/>
    <path fill="#F2F2F2" d="M109.75-9.75l100 100-2.002 2-100-100 2.002-2zm4-4l100 100-2.002 2-100-100 2.002-2z"/>
    <path fill="#E4E4E4" d="M101.75-1.75l99.998 99.998-2 2-100-100 2.002-2zm4-4l100 100-2 2-100-100 2-2z"/>
    <path fill="#E4E4E4" d="M299.752.25l-99.998 100-2-2 99.998-100 2 2zm-4-4l-100 100-2-2 100-100 2 2z"/>
    <path fill="#F2F2F2" d="M91.752 192.252l-100 100-2-2 99.998-100 2.002 2zm-4-4l-100 100-2-2.002 100-100 2 2.002z"/>
    <path fill="#F2F2F2" d="M-90.247 190.25l100 100-2.002 2-100-100 2.003-2zm3.998-4.002l100 100-2 2-100-100 2-2z"/>
    <path fill="#E4E4E4" d="M-98.248 198.247l100 100-2.002 2-99.998-99.998 2-2.003zm4-3.998l100 100-2 2-100-100 2-2z"/>
    <path fill="#E4E4E4" d="M99.75 200.252l-100 100-2-2.002 100-100 2 2.002zm-3.998-4l-100 100-2-2 100-100 2 2z"/>
    <path fill="#F2F2F2" d="M291.753 192.252l-100 99.997-2-2 100-100 2 2.002zm-4-4l-100 99.998-2-2 100-100 2 2z"/>
    <path fill="#F2F2F2" d="M109.752 190.248l100 100-2.002 2-100-100 2.002-2zm3.998-4l100 100-2 2-100-100 2-2z"/>
    <path fill="#E4E4E4" d="M101.75 198.247l100 100-2 2-100-100 2-2zm4-3.998l100 99.998-2 2-100-100 2-2z"/>
    <path fill="#E4E4E4" d="M299.753 200.25l-100 100-2-2 100-99.998 2 2zm-4-4l-100 100-2-2 100-100 2 2z"/>
  </g>
</svg>