<svg id="Layer_1" xmlns="http://www.w3.org/2000/svg" xmlns:xlink="http://www.w3.org/1999/xlink" width="67" height="66.999" viewBox="0 0 67 66.999">
  <defs>
    <path id="SVGID_1_" d="M0 0h67v67H0z"/>
  </defs>
  <clipPath id="SVGID_2_">
    <use xlink:href="#SVGID_1_" overflow="visible"/>
  </clipPath>
  <circle clip-path="url(#SVGID_2_)" fill="#E4E4E4" cx="33.5" cy="33.5" r="5.025"/>
  <defs>
    <path id="SVGID_3_" d="M0 0h67v67H0z"/>
  </defs>
  <clipPath id="SVGID_4_">
    <use xlink:href="#SVGID_3_" overflow="visible"/>
  </clipPath>
  <circle clip-path="url(#SVGID_4_)" fill="#E4E4E4" cx="67" cy="33.5" r="2.513"/>
  <defs>
    <path id="SVGID_5_" d="M0 0h67v67H0z"/>
  </defs>
  <clipPath id="SVGID_6_">
    <use xlink:href="#SVGID_5_" overflow="visible"/>
  </clipPath>
  <circle clip-path="url(#SVGID_6_)" fill="#E4E4E4" cx="33.5" r="2.513"/>
  <g>
    <defs>
      <path id="SVGID_7_" d="M0 0h67v67H0z"/>
    </defs>
    <clipPath id="SVGID_8_">
      <use xlink:href="#SVGID_7_" overflow="visible"/>
    </clipPath>
    <circle clip-path="url(#SVGID_8_)" fill="#E4E4E4" cx=".217" cy="33.5" r="2.513"/>
  </g>
  <g>
    <defs>
      <path id="SVGID_9_" d="M0 0h67v67H0z"/>
    </defs>
    <clipPath id="SVGID_10_">
      <use xlink:href="#SVGID_9_" overflow="visible"/>
    </clipPath>
    <circle clip-path="url(#SVGID_10_)" fill="#E4E4E4" cx="33.5" cy="66.999" r="2.513"/>
  </g>
  <g>
    <defs>
      <path id="SVGID_11_" d="M0 0h67v67H0z"/>
    </defs>
    <clipPath id="SVGID_12_">
      <use xlink:href="#SVGID_11_" overflow="visible"/>
    </clipPath>
    <circle clip-path="url(#SVGID_12_)" fill="#E4E4E4" cx="67" r="5.025"/>
  </g>
  <g>
    <defs>
      <path id="SVGID_13_" d="M0 0h67v67H0z"/>
    </defs>
    <clipPath id="SVGID_14_">
      <use xlink:href="#SVGID_13_" overflow="visible"/>
    </clipPath>
    <circle clip-path="url(#SVGID_14_)" fill="#E4E4E4" r="5.025"/>
  </g>
  <g>
    <defs>
      <path id="SVGID_15_" d="M0 0h67v67H0z"/>
    </defs>
    <clipPath id="SVGID_16_">
      <use xlink:href="#SVGID_15_" overflow="visible"/>
    </clipPath>
    <circle clip-path="url(#SVGID_16_)" fill="#E4E4E4" cy="67" r="5.025"/>
  </g>
  <g>
    <defs>
      <path id="SVGID_17_" d="M0 0h67v67H0z"/>
    </defs>
    <clipPath id="SVGID_18_">
      <use xlink:href="#SVGID_17_" overflow="visible"/>
    </clipPath>
    <circle clip-path="url(#SVGID_18_)" fill="#E4E4E4" cx="67" cy="67" r="5.025"/>
  </g>
</svg>