<svg id="Layer_1" xmlns="http://www.w3.org/2000/svg" width="699.999" height="700" viewBox="0 0 699.999 700">
  <path fill="#F2F2F2" d="M81.095 472.593c5.028 4.048 12.236 6.744 19.007 10.235 2.333 1.202 4.69 2.793 6.945 2.556 3.2-.33 3.757-3.716 6.578-5.115 3.523-1.75 7.19-1.614 8.773-4.022.7-1.064.49-3.033 1.097-4.387 1.182-2.63 3.514-3.812 3.656-5.85.134-1.886-2.073-6.277-3.654-8.408-1.604-2.164-6-5.035-9.502-7.314-3.82-2.47-6.148-6.334-9.142-7.31-1.268-.41-3.02.023-4.75-.364-2.352-.53-4.05-2.107-5.482-2.193-2.333-.14-3.166 1.436-6.216 2.56-6.157 2.273-12.19 1.4-12.063 8.04.08 4.034 5.038 5.21 5.85 9.507.77 4.074-1.057 6.563-1.095 12.066zM21.973 429.3c-1.36-.21-6.495 1.25-8.043 4.02-.638 1.14-.583 3.4-1.094 5.115-1.015 3.4-2.583 6.045-2.56 8.412.035 3.59 3.34 6.718 4.386 11.694.416 1.97-.212 4.22.366 5.85 1.568 4.423 8.295 8.47 10.967 8.772 3.076.35 9.514-.61 10.963-2.926 2.088-3.33-.776-7.058-1.097-12.06-.22-3.445 1.32-6.098 1.098-9.504-.46-7.144-7.618-18.243-14.985-19.37zm200.534-24.13c3.69-.175 6.736-.897 9.506-.366 1.84.353 3.294 2.362 5.483 2.56 1.946.175 4.613-1.34 6.945-1.095 2.455.255 6.93 2.772 7.678 5.114 2.164 6.778-4.807 8.987-5.12 16.45-.103 2.58 1.877 5.425 1.83 8.405-.032 2.076-2.02 4.302-2.193 6.944-.128 2.015.945 4.084.735 5.852-.242 1.98-4.048 9.87-5.486 12.06-1.252 1.913-3.844 3.08-5.483 5.122-1.62 2.014-2.503 5.375-4.385 6.21-4.163 1.85-8.383-.02-13.16.732-2.017.314-3.384 2.768-6.213 3.29-4.434.812-9.784-.603-13.89.73-5.224 1.694-10.33 14.05-20.105 10.233-3.388-1.32-3.02-5.425-5.118-8.043-1.128-1.405-3.982-2.1-5.117-3.654-1.68-2.29-3.284-8.258-3.656-10.964-.78-5.66 1.993-10.577.365-16.083-.658-2.225-5.518-7.04-7.677-8.408-3.146-1.992-7.898-2.146-7.677-7.677.113-2.8 5.615-8.935 8.042-10.966 1.733-1.453 7.195-4.142 9.87-4.75 4.004-.916 8.768-.527 12.425-1.832 4.157-1.477 10.546-6.23 13.16 0 2.506 5.97-3.012 11-5.117 12.8-3.48 2.96-8.248 5.888-8.408 9.868-.154 3.792 4.55 5.993 5.848 8.04 2.352 3.702 2.336 8.776 6.215 11.695.98.74 4.734 2.106 6.58 2.195 1.55.074 3.664-1.03 5.484-1.096 2.242-.08 4.28.874 5.483.73 2.893-.347 6.137-3.238 7.674-5.85.82-1.387.828-3.542 1.828-5.115 1.558-2.45 5.13-3.373 5.85-6.58 1.14-5.085-1.37-10.228-5.85-11.7-2.024-.665-5.09.386-7.677-.73-2.878-1.24-6.92-9.956-6.58-13.16.373-3.483 7.47-10.066 11.7-10.963 2.248-.482 4.042.1 6.213-.004v.003zm103.815 85.17c-3.52 2.937-8.095 6.778-12.796 6.945-5.224.184-9.207-4.46-14.257-6.215-3.778-1.313-7.66-1.158-10.965-2.56-3.214-1.36-5.264-4.55-8.773-3.655-2.686 2.735.14 5.255 1.826 7.677 1.555 2.235 2.666 5.338 4.386 7.313 1.528 1.75 4.624 2.748 5.116 4.75.657 2.654-1.263 4.195-1.094 6.947 1.283 2.616 6.698 1.097 9.138 2.558 1.71 2.128.737 3.915 1.827 5.85 1.952 3.452 6.296 3.2 10.237 4.017 3.943.82 7.56 2.306 11.33-.365 2.42-1.71 3.174-5.623 5.12-6.944 2.338-1.58 10.552-3.24 12.792-2.926 2.367.336 2.584 2.756 5.114 4.023 1.446.723 3.318.542 4.386 1.097 2.398 1.24 4.03 4.093 6.216 6.944 2.172 2.838 4.946 4.688 5.116 7.677.216 3.73-3.946 6.882-6.944 9.505-2.457 2.146-5.758 6.48-9.138 6.945-1.594.22-3.063-.846-5.117-1.1-8.297-1.022-16.65 1.595-22.295-2.555-1.276-3.098.06-7.748-4.022-8.41-4.165-.676-7.147 3.03-11.695 3.654-7.116.982-17.175-2.18-24.49-1.095-4.223-2.414-6.703-8.16-9.504-12.796-2.112-3.49-6.16-5.158-5.484-11.33-1.75-4.836-7.113-4.124-10.234-6.215-5.107-3.418-7.195-12.28-3.654-19.005 2.205-4.185 6.06-8.59 8.773-10.6 2.546-1.886 7.305-2.694 7.676-5.483.33-2.49-2.445-3.92-2.56-6.214-.376-7.66 13.838-14.593 22.3-10.235 1.873.968 2.15 3.096 3.654 4.755 1.82 2.006 6.29 5.853 8.042 6.214 3.948.813 7.933-2.213 11.696-1.83 2.613.27 7.513 3.626 9.503 6.217 1.143 1.494 1.264 3.473 2.192 4.75 1.47 2.04 4.23 2.888 5.117 4.387.997 1.694 1.4 5.593 1.46 7.315l.002-.005zm-158.89 114.452c1.23-5.752-.18-10.327-2.925-14.988-1.295-2.2-4.562-3.852-4.753-5.848-.452-4.76 8.306-11.484 9.87-16.815 1.176-4.008 1.517-11.067 1.097-16.08-.217-2.595-1.99-5.314-1.825-7.314.28-3.45 3.514-3.41 5.114-7.31 1.327-3.22.77-7.455 1.83-9.136 1.716-2.72 7.467-2.933 12.793-4.387 3.395-.93 5.88-3.15 8.773-3.29 2.29-.11 4.453 1.912 8.04 2.558 2.206.4 4.787-.328 6.216 0 3.37.782 4.958 4.47 7.677 5.122 8.854-1.243 10.11 2.324 12.425 8.77.897 2.497 2.228 4.496 2.196 5.85-.067 2.672-5.82 10.037-8.407 10.6-2.167.474-4.6-1.983-7.31-2.56-1.247-.267-3.09.21-5.117 0-4.375-.448-12.404-3.855-13.525 1.83-.645 3.272 3.36 4.69 2.926 8.04-.374 2.88-5.46 4.87-5.85 8.404-.152 1.398 1.063 3.21 1.096 5.486.037 2.397-1.295 4.795-1.097 6.58.264 2.343 2.555 5.323 4.387 5.85 1.703.486 4.42-.507 6.946 0 2.513.5 3.817 2.988 6.58 2.92 3.82-.09 5.557-5.02 9.14-7.676 2.232-1.65 4.954-2.176 6.944-3.653 2.827-2.104 5.437-5.696 8.04-8.772 2.626-3.1 5.286-8.048 8.41-8.406 2.516-.288 3.97 1.57 6.58 2.558 1.69.64 3.5.32 4.753 1.097 5.955 3.697 4.584 18.285.73 23.03-1.906 2.34-7.42 4.982-10.968 7.673-4.165 3.16-7.723 6.928-11.332 7.31-4.125.437-8.727-1.35-12.792-.365-4.926 1.19-8.992 3.5-13.89 4.386-2.23.4-4.508.063-6.945.365-2.695.335-5.33 1.578-8.04 1.828-2.868.26-5.62-.81-8.41-.732-3.29.087-6.235 2.34-9.505 2.193-3.648-.165-7.238-2.463-9.87-5.116v-.002zm222.127-30.015c.28 6.28-3.387 14.452-8.41 17.91-1.568 1.08-4.75 2.083-6.942 3.29-2.42 1.33-4.8 2.823-6.945 2.925-2.905.13-5.346-1.675-7.31-2.195-5.375-1.423-12.266-2.302-13.16-6.215-.83-3.618 2.075-5.315 4.02-8.406.945-1.507 1.855-4.57 2.924-5.482.88-.752 3.52-1.077 6.215-2.19 3.8-1.578 6.188-4.994 10.964-5.122 2.69-.07 6.76.86 9.503 1.463 3.303.723 6.766 2.637 9.14 4.02v.002zm-79.323-2.924c6.5-1.084 12.98 5.48 20.104 6.58 4.08.63 7.006-.9 8.774 1.46 3.73 4.994-1.808 7.08-2.193 11.333-.17 1.9 1.252 3.416 1.463 5.85.167 1.93-.927 4-.73 5.116.473 2.658 6.074 4.25 6.58 6.58 1.086 5.005-7.855 13.64-10.965 15.72-2.858 1.91-7.988 3.708-12.063 3.654-1.886-.026-4.087-1.153-6.58-1.463-4.846-.603-10.682.03-14.62-1.462-3.22-1.217-7.05-5.578-10.236-6.944-3.62-1.552-8.403-2.9-12.795-5.483-4.323-2.543-10.283-4.616-10.234-8.042.048-3.278 7.835-7.393 9.87-9.135 10.767-9.23 18.42-19.56 32.9-23.76.22-.068.497.035.727-.002zm356.596-228.04c2.733 2.482 5.396 4.13 6.98 6.464 1.052 1.548.66 3.997 2.067 5.68 1.25 1.503 4.207 2.317 5.687 4.137 1.554 1.914 2.936 6.865 1.808 9.05-3.26 6.32-9.754 2.952-15.25 8.01-1.9 1.75-2.506 5.16-4.65 7.238-1.49 1.44-4.472 1.613-6.462 3.36-1.517 1.333-2.22 3.554-3.618 4.65-1.572 1.233-9.844 4.12-12.407 4.653-2.236.465-4.896-.542-7.496-.26-2.573.28-5.57 2.033-7.496 1.292-4.252-1.634-5.913-5.94-9.823-8.784-1.648-1.204-4.35-.438-6.72-2.07-3.71-2.558-6.49-7.344-10.337-9.305-4.894-2.497-17.24 2.635-21.456-6.98-1.458-3.328 1.7-5.97 2.068-9.303.198-1.792-1.327-4.303-1.033-6.203.43-2.807 3.517-8.16 5.168-10.34 3.453-4.552 8.89-6.07 11.63-11.114 1.107-2.033 1.08-8.878.52-11.375-.818-3.628-4.067-7.1 0-10.854 2.062-1.902 10.286-2.346 13.438-2.065 2.253.195 8.016 2.156 10.34 3.616 3.478 2.187 6.568 5.83 10.08 7.5 3.983 1.887 11.862 3.044 9.306 9.305-2.45 5.99-9.91 5.646-12.666 5.425-4.553-.365-9.995-1.665-12.922 1.038-2.79 2.57-1.023 7.455-1.552 9.817-.953 4.282-4.553 7.86-3.875 12.667.17 1.215 1.86 4.835 3.103 6.204 1.044 1.148 3.32 1.862 4.65 3.104 1.645 1.53 2.412 3.646 3.36 4.392 2.296 1.803 6.632 2.05 9.564 1.29 1.557-.4 3.09-1.92 4.91-2.323 2.83-.633 6.01 1.242 8.787-.517 4.4-2.788 6.263-8.2 4.137-12.408-.96-1.902-3.87-3.33-4.908-5.946-1.158-2.916 2.146-11.94 4.652-13.958 2.728-2.202 12.4-1.837 16.023.518 1.927 1.25 2.79 2.93 4.396 4.394zm13.184 133.63c-4.566-.41-10.517-.93-13.958-4.137-3.825-3.563-3.36-9.66-5.688-14.474-1.742-3.6-4.597-6.235-5.946-9.562-1.31-3.236-.5-6.94-3.618-8.787-3.833.032-3.614 3.812-4.136 6.72-.48 2.678-1.888 5.658-2.064 8.268-.16 2.318 1.323 5.218.257 6.98-1.412 2.338-3.858 2.07-5.686 4.137-.946 2.754 3.958 5.516 4.65 8.27-.297 2.716-2.25 3.29-2.844 5.43-1.062 3.822 2.188 6.715 4.395 10.08 2.21 3.367 3.72 6.978 8.273 7.756 2.92.498 6.22-1.74 8.528-1.29 2.777.53 9.757 5.168 11.116 6.977 1.438 1.912-.12 3.775.777 6.46.51 1.535 1.96 2.732 2.326 3.878.812 2.575-.044 5.745-.52 9.306-.47 3.54.186 6.81-1.807 9.047-2.487 2.79-7.66 2.074-11.633 1.81-3.26-.22-8.656.513-11.375-1.552-1.283-.968-1.57-2.762-2.842-4.395-5.142-6.59-12.9-10.646-13.956-17.572 1.287-3.092 5.518-5.434 3.1-8.788-2.468-3.427-7.197-2.914-10.855-5.687-5.724-4.34-10.604-13.688-16.543-18.095-1.278-4.696 1.03-10.508 2.327-15.767.978-3.966-.71-8.003 4.135-11.89 2.18-4.658-2.115-7.946-2.844-11.633-1.194-6.03 3.597-13.774 10.855-16.024 4.515-1.4 10.36-1.79 13.7-1.29 3.13.466 7.068 3.26 9.303 1.55 1.994-1.527 1.046-4.502 2.584-6.204 5.148-5.68 20.102-.535 23.004 8.53.645 2.01-.665 3.71-.774 5.946-.132 2.706.31 8.586 1.29 10.08 2.22 3.368 7.177 4.048 9.565 6.98 1.662 2.037 2.75 7.875 2.327 11.11-.245 1.868-1.56 3.35-1.81 4.91-.4 2.48.95 5.032.517 6.72-.488 1.9-2.958 4.94-4.134 6.2v.005zM486.422 433.76c4.938-3.19 7.176-7.43 8.53-12.664.638-2.47-.503-5.952.774-7.5 3.048-3.682 13.993-2.243 18.867-4.907 3.666-2.004 8.9-6.757 12.148-10.6 1.68-1.984 2.35-5.164 3.877-6.46 2.643-2.243 4.9.073 8.788-1.55 3.216-1.343 5.814-4.734 7.754-5.17 3.135-.708 7.353 3.207 12.146 5.945 3.057 1.743 6.387 1.932 8.528 3.875 1.698 1.544 1.8 4.502 3.88 7.496 1.277 1.84 3.615 3.15 4.393 4.398 1.832 2.93.345 6.662 1.81 9.042 7.14 5.386 5.506 8.797 2.584 14.994-1.13 2.397-1.603 4.752-2.584 5.686-1.937 1.844-11.212 2.982-13.44 1.552-1.868-1.198-1.854-4.657-3.36-6.98-.694-1.067-2.333-2.034-3.62-3.62-2.774-3.407-6.045-11.493-10.855-8.267-2.77 1.86-.943 5.694-3.617 7.753-2.303 1.773-7.305-.414-10.08 1.812-1.097.878-1.518 3.017-3.104 4.65-1.67 1.72-4.307 2.475-5.426 3.88-1.474 1.84-1.96 5.566-1.036 7.235.856 1.55 3.484 2.77 4.912 4.912 1.42 2.132.583 4.812 2.584 6.72 2.765 2.638 7.48.37 11.888 1.033 2.746.41 5.042 1.964 7.496 2.326 3.485.513 7.875-.186 11.888-.516 4.048-.337 9.43-1.955 11.89 0 1.98 1.574 1.697 3.92 2.846 6.463.744 1.648 2.246 2.697 2.584 4.136 1.596 6.824-9.688 16.173-15.768 16.8-3.004.31-8.772-1.724-13.183-2.325-5.18-.712-10.362-.563-13.18-2.845-3.228-2.61-5.22-7.125-8.79-9.306-4.325-2.644-8.833-3.882-12.926-6.723-1.86-1.29-3.233-3.138-5.17-4.65-2.14-1.67-4.885-2.652-6.977-4.394-2.21-1.842-3.402-4.545-5.428-6.465-2.39-2.26-6.063-2.75-8.27-5.168-2.462-2.695-3.372-6.86-3.355-10.597h.002zm151.48-387.53c-3.075-5.832 1.12-14.05-.077-21.154-.684-4.072-3.06-6.368-1.37-8.785 3.57-5.11 7.288-.512 11.446-1.483 1.856-.436 2.852-2.263 5.094-3.23 1.78-.764 4.093-.374 5.087-.912 2.378-1.286 2.124-7.1 4.178-8.314 4.41-2.607 15.415 3.168 18.368 5.467 2.71 2.11 6.032 6.417 7.266 10.3.567 1.798.188 4.244.68 6.706.95 4.79 3.388 10.13 3.21 14.338-.146 3.443-3.08 8.448-3.376 11.905-.333 3.92-.11 8.887-1.182 13.868-1.054 4.907-1.148 11.214-4.415 12.245-3.127.986-9.485-5.113-11.78-6.5-12.146-7.316-24.358-11.333-32.898-23.752-.13-.193-.12-.488-.23-.695zM369.657 626.523c2.87-.61 3.407.784 5.12 3.66.988 1.663 2.884 3.76 3.288 5.117 1.284 4.304.005 7.643 1.098 10.234 1.665 3.952 6.75 3.54 6.946 9.14.162 4.633-3.974 8.24-7.678 11.694-3.52 3.282-6.886 7.288-10.235 8.77-3.198 1.417-9.068 1.07-12.793 2.56-4.07 1.63-7.813 5.674-11.696 8.404-3.667 2.584-8.738 7.074-13.16 6.947-5.18-.147-13.486-7.164-15.354-11.332-3.567-7.977 1.237-16.99 1.828-24.126.71-8.496.072-9.18 4.753-14.255 1.473-1.596 3.09-3.82 4.753-5.116 4.558-3.562 15.196-8.074 14.987 2.557-.08 4.27-3.278 9.526-2.558 15.354.252 2.052 1.86 4.807 2.558 6.945.884 2.707 1.283 5.137 2.925 6.213.857.56 5.86 2.307 8.042 1.827 3.414-.75 2.963-5.058 3.656-10.234.274-2.052 1.108-3.945 1.095-5.848-.024-3.204-1.478-5.343-1.464-8.044.042-7.032 8.062-17.383 13.16-20.102.26-.14.287-.268.73-.367l-.003.002zm-225.72 15.552c.503-2.864.297-5.653 2.404-7.217 1.967-1.458 10.532-1.463 15.056.72 1.287.62 2.106 1.966 3.484 2.882 1.805 1.198 4.373 1.635 6.115 2.76 4.037 2.602 7.69 7.534 10.778 4.772 2.48-2.212-1.064-4.604-.74-7.17 6.41-4.507 6.11-10.303 11.887-12.837 2.49-1.092 6.095.555 9.217-.43 1.902-.598 3.677-2.524 5.437-3.09 3.654-1.184 15.695 2.577 18.954 6.015 1.463 1.542 1.715 3.883 3.017 5.95 1.77 2.806 5.117 4.753 6.006 6.927.848 2.057-.407 7.588-2.122 8.826-3.45 2.488-8.563-1.12-12.3 1.792-2.193 1.71-1.403 4.452-2.975 5.822-2.572 2.235-6.956 1.474-10.178 1.592-3.598.126-7.146.305-9.867-.457-6.667-1.868-15.905-14.137-22.435-8.9-3 2.4-2.532 5.405-.595 9.06-.955 5.51-.578 11-5.985 15.3-5.105 4.06-14.88 4.33-18.71-.748-1.878-2.498.33-4.53-.583-8.197-.463-1.842-2.146-3.278-2.448-4.552-.45-1.906.716-4.066.64-5.915-.153-3.475-1.548-6.18-.806-8.49l-3.248-4.416zm-15.564-99.606c-3.45-2.324.236-7.25.368-11.694.152-5.276-2.893-11.448-8.043-10.602-3.604.59-2.403 4.526-4.385 7.31-1.63 2.284-5.12 2.334-7.676 4.385-1.433 1.148-5.918 7.986-6.214 10.6-.446 3.93 2.025 8.992 1.096 13.892-.812 4.273-4.207 5.96-3.656 10.6.373 3.144 3.85 7.798 6.58 8.044 3.063.273 4.398-2.502 7.31-4.02 3.438-1.793 6.99-2.207 8.774-3.656 3.305-2.68 4.45-10.773 9.14-10.967 3.814-.154 6.005 4.533 4.752 10.603-.365 1.76-2.495 5.103-3.657 6.58-2.364 3.01-7.68 9.007-11.697 10.602-4.044 1.604-8.232-.123-12.794 0-2.238.058-4.376 1.62-6.946 2.193-1.75.387-3.44.11-5.117.365-2.578.393-4.825 1.552-7.31 1.46-4.558-.17-7.56-2.133-10.6-5.114 1.6-5.377 7.843-4.793 9.5-9.506 3.918-11.127-7.227-13.352-7.676-21.2-.115-2.093 1.51-7.006 2.928-9.87.665-1.35 2.415-2.372 3.655-4.02 1.066-1.423 1.586-3.387 2.557-4.75 2.21-3.107 4.858-5.582 6.215-8.777.872-2.06.82-4.776 1.827-6.214 1.575-2.24 5.89-3.108 8.408-4.02 2.943-1.062 6.235-2.73 9.137-2.926 6.552-.434 10.164 4.263 14.257 5.122 4.274.895 9.943-1.002 12.79 1.457 2.043 1.764 2.595 8.715 1.463 12.43-1.278 4.19-9.356 12.435-14.986 11.69h.003zm484.753 90.927c-5.55-2.022-9.614 4.118-14.257 5.852-2.26.84-4.41-.196-6.215 1.827-1.852 3.363.122 6.362 0 9.138-.076 1.776-1.26 3.48-1.46 5.482-.188 1.865.66 3.96.364 5.848-.65 4.17-5.213 5.705-5.85 9.14-1.362 7.366 4.714 15.003 10.602 15.715 2.103.257 12.842-.618 14.987-1.458 2.064-.812 3.19-2.88 5.848-5.12 2.01-1.694 4.854-2.82 6.944-4.02 3.646-2.09 11.37-6.147 11.696-9.87.27-3.048-3.15-5.38-4.75-8.04-5.488-9.137-8.5-19.754-17.91-24.492l-.002-.003zM41.898 72.548c-2.002 7.638.972 15.353-3.29 20.105-2.86 3.19-10.714 4.732-10.967 8.04-.165 2.198 2.178 2.362 3.658 4.385.373.513 3.523 6.17 3.655 6.945 1.085 6.276-3.542 11.748-8.04 13.528-2.143.846-7.13 1.634-9.506 2.194-4.39 1.03-13.256 3.993-13.52-3.29-.165-4.392 5.456-8.184 8.405-11.698 3.234-3.854 7.93-8.073 7.312-12.428-.494-3.46-4.11-3.722-6.945-6.58-5.36-5.398-3.397-9.966 1.096-15.354 1.933-2.322 3.11-4.718 5.115-6.58 6.565-6.088 17.486-7.332 23.028.734zM681.81 92.653c4.697-.7 9.906 1.6 10.234 7.312.196 3.414-2.01 4.795-1.463 9.137.367 2.896 3.393 3.992 4.388 7.31 2.27 7.58-1.285 14.922-5.85 18.28-2.228 1.636-5.938 2.472-8.77 4.02-1.77.964-5.452 4.695-8.774 3.29-4.116-1.747-.805-6.32-2.56-11.7-1.75-5.372-6.88-6.55-7.31-12.062-.237-3.02 1.878-6.648 2.924-9.14.877-2.09 2.163-6.14 3.654-8.04 1.155-1.47 3.813-2.626 6.216-4.388 2.95-2.166 3.887-3.514 7.312-4.02zm-75.937 72.74c-3.268 4.49 1.512 9.328 4.386 14.257 1.078 1.853 3.26 3.585 3.654 5.483.432 2.074-.76 4.66 0 6.58 1.092 2.75 4.72 2.418 6.58 3.654 1.38 5.222 4.713 9.697 11.332 9.505 7.58-.22 11.11-9.862 20.104-8.773 4.57.553 10.896 5.93 12.794 8.408 1.4 1.825 4.484 6.148 4.388 9.504-.086 2.896-8.167 12.327-11.333 13.156-1.372.36-3.15-.38-5.483-.365-5.953.035-10.034.907-13.158-3.29-2.024-2.72-1.73-6.704-5.484-7.675-3.185-.825-5.944 1.77-9.138 2.193-2.91.386-5.617-.762-8.772-1.096-2.36-.25-5.03.432-6.58 0-3.726-1.038-8.928-11.834-10.967-16.813-1.238-3.03-1.206-5.172-2.194-6.944-1.742-3.135-6.317-4.99-8.04-8.042-6.173-10.924 3.527-21.224 9.138-27.78.253-3.54-.62-5.962-.364-9.504 2.41-4.11 5.32-6.705 9.504-6.215 5.595.657 6.7 9.212 12.428 10.235 2.716.485 6.21-1.297 8.772-.73 4.285.942 5.686 6.124 8.042 9.866 1.673 2.66 5.476 5.235 5.117 8.773-.303 2.974-4.786 6.3-8.407 6.214-3.874-.09-5.87-3.885-9.503-5.483-2.31-1.012-4.865-.956-6.945-1.825-3.29-1.376-6.193-4.974-9.87-3.294l-.005.004zM38.18 340.434c-5.38 1.374-4.784 8.148-5.715 13.778-.348 2.116.227 4.843-.68 6.554-.99 1.873-3.56 3.104-4.197 5.072-.912 2.81 2.095 4.87 2.738 7.012-2.27 4.898-2.553 10.473 2.667 14.546 5.98 4.666 14.848-.512 21.082 6.063 3.167 3.338 4.613 11.515 4.492 14.637-.09 2.298-.467 7.598-2.684 10.117-1.914 2.18-14.15 4.29-17.118 2.908-1.287-.598-2.186-2.303-3.99-3.774-4.61-3.77-8.307-5.705-8.038-10.93.175-3.382 2.943-6.268.67-9.407-1.924-2.665-5.704-2.427-8.434-4.142-2.49-1.554-3.842-4.165-6.058-6.436-1.657-1.696-4.148-2.872-5.068-4.195-2.21-3.18.67-14.813 2.275-19.947.977-3.123 2.37-4.754 2.74-6.75.656-3.525-1.683-7.874-1.066-11.32 2.214-12.35 16.255-14.1 24.757-15.572 2.453-2.566 3.325-4.988 5.78-7.552 4.477-1.63 8.373-1.773 11.284 1.27 3.89 4.076-.714 11.372 3.045 15.81 1.78 2.107 5.61 2.965 7.22 5.033 2.7 3.463.473 8.348-.098 12.73-.404 3.116.885 7.523-1.652 10.02-2.13 2.098-7.704 1.804-10.437-.573-2.927-2.543-2.045-6.735-3.823-10.282-1.13-2.255-3.135-3.84-4.183-5.837-1.663-3.16-1.606-7.78-5.508-8.832h-.003zm570.013-103.277c5.55-2.023 9.614 4.12 14.258 5.85 2.26.84 4.412-.197 6.216 1.826 1.853 3.363-.122 6.362 0 9.14.076 1.776 1.263 3.482 1.462 5.48.186 1.866-.662 3.96-.366 5.85.654 4.166 5.215 5.706 5.85 9.138 1.365 7.37-4.712 15.007-10.6 15.72-2.103.255-12.842-.622-14.987-1.46-2.064-.81-3.19-2.88-5.848-5.12-2.012-1.696-4.856-2.82-6.945-4.022-3.646-2.09-11.37-6.148-11.698-9.87-.268-3.045 3.153-5.38 4.753-8.04 5.485-9.136 8.498-19.755 17.906-24.492zm-285.385 25.192c.47 7.88 5.697 14.292 3.127 20.13-1.727 3.923-8.715 7.83-7.925 11.054.527 2.14 2.802 1.566 4.84 3.033.513.37 5.264 4.767 5.632 5.464 2.983 5.623.287 12.264-3.436 15.353-1.773 1.47-6.265 3.772-8.354 5.04-3.85 2.346-11.356 7.92-13.876 1.077-1.518-4.122 2.645-9.474 4.354-13.73 1.875-4.665 5.028-10.142 3.084-14.085-1.54-3.132-5.063-2.26-8.646-4.095-6.77-3.465-6.32-8.416-3.733-14.934 1.118-2.805 1.49-5.45 2.82-7.845 4.347-7.827 14.34-12.404 22.115-6.462h-.002zm-48.64 37.065c4.25-2.124 9.912-1.56 12.002 3.77 1.246 3.182-.417 5.182 1.45 9.138 1.246 2.64 4.465 2.74 6.443 5.585 4.512 6.495 3.418 14.58.123 19.188-1.606 2.252-4.877 4.198-7.085 6.548-1.38 1.47-3.72 6.162-7.314 5.855-4.457-.373-2.732-5.75-6.07-10.318-3.33-4.563-8.577-4.09-10.698-9.194-1.165-2.792-.283-6.9-.065-9.592.186-2.26.146-6.51.974-8.78.642-1.756 2.807-3.68 4.543-6.103 2.13-2.973 2.604-4.548 5.698-6.094zm15.217 108.898c.864 5.485 7.666 5.524 13.18 6.98 2.078.55 4.843.228 6.464 1.29 1.77 1.16 2.758 3.832 4.65 4.652 2.714 1.174 5.048-1.628 7.237-2.07 4.667 2.718 10.188 3.524 14.73-1.292 5.21-5.516.886-14.828 8.014-20.417 3.623-2.84 11.9-3.515 14.993-3.1 2.284.303 7.52 1.178 9.823 3.618 1.99 2.11 2.942 14.493 1.292 17.32-.716 1.22-2.498 1.958-4.138 3.617-4.185 4.236-6.454 7.736-11.63 6.978-3.355-.49-5.967-3.52-9.307-1.552-2.836 1.672-2.952 5.455-4.91 8.012-1.785 2.333-4.512 3.434-6.98 5.43-1.843 1.49-3.248 3.862-4.648 4.65-3.37 1.903-14.683-2.054-19.646-4.136-3.017-1.266-4.512-2.804-6.462-3.36-3.452-.984-8 .938-11.372 0-12.09-3.363-12.515-17.505-13.183-26.105-2.325-2.684-4.652-3.78-6.977-6.464-1.2-4.61-.98-8.5 2.324-11.11 4.422-3.495 11.252 1.772 16.026-1.554 2.26-1.578 3.473-5.308 5.684-6.72 3.698-2.36 8.355.312 12.664 1.294 3.064.693 7.57-.176 9.823 2.584 1.888 2.315 1.07 7.84-1.552 10.34-2.806 2.67-6.898 1.402-10.598 2.84-2.348.915-4.116 2.762-6.202 3.62-3.293 1.355-7.892.864-9.304 4.65l.005.007zm83.928-112.405c2.163-1.978 3.336-1.045 6.262.578 1.694.936 4.388 1.788 5.422 2.753 3.277 3.073 3.86 6.6 6.11 8.287 3.433 2.575 7.612-.346 10.606 4.39 2.48 3.922.73 9.12-.73 13.973-1.38 4.608-2.268 9.766-4.41 12.736-2.048 2.835-7.29 5.497-9.757 8.66-2.694 3.463-3.884 8.84-5.855 13.16-1.865 4.078-3.978 10.514-7.863 12.634-4.546 2.488-15.26.62-18.97-2.04-7.104-5.085-7.507-15.29-10.593-21.75-3.675-7.698-4.57-7.966-3.085-14.707.466-2.124.74-4.858 1.52-6.814 2.14-5.373 9.05-14.64 14.232-5.352 2.078 3.728 1.97 9.877 5.535 14.55 1.248 1.638 4.03 3.207 5.71 4.7 2.13 1.896 3.7 3.79 5.66 3.892 1.025.053 6.223-.964 7.867-2.477 2.568-2.37.007-5.86-2.007-10.683-.802-1.914-1.033-3.965-2.004-5.604-1.636-2.754-3.97-3.865-5.32-6.207-3.512-6.09-1.81-19.077 1.223-23.995.154-.25.113-.378.446-.684zm54.04 39.716c1.365-2.255 12.445-6.908 14.216-5.942 1.32.72 4.79 6.146 6.204 8.27.943 1.422 1.395 2.962 2.324 4.394 2.878 4.433 4.816 6.66 2.843 11.118-.787 1.776-3.136 3.535-4.91 5.943-2.255 3.053-3.022 7.163-4.91 8.528-1.75 1.266-5.03.173-7.236.517-4.154.652-9.025 1.254-11.375 3.62-4.028 4.06-2.976 16.78 2.328 21.452 3.026 2.668 3.336.737 6.202 2.066 6.207 2.882 12.5 11.398 16.544 8.27 2.45-1.895.78-5.69 2.324-9.045.654-1.41 2.353-2.687 2.845-3.873 2.015-4.88-1.715-9.527.775-13.186.916-1.34 2.776-1.56 3.878-2.84 2.438-2.83 1.31-6.256 3.618-8.27 8.482-7.403 13.978 12.467 14.215 17.316.26 5.296-2.427 13.233-4.395 19.903-2.05 6.96-4.006 14.34-8.27 19.643-4.362 5.42-14.64 13.07-19.643 10.857-6.367-2.82-7.44-11.96-11.632-15.25-2.322-1.83-5.46-.988-8.015-2.328-3.598-1.89-8.73-6.84-10.338-10.855-1.542-3.862.333-7.646-.773-13.184-.7-3.507-3.472-7.887-2.587-11.373 1.11-4.38 4.96-9.438 6.98-14.734 1.912-5.022 3.744-10.216 5.426-14.733 1.057-2.84 2.28-6.265 2.845-9.046.503-2.5-.88-4.938.513-7.238h.003zm-64.376 113.67c2.49-5.354 9.707-3.886 14.214-5.944 2.194-1.002 2.986-3.258 5.69-3.098 3.686 1.066 4.412 4.584 6.463 6.462 1.31 1.198 3.353 1.567 4.91 2.84 1.45 1.19 2.33 3.267 3.876 4.4 3.408 2.482 7.723.346 10.598 2.32 6.176 4.248 7.278 13.946 3.62 18.612-1.307 1.665-9.52 8.64-11.635 9.563-2.03.887-4.29.22-7.753.513-2.62.225-5.428 1.44-7.756 2.07-4.056 1.096-12.387 3.69-15.248 1.29-2.348-1.963-1.575-6.032-2.324-9.045-2.58-10.34-7.957-19.98-4.655-29.98v-.004zM100.963 625.576c2.073 1.146 4.085 3.816 5.85 6.947 1.32 2.347 4.045 5.145 4.02 8.408-.028 3.52-3.59 7.438-6.947 7.677-4 .284-7.037-3.644-9.868-4.752-1.895-.742-4.888-1-7.31-1.83-2.58-.88-5.522-3.474-7.677-2.926-5.99 1.53 1.73 12.614 3.29 15.355 1.566 2.754 1.973 1.077 2.924 4.75.71 2.747.238 4.726.73 5.85.808 1.845 3.235 2.136 5.483 4.752 1.645 1.912 2.16 4.81 3.654 5.848 2.303 1.6 7.388 2.324 9.506 1.826 6.053-1.416 7.096-10.402 14.986-10.232 5.34.113 13.31 8.252 13.16 14.255-.11 4.456-6.2 12.063-9.138 13.52-3.65 1.814-11.51 2.818-14.623 0-2.28-2.06-2.114-7.145-5.847-7.674-4.106-.578-6.27 3.072-9.502 3.656-2.11.38-5.3-.447-8.407-.365-2.776.072-5.588 1.294-7.677.73-3.58-.962-4.975-6.74-6.946-10.6-1.066-2.088-2.972-3.894-3.655-5.848-.525-1.508-.405-4.134-1.093-5.483-1.543-3.018-5.667-3.156-8.773-6.213-6.47-6.363-1.152-17.183 2.556-21.93 1.95-2.498 8.482-5.62 9.137-9.138.546-2.907-1.668-5.523-1.458-7.677.412-4.338 6.14-8.36 10.6-8.407 6.853-.076 8.057 9.36 14.62 10.234 2.476.327 5.98-1.514 8.408-.734zm109.696-425.78c-3.452-2.327.236-7.252.367-11.696.15-5.272-2.894-11.444-8.043-10.6-3.605.59-2.403 4.527-4.384 7.313-1.63 2.284-5.122 2.335-7.677 4.386-1.433 1.146-5.917 7.984-6.214 10.6-.447 3.928 2.024 8.995 1.093 13.89-.81 4.274-4.206 5.962-3.655 10.6.374 3.144 3.85 7.8 6.58 8.044 3.063.273 4.398-2.502 7.31-4.023 3.438-1.79 6.99-2.204 8.774-3.654 3.305-2.68 4.45-10.772 9.138-10.963 3.815-.156 6.006 4.534 4.753 10.6-.364 1.762-2.493 5.102-3.655 6.58-2.365 3.007-7.68 9.007-11.7 10.6-4.04 1.604-8.23-.123-12.79 0-2.238.063-4.376 1.622-6.946 2.195-1.75.385-3.44.11-5.118.365-2.578.392-4.826 1.555-7.31 1.46-4.56-.17-7.563-2.132-10.602-5.116 1.6-5.375 7.843-4.79 9.502-9.504 3.917-11.125-7.23-13.35-7.677-21.2-.117-2.09 1.51-7.006 2.926-9.872.665-1.35 2.415-2.37 3.655-4.02 1.065-1.416 1.586-3.384 2.555-4.747 2.21-3.108 4.86-5.58 6.216-8.775.87-2.06.818-4.78 1.826-6.213 1.575-2.242 5.89-3.113 8.408-4.022 2.944-1.064 6.235-2.73 9.138-2.923 6.552-.435 10.164 4.258 14.256 5.118 4.274.894 9.944-1 12.792 1.458 2.042 1.765 2.593 8.712 1.462 12.43-1.276 4.19-9.35 12.437-14.983 11.69zm63.467 20.645c6.494-.945 6.23 11.398 4.02 17.544-1.35 3.765-6.27 8.645-7.677 8.773-4.693.424-9.304-7.565-7.674-12.428 1.386-4.14 5.594-10.52 7.31-12.063 1.032-.928 2.9-1.666 4.02-1.828zm-130.36 11.52c1.705.98 3.043 2.32 4.022 4.023 1.207 5.32-3.007 9.36-3.656 13.89-.466 3.238.625 6.156.73 9.136.473 13.445-4.017 20.67-9.505 28.515-1.13 1.61-2.306 4.468-3.66 5.483-2.784 2.088-6.84 1.104-11.694 2.193-2.4.538-3.727 2.535-5.483 2.924-3.08.683-8.708-.102-12.425 1.462-5.784 2.434-9.302 13.78-18.28 10.6-2.484-.88-2.292-4.034-4.386-7.31-1.808-2.824-4.646-2.957-5.85-4.752-1.898-2.835-3.208-8.333-3.29-12.062-.097-4.538 2.56-8.088 1.097-13.16-.89-3.094-5.013-6.57-7.31-8.04-2.626-1.686-7.547-1.408-7.677-6.946-.15-6.316 11.107-14.163 17.546-15.72 1.755-.426 3.728 0 6.21-.366 6.37-.93 11.61-6.646 15.72-3.655 2.724 1.986 1.777 7.035.365 9.87-2.375 4.772-10.5 6.773-11.33 13.16-.602 4.597 3.513 6.71 5.117 9.505 1.912 3.327 2.27 7.82 5.848 10.6 3.4 2.64 6.398 1.686 11.332 1.462 5.257-.24 8.6-.27 11.697-4.75 1.06-1.537 1.214-3.826 2.192-5.485 2.445-4.146 7.14-5.234 5.117-12.43-.69-2.446-3.326-5.384-6.213-6.58-1.753-.723-4.183-.23-6.214-1.46-3.14-1.903-5.32-8.596-5.12-10.965.6-7.038 12.12-11.193 20.472-10.967 4.57.12 9.065 3.556 14.62 1.826l.003.003zm89.057 56.834c-2.045-4.133-1.143-7.854-2.924-11.7-1.363-2.94-4.22-4.97-4.387-8.04-.125-2.328 1.475-4.875 2.56-7.677.98-2.527 1.37-5.193 2.56-7.313.904-1.61 8.396-9.068 10.965-9.504 8.435-1.43 4.795 7.782 5.483 13.89.5 4.446 3.692 9.245 3.29 13.89-.582 6.745-6.725 9.968-11.332 13.157-1.916 1.328-3.427 3.817-6.214 3.293v.003zm38.014-36.555c8.71 8.86-1.948 24.42-12.792 21.566-1.007-4.093 2.302-7.852 4.387-10.963 2.232-3.334 4.472-7.02 6.58-9.87.09-.396.727-.247.73-.73h1.094v-.002zm-64.198 39.672c2.073 1.143 4.086 3.815 5.848 6.946 1.323 2.347 4.045 5.145 4.02 8.407-.026 3.52-3.59 7.435-6.944 7.677-4.002.286-7.04-3.646-9.87-4.754-1.893-.742-4.886-.998-7.31-1.827-2.576-.884-5.52-3.474-7.675-2.926-5.99 1.53 1.726 12.612 3.29 15.354 1.562 2.75 1.968 1.08 2.92 4.753.712 2.745.24 4.723.733 5.848.808 1.846 3.235 2.138 5.484 4.753 1.64 1.916 2.158 4.81 3.654 5.85 2.303 1.6 7.386 2.324 9.504 1.828 6.053-1.42 7.096-10.4 14.988-10.235 5.34.117 13.308 8.256 13.158 14.257-.11 4.46-6.2 12.067-9.14 13.525-3.65 1.813-11.507 2.814-14.62 0-2.28-2.063-2.118-7.148-5.85-7.677-4.107-.577-6.27 3.073-9.502 3.656-2.112.383-5.3-.445-8.408-.366-2.777.074-5.588 1.296-7.677.73-3.582-.96-4.975-6.74-6.944-10.6-1.067-2.092-2.976-3.896-3.656-5.848-.525-1.507-.406-4.133-1.097-5.482-1.54-3.018-5.664-3.157-8.773-6.215-6.468-6.366-1.148-17.18 2.56-21.93 1.952-2.496 8.48-5.618 9.14-9.14.543-2.905-1.67-5.52-1.463-7.677.415-4.338 6.144-8.357 10.6-8.405 6.855-.078 8.06 9.36 14.622 10.236 2.48.327 5.98-1.514 8.41-.735h-.002zm-95.177 105.274c4.912-2.06 8.568 2.562 12.063 2.555 4.272 0 7.583-6.596 9.14-8.037 2.9-2.69 5.758-3.574 8.043-6.216 2.298-2.65 7.283-13.215 11.694-13.89 1.87-.282 8.58 1.745 9.87 3.655 2.635 3.903.047 15.61-1.46 18.276-1.726 3.05-5.805 5.303-8.774 8.042-3.077 2.84-5.915 7.123-8.773 7.677-2.2.426-4.7-.515-6.946-.365-6.34.42-11.666 5.473-17.91 6.58-2.068.368-4.166-.027-6.214.366-2.917.56-5.667 2.218-8.407 2.56-2.083.255-4.142-.28-6.216 0-3.788.505-6.358 2.737-10.235 2.19-3.51-.494-6.126-2.784-6.58-4.02-.7-1.918.56-3.13.366-5.482-.21-2.465-2.33-6.635-3.655-9.137-1.44-2.725-3.887-3.843-4.02-5.853-.17-2.607 3.243-6.308 4.75-8.773 1.382-2.257 4.07-5.876 4.754-8.408 1.178-4.362 1.085-11.397.73-16.082-.18-2.348-1.092-4.59-.73-6.576.424-2.364 2.697-3.29 4.02-6.216 1.702-3.772 1.544-8.066 2.924-9.87 1.925-2.516 7.005-2.494 12.063-4.02 3.244-.98 5.212-3.31 8.042-3.29 1.875.014 3.786 1.478 6.944 2.195 2.1.475 4.215-.02 5.483.365 2.75.83 4.397 3.446 6.214 4.02 1.653.52 5.796.158 7.31 1.097 2.27 1.41 4.21 8.003 4.02 11.33-.254 4.494-4.74 9.557-6.21 9.87-2.066.444-4.22-1.515-6.946-1.824-1.134-.13-2.392.42-3.656.364-4.256-.18-11.022-2.62-12.427 2.556-.765 2.812 1.656 5.795 1.46 7.68-.303 2.918-4.833 6.247-5.116 9.867-.153 1.908.963 3.515 1.093 5.117.338 4.186-1.443 9.066 3.288 11.7l.003-.004zM440.748 52.983c.78-1.8 1.963-3.284 3.546-4.445 5.15-1.794 9.637 1.937 14.214 2.08 3.266.1 6.048-1.312 8.998-1.75 13.305-1.975 20.985 1.68 29.396 6.258 1.723.94 4.697 1.79 5.857 3.02 2.387 2.533 1.86 6.676 3.486 11.378.802 2.324 2.937 3.42 3.52 5.122 1.02 2.984.87 8.665 2.842 12.187 3.063 5.475 14.732 7.7 12.576 16.977-.6 2.57-3.754 2.728-6.775 5.176-2.602 2.11-2.418 4.947-4.07 6.344-2.604 2.205-7.924 4.118-11.616 4.616-4.5.607-8.322-1.636-13.202.382-2.975 1.233-5.966 5.717-7.174 8.167-1.38 2.797-.552 7.654-6.044 8.404-6.256.856-15.312-9.453-17.576-15.678-.622-1.7-.423-3.708-1.063-6.137-1.634-6.224-7.9-10.792-5.387-15.21 1.664-2.928 6.788-2.553 9.766-1.465 5.007 1.824 7.902 9.675 14.343 9.788 4.635.082 6.276-4.24 8.873-6.148 3.09-2.27 7.518-3.126 9.88-6.998 2.24-3.67.96-6.545.186-11.42-.824-5.2-1.23-8.515-6.03-11.097-1.644-.883-3.936-.78-5.695-1.566-4.39-1.968-5.997-6.51-12.92-3.7-2.356.958-4.98 3.91-5.843 6.912-.523 1.824.237 4.18-.757 6.34-1.538 3.334-7.948 6.245-10.326 6.31-7.06.198-12.476-10.79-13.188-19.116-.392-4.55 2.518-9.403.18-14.732h.002zm168.802 22.58c-2.596-4.648 1.587-8.8 1.193-12.273-.48-4.247-7.406-6.798-9.014-8.183-2.994-2.582-4.196-5.323-7.075-7.296-2.895-1.986-13.946-5.76-15.11-10.07-.494-1.825.773-8.72 2.527-10.218 3.586-3.054 15.508-1.79 18.328-.59 3.224 1.37 5.918 5.174 8.973 7.818 3.164 2.74 7.738 5.083 8.607 7.863.67 2.135.015 4.726.412 6.94 1.127 6.257 6.744 10.986 8.54 17.063.596 2.015.437 4.145 1.06 6.134.88 2.835 2.836 5.383 3.478 8.07.488 2.04.188 4.15.696 6.176.927 3.708 3.43 6.012 3.322 9.923-.1 3.543-2.082 6.4-3.26 6.988-1.828.91-3.174-.21-5.49.25-2.427.482-6.332 3.057-8.674 4.655-2.543 1.734-3.378 4.293-5.36 4.647-2.572.463-6.633-2.518-9.25-3.742-2.398-1.12-6.296-3.383-8.886-3.78-4.468-.686-11.447.195-16.064 1.072-2.315.44-4.442 1.598-6.456 1.46-2.396-.16-3.57-2.315-6.626-3.3-3.94-1.27-8.188-.634-10.136-1.804-2.716-1.63-3.26-6.682-5.344-11.536-1.335-3.115-3.87-4.812-4.165-7.625-.198-1.866 1.044-3.93 1.4-7.147.238-2.143-.488-4.188-.25-5.49.518-2.826 2.937-4.757 3.3-6.624.333-1.704-.49-5.78.273-7.39 1.145-2.408 7.484-5.078 10.81-5.262 4.497-.245 10.025 3.646 10.503 5.075.67 2-1.033 4.364-1.038 7.105-.005 1.14.683 2.33.77 3.59.296 4.25-1.37 11.248 3.93 12.064 2.88.444 5.575-2.293 7.466-2.31 2.94-.024 6.752 4.102 10.382 3.982 1.91-.063 3.383-1.353 4.963-1.662 4.12-.807 9.17.42 11.26-4.576l.005.003zM115.873 33.66c-3.336-1.014-6.008.944-9.503 1.457-3.558.53-7.237-.642-11.333-.364-4.577.313-13.03 1.855-13.52 5.483-.558 4.072 2.888 3.865 6.575 5.48 3.284 1.438 5.058 4.39 10.967 3.29 2.41 1.244 2.787 4.524 4.75 6.215 3.49.444 4.55-1.54 8.04-1.095 1.9 1.147 2.066 4.03 4.02 5.12 7.2-.502 12.67-1.666 16.45-6.58 1.02-1.327 1.226-3.547 2.194-5.12 3.076-5.006 10.398-11.235 16.447-10.235 2.863.474 3.468 4.24 6.216 5.12 1.386.44 2.957-.203 4.386 0 3.99.563 8.93 2.668 9.504 5.845.558 3.094-1.646 5.09-2.56 8.412-.752 2.728-.353 4.994-1.094 6.213-.824 1.346-3.427 1.886-5.484 3.29-3.502 2.385-4.264 5.31-9.14 5.484-1.946.067-3.41-.942-5.847-1.464-1.878-.4-4.21-.032-5.847-.365-1.52-.31-3.08-1.862-4.753-1.827-4.514.09-7.793 6.86-13.16 9.503-1.666.82-4.208 1.078-6.58 2.192-4.45 2.093-8.378 6.84-12.063 6.945-1.967.06-5.955-1.652-8.042-2.922-2.083-1.27-3.38-4.615-6.213-5.483-2.21-.68-3.94.018-5.483-.73-2.498-1.21-2.397-4.41-4.753-5.85-3.824-.632-6.63 1.394-10.235 1.098-4.475-.366-11.006-5.376-12.427-8.407-1.444-3.08-1.04-7.603-.73-10.235.772-6.574 7.462-12.286 6.58-17.182-.7-3.87-4.782-2.263-6.214-5.114-1.014-2.027-.125-6.242.73-8.046 1.933-4.072 10.194-11.005 16.084-10.23 3.313.43 8.818 4.32 13.16 4.017 2.23-.156 3.82-2.627 6.213-2.922 1.17-.144 6.58.532 9.14 1.098 3.07.672 5.216 3.65 9.503 1.46 1.66.496 2.497 2.47 4.387 3.656 1.56.98 3.838.907 4.387 2.56 1.245 3.762-2.756 7.688-4.755 10.237h.003zm212.74-6.22c-.718 5.99-7.908 8.563-12.062 13.527-.833.994-1.094 2.913-2.196 4.387-3.243 4.345-4.73 2.205-4.385 9.503.194 4.14-.626 8.925 0 11.333.74 2.865 3.434 3.79 5.115 6.214 1.61 2.32 1.372 4.84 3.655 5.85 12.022-1.075 15.894-6.87 21.93-14.62 3.008-3.862 7.805-7.992 8.408-11.7.728-4.486-2.284-7.21-2.558-10.964-.473-6.48 4.6-13.667 10.235-13.16 3.255.295 3.186 2.886 5.115 5.85 1.88 2.88 5.052 3.938 5.484 6.945.303 2.104-1.18 3.987-1.825 6.944-.394 1.79.068 3.51-.37 4.752-.81 2.318-3.144 3.378-3.29 5.48-.183 2.7 1.973 5.018 1.832 6.946-.46 6.155-8.09 6.907-13.162 10.602-4.235 3.085-5.66 9.444-9.87 10.6-2.804.77-6.755-.895-9.867 0-3.914 1.128-5.59 5.67-8.408 8.04-1.14.96-3.24 1.583-4.752 2.927-1.81 1.606-2.968 3.88-4.748 5.116-3.063 2.128-8.678 4.594-11.335 4.023-6.39-1.375-4.64-13.805-8.408-19.374-1.404-2.08-4.955-2.29-5.483-5.117-.425-2.29 2.21-4.196 2.56-6.58.292-2.004-.467-4.363-.368-6.213.24-4.357 2.38-7.966 2.925-12.064.268-1.995-.62-4.097-.365-6.213.208-1.72 2.096-3.857 2.924-6.215 2.232-6.365 4.298-15.19 8.404-19.37 2.214-2.257 7.387-4.84 11.333-4.388 2.57.296 4.27 2.495 6.945 3.657 2.127.923 5.02.547 6.582 3.286l.004-.006zm-64.945 88.118c1.02 3.66.18 8.46-1.094 10.967-.87 1.7-2.056 1.987-3.656 3.655-1.375 1.432-1.88 3.527-2.924 4.384-.94.776-2.756 1.04-4.02 1.83-5.46 3.413-10.027 7.717-19.374 7.677-3.448-.016-5.74-1.444-9.87-1.457-3.208-.016-6.218 2.06-10.234 2.555-1.933.24-4.34-.178-6.58 0-2.283.18-4.533 1.118-6.578 1.097-5.092-.054-16.347-3.67-16.816-6.58-.57-3.535 4.29-4.702 5.848-5.484 4.494-2.245 8.954-5.076 7.31-12.424-1.038-4.657-10.313-7.035-10.6-13.527-.22-5.018 5.428-10.828 8.41-14.258 1.366-1.573 2-3.705 3.29-5.118 2.947-3.22 6.425-5.126 8.042-8.405 1.342-2.725 1.178-5.403 2.193-6.58 1.972-2.288 7.533-2.957 10.966-4.02 6.65-2.062 16.65-4.23 24.126-1.463 3.008 1.116 4.95 3.582 7.677 4.025 6.32 1.015 19.065-2.827 22.663 2.92.843 1.348 1.358 8.238 1.096 10.6-.595 5.413-5.658 7.494-10.235 10.968-3.72 2.823-15.855 9.847-17.91 1.827-1.428-5.565 3.514-6.688 3.654-11.698.102-3.583-4.34-10.43-9.504-9.87-4.02.437-2.502 4.822-4.75 7.676-2.534 3.22-8.904 2.69-12.062 5.122-1.822 1.396-1.937 3.465-2.925 5.116-.837 1.395-2.777 2.635-2.923 4.752-.164 2.342 1.68 3.768 1.828 5.85.164 2.32-.447 5.762-1.097 8.04-.635 2.222-5.553 6.492-5.12 10.234.26 2.233 5.61 7.835 7.31 8.046 2.838.35 6.055-3.49 8.043-4.39 5.484-2.482 10.92-2.433 14.255-4.75 2.648-1.84 3.19-5.897 6.212-8.405 4.106-3.406 12.04-3.278 15.354 1.097l-.002-.01zm-159.646 46.775c4.34 1.743 7.766.72 12.428.73 2.015.002 3.77.883 5.483.73 5.448-.49 7.696-5.32 10.234-9.506 1.83-3.013 5.336-4.947 5.848-7.31 1.225-5.645-2.59-10.775-6.58-12.06-2.614-.84-4.874.167-6.944-.73-1.75-.762-7.48-9.987-7.31-12.795.215-3.516 7.405-8.918 10.968-9.87 3.168-.847 12.97-1.37 16.448-.73 2.28.42 3.924 2.71 5.848 2.925 2.702.303 4.214-1.81 7.312-1.463 2.78.313 7.226 4.004 7.676 6.58.97 5.592-4.748 10.18-5.118 14.62-.257 3.09 1.878 5.808 1.827 8.774-.034 1.992-2.056 4.258-2.192 6.582-.128 2.167.986 4.23.73 5.845-.266 1.692-1.847 4.087-2.923 6.218-1.155 2.287-1.96 4.857-2.924 6.213-1.357 1.914-3.483 2.553-5.117 4.387-1.678 1.884-2.745 5.06-4.752 5.847-4.133 1.624-8.477-.49-13.156 0-1.91.2-3.727 2.48-6.215 2.926-4.886.872-10.536-.7-14.257.365-5.322 1.515-10.008 11.94-19.007 9.87-4.54-1.044-3.984-5.677-6.58-8.772-1.466-1.752-4.345-2.042-5.484-3.656-1.376-1.953-3.974-10.617-4.02-13.89-.072-5.302 2.602-8.444 1.097-13.16-.748-2.34-6.106-7.013-8.408-8.408-3.166-1.916-7.205-1.484-6.945-7.312.26-5.815 11.463-13.977 18.276-14.985 1.98-.294 4.452.203 6.58 0 6.044-.58 15.12-7.032 18.644-1.1 2.727 4.602-1.056 9.87-3.29 12.067-3.635 3.574-9.555 3.962-10.235 9.504-.653 5.31 3.873 6.09 5.847 9.137 2.853 4.4 3.15 9.094 6.21 12.428h.002zm369.947 467.03c-3.474.335-5.71-2.103-9.034-3.296-3.388-1.213-7.22-.784-11.186-1.86-4.43-1.198-12.417-4.366-12.192-8.02.255-4.102 3.59-3.23 7.525-4.092 3.5-.766 5.82-3.314 11.398-1.076 2.61-.75 3.62-3.894 5.877-5.17 3.512.25 4.16 2.405 7.673 2.65 2.09-.754 2.813-3.545 4.945-4.233 6.96 1.9 12.098 4.114 14.844 9.675.737 1.497.507 3.72 1.146 5.448 2.04 5.51 7.998 13.055 14.126 13.255 2.898.094 4.23-3.48 7.098-3.803 1.446-.163 2.86.777 4.302.86 4.025.227 9.28-.872 10.466-3.875 1.15-2.926-.615-5.313-.863-8.75-.205-2.823.63-4.967.14-6.305-.542-1.485-2.99-2.522-4.732-4.302-2.967-3.025-3.14-6.04-7.89-7.167-1.896-.45-3.532.256-6.02.292-1.926.024-4.14-.795-5.81-.788-1.553.007-3.385 1.224-5.02.864-4.408-.973-6.298-8.255-11.042-11.9-1.472-1.128-3.914-1.877-6.024-3.435-3.952-2.923-6.878-8.346-10.47-9.17-1.92-.443-6.164.455-8.457 1.292-2.293.84-4.22 3.864-7.17 4.16-2.298.234-3.86-.785-5.518-.356-2.687.698-3.214 3.856-5.807 4.806-3.873-.13-6.23-2.66-9.824-3.074-4.458-.518-11.845 3.12-13.83 5.81-2.018 2.734-2.51 7.255-2.72 9.894-.527 6.6 4.912 13.506 3.092 18.138-1.444 3.66-5.136 1.283-7.097 3.8-1.395 1.79-1.344 6.095-.856 8.03 1.1 4.372 7.84 12.787 13.768 13.186 3.333.223 9.495-2.517 13.693-1.37 2.157.59 3.232 3.33 5.52 4.084 1.117.374 6.557.765 9.176.716 3.14-.063 5.833-2.56 9.606.423 1.727-.16 2.928-1.933 5.017-2.727 1.72-.655 3.94-.135 4.8-1.65 1.96-3.438-1.193-8.07-2.655-10.96h.004zm146.647-58.7c1.718-3.386 1.832-8.26 1.07-10.967-.517-1.838-1.626-2.354-2.87-4.303-1.067-1.67-1.15-3.824-2.01-4.87-.77-.944-2.5-1.56-3.584-2.578-4.685-4.42-8.318-9.53-17.495-11.32-3.384-.66-5.913.29-9.964-.502-3.147-.61-5.695-3.236-9.537-4.51-1.85-.612-4.293-.676-6.454-1.287-2.202-.627-4.227-1.984-6.236-2.364-5.005-.944-16.75.4-17.778 3.16-1.25 3.358 3.285 5.452 4.662 6.522 3.968 3.08 7.79 6.73 4.736 13.617-1.93 4.362-11.49 4.88-13.043 11.19-1.196 4.876 3.204 11.682 5.456 15.627 1.037 1.81 1.236 4.025 2.226 5.66 2.26 3.737 5.3 6.29 6.24 9.82.783 2.934.097 5.527.864 6.882 1.486 2.624 6.81 4.37 9.967 6.09 6.115 3.32 15.497 7.403 23.37 6.155 3.17-.502 5.557-2.543 8.315-2.442 6.4.237 18.144 6.498 22.797 1.57 1.093-1.158 2.942-7.814 3.15-10.185.478-5.422-4.082-8.45-7.892-12.756-3.097-3.496-13.62-12.76-17.208-5.3-2.49 5.178 2.14 7.246 1.296 12.188-.602 3.534-6.298 9.38-11.252 7.817-3.858-1.213-1.51-5.218-3.156-8.458-1.854-3.652-8.205-4.38-10.83-7.378-1.51-1.728-1.217-3.78-1.863-5.588-.55-1.535-2.21-3.13-1.937-5.234.298-2.33 2.384-3.364 2.936-5.38.615-2.24.69-5.74.498-8.1-.186-2.297-4.176-7.446-3.016-11.035.692-2.14 7.032-6.584 8.743-6.454 2.85.21 5.257 4.605 7.027 5.875 4.89 3.512 10.23 4.526 13.05 7.45 2.236 2.323 1.975 6.408 4.448 9.46 3.36 4.147 11.164 5.574 15.27 1.93l.002-.003zM463.02 495.6c4.597-.864 7.76.812 12.332 1.714 1.977.394 3.866-.127 5.518.358 5.25 1.548 6.508 6.727 8.176 11.323 1.206 3.318 4.266 5.894 4.305 8.316.1 5.776-4.645 10.06-8.81 10.54-2.73.313-4.747-1.115-6.956-.644-1.87.405-9.29 8.33-9.672 11.114-.48 3.49 5.515 10.197 8.82 11.827 2.942 1.45 12.45 3.88 15.99 3.935 2.314.035 4.374-1.89 6.307-1.723 2.705.232 3.776 2.597 6.882 2.864 2.79.237 7.87-2.515 8.813-4.95 2.05-5.293-2.662-10.908-2.156-15.342.354-3.078 2.974-5.324 3.508-8.244.36-1.96-1.182-4.576-.862-6.882.3-2.15 1.797-3.955 1.86-5.592.074-1.71-1.012-4.367-1.65-6.67-.686-2.47-.973-5.147-1.65-6.662-.96-2.143-2.92-3.188-4.162-5.304-1.276-2.18-1.703-5.5-3.517-6.668-3.74-2.4-8.412-1.18-12.903-2.573-1.832-.566-3.17-3.16-5.523-4.083-4.616-1.814-10.463-1.378-13.907-3.15-4.923-2.528-7.476-13.666-16.707-13.397-4.657.135-5.02 4.79-8.17 7.315-1.78 1.433-4.66 1.155-6.092 2.512-1.732 1.645-5.98 9.635-6.662 12.837-1.108 5.187.897 8.79-1.503 13.118-1.19 2.15-7.357 5.682-9.892 6.598-3.476 1.263-7.355.045-8.24 5.81-.882 5.757 8.506 15.952 14.992 18.28 1.885.673 4.406.666 6.452 1.284 5.81 1.75 13.454 9.854 18.066 4.723 3.576-3.974.897-9.88-.864-12.47-2.865-4.218-8.594-5.758-8.176-11.322.396-5.337 4.987-5.22 7.52-7.816 3.66-3.76 4.872-8.307 8.526-10.977l.006.003zM546.032 214.238c-2.392-7.055-9.938-6.02-13.634-11.897-1.563-2.48.485-6.23-.584-9.63-.35-1.125-1.75-2.283-2.307-3.798-.93-2.53-.088-4.48-1.127-5.787-1.89-2.383-12.473-4.534-15.237-4.24-.897.094-7.716 1.63-8.755 2.72-2.08 2.186.79 4.278-.256 6.98-4.2 3.702-16.23 11.3-12.842 15.895 2.485 3.366 8.03.875 10.91 3.138 1.25.982 2.067 3.448 3.306 4.393 2.128 1.627 5.017.81 7.454.812 2.008.003 6.1-.474 7.458.814 1.775 1.68.28 4.296 1.88 6.102 2.513 2.827 7.748.665 10.12 3.336 2.28 2.58.976 7.675-.414 9.042-1.194 1.176-10.64 3.383-13.47 3.406-7.79.07-16.766-3.378-26.74-6.388-13.64-4.11-27.174-10.51-34.884-25.912-1.362-2.725-3.213-8.878-1.772-11.015 4.85-7.195 16.337-3.02 20.867-8.82 1.58-2.023-.014-5.614.535-7.218 1.07-3.118 7.14-9.544 10.675-11.13 5.327-2.395 12.437 1.533 18.56 1.376 3.854-.1 7.654-2.396 10.977-1.26 2.344.798 5.085 4.032 8.106 6.043 6.968 4.634 17.586 8.597 23.942 12.657 1.14.733 3.88 1.454 5.557 1.966 1.71.525 3.15 1.447 4.524 1.894 2.338.758 6.855-.478 8.69 1.68 2.06 2.423 1.19 3.372 2.833 7.208 1.715 4.006 3.813 6.767 1.65 9.195-.952 1.068-3.103 1.105-4.83 2.233-1.41.917-2.455 2.38-3.6 3.1-5.416 3.42-12.245 4.353-17.595 3.107l.004-.002zm-133.977-87.685c-1.415-3.19-4.637-3.935-7.31-6.244-2.725-2.353-4.236-5.902-7.123-8.824-3.227-3.267-9.914-8.66-12.985-6.665-3.446 2.24-1.042 4.714.145 8.564 1.054 3.424-.025 6.7 4.666 10.453.635 2.64-1.607 5.065-1.604 7.658 1.94 2.937 4.14 2.44 6.08 5.376.37 2.19-1.706 4.196-1.25 6.39 5.078 5.126 9.53 8.507 15.723 8.166 1.67-.096 3.488-1.388 5.31-1.68 5.803-.94 15.3.54 18.49 5.775 1.51 2.48-.948 5.396.183 8.05.57 1.338 2.083 2.108 2.863 3.324 2.18 3.39 3.81 8.505 1.775 11.017-1.98 2.44-4.927 2.075-8.038 3.55-2.563 1.214-4.016 2.995-5.426 3.228-1.557.257-3.662-1.363-6.07-2.006-4.095-1.093-6.805.238-10.12-3.343-1.323-1.43-1.513-3.2-2.712-5.384-.922-1.683-2.722-3.21-3.54-4.67-.76-1.35-.6-3.543-1.72-4.79-3.016-3.36-10.285-1.423-15.79-3.76-1.71-.73-3.563-2.486-5.955-3.553-4.49-2.003-10.65-1.882-13.138-4.6-1.327-1.453-2.638-5.59-3.034-8-.398-2.408 1.285-5.573.094-8.288-.928-2.116-2.583-2.973-3.024-4.632-.716-2.68 1.772-4.692 1.326-7.416-2.02-3.31-5.383-4.113-7.51-7.04-2.65-3.628-3.116-11.846-1.75-14.902 1.39-3.1 5.08-5.752 7.275-7.233 5.484-3.708 14.176-2.37 17.31-6.236 2.476-3.053-1.41-5.1-.182-8.045.87-2.093 4.643-4.167 6.568-4.698 4.345-1.194 14.99.537 18.253 5.5 1.832 2.792 2.48 9.502 5.544 12.592 1.575 1.59 4.487 1.182 6.27 2.797.873.793 3.89 5.333 5.138 7.64 1.49 2.764.64 6.334 5.096 8.154.71 1.58-.24 3.5.096 5.71.277 1.82 1.822 3.496.925 4.992-2.03 3.396-7.618 2.93-10.853 3.08l.003-.003zm143.607 157.08c-5.005 3.372-11.648-.4-18.12-.303-1.3.02-2.92 1.073-4.756 1.2-5.41.378-4.76-2.147-10.063 2.884-3.004 2.847-7.165 5.35-8.58 7.396-1.688 2.434-.63 5.077-1.366 7.934-.707 2.735-2.77 4.202-2.045 6.59 8.66 8.404 15.582 7.553 25.395 7.064 4.886-.244 11.148.693 14.35-1.27 3.874-2.382 3.972-6.44 6.636-9.1 4.6-4.59 13.354-5.437 16.65-.84 1.9 2.657-.105 4.3-1.09 7.694-.957 3.305.314 6.4-1.68 8.69-1.398 1.6-3.792 1.704-6.455 3.148-1.61.87-2.612 2.343-3.836 2.825-2.286.898-4.612-.177-6.3 1.09-2.166 1.62-2.515 4.768-4.068 5.917-4.96 3.67-10.51-1.616-16.62-3.046-5.102-1.193-10.85 1.88-14.473-.557-2.414-1.622-3.732-5.705-6.443-7.474-3.408-2.23-7.945-.53-11.58-1.12-1.47-.238-3.31-1.42-5.32-1.688-2.398-.323-4.876.282-6.977-.26-3.607-.93-9.14-3.57-10.443-5.956-3.13-5.737 7.427-12.528 9.186-19.017.656-2.427-1.502-5.25.297-7.497 1.455-1.818 4.62-1.064 6.653-2.36 1.71-1.084 3.003-3.203 4.47-4.333 3.452-2.66 7.584-3.398 11.043-5.66 1.688-1.1 2.698-3.144 4.47-4.333 1.436-.96 4.29-.93 6.616-1.84 6.28-2.466 14.312-6.66 20.164-6.28 3.153.204 8.487 2.433 10.72 5.716 1.454 2.14.9 4.865 1.767 7.648.682 2.22 2.853 4.164 1.8 7.137zm-122.554-.53c-2.105 3.163-6.29 5.662-9.022 6.328-1.854.456-2.85-.256-5.154-.378-1.983-.105-3.9.88-5.23.647-1.197-.206-2.586-1.41-4.01-1.85-6.148-1.91-12.39-2.556-18.462-9.666-2.24-2.618-2.652-5.288-5.338-8.432-2.085-2.435-5.622-3.363-8.62-6.078-1.443-1.31-2.7-3.403-4.294-4.986-1.63-1.606-3.81-2.7-5.13-4.265-3.283-3.892-7.893-14.782-5.996-17.033 2.31-2.74 6.366.178 7.974.852 4.635 1.934 9.69 3.465 14.187-2.578 2.844-3.827-1.41-12.406 3.322-16.86 3.656-3.44 11.745-2.96 16.286-2.94 2.086.01 4.113-.91 6.027-.85 4.363.13 8.076 1.52 11.617.606 2.94-.764 4.86-2.637 6.417-2.637 3.018.002 7.158 3.775 10.206 5.682 5.9 3.69 14.073 9.847 16.858 17.318 1.12 3.007.52 6.087 1.968 8.438 3.353 5.454 14.583 12.597 12.58 19.08-.47 1.518-5.353 6.404-7.313 7.75-4.49 3.084-9.37.606-14.99-.593-4.568-.976-17.81-5.58-13.077-12.372 3.283-4.716 7.362-1.703 11.247-4.87 2.778-2.264 5.066-10.095 1.27-13.64-2.957-2.762-5.287 1.25-8.92 1.413-4.092.182-7.85-4.99-11.75-5.798-2.252-.463-3.896.8-5.788 1.128-1.604.277-3.81-.383-5.508.886-1.882 1.407-1.76 3.73-3.236 5.206-1.65 1.64-4.657 3.422-6.806 4.416-2.098.968-8.543.032-11.097 2.807-1.52 1.657-2.268 9.36-1.317 10.79 1.587 2.378 6.597 2.31 8.575 3.226 5.462 2.533 8.97 6.68 12.905 7.697 3.122.805 6.55-1.435 10.427-.782 5.257.886 10.34 6.977 9.188 12.343l.005-.004zm-142.893-100.27c1.512 4.43 4.524 6.355 7.56 9.892 1.316 1.53 1.79 3.433 3.027 4.632 3.932 3.81 9.056 2.356 13.88 1.547 3.48-.583 7.234.81 9.357-.347 5.074-2.753 6.474-8.995 4.84-12.856-1.068-2.528-3.307-3.58-3.98-5.74-.57-1.82 2.678-12.183 4.917-13.888 2.803-2.133 11.59-.215 14.636 1.86 2.71 1.848 9.506 8.93 11.29 11.984 1.172 1.998.513 4.74 1.605 6.34 1.538 2.24 4.122 2.01 5.883 4.58 1.582 2.314 1.69 8.093.03 10.113-3.6 4.385-10.81 3.047-14.417 5.668-2.506 1.82-3.173 5.21-5.454 7.112-1.53 1.275-4.567 1.222-6.417 2.634-1.725 1.318-2.56 3.51-3.952 4.375-1.452.897-4.298 1.262-6.613 1.84-2.487.618-4.96 1.686-6.615 1.84-2.338.22-4.212-.973-6.664-1.01-2.524-.043-5.628 1.225-7.533.22-3.932-2.078-5.168-6.745-8.594-9.97-1.392-1.315-4.304-1.205-6.27-2.8-3.846-3.127-6.35-8.433-9.582-10.557-4.625-3.042-15.575.216-19.884-7.954-2.173-4.122 1.697-6.73 2.35-10.71.367-2.255-1.294-4.624-.813-6.54.584-2.32 5.447-9.944 7.9-12.117 3.965-3.512 8.092-3.54 10.68-7.76 1.284-2.093 1.326-9.204.88-11.857-.616-3.648-3.583-6.428 1.002-10.033 4.573-3.603 18.07-.443 23.284 4.058 1.516 1.307 2.753 3.505 4.297 4.982 4.38 4.2 15.197 6.864 13.002 13.407-1.703 5.067-8.162 5.64-11.283 5.38-5.08-.42-9.24-4.647-13.882-1.546-4.45 2.972-2.088 6.91-3.103 10.397-1.47 5.033-4.83 8.322-5.357 12.816l-.005.008zM13.095 618.77c1.747-6.02 9.1-9.333 15.25-12.214 5.153-2.418 13.62-7.02 18.86-1.864 1.314 1.296 1.495 4.37 2.513 6.095 1.645 2.776 4.998 4.622 4.232 8.125-1.7 7.757-11.048 13.266-15.668 15.46-5.372-1.906-10.453-6.117-16.388-9.69-3.322-1.993-7.423-2.906-8.8-5.908v-.003zm3.16-573.556c-4.01-4.816-2.638-12.767-1.583-19.472.884-5.626 1.813-15.218 9.018-16.672 1.808-.364 4.457 1.208 6.458 1.33 3.224.19 6.626-1.554 9.1 1.044 5.476 5.748 4.807 16.578 4.037 21.634-4.59 3.383-10.92 5.235-17.205 8.155-3.514 1.634-6.568 4.52-9.823 3.98h-.003zM1.793 212.224c4.422.124 9.492-4.364 13.16-6.942 3.882-2.735 7.625-6.78 11.696-8.412 3.72-1.486 9.593-1.14 12.792-2.555 3.348-1.48 6.716-5.49 10.235-8.773 3.704-3.456 7.84-7.064 7.677-11.697-.196-5.596-5.28-5.186-6.944-9.14-1.093-2.59.187-5.93-1.096-10.234-.406-1.36-2.302-3.452-3.29-5.116-1.712-2.877-2.252-4.273-5.12-3.656-.443.094-.473.228-.73.366-5.1 2.718-13.118 13.07-13.16 20.104-.016 2.702 1.44 4.837 1.463 8.042.01 1.9-.822 3.792-1.097 5.848-.693 5.18-.24 9.485-3.655 10.235-2.182.48-7.185-1.27-8.042-1.83-1.64-1.075-2.042-3.507-2.924-6.215-.7-2.135-2.308-4.894-2.558-6.945-.72-5.826 2.473-11.083 2.557-15.35.18-9.143-7.66-7.083-12.76-4.065v56.043c.625.17 1.227.278 1.793.294zm7.263 98.547c6.108-3.326 13.617-7.04 17.18-10.963 3.263-3.597 13.425-21.533 2.193-22.298-3.062-.21-4.685 3.01-8.408 3.29-1.684.125-3.156-1.036-4.752-.73-4.346.82-4.993 6.745-9.87 8.77-1.19.496-3.29.195-4.748.732-.227.082-.443.177-.65.28v25.655c3.063-1.424 6.083-3.118 9.054-4.736zM7.96 259.6c1.804 1.318 3.353 4.41 5.482 4.748 2.3.373 5.748-1.988 9.502-2.555 2.957-.442 5.864-.03 7.677-.734 4.55-1.75 4.75-4.698 5.85-9.866.355-1.672 1.124-3.077 1.462-4.752.505-2.503 1.886-8.796 1.462-10.235-.57-1.935-11.693-6.478-14.257-5.845-2.613.638-3.357 3.34-5.483 4.748-2.364 1.568-5.653 3.127-8.407 4.386-3.49 1.594-7.345 3.425-11.247 5.213v9.935c2.637.968 5.43 3.115 7.96 4.958zm435.57 433.114c-2.033-3.814-8.59-8.427-11.842-10.438-1.597-.99-5.156-2.733-6.945-2.897-6.17-.564-10.585 2.136-10.003 5.906.718 4.64 8.886 4.87 11.92 7.856 1.394 1.368 2.19 4.094 3.732 6.858h14.382c.023-2.56-.032-5.016-1.243-7.286zm-53.886-1.663c4.43-.37 9.736 2.746 11.66-.947.11-5.677-8.985-12.786-13.297-13.584-3.817-.713-10.663.615-12.187 2.84-2.124 3.104.39 8.53-.023 12.876-.233 2.443-1.788 4.87-2.807 7.762h6.97c-1.177-4.908 4.505-8.52 9.68-8.95h.004zm171.646 8.646c.323-2.136-1.204-4.796-1.585-7.545-.426-3.077.04-6.34-.575-8.396-.944-3.145-4.813-4.89-4.695-9.034.105-3.767 5.18-4.175 6.977-6.67 2.45-3.41.57-11.105-1.634-14.53-1.777-2.757-10.02-7.957-14.463-7.566-5.98.52-13.178 9.35-12.695 14.668.714 7.86 9.762 7.892 11.847 13.75.73 2.05.577 7.184-.754 9.647-.864 1.602-3.684 2.44-5.402 4.283-2.35 2.528-2.365 4.976-4.11 5.982-1.06.615-3.078.366-5.728 1.382-3.544 1.357-1.834 1.572-4.396 3.437-.295.22-.696.527-1.17.897h38.316c.02-.1.054-.197.07-.302l-.002-.002zm-50.06-3.565c.555-2.497.473-5.505.997-7.465.787-2.94 4.353-6.396 3.62-10.34-.613-3.312-4.905-6.41-8.405-6.046-3.24.343-5.717 3.36-7.902 4.936-2.912 2.104-5.34 4.402-6.247 6.59-.506 2.5 1.718 5.772 1.666 8.27-.07 3.39-2.523 5.63-4.79 7.924h19.65c.516-1.3 1.14-2.64 1.41-3.87zm-293.375 3.53c-.146-1.5 3.143-7.665 3.657-8.406 1.583-2.287 10.12-8.896 13.16-8.773 1.668.07 2.592 1.975 5.117 2.924 1.51.57 3.303.263 4.383.73 3.274 1.412 4.776 5.41 7.68 5.85 6.862 1.038 11.005-5.354 17.91-2.558 4.438-3.238 8.19-9.02 9.14-15.354.2-1.338-.225-3.082 0-4.748.272-2.042 1.65-3.7 1.46-5.12-.428-3.222-3.887-3.438-8.04-4.75-3.98-1.26-4.13-2.536-7.313-2.562-2.83-.02-4.844 4.21-6.945 5.484-1.237.75-2.87 1.24-4.387 2.19-1.48.938-3.817 2.543-5.115 2.928-7.23 2.16-17.16 7.62-25.22 9.87-3.497.976-7.738.94-9.87 2.194-3.032 1.777-3.774 6.152-6.217 9.135-3.423 4.192-9.753 6.88-12.337 11.305h22.996c-.02-.108-.046-.214-.06-.337zM58.623 496.496c-1.4-2.707-5.285-7.83-7.857-7.922-8.67-.32-12.064 11.422-19.42 11.666-2.568.085-4.528-3.318-6.147-3.818-3.153-.972-11.92.146-15.284 2.07-5.072 2.895-6.084 10.953-9.82 15.807-.03.04-.063.074-.093.113v73.477c.788-.132 1.537-.25 2.158-.496 5.95-2.365 10.726-7.337 12.87-12.39-4.294-6.092.985-11.582-1.585-18.026-1.085-2.726-5.32-3.282-7.443-6.146-.698-.947-.81-2.76-1.708-4.105-1.496-2.24-3.565-2.71-4.01-4.317-.813-2.933 3.682-12.75 5.548-14.81.607-.673 5.86-5.276 7.356-5.472 2.99-.396 2.99 3.156 5.79 3.9 5.467-1.21 18.69-6.457 20.41-1.016 1.256 3.992-4.025 7.007-3.892 10.67.06 1.585 1.568 3.697 1.604 5.25.06 2.68-2.302 4.536-3.737 6.508-1.18 1.624-3.974 4.647-3.734 6.504.31 2.424 3.304 2.756 3.82 5.114.81 3.695-4.02 6.657-3.26 10.144.736 3.36 5.627 5.312 7.55 4.99 1.652-.27 9.002-6.603 10.685-8.878 4.644-6.253 7.147-15.535 10.59-25.367 4.708-13.446 7.51-28.153-.392-43.456v.005zM23.088 647.4c.758-6.126-6.58-8.355-10.832-12.972-3.546-3.852-3.7-10.37-7.603-12.326-1.28-.643-2.95-.757-4.655-.892v22.176l.29.583c2.193 4.372 6.092 9.36 5.956 13.115-.166 4.543-3.65 6.627-4.658 10.252-1.73 6.262 1.84 14.307 7.464 14.91 3.25.347 3.687-2.204 6.163-4.736 2.407-2.46 5.73-2.873 6.735-5.735.708-2.007-.378-4.143-.432-7.17-.035-1.832.754-3.428.572-4.73-.342-2.433-2.423-3.93-2.154-6.02.347-2.683 2.917-4.534 3.155-6.454h-.002zm671.888-27.23c-3.62-1.87-4.368-6.655-6.674-9.533-.93-1.16-2.864-2.182-4.086-3.794-1.462-1.932-2.154-4.388-3.658-5.95-2.586-2.684-7.606-6.198-10.324-6.16-6.54.093-7.253 12.626-12.038 17.353-1.785 1.765-5.31 1.275-6.378 3.947-.864 2.16 1.35 4.544 1.223 6.95-.104 2.022-1.31 4.188-1.574 6.024-.618 4.315.773 8.276.506 12.4-.13 2.01-1.41 3.897-1.574 6.023-.132 1.724 1.302 4.193 1.654 6.665.942 6.68 1.24 15.734 4.45 20.643 1.73 2.646 6.296 6.195 10.254 6.522 2.578.213 4.68-1.61 7.525-2.23 2.267-.49 5.03.446 7.098-1.936.467-6.012-6.08-9.94-9.182-15.62-.623-1.143-.502-3.075-1.292-4.738-2.334-4.895-4.212-3.086-2.443-10.174 1.003-4.02 1.137-8.876 2.22-11.118 1.288-2.66 4.11-3.042 6.233-5.086 2.034-1.96 2.294-4.48 4.73-5.022 11.324 3.328 14.12 9.563 18.355 18.048v-22.176c-1.758-.13-3.56-.282-5.02-1.037h-.002zm-1.956-457.657c-4.682 5.073-4.045 5.756-4.75 14.257-.597 7.13-5.4 16.146-1.828 24.126 1.66 3.713 8.436 9.68 13.557 11.038V155.89c-.83.492-1.588 1.005-2.228 1.505-1.664 1.295-3.28 3.52-4.752 5.118zm-11.38 89.044c-3.09 1.837-4.23 6.893-6.214 9.868-3.134 4.698-7.135 6.053-8.773 9.868-1.706 3.98-1.574 11.107-.366 14.988.858 2.755 3.67 4.376 4.02 7.316.635 5.288-5.067 12.514-2.556 19.005 1.973 5.105 14.65 6.967 21.566 6.215 3.61-.393 7.176-1.673 10.684-3.308V289.85c-3.016 1.482-4.52 4.84-7.395 4.473-5.066-.647-3.494-11.118-5.85-17.547-1.086-2.963-2.67-1.82-2.925-5.848-.445-7.055 7.805-16.792 13.525-16.812.852-.006 1.737.19 2.643.523v-9.936c-1.002.462-2.007.918-3.008 1.365-5.172 2.32-11.47 3.173-15.354 5.486h.003zM372.306 6.977c.513 2.864 2.543 5.95 3.927 8.754 1.186 2.4 2.532 6.59 4.935 7.906 1.536.842 4.233.485 6.376 1.123 3.328.988 6.084 3.344 9.415 5.193 1.464.813 3.48 1.108 5.01 2.01 1.776 1.046 2.984 2.675 4.402 3.186 3.004 1.084 8.07 2.153 10.134 1.8 7.752-1.32 8.715-12.647 20.212-10 4.865 1.126 4.983 7.394 10.503 8.384 2.626-3.354 4.242-6.557 3.9-11.106-.186-2.478-1.592-4.58-2.268-7.102-.44-1.64-.354-3.348-.935-5.045-.854-2.49-2.647-4.438-2.955-6.656-.26-1.844-.205-3.66-.187-5.425h-14.383c.27.483.556.967.88 1.446 1.836 2.727 4.74 3.743 4.812 6.815.063 2.743-4.174 6.716-7.256 7.44-4.547 1.065-6.604-2.122-10.94-2.448-4.975-.376-9.73 2.645-13.684 2.64-2.633 0-9.93-3.697-11.23-4.99-2.32-2.307-2.764-5.774-5.217-7.136-2.987-1.66-6.765-.028-7.755-3.544-.022-.077-.025-.152-.046-.225h-6.97c-.713 2.04-1.164 4.305-.683 6.977l.004.003zm114.113.776c.55 4.425 5.185 9.67 9.54 9.596 2.16-.036 4.515-2.53 7.463-2.314 3.57.262 7.403 6.4 10.104 8.06 5.134 3.156 16.476 7.233 22.08.09 2.69-3.428 2.368-7.54 5.194-9.41 1.265-.84 3.89-1.01 5.327-1.702 1.862-.898 3.443-2.99 5.4-4.288 3.515-2.32 8.875-4.308 9.688-7.784H522.9c-3.63 2.83-11.784 9.2-13.718 4.09-.422-1.123.034-2.575.64-4.09h-19.65c-2.166 2.19-4.162 4.426-3.752 7.75zm-290.86 9.455c.856 1.463 4.617 2.602 5.118 5.12 1.436 7.218-9.228 13.193-6.945 21.563.677 2.486 6.548 5.106 9.503 5.852 16.697 4.212 30.38-1.86 42.4-9.504 8.792-5.588 17.263-10.14 22.3-16.083 1.827-2.16 6.323-10.757 6.212-12.428-.128-1.945-3.138-6.263-6.58-6.213-3.57.05-5.353 5.428-9.134 5.483-2.416.035-3.42-2.807-5.853-2.56-1.86.19-4.17 3.598-5.482 5.12-1.596 1.842-2.864 4.565-5.483 5.114-1.526.322-3.925-.67-5.483-.364-3.6.703-5.33 6.53-9.505 6.213-5.688-.433-3.588-14.505-3.655-20.105-1.305-2.455-4.533-1.82-5.057-4.415H194.92c-.344.583-.627 1.2-.822 1.854-1.108 3.715-.205 12.508 1.462 15.354zm497.048 505.225c-.735 2.36.264 6.482.11 10.108-.36 8.36-3.416 19.274-3.874 26.808-.082 1.35-1.11 3.993-1.683 5.648-.582 1.692-.687 3.396-1.137 4.77-.764 2.335-4.42 5.26-3.76 8.012.747 3.09 2.022 2.948 4.156 6.536 2.226 3.745 3.222 7.067 6.454 6.747 1.424-.137 2.723-1.852 4.65-2.584.8-.303 1.657-.45 2.472-.583v-73.478c-2.365 2.984-6.363 4.702-7.39 8.02l.002-.002z"/>
</svg>