<svg xmlns="http://www.w3.org/2000/svg" xmlns:xlink="http://www.w3.org/1999/xlink" width="125" height="125" viewBox="0 0 125 125">
  <defs>
    <path id="a" d="M0 0h125v125H0z"/>
  </defs>
  <clipPath id="b">
    <use xlink:href="#a" overflow="visible"/>
  </clipPath>
  <path clip-path="url(#b)" fill="#E4E4E4" d="M73.5 58.993l-11-14.667-11 14.668 2.63 3.506-2.63 3.506 11 14.668 11-14.668-2.63-3.506 2.63-3.507zm-11-12.845l9.633 12.845L62.5 71.836l-9.633-12.842L62.5 46.148zM11-3.507L0-18.174-11-3.506-8.37 0-11 3.506 0 18.174 11 3.506 8.37 0 11-3.507zM0-16.352L9.633-3.507 0 9.336-9.633-3.506 0-16.352zM136-3.507l-11-14.667-11 14.668L116.63 0 114 3.506l11 14.668 11-14.668L133.37 0 136-3.507zm-11-12.845l9.633 12.845L125 9.336l-9.633-12.842L125-16.352zM11 121.492L0 106.826l-11 14.668L-8.37 125l-2.63 3.506 11 14.668 11-14.668L8.37 125l2.63-3.508zM0 108.648l9.633 12.844L0 134.336l-9.633-12.842L0 108.648zm136 12.844l-11-14.666-11 14.668 2.63 3.506-2.63 3.506 11 14.668 11-14.668-2.63-3.506 2.63-3.508zm-11-12.844l9.633 12.844L125 134.336l-9.633-12.842L125 108.648z"/>
</svg>