<svg id="Layer_1" xmlns="http://www.w3.org/2000/svg" width="500" height="498.451" viewBox="0 0 500 498.451">
  <path fill="#EFEFEF" d="M491.952 264.218l-6.843-.175-1.114 43.977 6.842.175m-17.625 183.798l-2.396-6.41-34.386 12.867h19.53m-23.322-147.462l3.717 43.833 6.82-.575-3.717-43.833m19.632 42.268l-3.718-43.832-6.82.574 3.717 43.833"/>
  <circle fill="#EFEFEF" cx="403.3" cy="469.336" r="5.497"/>
  <circle fill="#EFEFEF" cx="448.08" cy="315.068" r="5.496"/>
  <circle fill="#EFEFEF" cx="403.3" cy="412.563" r="5.496"/>
  <path fill="#EFEFEF" d="M495.968 360.908c1.583 0 3.005-.672 4.008-1.742v-7.51c-1.003-1.068-2.425-1.742-4.008-1.742-3.034 0-5.495 2.462-5.495 5.497s2.46 5.498 5.495 5.498z"/>
  <circle fill="#EFEFEF" cx="340.175" cy="412.563" r="5.496"/>
  <path fill="#EFEFEF" d="M344.865 341.386c-.663 0-1.332-.188-1.928-.577-1.624-1.066-2.077-3.247-1.01-4.87l21.623-32.964 32.726 10.015 17.322-26.402c1.066-1.623 3.245-2.077 4.87-1.012 1.626 1.066 2.078 3.248 1.013 4.87l-20.216 30.82-32.727-10.017-18.73 28.55c-.672 1.026-1.796 1.585-2.942 1.586zM90.99 417.954l-25.073-36.146-5.625 3.896 25.07 36.146m-6.437-49.346l25.07 36.146-5.625 3.9-25.07-36.145 5.625-3.9zM1.135 264.242l6.842.17L6.86 308.39l-6.843-.173 1.117-43.975zm50.652 233.594l-.888.615h1.312m12.59-9.904l-5.627 3.9 4.167 6.005h8.33"/>
  <circle fill="#EFEFEF" cx="98.691" cy="463.839" r="5.497"/>
  <path fill="#EFEFEF" d="M0 351.657v7.51c.92-.984 1.49-2.302 1.49-3.756s-.57-2.77-1.49-3.753z"/>
  <circle fill="#EFEFEF" cx="124.994" cy="382.895" r="5.496"/>
  <circle fill="#EFEFEF" cx="17.979" cy="485.582" r="5.497"/>
  <path fill="#EFEFEF" d="M51.044 354.75c-1.62 0-3.08-1.125-3.436-2.776l-7.768-36.03 30.1-16.286-7.195-33.377c-.41-1.9.797-3.77 2.697-4.18 1.9-.406 3.77.797 4.18 2.697l8.31 38.54L47.83 319.62l6.655 30.87c.41 1.9-.797 3.77-2.697 4.182-.25.053-.5.077-.744.076zm370.147-92.846l23.36-37.278 5.8 3.635-23.36 37.278-5.8-3.634zm37.003-28.982l-23.357 37.276 5.802 3.637 23.355-37.276m-52.877-133.082l-.973-43.98-6.844.15.972 43.98m15.032-44.563l6.845-.15.964 43.982-6.846.15-.964-43.982zm73.775-3.67l3.082 6.113 3.813-1.925v-7.67m-70.36-49.362l2.4 6.412L455.96 0h-19.528m-.996 17.443l41.2-15.418 2.4 6.41-41.2 15.42-2.4-6.412z"/>
  <circle fill="#EFEFEF" cx="398.037" cy="197.056" r="5.497"/>
  <circle fill="#EFEFEF" cx="464.586" cy="105.452" r="5.496"/>
  <circle fill="#EFEFEF" cx="373.959" cy="20.26" r="5.496"/>
  <circle fill="#EFEFEF" cx="345.672" cy="79.971" r="5.497"/>
  <path fill="#EFEFEF" d="M452.492 184.604L435.72 154.77l-31.683 7.37-2.348-10.094c-.44-1.892.734-3.783 2.627-4.222 1.89-.442 3.784.735 4.224 2.628l.755 3.24 29.97-6.97 16.772 29.834 30.756-7.15c1.893-.44 3.784.735 4.224 2.63.44 1.89-.736 3.78-2.63 4.22l-35.897 8.348h.002zm-252.15 292.873l-5.8-3.636-15.42 24.61h8.078m26.805-12.667l-5.8-3.636-10.214 16.304h8.08m-45.93-189.723l.972 43.98-6.844.15-.973-43.982 6.844-.148zm15.98-.566l.974 43.983-6.844.15-.973-43.982 6.844-.15zM344.86 440.776l4.458 5.192-33.376 28.655-4.46-5.192 33.378-28.655zm15.033 17.193l-4.457-5.194-33.37 28.665 4.458 5.193M279.573 382.38l6.833.396-2.533 43.915-6.833-.394 2.532-43.915zm-11.64 43.612l2.525-43.917-6.833-.395-2.526 43.917m49.2-289.116l5.627-3.9 25.06 36.156-5.626 3.9-25.06-36.155zm38.08 26.862l-25.07-36.147 5.626-3.9 25.068 36.146-5.624 3.902zm-58.62 135.635L250.49 318.8l3.083 6.112 39.274-19.822m-7.398-14.178l-3.083-6.11-39.27 19.82 3.08 6.11m11.78-295.548l-6.842-.176-1.113 43.976 6.843.175m-22.833-.366l6.843.176 1.114-43.976-6.843-.175m91.726 269.936l-25.073-36.146-5.625 3.9 25.072 36.145m-12.056-45.434l25.07 36.146 5.626-3.898-25.073-36.146m-91.57 3.443l-41.2 15.417-2.4-6.41 41.202-15.418 2.397 6.41zm3.417 8.49l-41.2 15.42 2.397 6.412 41.202-15.42m-42.668-112.066l-3.717-43.83 6.82-.58 3.717 43.833-6.82.578zm15.916-1.57l6.82-.576-3.715-43.833-6.82.577"/>
  <circle fill="#EFEFEF" cx="348.68" cy="214.615" r="5.497"/>
  <circle fill="#EFEFEF" cx="364.027" cy="371.166" r="5.496"/>
  <circle fill="#EFEFEF" cx="153.313" cy="220.111" r="5.497"/>
  <circle fill="#EFEFEF" cx="198.091" cy="65.844" r="5.497"/>
  <circle fill="#EFEFEF" cx="153.313" cy="163.338" r="5.497"/>
  <circle fill="#EFEFEF" cx="245.98" cy="106.187" r="5.497"/>
  <circle fill="#EFEFEF" cx="148.049" cy="446.282" r="5.497"/>
  <circle fill="#EFEFEF" cx="80.757" cy="157.842" r="5.497"/>
  <circle fill="#EFEFEF" cx="374.981" cy="133.67" r="5.497"/>
  <circle fill="#EFEFEF" cx="267.967" cy="236.358" r="5.497"/>
  <circle fill="#EFEFEF" cx="214.599" cy="354.676" r="5.497"/>
  <circle fill="#EFEFEF" cx="311.481" cy="360.172" r="5.497"/>
  <circle fill="#EFEFEF" cx="277.074" cy="469.703" r="5.497"/>
  <circle fill="#EFEFEF" cx="123.97" cy="269.485" r="5.497"/>
  <circle fill="#EFEFEF" cx="95.684" cy="329.197" r="5.497"/>
  <path fill="#EFEFEF" d="M94.876 92.16c-.663 0-1.332-.187-1.926-.576-1.625-1.065-2.078-3.247-1.012-4.87l21.625-32.966 32.728 10.015 17.322-26.404c1.065-1.625 3.248-2.08 4.87-1.013 1.627 1.065 2.08 3.247 1.013 4.87l-20.216 30.82-32.727-10.017L97.82 90.572c-.674 1.03-1.798 1.59-2.944 1.59zm113.427 106.817l-6.666-7.933c-1.25-1.488-1.058-3.706.43-4.957s3.706-1.057 4.957.43l2.14 2.546 23.556-19.798 28.473 18.994 24.173-20.317c1.488-1.25 3.706-1.058 4.958.43 1.25 1.488 1.058 3.706-.43 4.957l-28.216 23.712-28.47-18.994-24.905 20.93zm92.728-93.45c-1.62 0-3.08-1.13-3.435-2.78l-7.768-36.027 30.1-16.286-7.194-33.378c-.41-1.9.797-3.77 2.697-4.18 1.896-.41 3.77.798 4.18 2.697l8.312 38.54L297.82 70.4l6.653 30.87c.41 1.897-.798 3.77-2.697 4.18-.25.05-.5.077-.745.076zM205.955 426l-16.77-29.834-33.26 7.735c-1.894.443-3.784-.736-4.223-2.63-.438-1.89.74-3.783 2.63-4.222l38.4-8.93 16.772 29.834 30.758-7.153c1.892-.444 3.784.735 4.223 2.63.44 1.892-.737 3.783-2.628 4.222l-35.9 8.35zM65.95 225.418l33.372-28.663-4.46-5.195-33.368 28.664m43.95-16.674l-33.37 28.66 4.46 5.197 33.37-28.664m-73.46-75.19l-6.832-.395-2.525 43.917 6.833.396m-15.975-.702l2.525-43.918-6.833-.396-2.526 43.918M.5 69.572L39.77 49.75l3.084 6.11-39.27 19.822L.5 69.572zm-.5-9.99L35.458 41.69l-3.083-6.114L0 51.914m46.16-48.63l25.07 36.147 5.627-3.898L52.212 0H50.9m33.347 30.143l5.626-3.9L71.67 0h-8.328"/>
  <circle fill="#EFEFEF" cx="114.04" cy="121.941" r="5.497"/>
  <circle fill="#EFEFEF" cx="61.494" cy="110.948" r="5.496"/>
  <circle fill="#EFEFEF" cx="27.086" cy="220.478" r="5.497"/>
  <path fill="#EFEFEF" d="M171.185 12.667l5.8 3.635L187.2 0h-8.078m5.727 20.974l5.798 3.637L206.068 0h-8.077M40.34 417.597c-1.25-1.484-3.47-1.678-4.957-.43L11.21 437.483 0 430.01v8.457l11.693 7.8 28.215-23.71c1.488-1.252 1.68-3.47.43-4.957v-.003zm459.66 12.427l-17.29-11.533-26.25 22.06c-1.486 1.25-1.68 3.47-.43 4.957.696.83 1.69 1.255 2.695 1.255.8 0 1.603-.27 2.264-.824l22.208-18.663L500 438.485v-8.46z"/>
</svg>