<svg xmlns="http://www.w3.org/2000/svg" width="624.813" height="575.918" viewBox="-471.856 989.938 624.813 575.918">
  <path fill="#EFEFEF" d="M152.957 1552.47l-3.12-5.337c-.792-1.356-2.536-1.815-3.89-1.02-1.355.793-1.813 2.534-1.018 3.89l8.03 13.728v-11.26h-.004zm-226.947 9.828c-.763-1.373-2.493-1.866-3.866-1.105-1.373.762-1.868 2.492-1.104 3.867l.44.795h6.507l-1.977-3.557zm-20.598-8.86c.316-1.54-.68-3.04-2.216-3.355-1.54-.312-3.04.68-3.354 2.217l-2.767 13.556h5.805l2.532-12.42zm-147.742-.776c-.766-1.37-2.498-1.86-3.87-1.096-1.37.767-1.86 2.5-1.095 3.868l5.822 10.42h6.516l-7.373-13.192zm-98.53-21.532l20.808 7.413c.318.112.64.165.956.165 1.168 0 2.265-.727 2.68-1.89.527-1.48-.246-3.105-1.726-3.634l-20.808-7.412c-1.48-.528-3.107.244-3.635 1.724-.526 1.48.246 3.106 1.725 3.633zm75.252 20.72c.52.404 1.134.598 1.743.598.847 0 1.688-.377 2.248-1.1l13.548-17.446c.965-1.24.74-3.027-.5-3.99-1.24-.964-3.026-.738-3.99.5l-13.547 17.452c-.964 1.238-.74 3.024.5 3.986zm-198.42 14.005l-7.83-13.386v11.262l1.24 2.122m139.068-9.325c-.034-1.57-1.32-2.79-2.904-2.784-1.57.034-2.816 1.334-2.782 2.904l.2 9.205h5.687l-.2-9.323v-.002zm-116.615-10.378c.69 0 1.384-.25 1.932-.756l16.21-15.008c1.15-1.066 1.22-2.864.154-4.018s-2.863-1.22-4.016-.155l-16.21 15.008c-1.153 1.066-1.223 2.866-.156 4.017.56.605 1.323.913 2.088.91zm101.912-42.353c-1.212-1-3.003-.83-4.003.38l-14.068 17.03c-1 1.212-.83 3.003.38 4.003.53.44 1.173.653 1.81.653.818 0 1.633-.354 2.195-1.034l14.07-17.03c1-1.21.83-3.003-.382-4.003zm36.742 59.74c.5.36 1.08.53 1.652.53.884 0 1.758-.41 2.314-1.186l12.87-17.95c.915-1.277.62-3.055-.654-3.97-1.276-.915-3.052-.62-3.968.653l-12.87 17.955c-.916 1.276-.623 3.052.654 3.966zm-53.974-5.268c.558.76 1.42 1.162 2.296 1.162.584 0 1.173-.18 1.68-.552 1.267-.926 1.54-2.707.61-3.974l-13.067-17.814c-.93-1.265-2.71-1.54-3.974-.61-1.266.928-1.54 2.708-.61 3.976l13.067 17.813v-.002zm-36.57-47.873c-.576-1.463-2.228-2.178-3.69-1.6-1.46.58-2.175 2.23-1.597 3.69l8.13 20.54c.44 1.115 1.512 1.8 2.644 1.8.347 0 .703-.065 1.044-.2 1.46-.58 2.175-2.233 1.597-3.693l-8.13-20.538zm-.046 54.917l-17.994-12.813c-1.28-.913-3.054-.613-3.966.667-.912 1.278-.613 3.054.666 3.966l12.24 8.718h9.606c-.158-.197-.335-.383-.55-.537zm123.598-44.94c.52.936 1.488 1.462 2.488 1.462.467 0 .94-.116 1.378-.36 1.372-.76 1.867-2.49 1.104-3.865l-10.732-19.31c-.762-1.37-2.493-1.865-3.867-1.103s-1.87 2.493-1.106 3.866l10.73 19.308h.003zm-34.13-7.07c.192.04.384.06.57.06 1.324 0 2.51-.93 2.785-2.277l4.417-21.644c.315-1.54-.678-3.04-2.216-3.353-1.54-.314-3.042.678-3.355 2.215l-4.42 21.646c-.315 1.536.68 3.04 2.217 3.354zm-134.16-2.578c.52.93 1.488 1.453 2.484 1.453.47 0 .947-.116 1.385-.36 1.372-.766 1.862-2.5 1.096-3.87l-10.773-19.283c-.767-1.37-2.5-1.86-3.87-1.096-1.37.766-1.86 2.498-1.095 3.87l10.773 19.286zm588.15-98.017c.55.527 1.26.79 1.964.79.75 0 1.496-.295 2.055-.88l5.582-5.833v-8.226l-9.69 10.13c-1.087 1.132-1.048 2.935.086 4.02zm2.587-58.572c-1.357.79-1.813 2.534-1.02 3.89l8.033 13.73v-11.263l-3.123-5.338c-.794-1.357-2.534-1.813-3.89-1.02zM5.488 1534.796l-4.92 21.535c-.352 1.53.607 3.055 2.14 3.406.213.047.425.07.635.07 1.297 0 2.47-.893 2.77-2.21l4.923-21.534c.35-1.53-.61-3.057-2.14-3.405-1.534-.35-3.058.607-3.408 2.138zm-68.438 6.69c.75 0 1.496-.294 2.055-.88l15.27-15.96c1.086-1.135 1.047-2.935-.09-4.02-1.135-1.087-2.935-1.05-4.017.087l-15.272 15.963c-1.085 1.133-1.047 2.934.09 4.02.55.525 1.258.788 1.964.79zm160.397-66.768c1.17 0 2.266-.725 2.682-1.888.52-1.483-.25-3.11-1.727-3.636l-20.81-7.415c-1.48-.527-3.106.246-3.636 1.725-.525 1.48.246 3.106 1.725 3.63l20.81 7.415c.316.114.638.167.954.167zm13.375 87.837c.61 0 1.22-.192 1.738-.593l17.475-13.514c1.242-.96 1.473-2.746.51-3.987-.96-1.244-2.746-1.474-3.986-.51l-17.48 13.512c-1.24.96-1.47 2.748-.51 3.99.56.723 1.4 1.104 2.25 1.104zm40.116-74.694c.516.402 1.133.598 1.742.598.094 0 .184-.022.28-.032v-7.807l-2.522 3.25c-.965 1.237-.743 3.025.5 3.99zm-213.266-5.738c-1.354.792-1.812 2.535-1.02 3.89l11.156 19.067c.528.9 1.48 1.405 2.456 1.405.486 0 .982-.124 1.434-.39 1.354-.79 1.812-2.533 1.02-3.89l-11.156-19.065c-.79-1.356-2.536-1.81-3.89-1.018zm37.99 28.018c-1.505.454-2.354 2.04-1.9 3.544l6.383 21.15c.37 1.23 1.498 2.02 2.72 2.02.27 0 .548-.04.822-.12 1.503-.454 2.354-2.04 1.9-3.544l-6.382-21.15c-.452-1.504-2.04-2.355-3.542-1.9zm53.652 22.38c.563.652 1.355.984 2.152.984.658 0 1.32-.227 1.857-.692l16.713-14.447c1.188-1.026 1.316-2.822.29-4.012-1.026-1.188-2.823-1.318-4.013-.29l-16.71 14.446c-1.185 1.025-1.316 2.82-.29 4.01zm52.778-42.763c-1.568.036-2.816 1.336-2.78 2.905l.474 22.083c.033 1.553 1.3 2.785 2.844 2.785h.063c1.57-.035 2.816-1.337 2.783-2.904L85 1492.54c-.037-1.57-1.324-2.79-2.908-2.783zm13.822 44.663c.385 0 .77-.075 1.143-.24l20.22-8.897c1.437-.632 2.09-2.31 1.456-3.748-.633-1.436-2.31-2.09-3.75-1.455l-20.217 8.896c-1.438.632-2.09 2.31-1.457 3.75.467 1.062 1.51 1.698 2.603 1.698v-.004zm-109.238-72.04c-1.067-1.15-2.867-1.22-4.02-.153l-16.21 15.01c-1.15 1.063-1.22 2.862-.152 4.013.56.607 1.322.916 2.088.916.69 0 1.383-.252 1.93-.758l16.21-15.007c1.15-1.07 1.222-2.867.154-4.02zm-21.657 86.208c-.183-1.56-1.59-2.683-3.15-2.498-1.563.18-2.683 1.59-2.5 3.15l1.92 16.617h5.722l-1.992-17.27zm105.27-108.78c-1.21-1-3-.83-4.004.385L52.22 1457.22c-1 1.212-.83 3.004.382 4.006.53.438 1.172.65 1.81.65.817 0 1.632-.352 2.192-1.033l14.068-17.03c1-1.21.83-3.003-.38-4.003v-.002zm36.742 59.74c.502.36 1.08.533 1.652.533.887 0 1.758-.41 2.316-1.185l12.872-17.952c.914-1.278.62-3.053-.656-3.968-1.275-.915-3.05-.624-3.967.653l-12.873 17.95c-.914 1.278-.62 3.053.654 3.97v.002zm30.137 5.987c-.704 1.403-.138 3.11 1.267 3.814l14.52 7.29v-6.364l-11.967-6.008c-1.406-.707-3.115-.137-3.82 1.265zm-81.814-10.09c.584 0 1.176-.18 1.682-.55 1.265-.93 1.538-2.71.61-3.978l-13.068-17.81c-.928-1.268-2.707-1.54-3.975-.61-1.266.927-1.537 2.707-.61 3.974l13.067 17.813c.555.76 1.418 1.16 2.293 1.16h-.002v.003h.002zm-13.173 64.65c-.87-1.305-2.637-1.656-3.94-.782-1.308.87-1.66 2.638-.786 3.945l1.738 2.596h6.844l-3.853-5.76h-.004zm19.232-11.32c.453.27.95.396 1.447.396.973 0 1.918-.496 2.45-1.395l11.233-19.02c.8-1.35.352-3.095-1-3.892-1.352-.8-3.096-.352-3.895 1l-11.235 19.02c-.8 1.35-.35 3.095 1 3.893zM21.98 1470.84c.352 0 .705-.064 1.045-.2 1.463-.58 2.178-2.232 1.6-3.692l-8.13-20.54c-.578-1.46-2.23-2.176-3.69-1.597-1.46.58-2.176 2.23-1.598 3.69l8.13 20.54c.438 1.118 1.513 1.8 2.643 1.8zm-7.187 35.647c.89 0 1.765-.415 2.318-1.192.914-1.28.615-3.055-.665-3.966l-17.993-12.816c-1.28-.91-3.052-.61-3.966.67-.91 1.28-.61 3.054.668 3.964l17.994 12.813c.502.355 1.078.525 1.647.525zm75.777 56.423c.814-1.342.393-3.092-.947-3.91-1.342-.816-3.09-.394-3.91.948l-3.602 5.908h6.66l1.8-2.946zm51.96-105.06c.468 0 .942-.116 1.38-.357 1.373-.762 1.867-2.493 1.104-3.866l-10.73-19.312c-.764-1.37-2.492-1.867-3.867-1.104-1.373.765-1.867 2.495-1.104 3.868l10.73 19.31c.52.933 1.488 1.462 2.488 1.463zm-36.618-8.533c.193.04.387.058.572.058 1.322 0 2.508-.928 2.783-2.275l4.416-21.644c.316-1.54-.678-3.042-2.215-3.354s-3.04.68-3.355 2.217l-4.416 21.643c-.316 1.537.674 3.04 2.215 3.353zm-134.157-2.58c.52.933 1.487 1.458 2.484 1.458.466 0 .944-.117 1.382-.36 1.37-.767 1.86-2.5 1.095-3.87l-10.777-19.283c-.763-1.373-2.495-1.863-3.867-1.097-1.37.765-1.86 2.498-1.097 3.87l10.78 19.282zm-174.54 24.067l-4.922 21.536c-.35 1.53.608 3.055 2.14 3.404.213.05.426.073.636.073 1.293 0 2.465-.893 2.767-2.212l4.92-21.533c.352-1.53-.607-3.056-2.137-3.406-1.53-.35-3.056.607-3.406 2.138zm-51.11-10.15c1.083-1.135 1.044-2.937-.09-4.02-1.135-1.084-2.936-1.047-4.02.09l-15.272 15.958c-1.084 1.136-1.045 2.937.09 4.02.55.53 1.257.79 1.965.79.75 0 1.496-.293 2.055-.88l15.27-15.957zm143.07-49.927c1.17 0 2.263-.727 2.68-1.892.526-1.48-.246-3.105-1.723-3.63l-20.813-7.415c-1.48-.527-3.108.245-3.633 1.723-.526 1.48.246 3.11 1.723 3.635l20.81 7.414c.317.11.638.165.955.165zm33.096 69.74c-.96-1.242-2.744-1.473-3.986-.512l-17.476 13.515c-1.24.96-1.47 2.746-.51 3.988.56.724 1.402 1.104 2.25 1.104.608 0 1.222-.193 1.737-.593l17.48-13.516c1.24-.96 1.47-2.746.507-3.99zm37.433-78.537c-1.24-.964-3.026-.738-3.99.502l-13.548 17.447c-.963 1.24-.74 3.025.502 3.99.518.4 1.133.595 1.742.595.847 0 1.687-.377 2.247-1.097l13.55-17.45c.96-1.24.735-3.026-.504-3.99zm-230.302 16.2c-1.354.795-1.812 2.538-1.02 3.892l11.157 19.065c.528.905 1.48 1.41 2.456 1.41.488 0 .982-.126 1.434-.39 1.355-.792 1.812-2.537 1.02-3.892l-11.155-19.065c-.79-1.356-2.533-1.812-3.89-1.02zm42.47 52.71c.373 1.23 1.5 2.024 2.72 2.024.273 0 .55-.04.825-.122 1.503-.452 2.354-2.04 1.9-3.543l-6.38-21.15c-.454-1.506-2.042-2.356-3.543-1.903-1.503.454-2.353 2.04-1.9 3.546l6.38 21.147zm49.173-2.312c.563.65 1.356.983 2.152.983.66 0 1.32-.227 1.858-.69l16.713-14.446c1.187-1.027 1.316-2.822.29-4.012-1.026-1.187-2.823-1.316-4.01-.29l-16.713 14.446c-1.187 1.028-1.318 2.825-.29 4.012zm53.313-14.99h.063c1.57-.034 2.816-1.334 2.782-2.904l-.476-22.084c-.035-1.57-1.336-2.793-2.904-2.782-1.57.034-2.815 1.334-2.78 2.903l.473 22.087c.033 1.55 1.3 2.784 2.842 2.783zm-56.793 55.492c-.793-1.356-2.537-1.813-3.89-1.018l-19.062 11.162c-1.354.793-1.81 2.535-1.016 3.89.528.903 1.48 1.407 2.457 1.407.49 0 .984-.124 1.434-.387l19.063-11.163c1.355-.794 1.81-2.535 1.016-3.89zm70.08-38.6c.382 0 .77-.08 1.143-.242l20.22-8.896c1.437-.632 2.09-2.31 1.456-3.748-.632-1.437-2.31-2.09-3.748-1.456l-20.218 8.896c-1.438.632-2.088 2.312-1.455 3.75.468 1.065 1.51 1.7 2.603 1.7v-.004zm-125.603-53.016l16.21-15.007c1.152-1.066 1.22-2.866.154-4.016-1.068-1.15-2.867-1.22-4.02-.153l-16.21 15.006c-1.15 1.067-1.22 2.867-.154 4.02.56.604 1.324.91 2.088.91.69 0 1.382-.252 1.93-.758zm69.835 148.423c1.56-.18 2.68-1.59 2.5-3.152l-2.538-21.943c-.18-1.56-1.595-2.68-3.15-2.498-1.56.183-2.68 1.592-2.5 3.152l2.538 21.944c.167 1.447 1.395 2.516 2.818 2.516h.006c.106 0 .215-.005.324-.017v-.004zm-75.422-56.127c.11 0 .22-.005.33-.017 1.56-.18 2.68-1.59 2.498-3.15l-2.533-21.944c-.18-1.56-1.588-2.686-3.15-2.5-1.562.18-2.68 1.59-2.5 3.15l2.536 21.944c.167 1.448 1.395 2.516 2.82 2.515zm105.567-133.893c-1.21-1-3.002-.828-4.004.383l-14.068 17.03c-1 1.21-.828 3 .382 4.003.53.437 1.172.65 1.81.65.817 0 1.633-.352 2.194-1.032l14.068-17.03c1-1.21.83-3-.382-4.002zm-86.978 164.608l19.745 9.907c.408.206.844.305 1.27.305 1.043 0 2.045-.575 2.545-1.57.705-1.402.138-3.11-1.266-3.817l-19.744-9.91c-1.404-.703-3.113-.137-3.817 1.268-.703 1.404-.137 3.112 1.267 3.817zm123.72-104.867c.5.358 1.08.532 1.65.532.888 0 1.76-.413 2.316-1.187l12.87-17.954c.915-1.278.62-3.053-.654-3.97-1.276-.914-3.052-.62-3.97.654l-12.868 17.954c-.915 1.276-.62 3.053.655 3.968zm31.403 9.802l19.744 9.91c.406.204.842.302 1.27.302 1.043 0 2.046-.573 2.545-1.568.704-1.404.14-3.11-1.266-3.816l-19.747-9.91c-1.402-.703-3.11-.14-3.815 1.267-.705 1.402-.14 3.11 1.265 3.815zm-81.4-14.456c1.267-.93 1.54-2.71.61-3.977l-13.067-17.813c-.93-1.266-2.708-1.54-3.974-.61-1.267.928-1.54 2.708-.61 3.977l13.065 17.814c.555.76 1.42 1.16 2.294 1.16.583 0 1.17-.178 1.68-.55zm-7.3 86.725c.55.816 1.448 1.262 2.366 1.262.546 0 1.095-.156 1.58-.482 1.306-.872 1.658-2.638.785-3.943l-12.283-18.36c-.87-1.305-2.638-1.658-3.942-.785-1.307.875-1.656 2.64-.785 3.947l12.282 18.36zm11.68-32.846c.453.268.952.395 1.443.395.974 0 1.92-.5 2.45-1.398l11.236-19.018c.8-1.353.35-3.097-1.002-3.896-1.35-.8-3.097-.35-3.895 1.002l-11.236 19.02c-.796 1.35-.347 3.094 1.005 3.893zm-39.437-77.937c.35 0 .703-.063 1.046-.2 1.46-.577 2.175-2.23 1.598-3.688l-8.13-20.543c-.58-1.458-2.23-2.173-3.69-1.598-1.46.58-2.176 2.23-1.598 3.69l8.132 20.54c.44 1.12 1.51 1.8 2.642 1.797zm-7.187 35.648c.89 0 1.767-.417 2.32-1.194.91-1.28.61-3.053-.667-3.964l-17.994-12.813c-1.278-.91-3.055-.613-3.966.668-.91 1.28-.612 3.054.667 3.966l17.996 12.813c.5.354 1.076.524 1.646.525zm90.69 77.682l17.997 12.814c.5.356 1.076.527 1.647.527.888 0 1.764-.415 2.32-1.192.908-1.28.61-3.056-.67-3.966l-17.993-12.815c-1.28-.91-3.054-.612-3.965.667-.91 1.277-.612 3.055.667 3.965zm-15.86-25.167c-1.34-.815-3.087-.393-3.907.948l-11.505 18.857c-.816 1.343-.392 3.09.948 3.91.465.28.976.415 1.48.415.957 0 1.894-.483 2.43-1.362l11.505-18.86c.816-1.34.39-3.09-.95-3.907zm-24.946 56.427c.503 0 1.016-.135 1.48-.416l18.852-11.51c1.342-.816 1.764-2.568.947-3.908-.817-1.34-2.57-1.763-3.91-.946l-18.853 11.513c-1.343.814-1.765 2.566-.946 3.907.533.877 1.47 1.362 2.43 1.362zm77.854-157.58c.468 0 .943-.116 1.38-.357 1.373-.763 1.866-2.494 1.104-3.866l-10.73-19.31c-.763-1.373-2.493-1.866-3.866-1.104s-1.868 2.493-1.104 3.867l10.73 19.308c.52.937 1.487 1.465 2.487 1.465v-.003zm-36.617-8.53c.193.04.385.056.574.056 1.32 0 2.507-.926 2.782-2.275l4.418-21.643c.313-1.54-.68-3.04-2.22-3.355-1.538-.312-3.04.68-3.352 2.218l-4.417 21.645c-.315 1.537.677 3.04 2.217 3.353zm-134.16-2.58c.52.933 1.49 1.457 2.487 1.457.47 0 .946-.117 1.383-.36 1.37-.767 1.86-2.497 1.095-3.87l-10.775-19.283c-.766-1.37-2.5-1.857-3.868-1.094-1.37.77-1.862 2.5-1.096 3.87l10.775 19.282zm-174.537 24.066l-4.92 21.536c-.35 1.53.607 3.052 2.137 3.4.213.053.426.075.635.075 1.296 0 2.468-.892 2.77-2.212l4.92-21.534c.35-1.53-.607-3.055-2.138-3.405-1.532-.35-3.055.608-3.405 2.137zm-51.2-14.17c-1.135-1.084-2.935-1.046-4.02.09l-5.58 5.834v8.227l9.69-10.13c1.085-1.134 1.044-2.935-.09-4.02zm143.16-45.908c1.17 0 2.265-.727 2.68-1.89.528-1.48-.245-3.106-1.725-3.633l-20.808-7.413c-1.48-.53-3.108.243-3.636 1.724-.526 1.48.246 3.104 1.725 3.63l20.81 7.413c.314.114.636.167.952.167zm33.097 69.74c-.96-1.24-2.748-1.47-3.99-.51l-17.475 13.514c-1.242.96-1.47 2.747-.51 3.99.56.722 1.4 1.102 2.252 1.102.608 0 1.22-.193 1.737-.595l17.475-13.514c1.24-.96 1.47-2.746.51-3.99zm37.428-78.537c-1.24-.963-3.027-.737-3.99.503l-13.548 17.45c-.963 1.24-.738 3.026.502 3.99.52.402 1.134.6 1.743.6.847 0 1.688-.38 2.248-1.103l13.548-17.447c.964-1.242.74-3.03-.5-3.992zm-217.707 40.568c.49 0 .984-.125 1.436-.39 1.356-.79 1.813-2.535 1.018-3.89l-8.032-13.73v11.265l3.124 5.34c.528.9 1.48 1.407 2.457 1.407zm25.4 3.653c-1.505.45-2.355 2.04-1.9 3.54l6.38 21.148c.37 1.23 1.5 2.023 2.72 2.023.272 0 .55-.04.824-.122 1.503-.45 2.354-2.04 1.9-3.543l-6.38-21.148c-.454-1.503-2.04-2.354-3.544-1.9zm53.65 22.376c.565.65 1.357.985 2.154.985.66 0 1.32-.23 1.858-.692l16.713-14.45c1.187-1.026 1.318-2.82.29-4.01-1.026-1.19-2.824-1.32-4.01-.29l-16.712 14.445c-1.186 1.03-1.317 2.825-.29 4.012zm53.313-14.988h.063c1.57-.037 2.816-1.337 2.78-2.906l-.475-22.084c-.033-1.57-1.32-2.796-2.903-2.784-1.57.034-2.816 1.334-2.782 2.905l.477 22.084c.033 1.548 1.3 2.784 2.842 2.784zm-56.79 55.49c-.794-1.357-2.537-1.812-3.89-1.017l-19.064 11.16c-1.356.794-1.81 2.536-1.017 3.893.528.903 1.48 1.407 2.456 1.407.49 0 .98-.125 1.433-.392l19.063-11.16c1.353-.793 1.808-2.536 1.016-3.89zm92.896-51.486c-.633-1.438-2.313-2.09-3.75-1.457l-20.22 8.897c-1.436.632-2.087 2.31-1.456 3.746.468 1.064 1.51 1.7 2.604 1.7.382 0 .77-.078 1.144-.243l20.22-8.896c1.44-.633 2.09-2.31 1.458-3.747zm-132.058-59.156c-1.066-1.152-2.864-1.222-4.017-.154l-16.21 15.005c-1.153 1.067-1.223 2.866-.156 4.02.56.604 1.32.91 2.086.91.69 0 1.384-.25 1.932-.755l16.21-15.008c1.152-1.067 1.222-2.865.155-4.02zm50.323 164.95c.167 1.45 1.396 2.517 2.82 2.517.11 0 .22-.006.33-.02 1.56-.178 2.68-1.588 2.5-3.15l-2.534-21.943c-.18-1.56-1.592-2.684-3.152-2.5-1.56.183-2.677 1.59-2.497 3.153l2.537 21.944-.003-.002zm-75.094-56.147c.168 1.45 1.397 2.52 2.82 2.52.11 0 .22-.008.33-.02 1.56-.18 2.68-1.59 2.5-3.15l-2.535-21.944c-.18-1.56-1.59-2.68-3.15-2.498-1.56.18-2.68 1.588-2.5 3.148l2.535 21.943zm108.388-131.375c-1.212-1-3.003-.83-4.003.382l-14.068 17.03c-1 1.21-.83 3.003.38 4.003.53.44 1.173.653 1.81.653.818 0 1.633-.354 2.195-1.033l14.07-17.03c.998-1.21.827-3.004-.383-4.004zm-65.962 174.82c1.042 0 2.045-.575 2.544-1.57.704-1.402.136-3.11-1.268-3.813l-19.744-9.912c-1.404-.702-3.112-.136-3.816 1.27-.704 1.4-.137 3.11 1.266 3.815l19.744 9.907c.408.206.845.302 1.273.304zm102.704-115.08c.5.36 1.08.533 1.653.533.884 0 1.758-.415 2.314-1.188l12.87-17.952c.915-1.277.62-3.054-.654-3.97-1.276-.914-3.052-.62-3.968.654l-12.87 17.953c-.915 1.278-.623 3.053.654 3.97zm54.963 18.448c.705-1.403.135-3.112-1.267-3.816l-19.745-9.91c-1.4-.704-3.11-.14-3.814 1.266-.704 1.405-.137 3.114 1.266 3.818l19.744 9.91c.41.205.844.303 1.273.303 1.042 0 2.045-.578 2.545-1.57zm-104.96-23.1c1.266-.93 1.54-2.71.61-3.977l-13.067-17.812c-.93-1.267-2.71-1.54-3.976-.612-1.266.93-1.54 2.71-.61 3.976l13.066 17.812c.557.76 1.42 1.16 2.296 1.16.584.003 1.173-.177 1.68-.548zm-18.798 64.417c-1.304.874-1.655 2.64-.782 3.945l12.28 18.36c.55.82 1.45 1.265 2.368 1.265.545 0 1.095-.156 1.58-.48 1.303-.876 1.655-2.64.784-3.945l-12.282-18.362c-.87-1.303-2.64-1.655-3.945-.782zm23.177-10.536c.453.27.952.395 1.444.395.972 0 1.92-.5 2.45-1.4l11.236-19.02c.8-1.35.35-3.095-1-3.892-1.353-.8-3.097-.352-3.895 1l-11.237 19.017c-.8 1.354-.35 3.097 1.002 3.897zm-39.435-77.937c.348 0 .702-.065 1.045-.2 1.46-.58 2.176-2.23 1.598-3.69l-8.13-20.54c-.578-1.46-2.23-2.177-3.69-1.597-1.462.577-2.177 2.23-1.6 3.688l8.13 20.54c.444 1.12 1.514 1.8 2.647 1.8zm-7.187 35.65c.888 0 1.764-.417 2.318-1.195.91-1.28.612-3.054-.667-3.967l-17.993-12.813c-1.28-.913-3.054-.613-3.966.668-.91 1.278-.612 3.055.667 3.966l17.995 12.813c.502.354 1.078.525 1.648.525h.002zm112.65 89.827c.91-1.28.61-3.056-.667-3.967l-17.996-12.813c-1.28-.91-3.054-.612-3.965.666-.912 1.28-.613 3.057.667 3.968L-293.07 1469c.5.36 1.076.53 1.646.53.888 0 1.763-.417 2.32-1.195zm-52.287-13.602c.463.282.973.416 1.48.416.96 0 1.894-.482 2.43-1.362l11.503-18.856c.816-1.342.392-3.092-.948-3.908-1.34-.817-3.088-.394-3.908.946l-11.504 18.858c-.816 1.34-.393 3.09.947 3.906zm10.795 16.878c-.818-1.342-2.568-1.764-3.908-.947l-18.854 11.513c-1.34.817-1.763 2.567-.944 3.907.536.88 1.47 1.362 2.43 1.362.503 0 1.015-.136 1.48-.415l18.852-11.514c1.34-.816 1.763-2.566.944-3.906zm54.09-143.205c.52.936 1.488 1.464 2.488 1.464.467 0 .94-.12 1.378-.363 1.372-.762 1.867-2.493 1.104-3.864l-10.732-19.31c-.762-1.372-2.493-1.868-3.867-1.105-1.375.76-1.87 2.492-1.106 3.865l10.733 19.31zm-34.13-7.07c.192.04.384.06.57.06 1.324 0 2.51-.93 2.785-2.28l4.417-21.642c.315-1.54-.678-3.04-2.216-3.354-1.54-.315-3.042.677-3.355 2.214l-4.42 21.646c-.315 1.54.68 3.04 2.217 3.355zm-143.84-25.73c-1.37.764-1.86 2.496-1.095 3.868l10.776 19.283c.52.932 1.486 1.455 2.48 1.455.47 0 .948-.114 1.386-.36 1.372-.765 1.862-2.497 1.096-3.87l-10.772-19.28c-.766-1.37-2.5-1.86-3.87-1.094zm-15.418 191.75l13.55-17.447c.962-1.24.738-3.026-.502-3.988-1.24-.963-3.025-.74-3.99.502l-11.026 14.2v7.805c.75-.072 1.47-.426 1.968-1.07zm4.527 32.208c1.04 0 2.043-.574 2.544-1.568.707-1.403.138-3.113-1.265-3.817l-7.773-3.9v6.36l5.223 2.622c.41.206.845.304 1.272.304h.002zm608.72-298.822c.55.53 1.26.79 1.965.79.75 0 1.496-.294 2.055-.88l5.582-5.832v-8.226l-9.69 10.13c-1.087 1.135-1.048 2.935.086 4.02zm2.588-58.57c-1.357.793-1.813 2.535-1.02 3.89l8.033 13.73v-11.263l-3.123-5.338c-.794-1.358-2.534-1.814-3.89-1.02zM5.488 1342.823l-4.92 21.536c-.352 1.53.607 3.054 2.14 3.405.213.048.425.07.635.07 1.297 0 2.47-.892 2.77-2.21l4.923-21.535c.35-1.532-.61-3.057-2.14-3.406-1.534-.347-3.058.61-3.408 2.14zm-68.438 6.69c.75 0 1.496-.293 2.055-.878l15.27-15.96c1.086-1.137 1.047-2.936-.09-4.022-1.133-1.083-2.935-1.046-4.017.088l-15.272 15.963c-1.085 1.137-1.047 2.935.09 4.02.55.528 1.258.79 1.964.79zm160.397-66.767c1.17 0 2.266-.73 2.682-1.89.52-1.48-.25-3.106-1.727-3.633l-20.81-7.414c-1.48-.528-3.106.245-3.636 1.724-.525 1.48.246 3.106 1.725 3.632l20.81 7.412c.316.114.638.17.954.17zm33.096 69.74c-.96-1.243-2.746-1.473-3.988-.51l-17.473 13.512c-1.244.96-1.473 2.748-.512 3.988.56.725 1.402 1.105 2.252 1.105.607 0 1.22-.19 1.738-.594l17.475-13.514c1.242-.958 1.47-2.745.508-3.987zm20.395-56.597c.52.404 1.133.598 1.742.598.094 0 .184-.02.28-.03v-7.806l-2.522 3.25c-.965 1.238-.743 3.024.5 3.988zm-213.266-5.738c-1.354.792-1.812 2.534-1.02 3.89l11.156 19.067c.528.904 1.48 1.407 2.456 1.407.486 0 .982-.123 1.434-.39 1.354-.79 1.812-2.532 1.02-3.887l-11.156-19.067c-.79-1.357-2.536-1.814-3.89-1.02zm37.99 28.018c-1.505.452-2.354 2.04-1.9 3.543l6.383 21.15c.37 1.23 1.498 2.024 2.72 2.024.27 0 .548-.04.822-.12 1.503-.456 2.354-2.043 1.9-3.548l-6.382-21.148c-.45-1.504-2.038-2.354-3.542-1.9zm53.652 22.38c.563.65 1.355.983 2.152.983.658 0 1.32-.226 1.857-.69l16.713-14.447c1.188-1.026 1.316-2.823.29-4.012-1.026-1.187-2.823-1.317-4.013-.29l-16.71 14.447c-1.185 1.027-1.316 2.822-.29 4.012zm53.313-14.99h.063c1.57-.035 2.816-1.335 2.783-2.906l-.477-22.084c-.033-1.57-1.32-2.797-2.904-2.782-1.57.033-2.816 1.335-2.783 2.904l.475 22.084c.032 1.55 1.3 2.784 2.84 2.784zm-56.79 55.49c-.796-1.354-2.538-1.81-3.892-1.016l-19.063 11.16c-1.353.793-1.81 2.536-1.016 3.89.527.905 1.48 1.41 2.456 1.41.486 0 .98-.127 1.435-.39l19.06-11.163c1.354-.796 1.81-2.537 1.015-3.894h.004zm70.077-38.6c.385 0 .77-.077 1.143-.242l20.22-8.896c1.437-.633 2.09-2.31 1.456-3.748s-2.31-2.09-3.75-1.457l-20.217 8.897c-1.438.633-2.09 2.312-1.457 3.75.466 1.06 1.51 1.695 2.603 1.695zm-109.238-72.04c-1.067-1.152-2.867-1.222-4.02-.154l-16.21 15.007c-1.15 1.07-1.22 2.868-.152 4.02.56.604 1.322.914 2.088.914.69 0 1.383-.252 1.93-.76l16.21-15.006c1.15-1.068 1.222-2.867.154-4.02zM36.96 1410.26c-1.562.182-2.68 1.592-2.497 3.152l2.535 21.944c.168 1.45 1.396 2.517 2.82 2.517.107 0 .22-.008.33-.02 1.56-.18 2.68-1.59 2.496-3.15l-2.533-21.942c-.18-1.56-1.59-2.682-3.15-2.5zm-75.056-31.047c.17 1.45 1.396 2.516 2.82 2.516.11 0 .22-.01.33-.02 1.56-.18 2.68-1.593 2.497-3.15l-2.532-21.946c-.18-1.56-1.587-2.683-3.15-2.497-1.56.18-2.68 1.59-2.5 3.15l2.537 21.943v.003zM70.29 1247.837c-1.21-1-3-.83-4.003.38l-14.068 17.03c-1 1.212-.83 3.002.38 4.002.53.437 1.173.65 1.81.65.818 0 1.633-.352 2.193-1.03l14.068-17.033c1-1.21.83-3-.38-4zM4.33 1422.655c1.043 0 2.045-.576 2.544-1.57.704-1.403.14-3.11-1.266-3.814l-19.745-9.91c-1.4-.705-3.11-.14-3.816 1.268-.703 1.403-.137 3.112 1.268 3.816l19.743 9.908c.41.204.844.303 1.274.303l-.002.002zm114.92-137l-12.87 17.95c-.915 1.277-.622 3.054.653 3.97.502.358 1.08.532 1.652.532.887 0 1.758-.413 2.316-1.186l12.873-17.952c.914-1.277.62-3.053-.656-3.97-1.275-.91-3.052-.618-3.966.658zm17.92 27.908c-.703 1.403-.137 3.11 1.268 3.815l14.52 7.29v-6.363l-11.967-6.01c-1.405-.704-3.114-.138-3.82 1.268zm-80.13-10.64c1.265-.93 1.536-2.71.608-3.978l-13.066-17.812c-.928-1.267-2.707-1.54-3.975-.61-1.266.927-1.54 2.708-.61 3.974l13.065 17.813c.557.76 1.42 1.163 2.295 1.163.582 0 1.174-.18 1.682-.553v.003zm-4.936 87.987c.545 0 1.094-.154 1.58-.48 1.303-.873 1.654-2.64.783-3.944l-12.28-18.36c-.874-1.307-2.64-1.657-3.944-.786-1.307.875-1.656 2.64-.785 3.946l12.28 18.36c.55.822 1.45 1.264 2.366 1.264zm9.312-34.108c.453.27.95.397 1.447.397.973 0 1.918-.5 2.45-1.4l11.233-19.02c.8-1.35.352-3.097-1-3.895-1.352-.8-3.096-.35-3.895 1.002l-11.234 19.02c-.8 1.352-.35 3.096 1 3.894zm-39.436-77.936c.352 0 .705-.064 1.045-.2 1.463-.58 2.178-2.23 1.6-3.69l-8.13-20.54c-.578-1.46-2.23-2.176-3.69-1.598-1.46.577-2.176 2.23-1.598 3.69l8.13 20.54c.438 1.117 1.513 1.798 2.643 1.798zm-27.495 18.344c-.91 1.28-.61 3.053.668 3.965l17.995 12.813c.5.357 1.076.53 1.647.53.887 0 1.762-.418 2.316-1.197.914-1.277.615-3.052-.665-3.962l-17.992-12.814c-1.28-.91-3.054-.612-3.968.666zm132.96 107.133c.91-1.28.61-3.055-.67-3.966l-17.992-12.814c-1.28-.91-3.057-.612-3.967.668-.91 1.28-.61 3.055.668 3.968l17.992 12.813c.5.356 1.078.528 1.648.528.89 0 1.764-.416 2.318-1.196l.003.003zm-37.82-37.315c-1.342-.816-3.09-.395-3.91.947l-11.504 18.858c-.814 1.342-.39 3.092.95 3.908.46.286.974.42 1.48.42.96 0 1.894-.485 2.43-1.362l11.503-18.86c.815-1.34.39-3.09-.947-3.91zm-24.95 56.427c.505 0 1.017-.137 1.48-.417l18.854-11.51c1.34-.82 1.762-2.57.945-3.91-.818-1.34-2.57-1.763-3.91-.945l-18.855 11.51c-1.337.818-1.76 2.568-.942 3.91.533.88 1.47 1.362 2.428 1.362zm77.856-157.578c.47 0 .943-.115 1.38-.36 1.374-.76 1.868-2.492 1.105-3.865l-10.73-19.31c-.764-1.37-2.492-1.865-3.867-1.103-1.373.76-1.867 2.49-1.104 3.864l10.73 19.308c.52.936 1.488 1.464 2.488 1.464zm-36.617-8.532c.193.037.387.056.572.056 1.322 0 2.508-.926 2.783-2.273l4.416-21.644c.316-1.538-.678-3.04-2.215-3.354-1.538-.313-3.04.68-3.356 2.217l-4.416 21.644c-.316 1.54.674 3.04 2.215 3.356zm-143.836-25.734c-1.372.768-1.862 2.5-1.097 3.87l10.773 19.285c.52.933 1.49 1.457 2.486 1.457.466 0 .944-.116 1.38-.36 1.373-.766 1.86-2.498 1.097-3.87l-10.777-19.284c-.763-1.372-2.494-1.86-3.866-1.096h.002zm-167.007 72.236c1.294 0 2.466-.894 2.768-2.21l4.92-21.535c.352-1.53-.607-3.054-2.137-3.404-1.53-.35-3.054.608-3.404 2.138l-4.92 21.535c-.35 1.53.607 3.054 2.14 3.404.21.05.424.072.634.072zm-68.258-19.114c.55.53 1.257.79 1.965.79.75 0 1.496-.294 2.055-.88l15.27-15.96c1.085-1.135 1.045-2.936-.09-4.02-1.134-1.084-2.935-1.046-4.018.088l-15.272 15.962c-1.084 1.135-1.044 2.937.09 4.02zm162.363-65.976c1.17 0 2.263-.727 2.68-1.89.526-1.48-.246-3.107-1.723-3.633l-20.813-7.413c-1.48-.528-3.108.246-3.633 1.725-.526 1.48.246 3.105 1.723 3.63l20.81 7.415c.317.114.638.167.955.167zm33.096 69.74c-.96-1.243-2.744-1.472-3.986-.512l-17.476 13.515c-1.24.96-1.47 2.746-.51 3.985.56.726 1.402 1.106 2.25 1.106.608 0 1.222-.19 1.737-.595l17.48-13.514c1.24-.957 1.47-2.743.507-3.985zm37.433-78.537c-1.24-.964-3.026-.74-3.99.5l-13.548 17.448c-.963 1.24-.74 3.027.502 3.99.518.403 1.133.6 1.742.6.847 0 1.687-.378 2.247-1.1l13.55-17.45c.96-1.24.735-3.026-.504-3.99zm-217.71 40.566c.49 0 .982-.125 1.433-.39 1.357-.79 1.813-2.534 1.02-3.89l-11.155-19.065c-.79-1.354-2.532-1.81-3.89-1.02-1.354.795-1.81 2.536-1.017 3.89l11.155 19.067c.528.905 1.48 1.41 2.457 1.41v-.002zm32.6 30.37c.27 0 .547-.042.82-.123 1.505-.453 2.357-2.04 1.902-3.543l-6.38-21.15c-.453-1.504-2.04-2.354-3.542-1.9-1.504.453-2.355 2.04-1.902 3.543l6.383 21.15c.372 1.23 1.5 2.024 2.72 2.023zm46.45-4.338c.563.65 1.356.982 2.152.982.66 0 1.32-.227 1.858-.692l16.713-14.445c1.187-1.027 1.316-2.824.29-4.01-1.026-1.19-2.823-1.32-4.01-.292l-16.713 14.447c-1.187 1.027-1.318 2.822-.29 4.012zm53.313-14.99h.063c1.57-.035 2.816-1.336 2.782-2.903l-.476-22.087c-.035-1.57-1.336-2.8-2.904-2.784-1.57.036-2.815 1.336-2.78 2.904l.473 22.084c.033 1.553 1.3 2.786 2.842 2.786zm-56.793 55.492c-.793-1.356-2.537-1.813-3.89-1.018l-19.062 11.162c-1.354.794-1.81 2.537-1.016 3.892.528.903 1.48 1.407 2.457 1.407.49 0 .984-.125 1.434-.39l19.063-11.16c1.355-.795 1.81-2.538 1.016-3.892zm70.08-38.6c.382 0 .77-.08 1.143-.244l20.22-8.897c1.437-.633 2.09-2.31 1.456-3.75-.633-1.437-2.31-2.09-3.748-1.457l-20.218 8.898c-1.438.633-2.09 2.31-1.455 3.75.466 1.064 1.508 1.7 2.6 1.7zm-129.62-53.17c.56.605 1.32.912 2.085.912.69 0 1.384-.25 1.932-.756l16.21-15.006c1.152-1.067 1.22-2.867.154-4.02-1.067-1.15-2.866-1.22-4.02-.153l-16.208 15.006c-1.152 1.066-1.222 2.865-.155 4.018zm70.666 120.983c-1.56.18-2.68 1.593-2.5 3.153l2.536 21.943c.166 1.446 1.396 2.516 2.82 2.516.108 0 .218-.007.33-.018 1.56-.18 2.68-1.59 2.498-3.15l-2.534-21.944c-.18-1.562-1.596-2.682-3.152-2.5zm-77.59-52.994l2.533 21.942c.168 1.45 1.396 2.518 2.82 2.518.11 0 .22-.005.33-.02 1.56-.18 2.68-1.588 2.5-3.15l-2.536-21.944c-.18-1.56-1.588-2.684-3.15-2.498-1.56.18-2.68 1.59-2.5 3.15zm110.92-109.43c-1.21-1.003-3-.83-4.003.38l-14.07 17.032c-1 1.208-.828 3 .383 4 .53.44 1.172.652 1.81.652.816 0 1.632-.352 2.193-1.032l14.068-17.032c1-1.21.83-3.002-.38-4.002zm-86.977 164.603l19.745 9.912c.408.203.844.3 1.27.3 1.043 0 2.045-.572 2.545-1.565.705-1.404.138-3.115-1.266-3.818l-19.744-9.91c-1.404-.706-3.113-.14-3.817 1.264-.703 1.403-.137 3.112 1.267 3.816zm135.934-126.786l-12.87 17.954c-.915 1.278-.62 3.054.655 3.968.502.36 1.082.533 1.653.533.887 0 1.76-.41 2.315-1.185l12.87-17.954c.915-1.275.62-3.05-.654-3.967-1.276-.914-3.052-.622-3.968.654zm42.75 40.368c.703-1.403.137-3.114-1.268-3.817l-19.746-9.91c-1.402-.704-3.11-.137-3.815 1.268-.705 1.402-.14 3.11 1.266 3.816l19.743 9.91c.41.205.843.302 1.27.302 1.045 0 2.045-.576 2.546-1.57zm-104.96-23.102c1.266-.93 1.54-2.708.608-3.975l-13.066-17.812c-.93-1.267-2.71-1.54-3.975-.61-1.267.927-1.54 2.707-.61 3.974l13.065 17.812c.556.76 1.42 1.16 2.295 1.16.583 0 1.17-.178 1.68-.55zm-4.933 87.99c.543 0 1.092-.153 1.578-.48 1.307-.873 1.657-2.64.785-3.945l-12.283-18.36c-.873-1.307-2.64-1.657-3.944-.786-1.308.874-1.656 2.64-.786 3.946l12.284 18.362c.55.82 1.448 1.262 2.367 1.26zm9.31-34.107c.455.27.954.396 1.445.396.973 0 1.92-.5 2.45-1.4l11.235-19.016c.8-1.35.35-3.096-1.002-3.894-1.35-.8-3.097-.353-3.895 1l-11.236 19.017c-.797 1.35-.348 3.095 1.004 3.895zm-44.922-102.37c-.577-1.46-2.23-2.174-3.688-1.596-1.46.577-2.176 2.23-1.598 3.69l8.132 20.54c.44 1.116 1.51 1.798 2.645 1.798.35 0 .705-.064 1.048-.2 1.46-.58 2.176-2.233 1.6-3.692l-8.136-20.54zm-22.007 42.775c-.91 1.28-.612 3.057.667 3.967l17.995 12.814c.5.356 1.077.53 1.647.53.888 0 1.764-.418 2.317-1.196.91-1.28.61-3.052-.666-3.964l-17.994-12.814c-1.28-.912-3.056-.612-3.967.668v-.002zm132.958 107.135c.912-1.28.612-3.054-.666-3.965l-17.994-12.813c-1.28-.91-3.054-.613-3.965.667-.912 1.28-.613 3.054.666 3.966l17.996 12.814c.5.355 1.076.526 1.646.526.89 0 1.765-.415 2.32-1.193zm-37.82-37.315c-1.34-.814-3.088-.394-3.908.947l-11.505 18.857c-.816 1.34-.392 3.09.948 3.91.465.283.976.417 1.48.417.957 0 1.894-.484 2.43-1.363l11.505-18.857c.815-1.342.39-3.09-.95-3.91zm-24.947 56.428c.503 0 1.016-.135 1.48-.417l18.852-11.51c1.342-.818 1.764-2.57.947-3.91-.817-1.34-2.57-1.762-3.91-.946l-18.853 11.515c-1.343.814-1.765 2.566-.946 3.906.533.878 1.47 1.363 2.43 1.363zm65.74-182.216c-1.372.762-1.867 2.493-1.103 3.865l10.73 19.31c.52.936 1.487 1.464 2.487 1.464.468 0 .943-.116 1.38-.36 1.373-.762 1.866-2.494 1.104-3.865l-10.73-19.31c-.762-1.374-2.492-1.867-3.866-1.105zm-24.503 16.104c.192.04.384.058.573.058 1.32 0 2.507-.928 2.782-2.275l4.418-21.645c.313-1.54-.68-3.04-2.22-3.354-1.538-.31-3.04.68-3.352 2.217l-4.417 21.644c-.315 1.54.677 3.04 2.217 3.355zm-143.838-25.732c-1.37.765-1.86 2.5-1.096 3.87l10.775 19.284c.52.932 1.488 1.456 2.484 1.456.47 0 .945-.116 1.383-.36 1.37-.766 1.86-2.5 1.095-3.87l-10.776-19.284c-.765-1.372-2.497-1.863-3.868-1.096zm-167.006 72.23c1.295 0 2.466-.89 2.77-2.21l4.92-21.533c.35-1.53-.608-3.056-2.14-3.405-1.532-.35-3.055.608-3.405 2.138l-4.92 21.534c-.35 1.532.607 3.056 2.138 3.406.214.048.426.07.636.07zm-48.966-35.162c1.086-1.134 1.047-2.934-.086-4.02-1.136-1.085-2.936-1.046-4.022.088l-5.58 5.833v8.227l9.69-10.127zm119.585-61.138c-.527 1.48.245 3.107 1.724 3.633l20.808 7.413c.316.11.64.166.956.166 1.168 0 2.264-.726 2.678-1.89.528-1.48-.246-3.107-1.725-3.634l-20.807-7.413c-1.482-.53-3.108.243-3.636 1.723v.002zm56.583 80.95c-.96-1.24-2.748-1.47-3.99-.51l-17.475 13.512c-1.242.96-1.47 2.748-.51 3.99.56.723 1.4 1.103 2.252 1.103.608 0 1.22-.194 1.737-.596l17.475-13.514c1.242-.957 1.47-2.744.51-3.985zm33.44-78.034l-13.55 17.448c-.963 1.24-.738 3.027.502 3.99.52.403 1.134.6 1.743.6.847 0 1.688-.378 2.248-1.1l13.548-17.45c.964-1.24.74-3.026-.5-3.99-1.242-.962-3.028-.737-3.99.502zm-213.72 40.066c.49 0 .983-.125 1.435-.39 1.356-.792 1.813-2.534 1.018-3.89l-8.032-13.73v11.264l3.124 5.338c.528.903 1.48 1.407 2.457 1.408zm32.6 30.367c.27 0 .548-.04.822-.12 1.504-.455 2.355-2.04 1.9-3.544l-6.38-21.15c-.453-1.504-2.04-2.354-3.543-1.9-1.504.452-2.355 2.04-1.9 3.543l6.38 21.147c.373 1.23 1.5 2.023 2.722 2.023h-.003zm46.45-4.334c.564.65 1.356.982 2.153.982.66 0 1.32-.23 1.858-.694l16.713-14.448c1.187-1.026 1.318-2.822.29-4.01-1.026-1.188-2.824-1.318-4.01-.292l-16.712 14.448c-1.186 1.027-1.317 2.82-.29 4.012zm53.312-14.99h.063c1.57-.036 2.816-1.336 2.78-2.906l-.475-22.084c-.034-1.57-1.32-2.8-2.904-2.782-1.57.034-2.817 1.335-2.783 2.904l.477 22.085c.033 1.55 1.3 2.78 2.842 2.782zm-56.79 55.49c-.794-1.357-2.537-1.81-3.89-1.02l-19.064 11.164c-1.354.794-1.81 2.537-1.015 3.89.528.905 1.48 1.41 2.456 1.41.49 0 .983-.13 1.435-.393l19.063-11.16c1.353-.792 1.808-2.536 1.016-3.89zm92.896-51.487c-.63-1.437-2.31-2.09-3.747-1.456l-20.22 8.894c-1.437.634-2.088 2.314-1.457 3.75.468 1.063 1.51 1.7 2.604 1.7.382 0 .77-.08 1.144-.243l20.22-8.897c1.437-.632 2.09-2.313 1.457-3.75v.003zm-132.056-59.155c-1.066-1.152-2.864-1.22-4.017-.154l-16.21 15.007c-1.153 1.068-1.223 2.867-.156 4.02.56.605 1.323.91 2.088.91.69 0 1.384-.25 1.932-.755l16.21-15.008c1.15-1.065 1.222-2.862.155-4.017zm47.787 143.007l2.535 21.943c.17 1.45 1.398 2.517 2.823 2.517.108 0 .22-.007.33-.02 1.56-.18 2.678-1.59 2.498-3.15l-2.534-21.944c-.18-1.56-1.592-2.682-3.153-2.497-1.56.18-2.678 1.59-2.497 3.152zm-72.593-59.297c-1.56.18-2.68 1.592-2.5 3.152l2.535 21.943c.168 1.448 1.397 2.517 2.82 2.517.11 0 .22-.005.33-.017 1.56-.18 2.68-1.592 2.5-3.152l-2.534-21.942c-.18-1.562-1.59-2.682-3.15-2.5zm90.733-84.866c.53.437 1.172.65 1.81.65.817 0 1.632-.35 2.194-1.03l14.068-17.034c1-1.21.83-3.002-.382-4-1.21-1-3.002-.83-4.003.38l-14.068 17.03c-1 1.21-.83 3 .38 4.003zm-48.27 153.404c1.04 0 2.044-.576 2.543-1.57.704-1.402.136-3.11-1.268-3.816l-19.744-9.91c-1.403-.703-3.11-.138-3.815 1.268-.704 1.403-.137 3.11 1.266 3.816l19.745 9.91c.408.203.845.3 1.273.302zm114.92-137l-12.87 17.952c-.916 1.276-.623 3.053.653 3.968.5.36 1.08.533 1.653.533.884 0 1.758-.414 2.314-1.19l12.87-17.952c.915-1.277.62-3.053-.654-3.968-1.276-.916-3.052-.623-3.968.654zm41.48 36.55l-19.744-9.908c-1.403-.705-3.112-.136-3.815 1.266-.703 1.404-.137 3.112 1.267 3.817l19.743 9.91c.41.205.844.303 1.273.303 1.04 0 2.044-.576 2.544-1.57.704-1.403.137-3.112-1.267-3.816v-.002zm-107.67-19.894c.56.758 1.422 1.16 2.297 1.16.584 0 1.173-.178 1.68-.55 1.267-.928 1.54-2.708.61-3.975l-13.067-17.81c-.93-1.267-2.71-1.542-3.974-.612-1.267.928-1.54 2.71-.61 3.977l13.065 17.81zm-14.82 65.03c-1.305.873-1.656 2.64-.783 3.943l12.28 18.362c.55.817 1.45 1.26 2.368 1.26.544 0 1.094-.153 1.58-.48 1.302-.87 1.654-2.64.783-3.943l-12.282-18.362c-.87-1.303-2.64-1.656-3.945-.78zm23.176-10.54c.453.27.952.397 1.444.397.972 0 1.92-.5 2.45-1.4l11.236-19.02c.8-1.35.35-3.096-1-3.894-1.353-.8-3.097-.353-3.895 1l-11.236 19.02c-.8 1.353-.35 3.097 1.002 3.897zm-44.924-102.365c-.577-1.46-2.23-2.174-3.69-1.598-1.46.577-2.176 2.23-1.598 3.69l8.13 20.54c.442 1.115 1.513 1.796 2.645 1.796.346 0 .702-.064 1.043-.2 1.46-.58 2.175-2.23 1.597-3.69l-8.13-20.54zm-22.007 42.772c-.91 1.28-.61 3.055.667 3.965l17.994 12.813c.5.356 1.077.528 1.65.528.887 0 1.762-.416 2.317-1.195.91-1.28.612-3.056-.667-3.967l-17.996-12.813c-1.278-.91-3.052-.612-3.963.667zm132.96 107.133c.91-1.28.61-3.055-.667-3.967l-17.995-12.813c-1.28-.91-3.053-.61-3.965.667-.912 1.28-.612 3.053.667 3.966l17.994 12.813c.5.353 1.074.527 1.645.527.89 0 1.765-.417 2.32-1.195zm-52.287-13.6c.463.282.973.418 1.48.418.96 0 1.894-.483 2.43-1.364l11.503-18.858c.817-1.34.393-3.09-.947-3.908-1.34-.816-3.088-.395-3.908.948l-11.504 18.856c-.815 1.343-.392 3.092.948 3.91zm6.887 15.93l-18.854 11.513c-1.34.815-1.762 2.567-.943 3.907.536.88 1.47 1.363 2.43 1.363.503 0 1.015-.136 1.48-.417l18.852-11.513c1.34-.816 1.763-2.57.945-3.908-.82-1.34-2.57-1.76-3.91-.947zm48.37-165.432c-1.372.763-1.866 2.494-1.103 3.867l10.73 19.31c.52.935 1.488 1.463 2.488 1.463.467 0 .94-.117 1.378-.36 1.372-.763 1.867-2.494 1.104-3.866l-10.732-19.308c-.76-1.372-2.49-1.867-3.864-1.104zm-24.502 16.107c.192.04.384.058.57.058 1.324 0 2.51-.928 2.785-2.275l4.417-21.644c.315-1.54-.678-3.04-2.216-3.354-1.54-.313-3.043.68-3.356 2.217l-4.42 21.642c-.314 1.536.68 3.04 2.218 3.354zm-143.84-25.732c-1.37.766-1.86 2.5-1.095 3.87l10.776 19.282c.52.933 1.487 1.458 2.482 1.458.47 0 .947-.118 1.385-.364 1.373-.764 1.863-2.5 1.097-3.87l-10.773-19.282c-.766-1.37-2.5-1.86-3.87-1.093zm-2.37 170.316c-1.24-.962-3.027-.737-3.99.5l-11.027 14.204v7.807c.75-.075 1.473-.427 1.97-1.07l13.548-17.447c.964-1.242.738-3.03-.5-3.992zm-8.52 53.644c1.04 0 2.042-.574 2.543-1.567.706-1.404.137-3.114-1.266-3.817l-7.773-3.9v6.363l5.223 2.618c.41.208.845.305 1.272.305h.002zm608.632-302.84c-1.086 1.133-1.05 2.933.088 4.02.55.527 1.258.788 1.963.788.75 0 1.497-.294 2.056-.88l5.584-5.833v-8.225l-9.69 10.13zM3.34 1175.862c1.297 0 2.468-.894 2.77-2.21l4.922-21.534c.35-1.533-.608-3.057-2.14-3.407-1.533-.347-3.056.61-3.406 2.14l-4.92 21.536c-.352 1.53.607 3.056 2.14 3.405.212.047.425.07.635.07zm-68.255-19.113c.55.527 1.26.79 1.965.79.75 0 1.496-.296 2.055-.88l15.27-15.96c1.086-1.136 1.047-2.936-.09-4.023-1.135-1.085-2.935-1.046-4.017.088l-15.272 15.962c-1.086 1.136-1.046 2.938.09 4.022zm163.315-71.5l-20.807-7.414c-1.48-.528-3.107.245-3.633 1.725-.53 1.48.244 3.105 1.72 3.633l20.812 7.413c.314.112.64.166.953.166 1.168 0 2.266-.727 2.68-1.89.527-1.482-.244-3.108-1.725-3.633zm28.155 74.75l-17.473 13.514c-1.244.96-1.473 2.748-.512 3.99.56.724 1.402 1.103 2.252 1.103.607 0 1.22-.194 1.738-.594l17.475-13.513c1.242-.96 1.47-2.747.51-3.99-.96-1.24-2.746-1.47-3.988-.507l-.002-.002zm24.383-56.087c.516.404 1.133.598 1.742.598.094 0 .184-.02.28-.03v-7.805l-2.522 3.248c-.965 1.242-.74 3.027.5 3.992v-.002zm-200.673 18.63c.487 0 .98-.126 1.432-.39 1.355-.792 1.813-2.535 1.02-3.89l-11.154-19.067c-.793-1.356-2.536-1.813-3.89-1.02-1.355.794-1.812 2.537-1.02 3.892l11.155 19.066c.53.904 1.48 1.408 2.457 1.407zm32.6 30.366c.27 0 .547-.04.82-.124 1.506-.453 2.354-2.04 1.9-3.544l-6.38-21.146c-.453-1.504-2.04-2.355-3.544-1.9-1.503.452-2.352 2.04-1.9 3.543l6.383 21.147c.372 1.23 1.5 2.023 2.722 2.022zm46.45-4.337c.562.65 1.354.984 2.15.984.66 0 1.32-.228 1.858-.692l16.713-14.446c1.188-1.028 1.316-2.824.29-4.013-1.026-1.188-2.823-1.318-4.013-.292l-16.71 14.446c-1.185 1.03-1.316 2.826-.29 4.013zm53.312-14.99h.063c1.57-.033 2.816-1.334 2.783-2.905l-.477-22.084c-.033-1.57-1.32-2.8-2.904-2.783-1.57.035-2.816 1.334-2.783 2.905l.475 22.084c.032 1.552 1.3 2.785 2.84 2.784zm-56.79 55.492c-.796-1.356-2.538-1.81-3.892-1.016l-19.063 11.16c-1.354.794-1.81 2.537-1.016 3.89.527.906 1.48 1.41 2.456 1.41.486 0 .98-.126 1.435-.392l19.06-11.162c1.354-.794 1.81-2.536 1.015-3.892h.004zm67.472-40.3c.467 1.065 1.51 1.7 2.603 1.7.383 0 .77-.078 1.143-.24l20.22-8.897c1.435-.635 2.087-2.313 1.456-3.75-.633-1.437-2.31-2.09-3.75-1.457l-20.22 8.9c-1.433.63-2.087 2.31-1.454 3.746zm-127.02-51.47c.56.604 1.32.912 2.088.912.69 0 1.383-.25 1.93-.757l16.21-15.005c1.153-1.067 1.223-2.867.156-4.02-1.067-1.15-2.867-1.22-4.02-.153l-16.21 15.006c-1.15 1.067-1.222 2.864-.154 4.017zm68.17 124.133l2.537 21.943c.166 1.453 1.395 2.52 2.818 2.52.11 0 .22-.006.33-.02 1.56-.18 2.68-1.59 2.498-3.15l-2.535-21.943c-.18-1.56-1.595-2.68-3.15-2.498-1.562.18-2.68 1.59-2.497 3.15v-.002zm-69.442-56.798c-.182-1.56-1.59-2.682-3.15-2.497-1.562.18-2.682 1.59-2.5 3.152l2.536 21.944c.167 1.45 1.396 2.517 2.82 2.517.11 0 .218-.007.33-.02 1.56-.18 2.68-1.59 2.498-3.15l-2.535-21.943v-.003zm87.582-87.365c.53.438 1.172.65 1.81.65.817 0 1.632-.35 2.192-1.033l14.068-17.03c1-1.21.83-3.003-.38-4.003-1.214-1-3.005-.83-4.007.38l-14.068 17.03c-1.002 1.214-.828 3.005.383 4.006h.002zm-46.994 148.02l-19.745-9.91c-1.4-.704-3.11-.137-3.815 1.267-.703 1.403-.137 3.112 1.268 3.816l19.743 9.91c.41.205.844.302 1.274.302 1.04 0 2.045-.574 2.543-1.568.704-1.404.135-3.113-1.267-3.817zm117.61-132.27c-1.276-.915-3.052-.622-3.968.655l-12.87 17.954c-.915 1.276-.622 3.052.653 3.968.503.36 1.08.533 1.653.533.887 0 1.758-.412 2.316-1.187l12.87-17.953c.916-1.278.623-3.054-.654-3.97zm13.952 28.562c-.703 1.402-.137 3.112 1.268 3.815l14.52 7.288v-6.362l-11.967-6.007c-1.407-.702-3.116-.135-3.82 1.267zm-96.565-33.036c-1.266.93-1.54 2.708-.61 3.974l13.065 17.81c.557.76 1.42 1.163 2.295 1.163.584 0 1.174-.18 1.68-.552 1.268-.928 1.54-2.707.61-3.974l-13.065-17.81c-.93-1.265-2.707-1.54-3.975-.61zm11.5 110.385c.544 0 1.093-.155 1.58-.48 1.302-.874 1.653-2.64.782-3.944l-12.28-18.36c-.874-1.305-2.64-1.656-3.944-.784-1.306.873-1.655 2.64-.784 3.945l12.28 18.36c.55.82 1.45 1.263 2.366 1.264zm23.44-58.022c-1.352-.8-3.096-.35-3.895 1l-11.236 19.02c-.8 1.352-.35 3.096 1.002 3.895.453.27.95.397 1.445.397.973 0 1.92-.5 2.45-1.398l11.235-19.02c.802-1.352.352-3.096-1-3.894zm-53.565-54.023c.352 0 .705-.063 1.045-.2 1.463-.578 2.178-2.23 1.6-3.69l-8.13-20.54c-.578-1.46-2.23-2.175-3.69-1.597-1.46.577-2.176 2.23-1.598 3.69l8.13 20.54c.438 1.117 1.513 1.8 2.643 1.797zm-7.187 35.65c.89 0 1.766-.417 2.32-1.195.912-1.28.613-3.056-.667-3.966l-17.993-12.81c-1.28-.913-3.052-.615-3.966.665-.91 1.28-.61 3.055.668 3.966l17.994 12.815c.502.357 1.078.528 1.647.528zm112.653 89.827c.91-1.28.61-3.054-.67-3.965l-17.992-12.813c-1.28-.91-3.054-.614-3.966.666-.91 1.28-.61 3.055.668 3.965l17.992 12.814c.5.356 1.078.528 1.648.528.89 0 1.764-.416 2.318-1.196h.003zm-52.29-13.6c.464.282.978.416 1.48.416.958 0 1.896-.483 2.433-1.362l11.502-18.857c.816-1.34.393-3.09-.947-3.908s-3.087-.394-3.907.947L74.21 1194.86c-.816 1.34-.393 3.09.947 3.907h-.002zm6.89 15.93L63.19 1226.21c-1.34.817-1.76 2.568-.945 3.908.537.878 1.47 1.363 2.43 1.363.504 0 1.016-.133 1.48-.415l18.853-11.51c1.34-.82 1.763-2.57.946-3.91-.82-1.342-2.57-1.765-3.91-.946zm52.238-164.33c-.76-1.37-2.493-1.865-3.866-1.103s-1.867 2.493-1.104 3.865l10.73 19.307c.52.936 1.488 1.465 2.488 1.465.467 0 .94-.116 1.38-.36 1.372-.762 1.866-2.494 1.103-3.866l-10.73-19.31zm-28.37 15.002c.193.037.387.056.57.056 1.324 0 2.51-.93 2.785-2.277l4.416-21.646c.317-1.54-.677-3.04-2.214-3.354-1.537-.313-3.04.68-3.355 2.217l-4.417 21.646c-.314 1.54.68 3.042 2.217 3.356zm-139.967-24.638c-.767-1.37-2.5-1.862-3.87-1.095-1.37.766-1.86 2.5-1.096 3.87l10.775 19.283c.52.93 1.487 1.456 2.484 1.456.467 0 .945-.117 1.383-.363 1.37-.766 1.86-2.498 1.094-3.87l-10.773-19.282zm-168.73 46.124l-4.922 21.533c-.35 1.53.61 3.055 2.14 3.405.214.047.427.07.637.07 1.294 0 2.466-.892 2.768-2.21l4.92-21.533c.352-1.53-.607-3.056-2.137-3.405-1.53-.35-3.056.605-3.406 2.137zm-55.22-14.083l-15.272 15.962c-1.083 1.133-1.044 2.933.09 4.02.55.527 1.258.79 1.966.79.75 0 1.496-.295 2.054-.88l15.272-15.96c1.084-1.135 1.044-2.935-.09-4.02-1.137-1.088-2.936-1.047-4.02.087zm148.135-51.52l-20.812-7.412c-1.48-.527-3.107.245-3.632 1.725-.527 1.48.245 3.105 1.723 3.633l20.81 7.412c.317.112.638.167.953.167 1.17 0 2.264-.727 2.68-1.89.53-1.48-.244-3.107-1.723-3.634zm28.153 74.754l-17.475 13.515c-1.24.96-1.47 2.747-.51 3.99.56.723 1.402 1.103 2.25 1.103.608 0 1.222-.194 1.737-.595l17.48-13.513c1.24-.96 1.47-2.748.508-3.99-.96-1.243-2.747-1.47-3.99-.51zm41.42-78.024c-1.24-.964-3.026-.74-3.99.5l-13.55 17.448c-.96 1.24-.737 3.028.504 3.99.518.404 1.133.6 1.742.6.848 0 1.688-.377 2.248-1.1l13.55-17.448c.96-1.24.735-3.026-.504-3.99zm-217.71 40.566c.49 0 .98-.126 1.434-.39 1.355-.79 1.813-2.534 1.02-3.89l-11.155-19.066c-.79-1.354-2.533-1.813-3.89-1.02-1.355.793-1.813 2.535-1.02 3.892l11.156 19.065c.527.905 1.48 1.41 2.456 1.408zm33.42 30.244c1.507-.454 2.357-2.04 1.903-3.544l-6.38-21.147c-.454-1.504-2.042-2.355-3.544-1.902-1.5.454-2.354 2.04-1.9 3.545l6.38 21.148c.37 1.23 1.5 2.023 2.72 2.023.273 0 .55-.04.823-.123zm45.63-4.214c.563.65 1.356.984 2.15.984.66 0 1.32-.228 1.86-.693l16.713-14.444c1.187-1.028 1.316-2.823.29-4.012-1.026-1.188-2.823-1.318-4.01-.29l-16.713 14.445c-1.187 1.027-1.318 2.822-.29 4.01zm53.313-14.99h.063c1.57-.035 2.817-1.334 2.783-2.903l-.477-22.084c-.036-1.57-1.337-2.803-2.905-2.782-1.57.034-2.816 1.335-2.783 2.905l.476 22.084c.034 1.55 1.3 2.782 2.843 2.78zm-56.793 55.492c-.793-1.355-2.537-1.81-3.89-1.016l-19.062 11.16c-1.355.794-1.81 2.537-1.017 3.89.53.905 1.48 1.407 2.458 1.407.488 0 .983-.126 1.433-.39l19.064-11.163c1.355-.793 1.81-2.536 1.016-3.89zm67.477-40.3c.466 1.066 1.508 1.7 2.602 1.7.382 0 .77-.077 1.143-.24l20.22-8.9c1.437-.63 2.09-2.308 1.456-3.746-.634-1.438-2.313-2.09-3.75-1.46l-20.218 8.9c-1.437.63-2.088 2.31-1.455 3.747zm-110.656-70.495l-16.21 15.007c-1.15 1.067-1.22 2.867-.153 4.02.56.605 1.322.91 2.087.91.69 0 1.384-.25 1.932-.755l16.21-15.01c1.15-1.065 1.22-2.865.153-4.017-1.07-1.153-2.866-1.222-4.02-.156zm51.805 143.16l2.537 21.943c.168 1.448 1.397 2.517 2.82 2.517.11 0 .22-.005.33-.018 1.56-.18 2.68-1.593 2.5-3.153l-2.538-21.944c-.18-1.56-1.594-2.68-3.15-2.498-1.56.18-2.678 1.59-2.5 3.152zm-72.593-59.296c-1.56.18-2.68 1.59-2.498 3.15l2.535 21.945c.167 1.45 1.395 2.518 2.82 2.518.11 0 .22-.007.33-.02 1.56-.178 2.68-1.59 2.5-3.15l-2.537-21.944c-.18-1.56-1.588-2.68-3.15-2.5zm104.42-105.9l-14.067 17.03c-1 1.21-.828 3.004.382 4.004.53.438 1.172.65 1.81.65.817 0 1.633-.35 2.194-1.03l14.07-17.03c1-1.21.83-3.004-.384-4.004-1.213-1-3.003-.83-4.005.382zm-84.24 160.41c-.704 1.4-.137 3.11 1.267 3.815l19.744 9.91c.408.206.844.302 1.27.302 1.043 0 2.045-.574 2.545-1.568.704-1.403.137-3.113-1.267-3.816l-19.744-9.91c-1.405-.705-3.114-.137-3.818 1.266zm141.17-123.626c-1.276-.915-3.05-.622-3.97.654l-12.87 17.954c-.914 1.277-.62 3.054.655 3.968.502.36 1.08.533 1.653.533.886 0 1.758-.412 2.314-1.187l12.87-17.953c.917-1.277.625-3.052-.652-3.968zM-71.1 1057.6c-.705 1.402-.14 3.11 1.266 3.814l19.744 9.91c.407.206.844.302 1.272.302 1.042 0 2.046-.574 2.545-1.568.704-1.403.138-3.114-1.267-3.817l-19.745-9.907c-1.403-.703-3.11-.136-3.816 1.267zm-96.566-33.038c-1.267.928-1.54 2.708-.61 3.975l13.065 17.813c.555.76 1.42 1.16 2.294 1.16.583 0 1.172-.178 1.68-.55 1.267-.928 1.54-2.708.61-3.974l-13.067-17.812c-.93-1.268-2.707-1.542-3.974-.612zm11.5 110.384c.542 0 1.09-.154 1.577-.48 1.308-.873 1.658-2.64.786-3.944l-12.283-18.362c-.873-1.304-2.64-1.656-3.944-.784-1.31.874-1.657 2.64-.787 3.946l12.284 18.362c.548.82 1.45 1.263 2.367 1.262zm19.544-57.02l-11.236 19.018c-.8 1.352-.35 3.096 1.002 3.895.454.266.953.394 1.444.394.974 0 1.92-.5 2.45-1.398l11.236-19.018c.8-1.353.35-3.097-1.002-3.896-1.35-.798-3.096-.35-3.894 1.002zm-49.67-55.023c.35 0 .703-.064 1.046-.2 1.46-.58 2.175-2.232 1.598-3.69l-8.13-20.54c-.58-1.46-2.233-2.175-3.692-1.598-1.46.58-2.175 2.23-1.598 3.69l8.13 20.54c.444 1.116 1.514 1.798 2.646 1.798zm-27.495 18.343c-.91 1.28-.612 3.055.667 3.966l17.995 12.813c.5.355 1.077.526 1.647.526.888 0 1.764-.414 2.317-1.193.91-1.28.61-3.054-.67-3.965l-17.993-12.812c-1.277-.91-3.053-.613-3.965.668zM-80.83 1148.38c.912-1.28.612-3.057-.666-3.967L-99.49 1131.6c-1.28-.91-3.054-.613-3.965.667-.913 1.28-.613 3.056.666 3.968l17.997 12.812c.5.356 1.076.528 1.646.528.89 0 1.766-.417 2.32-1.196zm-52.285-13.603c.464.284.974.418 1.48.418.956 0 1.892-.485 2.43-1.363l11.505-18.858c.814-1.34.39-3.09-.95-3.908-1.34-.818-3.088-.394-3.908.946l-11.505 18.858c-.815 1.34-.393 3.09.948 3.907zm-12.913 31.353c.536.877 1.473 1.362 2.43 1.362.504 0 1.017-.134 1.48-.416l18.853-11.512c1.342-.818 1.764-2.568.947-3.908-.817-1.34-2.57-1.763-3.91-.944l-18.853 11.51c-1.344.816-1.767 2.568-.95 3.908zm77.798-157.678c.52.936 1.487 1.464 2.487 1.464.468 0 .943-.117 1.38-.36 1.373-.762 1.866-2.494 1.104-3.866l-8.75-15.752h-6.51l10.29 18.514zm-36.347-10.427c-.315 1.54.68 3.042 2.217 3.355.192.04.384.058.573.058 1.32 0 2.507-.928 2.783-2.275l1.883-9.226h-5.807l-1.65 8.088zm-131.942.777c.52.933 1.49 1.458 2.487 1.458.47 0 .946-.117 1.383-.36 1.37-.767 1.86-2.5 1.095-3.87l-3.403-6.092h-6.514l4.953 8.864zm-176.683 49.08c1.296 0 2.467-.893 2.77-2.21l4.92-21.534c.35-1.532-.607-3.057-2.138-3.406-1.534-.348-3.057.608-3.407 2.138l-4.922 21.535c-.35 1.53.61 3.056 2.14 3.405.215.047.426.072.637.072zm-48.965-35.164c1.086-1.134 1.047-2.934-.086-4.02-1.136-1.085-2.936-1.046-4.022.087l-5.58 5.834v8.225l9.69-10.128zm172.18 19.303l-17.475 13.515c-1.242.96-1.47 2.747-.51 3.99.56.724 1.4 1.103 2.252 1.103.61 0 1.22-.193 1.736-.594l17.475-13.515c1.243-.96 1.47-2.748.51-3.99-.96-1.24-2.746-1.47-3.99-.51zm-178.746-38.865c.528.904 1.48 1.408 2.457 1.408.49 0 .985-.125 1.435-.39 1.356-.792 1.813-2.534 1.018-3.89l-.202-.344h-6.587l1.88 3.215zm31.397 6.96c-.452-1.502-2.04-2.355-3.543-1.9-1.503.454-2.354 2.04-1.9 3.544l6.38 21.146c.374 1.23 1.502 2.022 2.723 2.022.272 0 .55-.04.823-.122 1.504-.453 2.354-2.04 1.9-3.544l-6.382-21.146zm67.112 2.02l-16.71 14.45c-1.19 1.024-1.32 2.82-.292 4.01.563.648 1.355.983 2.152.983.66 0 1.32-.23 1.858-.693l16.712-14.447c1.187-1.027 1.318-2.822.29-4.01-1.025-1.19-2.823-1.32-4.01-.292zm33.47.687c.032 1.55 1.3 2.784 2.84 2.784h.063c1.57-.035 2.816-1.335 2.78-2.905l-.274-12.762h-5.687l.278 12.884zm-53.95 58.273c-.794-1.355-2.537-1.81-3.89-1.016l-19.064 11.16c-1.354.794-1.81 2.536-1.015 3.89.528.905 1.48 1.41 2.456 1.41.49 0 .983-.13 1.435-.394l19.063-11.162c1.353-.793 1.808-2.535 1.016-3.89zm89.148-52.942l-20.22 8.9c-1.436.63-2.087 2.31-1.455 3.747.468 1.064 1.51 1.7 2.604 1.7.38 0 .77-.08 1.143-.243l20.218-8.898c1.44-.63 2.09-2.31 1.46-3.75-.633-1.436-2.313-2.09-3.75-1.456zm-72.34 106.6l-2.533-21.944c-.18-1.56-1.592-2.686-3.152-2.5-1.56.18-2.677 1.592-2.497 3.15l2.537 21.945c.167 1.45 1.396 2.518 2.82 2.518.108 0 .22-.007.33-.02 1.56-.18 2.678-1.59 2.5-3.15h-.003zm-77.625-78.09c-.18-1.56-1.588-2.68-3.15-2.497-1.56.18-2.68 1.592-2.5 3.152l2.534 21.944c.167 1.448 1.396 2.516 2.82 2.516.108 0 .218-.006.328-.02 1.562-.18 2.68-1.59 2.5-3.15l-2.533-21.945zm17.03 52.01c-.705 1.404-.14 3.113 1.265 3.816l19.744 9.91c.408.205.844.3 1.272.3 1.04 0 2.044-.574 2.543-1.567.704-1.404.138-3.114-1.266-3.818l-19.744-9.91c-1.404-.7-3.113-.133-3.816 1.27zm178.682-86.42l-19.745-9.908c-1.403-.704-3.112-.138-3.815 1.266-.704 1.404-.138 3.113 1.266 3.816l19.743 9.91c.41.207.843.303 1.272.303 1.04 0 2.044-.575 2.544-1.57.702-1.402.135-3.11-1.267-3.816zm-118.546 45.92c-.87-1.304-2.638-1.656-3.943-.784-1.305.874-1.655 2.64-.783 3.945l12.28 18.36c.55.82 1.45 1.265 2.367 1.265.544 0 1.093-.156 1.578-.48 1.304-.874 1.656-2.64.784-3.946l-12.28-18.36zm33.36-35.236c-1.352-.8-3.096-.35-3.894 1l-11.236 19.02c-.8 1.352-.35 3.096 1 3.895.454.267.953.394 1.445.394.97 0 1.92-.5 2.45-1.397l11.235-19.02c.802-1.35.353-3.096-1-3.894zm-62.397-18.9c.5.356 1.076.528 1.648.528.89 0 1.764-.417 2.318-1.195.756-1.063.667-2.46-.114-3.43h-9.605l5.753 4.097zm114.297 90.354c.91-1.28.61-3.053-.667-3.966l-17.994-12.81c-1.28-.91-3.055-.613-3.967.666-.912 1.28-.612 3.055.667 3.966l17.994 12.813c.5.355 1.076.527 1.648.527.887 0 1.762-.415 2.318-1.195zm-37.823-37.313c-1.337-.816-3.087-.394-3.906.947l-11.504 18.86c-.817 1.34-.392 3.09.948 3.908.463.283.973.417 1.48.417.96 0 1.894-.485 2.43-1.365l11.503-18.857c.815-1.342.39-3.092-.95-3.91zm-3.67 40.592c-.816-1.34-2.566-1.764-3.906-.947l-18.854 11.51c-1.34.82-1.763 2.57-.944 3.91.536.88 1.47 1.363 2.43 1.363.503 0 1.015-.134 1.48-.416l18.852-11.513c1.34-.818 1.763-2.568.944-3.908zm-139.296 15.746l13.55-17.448c.962-1.24.738-3.026-.502-3.99-1.24-.963-3.025-.737-3.99.5l-11.026 14.202v7.805c.75-.074 1.47-.427 1.968-1.07zm3.253 31.902c.41.206.844.303 1.272.303 1.04 0 2.044-.574 2.543-1.567.703-1.403.138-3.11-1.265-3.815l-7.774-3.904v6.364l5.223 2.62zM25.84 997.108c-.795-1.356-2.537-1.813-3.89-1.018l-19.064 11.16c-1.353.795-1.81 2.537-1.016 3.893.527.903 1.48 1.408 2.456 1.408.486 0 .98-.125 1.435-.39L24.82 1001c1.355-.796 1.81-2.537 1.016-3.894h.004zm14.275 31.71c-.18-1.562-1.59-2.683-3.15-2.5-1.56.18-2.68 1.592-2.497 3.152l2.535 21.944c.166 1.452 1.396 2.518 2.82 2.518.11 0 .22-.006.33-.02 1.56-.18 2.678-1.59 2.496-3.152l-2.536-21.944v.002zm-78.206-33.55c.17 1.45 1.395 2.52 2.82 2.52.11 0 .22-.006.33-.018 1.56-.18 2.68-1.592 2.496-3.153l-.538-4.676h-5.724l.616 5.33zm20.142 29.417c-.704 1.402-.138 3.112 1.267 3.815l19.743 9.91c.41.205.845.3 1.273.3 1.044 0 2.046-.573 2.545-1.567.705-1.403.14-3.112-1.264-3.816l-19.744-9.91c-1.405-.703-3.114-.137-3.82 1.268zm67.69-18.98c.55.82 1.45 1.265 2.366 1.265.545 0 1.094-.156 1.58-.48 1.305-.874 1.654-2.64.783-3.945l-8.43-12.604H39.2l10.543 15.766zm77.038 10.73l-17.992-12.812c-1.28-.91-3.057-.613-3.967.667s-.61 3.055.67 3.966l17.99 12.813c.5.354 1.08.525 1.65.525.886 0 1.76-.417 2.317-1.194.908-1.28.61-3.055-.67-3.964h.003zm-52.57-13.545c-.815 1.34-.392 3.09.948 3.907.46.28.975.415 1.48.415.96 0 1.895-.482 2.432-1.362l9.703-15.913H82.11l-7.9 12.953zm7.835 19.838L63.19 1034.24c-1.34.818-1.76 2.568-.944 3.91.537.876 1.47 1.36 2.43 1.36.504 0 1.016-.133 1.48-.415l18.853-11.512c1.34-.818 1.762-2.568.945-3.91-.82-1.34-2.57-1.763-3.91-.945z"/>
</svg>