<svg xmlns="http://www.w3.org/2000/svg" width="60" height="60" viewBox="0 0 60 60">
  <path fill="#E4E4E4" d="M7.108 5l2.458-2.457c.58-.58.58-1.523-.002-2.106-.582-.582-1.524-.582-2.106 0l-2.46 2.458L2.542.437c-.58-.582-1.52-.582-2.103 0-.583.583-.583 1.526 0 2.106L2.894 5 .437 7.46c-.582.582-.582 1.524 0 2.106.582.582 1.524.582 2.106 0L5 7.106l2.457 2.458c.582.582 1.525.582 2.11 0 .58-.582.58-1.525-.003-2.106L7.108 5zm30 30l2.46-2.458c.576-.58.576-1.522-.005-2.104-.582-.582-1.524-.582-2.106 0L35 32.896l-2.46-2.458c-.578-.582-1.52-.582-2.104 0-.58.582-.58 1.525 0 2.104L32.896 35l-2.46 2.458c-.58.582-.58 1.525 0 2.106.583.58 1.526.58 2.107 0l2.46-2.456 2.454 2.456c.582.58 1.524.58 2.11 0 .577-.58.577-1.524-.004-2.106L37.107 35z"/>
</svg>