<svg id="Layer_1" xmlns="http://www.w3.org/2000/svg" width="900" height="900.6" viewBox="0 0 900 900.6">
  <path fill="#F2F2F2" d="M280.987 576.386c39.792-37.26 78.78-75.324 95.464-135.69 7.196-28.357 15.5-56.166 12.61-91.86-1.967-24.295-12.9-44.62-15.01-69.048-1.98-22.896 9.528-45.2 11.407-66.645 1.745-19.916.054-45.854-1.2-60.64-2.524-29.742-9.563-59.63-6.604-89.46C380.203 37.323 397.983 22.2 404.67 0h-33.623c-18.876 21.377-24.12 63.905-22.814 101.468 5.195 76.392-17.372 138.98-24.616 202.335-1.08 9.445-2.195 26.714-1.2 38.426 4.975 58.64-10.634 113.435-23.417 160.905-8.947 30.493-29.615 54.434-52.236 73.25-16.842 22.69-21.804 52.81-25.817 85.855-2.907 23.935-21.355 47.675-33.623 66.045-40.26 60.29-83.472 117.22-123.682 172.313h60.64c45.27-70.323 104.28-143.97 117.078-246.164 4.05-32.336 22.367-72.083 39.627-78.048zM63.643 779.92c-1.126 10.45-3.216 43.235 6.003 44.43 3.917.508 18.07-15.16 22.816-19.213 40.208-34.33 67.647-70.406 95.463-115.276 10.528-16.98 23.08-36.346 26.418-58.236 2.152-14.117-.142-28.604 1.2-42.03 5.506-55.054 55.11-69.085 61.843-126.082 4.86-41.155-3.337-88.568 0-127.885 2.995-35.305 18.51-63.755 21.614-99.667 2.554-29.56-2.63-57.108-4.803-82.254C288.334 85.868 339.227 0 339.227 0h-30.02c-20.74 35.27-44.148 68.585-48.634 118.88-3.36 37.675.484 81.83-2.4 116.477-3.39 40.697-29.49 62.875-33.624 105.07-6.433 65.626 11.826 140.57-19.815 181.922-12.782 16.7-11.457 36.57-11.408 63.04.045 24.472-10.19 49.967-18.612 70.246-8.908 21.447-20.15 40.212-41.428 48.032 1.244-27.54 5.926-51.83 7.805-79.855.633-9.437-.93-19.584 0-30.02 4.62-51.804 43.984-73.285 38.425-132.688-3.06-32.714-17.355-61.625-20.414-95.465-9.393-103.933 47.958-145.504 70.848-219.746-26.295 17.584-48.746 46.73-70.847 76.25-21.248 28.38-45.716 59.088-52.834 96.064-7.617 39.56 3.594 82.44 11.406 115.276 4.79 20.13 12.568 42.086 12.608 64.242.06 32.604-18.748 56.55-27.018 82.854-14.993-10.24-15.553-39.854-15.61-62.44-.02-7.796-.1-16.02.6-24.018 4.515-51.54-18.484-90.534-20.413-139.292.385-10.04 2.143-12.37 2.4-14.41 6.01-38.255 23.394-72.102 42.63-100.867C169.333 155.127 239.183 84.64 292.393 0h-48.63c-22.5 39.14-52.194 71.09-100.268 84.656-5.37-2.334-3.547-11.167-1.2-16.21C152.708 46.06 178.4 20.4 189.725 0h-33.02C107.89 56.655 64.503 118.742 0 159.706v64.244c36.766-29.89 82.9-56.778 129.086-73.25C102.87 206.54 35.54 221.864 0 268.38v50.433c8.395-11.955 18.78-41.162 36.624-30.02C21.74 318.938 8.237 350.463 0 387.257V900.6h7.206C27.923 838.436 37.18 767.506 43.23 693.462c1.41-17.275 1.542-45.45 0-63.643-2.518-29.65-17.622-53.142-20.415-82.856-6.205-66.04 8.543-121.013 22.815-172.315 2.85 43.413 20.836 77.362 16.812 122.48-5.152 57.763 22.226 89.786 27.018 138.69 3.26 33.265-4.948 69.265-11.407 96.065-4.172 17.31-12.74 32.54-14.41 48.035zM0 0v16.812C2.537 11.342 4.655 5.455 7.206 0H0zm124.283 0h-60.64C46.657 25.643 22.85 44.463 0 64.243v72.048C48.458 97.895 90.434 53.01 124.283 0zm183.722 640.628C357.782 569.224 450.408 522.52 465.91 421.48c1.86-12.133 1.05-21.786 2.402-35.422 2.747-27.708 12.456-56.3 18.012-84.658 8.018-40.936 21.324-81 16.81-130.286-2.583-28.223-16.395-45.107-19.212-73.85-3.492-35.65 4.298-65.746 6.604-97.264H450.9c-4.456 80.183-30.726 138.016-37.824 215.544-5.385 58.8 15.34 99.743 10.207 157.304-6.926 77.657-40.66 136.66-82.255 182.522-22.34 24.635-42.552 41.666-58.84 73.25-16.06 31.14-23.107 61.975-30.02 102.067-6.064 35.172-25.127 64.59-41.427 91.26-17.08 27.947-34.672 53.006-54.034 78.65h33.022c38.122-58.602 79.255-109.62 94.863-189.125 5.09-25.93 9.61-51.042 23.415-70.844zm229.354-466.51c1.2 14.9-5.598 29.103-7.81 43.227-3.126 19.967-3.535 40.497-5.403 60.64-3.52 37.932-16.414 69.554-25.816 100.267-1.805 5.9-1.926 12.85 0 19.213 16.788-6.797 22.286-24.295 33.023-36.023 26.098-28.507 56.205-51.863 79.253-81.054 23.952-30.34 39.317-64.468 46.23-114.076 5.583-40.07 14.927-66.792 32.42-93.062C704.49 50.377 725.887 31.948 733.69 0h-56.44c-12.535 47.788-37.282 80.233-48.632 130.288-3.404 15.018-1.622 31.86-4.2 48.63-6.53 42.427-30.77 75.91-57.64 99.067 9.218-29.146 3.512-61.298 6.604-89.46C581.212 117.222 631.545 74.94 634.624 0H583.59c5.523 60.71-26.815 87.224-36.022 136.89C525.063 93.257 558.824 51.895 558.973 0h-30.62c-1.3 40.653-18.654 70.996-9.605 108.072 4.72 19.343 16.8 43.636 18.61 66.046zm272.58 324.215c-2.98 33.415.384 67.958-2.403 99.063-2.252 25.15-6.012 49.04-10.807 72.05-4.77 22.897-14.15 43.568-16.21 66.645-2.278 25.555 3.607 48.5 6.004 73.25 3.23 33.39-12.993 62.55-17.412 91.26h58.84c16.222-34.81 28.716-71.482 24.615-118.275-1.856-21.21-13.596-41.055-15.608-63.645-2.715-30.418 7.984-53.072 10.205-79.854 4.39-52.986-13.143-101.935-9.007-148.298 6.02-67.483 35.73-119.522 61.84-171.714V268.38c-30.554 42.773-45.596 107.802-69.646 160.305-10.36 22.617-17.934 41.837-20.413 69.648zM772.715 181.32c34.434-44.422 74.8-82.903 108.07-128.486C886.88 41.314 893.59 28.01 900 16.81V0h-40.826C818.82 107.096 706.307 145.482 692.862 279.186c-3.91 38.898-25.044 63.032-37.227 92.46-40.793 84.918-97.717 153.473-169.912 208.34-41.377 31.445-101.4 66.232-109.27 129.086-9.4 75.062-26.67 144.796-67.247 191.526h29.972c25.72-40.79 40.503-84.564 55.285-136.29 30.17-105.572 118.367-143.632 209.54-189.728-11.93 15.705-25 31.8-38.426 48.033-9.276 16.877-33.058 25.94-50.435 38.426-22.732 11.502-49.186 34.22-66.644 59.44-34.92 50.436-45.618 128.44-77.453 180.118h33.623c8.438-30.85 15.195-60.462 27.02-90.06 12.73-31.868 26.94-70.058 46.23-84.657 5.86-4.435 22.686-11.122 25.816-1.8-25.524 50.526-50.47 102.833-52.835 176.517h39.625c4.616-36.01 11.447-70.405 18.013-104.47 1.747 39.68 11.757 71.097 19.813 104.47h30.62c-3.244-31.777-16.086-53.96-21.612-83.456-.52-18.75-.038-45.864 3.6-61.84 19.636-86.22 73.612-152.855 130.288-210.14 28.21-28.514 51.313-61.983 70.246-100.268 18.67-37.752 37.444-75.815 49.232-121.28 4.835-18.653 4.97-40.214 6.604-63.042 5.05-70.492 56.383-91.58 102.67-124.283V64.243C834.21 120.047 781.506 181.66 757.102 280.388c-17.797 71.996-37.23 136.053-74.45 190.327-24.728 18.9-48.454 38.805-78.052 52.834 23.494-74.573 74.853-124.48 101.468-193.93 1.324-2.573 30.534-117.766 66.646-148.3h.002zM647.232 658.64c13.07-26.195 32.45-48.325 40.227-76.252-14.66.704-29.73 25.4-40.83 39.027-38.04 46.71-90.805 103.866-83.455 192.127 2.655 31.888 16.267 56.348 20.414 87.058h51.033c-2.245-55.2-25.354-98.016-17.413-154.303 4.63-32.8 17.228-62.02 30.022-87.657zM358.44 686.858c58.683-105.023 174.194-153.226 226.35-264.777 0-1.4 30.268-62.42 44.43-81.052 9.985-13.14 21.27-22.278 28.82-34.824 11.64-19.346 19.673-42.11 27.017-69.646 6.775-25.404 6.325-59.37 14.41-83.456C749.36 109.135 792.777 58.688 827.953 0h-58.84c-18.323 51.322-43.17 96.123-76.25 132.688-22.297 29.94-18.29 86.18-37.228 119.48-21.1 59.814-62.408 102.518-101.467 145.296-39.265 43.005-74.09 89.298-113.477 132.688-29.145 36.9-60.79 71.3-92.46 105.67l-6.605 9.606c-23.002 32.077-28.015 76.362-33.622 123.68-6.55 55.286-39.98 94.63-64.242 131.488h48.63c27.918-41 53.555-91.984 59.44-154.9 1.787-19.067-.02-42.327 6.607-58.84l.003.002zm531.354-185.523c6.228 61.76-16.703 105.52-21.014 157.305-1.855 22.27-2.056 46.502.6 67.847 2.47 19.87 9.656 38.8 11.407 59.438 3.555 41.9-15.284 79.113-21.613 114.676H900V387.274c-10.59 31.822-13.88 77.626-10.206 114.062zM824.35 271.38c-5.21 82.528-73.443 191.558-74.45 194.53-.34 1.01-29.87 66.472-33.62 109.272-2.663 30.403.944 58.31-1.802 86.457-4.16 42.62-25.02 78.266-29.42 117.68-4.782 42.816 3.475 87.026-7.806 121.28h56.438c2.85-15.446 6.636-29.58 5.403-44.43-3.305-39.88-7.345-68.303 0-104.47 7.186-35.38 20.638-72.596 16.813-117.682-2.81-33.104-5.817-62.73-2.402-97.863 6.534-67.254 43.43-106.952 64.243-163.31 10.91-29.54 14.875-60.196 27.017-86.458 11.97-25.885 54.88-62.268 55.237-62.443V159.7c-32.88 28.296-72.066 54.91-75.65 111.68z"/>
</svg>