<svg version="1.1" id="amoskeag-flag" xmlns="http://www.w3.org/2000/svg" xmlns:xlink="http://www.w3.org/1999/xlink" x="0px"
	 y="0px" width="213px" height="138px" viewBox="0 0 213 138" enable-background="new 0 0 213 138" xml:space="preserve">
<path fill="none" stroke="#000000" d="M32.057,10h23.599c8.357,0,15.576,5.846,17.314,14.02L82.53,69l0,0l9.562,44.981
	c1.737,8.174,8.957,14.02,17.313,14.02"/>
<path data-duration="32" data-start="5" fill="none" stroke="#000000" d="M32.057,10c8.357,0,15.575,5.846,17.313,14.02L58.931,69l0,0l9.562,44.98
	C70.23,122.154,77.448,128,85.804,128h23.601"/>
<path fill="none" stroke="#000000" d="M67.826,10h23.6c8.357,0,15.576,5.845,17.314,14.02L118.3,69l0,0l9.562,44.98
	c1.738,8.174,8.957,14.02,17.314,14.02"/>
<path data-duration="32" data-start="5" fill="none" stroke="#000000" d="M67.827,10c8.356,0,15.575,5.845,17.313,14.019L94.7,69l0,0l9.561,44.98
	c1.738,8.174,8.956,14.02,17.314,14.02h23.601"/>
<path fill="none" stroke="#000000" d="M103.597,10h23.6c8.357,0,15.574,5.845,17.312,14.02L154.07,69l0,0l9.562,44.98
	c1.737,8.174,8.956,14.02,17.312,14.02"/>
<path data-duration="32" data-start="5" fill="none" stroke="#000000" d="M103.598,10c8.356,0,15.574,5.845,17.313,14.019L130.471,69l0,0l9.563,44.98
	c1.735,8.174,8.956,14.02,17.312,14.02h23.6"/>
</svg>
