<svg version="1.1" id="careers" xmlns="http://www.w3.org/2000/svg" xmlns:xlink="http://www.w3.org/1999/xlink" x="0px" y="0px"
	 width="213px" height="128px" viewBox="0 0 213 128" enable-background="new 0 0 213 128" xml:space="preserve">
	<path fill="none" stroke="#000000" d="M85.398,31.107c0,11.658,9.451,25.07,21.107,25.07c11.659,0,21.106-13.412,21.106-25.07"/>
	<path fill="none" stroke="#000000" d="M127.611,31.107c0-11.657-9.447-21.107-21.106-21.107c-11.657,0-21.107,9.45-21.107,21.107"/>
	<path fill="none" stroke="#000000" d="M42.235,77.602c11.658,0,21.107-13.413,21.107-25.069c0-11.658-9.449-21.107-21.107-21.107
		c-11.658,0-21.108,9.45-21.108,21.107C21.127,64.188,30.578,77.602,42.235,77.602"/>
	<path fill="none" stroke="#000000" d="M42.24,115.417H0.016c0,0,1.174-22.295,13.747-28.498c6.166-3.042,13.134-4.47,18.635-5.135
		c2.939,2.063,6.287,3.316,9.842,3.316"/>
	<path fill="none" stroke="#000000" d="M42.225,85.1c3.556,0,6.904-1.252,9.844-3.316c5.503,0.664,12.475,2.093,18.646,5.136
		c12.573,6.203,13.746,28.498,13.746,28.498H42.225"/>
	<path fill="none" stroke="#000000" d="M170.77,115.416h0.013h42.225c0,0-1.174-22.295-13.748-28.498
		c-6.166-3.042-13.133-4.47-18.635-5.135c-2.938,2.063-6.287,3.316-9.842,3.316"/>
	<path fill="none" stroke="#000000" d="M170.781,85.1c-3.557,0-6.904-1.252-9.844-3.316c-5.502,0.664-12.476,2.093-18.646,5.136
		c-12.574,6.203-13.746,28.498-13.746,28.498h42.224"/>
	<path fill="none" stroke="#000000" d="M170.775,77.602c-11.659,0-21.107-13.413-21.107-25.069c0-11.658,9.448-21.107,21.107-21.107
		c11.656,0,21.105,9.45,21.105,21.107C191.882,64.188,182.432,77.602,170.775,77.602"/>
	<path fill="none" stroke="#000000" d="M106.505,63.675c-3.555,0-6.904-1.252-9.843-3.317c-5.502,0.666-12.475,2.093-18.646,5.137
		c-5.503,2.714-8.822,8.513-10.815,14.174c2.63,0.763,5.279,1.724,7.796,2.966c4.589,2.264,7.654,6.672,9.704,11.357h21.793"/>
	<path fill="none" stroke="#000000" d="M106.495,93.992h0.011h21.793c2.049-4.686,5.115-9.094,9.703-11.357
		c2.518-1.242,5.168-2.203,7.796-2.965c-1.993-5.662-5.313-11.461-10.813-14.175c-6.168-3.042-13.135-4.47-18.637-5.136
		c-2.938,2.064-6.285,3.316-9.842,3.316"/>
</svg>
