<svg version="1.1" id="responsive" xmlns="http://www.w3.org/2000/svg" xmlns:xlink="http://www.w3.org/1999/xlink" x="0px" y="0px"
	 width="213px" height="128px" viewBox="0 0 213 128" enable-background="new 0 0 213 128" xml:space="preserve">
	
	<!-- nav (upper, lower) -->
	<polyline fill="none" stroke="#000000" stroke-linecap="round" stroke-linejoin="round" points="1,1 212,1 212,12.367 "/>
	<polyline fill="none" stroke="#000000" stroke-linecap="round" stroke-linejoin="round" points="212,13 1,13 1,1 "/>

	
	<!-- banner (upper, lower) -->
	<polyline fill="none" stroke="#000000" stroke-linecap="round" stroke-linejoin="round" points="212,23 1,23 1,73"/>
	<polyline fill="none" stroke="#000000" stroke-linecap="round" stroke-linejoin="round" points="1,73 212,73  212,23"/>

	<!-- margin boxes -->
	<g>
		<path fill="none" stroke="#000000" stroke-linecap="round" stroke-linejoin="round" d="M202,92c0,1.65-1.35,3-3,3h-54
			c-1.65,0-3-1.35-3-3v-9c0-1.65,1.35-3,3-3h54c1.65,0,3,1.35,3,3V92z"/>
	</g>

	<g>
		<path fill="none" stroke="#000000" stroke-linecap="round" stroke-linejoin="round" d="M202,103c0-1.65-1.35-3-3-3h-54
			c-1.65,0-3,1.35-3,3v20c0,1.65,1.35,3,3,3h54c1.65,0,3-1.35,3-3V103z"/>
	</g>

	<!-- text -->
	<line fill="#FFFFFF" stroke="#000000" stroke-linecap="round" stroke-linejoin="round" x1="10" y1="79.334" x2="86.427" y2="79.334"/>
	<line fill="#FFFFFF" stroke="#000000" stroke-linecap="round" stroke-linejoin="round" x1="10" y1="88.34" x2="76.591" y2="88.34"/>
	<line fill="#FFFFFF" stroke="#000000" stroke-linecap="round" stroke-linejoin="round" x1="10" y1="92.847" x2="111.877" y2="92.847"/>
	<line fill="#FFFFFF" stroke="#000000" stroke-linecap="round" stroke-linejoin="round" x1="10" y1="97.354" x2="95.51" y2="97.354"/>
	<line fill="#FFFFFF" stroke="#000000" stroke-linecap="round" stroke-linejoin="round" x1="10" y1="101.86" x2="53.168" y2="101.86"/>
	<line fill="#FFFFFF" stroke="#000000" stroke-linecap="round" stroke-linejoin="round" x1="10" y1="109.363" x2="98.964" y2="109.363"/>
	<line fill="#FFFFFF" stroke="#000000" stroke-linecap="round" stroke-linejoin="round" x1="10" y1="113.87" x2="80.946" y2="113.87"/>
	<line fill="#FFFFFF" stroke="#000000" stroke-linecap="round" stroke-linejoin="round" x1="10" y1="118.377" x2="87.402" y2="118.377"/>
	<line fill="#FFFFFF" stroke="#000000" stroke-linecap="round" stroke-linejoin="round" x1="10" y1="122.884" x2="29.294" y2="122.884"/>
</svg>
